<svg viewBox="0 0 2000 1400" fill="none" xmlns="http://www.w3.org/2000/svg">
<g clip-path="url(#clip0_1973_90475)">
<g clip-path="url(#clip1_1973_90475)">
<path d="M942.646 1349.65L891.176 1349.65" stroke="#6349FF" stroke-width="4.41177" stroke-linejoin="bevel"/>
<path d="M950.352 1342.65L950.352 1291.18" stroke="#6349FF" stroke-width="4.41177" stroke-linejoin="bevel"/>
<path d="M955.452 1345.05L991.848 1308.66" stroke="#6349FF" stroke-width="4.41177" stroke-linejoin="bevel"/>
</g>
<g clip-path="url(#clip2_1973_90475)">
<path d="M657.354 1349.65L708.824 1349.65" stroke="#6349FF" stroke-width="4.41177" stroke-linejoin="bevel"/>
<path d="M650.352 1342.65L650.352 1291.18" stroke="#6349FF" stroke-width="4.41177" stroke-linejoin="bevel"/>
<path d="M642.646 1349.65L591.176 1349.65" stroke="#6349FF" stroke-width="4.41177" stroke-linejoin="bevel"/>
<path d="M642.646 1364.35L591.176 1364.35" stroke="#6349FF" stroke-width="4.41177" stroke-linejoin="bevel"/>
<path d="M642.646 1379.06L591.176 1379.06" stroke="#6349FF" stroke-width="4.41177" stroke-linejoin="bevel"/>
<path d="M642.646 1392.29L591.176 1392.29" stroke="#6349FF" stroke-width="4.41177" stroke-linejoin="bevel"/>
<path d="M655.452 1345.05L691.848 1308.66" stroke="#6349FF" stroke-width="4.41177" stroke-linejoin="bevel"/>
</g>
<g clip-path="url(#clip3_1973_90475)">
<path d="M742.646 1349.65L691.176 1349.65" stroke="#6349FF" stroke-width="4.41177" stroke-linejoin="bevel"/>
<path d="M757.354 1364.35L808.824 1364.35" stroke="#6349FF" stroke-width="4.41177" stroke-linejoin="bevel"/>
<path d="M757.354 1379.06L808.824 1379.06" stroke="#6349FF" stroke-width="4.41177" stroke-linejoin="bevel"/>
<path d="M757.354 1392.29L808.824 1392.29" stroke="#6349FF" stroke-width="4.41177" stroke-linejoin="bevel"/>
<path d="M742.646 1364.35L691.176 1364.35" stroke="#6349FF" stroke-width="4.41177" stroke-linejoin="bevel"/>
<path d="M742.646 1379.06L691.176 1379.06" stroke="#6349FF" stroke-width="4.41177" stroke-linejoin="bevel"/>
<path d="M742.646 1392.29L691.176 1392.29" stroke="#6349FF" stroke-width="4.41177" stroke-linejoin="bevel"/>
</g>
<g clip-path="url(#clip4_1973_90475)">
<path d="M557.354 1349.65L608.824 1349.65" stroke="#6349FF" stroke-width="4.41177" stroke-linejoin="bevel"/>
<path d="M542.646 1349.65L491.176 1349.65" stroke="#6349FF" stroke-width="4.41177" stroke-linejoin="bevel"/>
<path d="M542.646 1364.35L491.176 1364.35" stroke="#6349FF" stroke-width="4.41177" stroke-linejoin="bevel"/>
<path d="M542.646 1379.06L491.176 1379.06" stroke="#6349FF" stroke-width="4.41177" stroke-linejoin="bevel"/>
<path d="M542.646 1392.29L491.176 1392.29" stroke="#6349FF" stroke-width="4.41177" stroke-linejoin="bevel"/>
<path d="M557.354 1364.35L608.824 1364.35" stroke="#6349FF" stroke-width="4.41177" stroke-linejoin="bevel"/>
<path d="M557.354 1379.06L608.824 1379.06" stroke="#6349FF" stroke-width="4.41177" stroke-linejoin="bevel"/>
<path d="M557.354 1392.29L608.824 1392.29" stroke="#6349FF" stroke-width="4.41177" stroke-linejoin="bevel"/>
</g>
<g clip-path="url(#clip5_1973_90475)">
<path d="M1457.35 1049.65L1508.82 1049.65" stroke="#6349FF" stroke-width="4.41177" stroke-linejoin="bevel"/>
<path d="M1442.65 1049.65L1391.18 1049.65" stroke="#6349FF" stroke-width="4.41177" stroke-linejoin="bevel"/>
<path d="M1445.05 1044.55L1408.65 1008.16" stroke="#6349FF" stroke-width="4.41177" stroke-linejoin="bevel"/>
<path d="M1450.35 1042.65L1450.35 991.18" stroke="#6349FF" stroke-width="4.41177" stroke-linejoin="bevel"/>
</g>
<g clip-path="url(#clip6_1973_90475)">
<path d="M457.354 1349.65L508.824 1349.65" stroke="#6349FF" stroke-width="4.41177" stroke-linejoin="bevel"/>
<path d="M442.646 1350.65L391.176 1350.65" stroke="#6349FF" stroke-width="4.41177" stroke-linejoin="bevel"/>
<path d="M442.646 1364.35L391.176 1364.35" stroke="#6349FF" stroke-width="4.41177" stroke-linejoin="bevel"/>
<path d="M442.646 1379.06L391.176 1379.06" stroke="#6349FF" stroke-width="4.41177" stroke-linejoin="bevel"/>
<path d="M442.646 1392.29L391.176 1392.29" stroke="#6349FF" stroke-width="4.41177" stroke-linejoin="bevel"/>
<path d="M457.354 1379.06L508.824 1379.06" stroke="#6349FF" stroke-width="4.41177" stroke-linejoin="bevel"/>
</g>
<g clip-path="url(#clip7_1973_90475)">
<path d="M1342.65 1349.65L1291.18 1349.65" stroke="#6349FF" stroke-width="4.41177" stroke-linejoin="bevel"/>
<path d="M1357.35 1349.65L1408.82 1349.65" stroke="#6349FF" stroke-width="4.41177" stroke-linejoin="bevel"/>
<path d="M1357.35 1364.35L1408.82 1364.35" stroke="#6349FF" stroke-width="4.41177" stroke-linejoin="bevel"/>
<path d="M1357.35 1307L1408.82 1307" stroke="#6349FF" stroke-width="4.41177" stroke-linejoin="bevel"/>
<path d="M1357.35 1379.06L1408.82 1379.06" stroke="#6349FF" stroke-width="4.41177" stroke-linejoin="bevel"/>
<path d="M1357.35 1321.71L1408.82 1321.71" stroke="#6349FF" stroke-width="4.41177" stroke-linejoin="bevel"/>
<path d="M1342.65 1364.35L1291.18 1364.35" stroke="#6349FF" stroke-width="4.41177" stroke-linejoin="bevel"/>
<path d="M1342.65 1379.06L1291.18 1379.06" stroke="#6349FF" stroke-width="4.41177" stroke-linejoin="bevel"/>
<path d="M1342.65 1392.29L1291.18 1392.29" stroke="#6349FF" stroke-width="4.41177" stroke-linejoin="bevel"/>
<path d="M1342.65 1334.94L1291.18 1334.94" stroke="#6349FF" stroke-width="4.41177" stroke-linejoin="bevel"/>
</g>
<g clip-path="url(#clip8_1973_90475)">
<path d="M549.645 1042.65L549.645 991.176" stroke="#6349FF" stroke-width="4.41177" stroke-linejoin="bevel"/>
<path d="M549.648 1057.35L549.648 1108.82" stroke="#6349FF" stroke-width="4.41177" stroke-linejoin="bevel"/>
<path d="M555.023 1055.42L591.418 1091.82" stroke="#6349FF" stroke-width="4.41177" stroke-linejoin="bevel"/>
<path d="M507 1057.35L507 1108.82" stroke="#6349FF" stroke-width="4.41177" stroke-linejoin="bevel"/>
<path d="M521.707 1057.35L521.707 1108.82" stroke="#6349FF" stroke-width="4.41177" stroke-linejoin="bevel"/>
<path d="M557.354 1049.64L608.824 1049.64" stroke="#6349FF" stroke-width="4.41177" stroke-linejoin="bevel"/>
<path d="M535.648 1057.35L535.648 1108.82" stroke="#6349FF" stroke-width="4.41177" stroke-linejoin="bevel"/>
</g>
<g clip-path="url(#clip9_1973_90475)">
<path d="M557.354 749.648L608.824 749.648" stroke="#6349FF" stroke-width="4.41177" stroke-linejoin="bevel"/>
<path d="M542.646 749.648L491.176 749.648" stroke="#6349FF" stroke-width="4.41177" stroke-linejoin="bevel"/>
<path d="M550.383 742.721L550.383 691.25" stroke="#6349FF" stroke-width="4.41177" stroke-linejoin="bevel"/>
<path d="M550.352 757.354L550.352 808.824" stroke="#6349FF" stroke-width="4.41177" stroke-linejoin="bevel"/>
</g>
<g clip-path="url(#clip10_1973_90475)">
<path d="M1157.35 249.648L1208.82 249.648" stroke="#6349FF" stroke-width="4.41177" stroke-linejoin="bevel"/>
<path d="M1142.65 249.648L1091.18 249.648" stroke="#6349FF" stroke-width="4.41177" stroke-linejoin="bevel"/>
<path d="M1150.38 242.721L1150.38 191.25" stroke="#6349FF" stroke-width="4.41177" stroke-linejoin="bevel"/>
<path d="M1150.35 257.354L1150.35 308.824" stroke="#6349FF" stroke-width="4.41177" stroke-linejoin="bevel"/>
</g>
<g clip-path="url(#clip11_1973_90475)">
<path d="M1242.65 1349.65L1191.18 1349.65" stroke="#6349FF" stroke-width="4.41177" stroke-linejoin="bevel"/>
<path d="M1257.35 1364.35L1308.82 1364.35" stroke="#6349FF" stroke-width="4.41177" stroke-linejoin="bevel"/>
<path d="M1257.35 1379.06L1308.82 1379.06" stroke="#6349FF" stroke-width="4.41177" stroke-linejoin="bevel"/>
<path d="M1257.35 1321.71L1308.82 1321.71" stroke="#6349FF" stroke-width="4.41177" stroke-linejoin="bevel"/>
<path d="M1257.35 1392.29L1308.82 1392.29" stroke="#6349FF" stroke-width="4.41177" stroke-linejoin="bevel"/>
<path d="M1257.35 1334.94L1308.82 1334.94" stroke="#6349FF" stroke-width="4.41177" stroke-linejoin="bevel"/>
<path d="M1242.65 1379.06L1191.18 1379.06" stroke="#6349FF" stroke-width="4.41177" stroke-linejoin="bevel"/>
<path d="M1242.65 1392.29L1191.18 1392.29" stroke="#6349FF" stroke-width="4.41177" stroke-linejoin="bevel"/>
</g>
<g clip-path="url(#clip12_1973_90475)">
<path d="M1558.53 1307L1610 1307" stroke="#6349FF" stroke-width="4.41177" stroke-linejoin="bevel"/>
<path d="M1558.53 1321L1610 1321" stroke="#6349FF" stroke-width="4.41177" stroke-linejoin="bevel"/>
<path d="M1543.82 1335L1492.35 1335" stroke="#6349FF" stroke-width="4.41177" stroke-linejoin="bevel"/>
<path d="M1543.82 1349L1492.35 1349" stroke="#6349FF" stroke-width="4.41177" stroke-linejoin="bevel"/>
<path d="M1558.53 1363L1610 1363" stroke="#6349FF" stroke-width="4.41177" stroke-linejoin="bevel"/>
<path d="M1558.53 1377L1610 1377" stroke="#6349FF" stroke-width="4.41177" stroke-linejoin="bevel"/>
<path d="M1543.82 1377L1492.35 1377" stroke="#6349FF" stroke-width="4.41177" stroke-linejoin="bevel"/>
<path d="M1558.53 1391L1610 1391" stroke="#6349FF" stroke-width="4.41177" stroke-linejoin="bevel"/>
<path d="M1543.82 1391L1492.35 1391" stroke="#6349FF" stroke-width="4.41177" stroke-linejoin="bevel"/>
</g>
<g clip-path="url(#clip13_1973_90475)">
<path d="M1641.47 1307L1590 1307" stroke="#6349FF" stroke-width="4.41177" stroke-linejoin="bevel"/>
<path d="M1641.47 1321L1590 1321" stroke="#6349FF" stroke-width="4.41177" stroke-linejoin="bevel"/>
<path d="M1641.47 1335L1590 1335" stroke="#6349FF" stroke-width="4.41177" stroke-linejoin="bevel"/>
<path d="M1658.53 1349L1710 1349" stroke="#6349FF" stroke-width="4.41177" stroke-linejoin="bevel"/>
<path d="M1651.53 1356.71L1651.53 1408.18" stroke="#6349FF" stroke-width="4.41177" stroke-linejoin="bevel"/>
<path d="M1656.62 1354.3L1693.02 1390.7" stroke="#6349FF" stroke-width="4.41177" stroke-linejoin="bevel"/>
</g>
<g clip-path="url(#clip14_1973_90475)">
<path d="M1651 958.529L1651 1010" stroke="#6349FF" stroke-width="4.41177" stroke-linejoin="bevel"/>
<path d="M1658 950.824L1709.47 950.824" stroke="#6349FF" stroke-width="4.41177" stroke-linejoin="bevel"/>
<path d="M1658 937L1709.47 937" stroke="#6349FF" stroke-width="4.41177" stroke-linejoin="bevel"/>
<path d="M1658 923L1709.47 923" stroke="#6349FF" stroke-width="4.41177" stroke-linejoin="bevel"/>
<path d="M1658 909L1709.47 909" stroke="#6349FF" stroke-width="4.41177" stroke-linejoin="bevel"/>
<path d="M1645.7 956.624L1609.3 993.02" stroke="#6349FF" stroke-width="4.41177" stroke-linejoin="bevel"/>
</g>
<g clip-path="url(#clip15_1973_90475)">
<path d="M857.354 1349.65L908.824 1349.65" stroke="#6349FF" stroke-width="4.41177" stroke-linejoin="bevel"/>
<path d="M842.646 1364.35L791.176 1364.35" stroke="#6349FF" stroke-width="4.41177" stroke-linejoin="bevel"/>
<path d="M842.646 1379.06L791.176 1379.06" stroke="#6349FF" stroke-width="4.41177" stroke-linejoin="bevel"/>
<path d="M842.646 1392.29L791.176 1392.29" stroke="#6349FF" stroke-width="4.41177" stroke-linejoin="bevel"/>
<path d="M857.354 1364.35L908.824 1364.35" stroke="#6349FF" stroke-width="4.41177" stroke-linejoin="bevel"/>
<path d="M857.354 1379.06L908.824 1379.06" stroke="#6349FF" stroke-width="4.41177" stroke-linejoin="bevel"/>
<path d="M857.354 1392.29L908.824 1392.29" stroke="#6349FF" stroke-width="4.41177" stroke-linejoin="bevel"/>
</g>
<g clip-path="url(#clip16_1973_90475)">
<path d="M1042.65 1364.35L991.176 1364.35" stroke="#6349FF" stroke-width="4.41177" stroke-linejoin="bevel"/>
<path d="M1042.65 1379.06L991.176 1379.06" stroke="#6349FF" stroke-width="4.41177" stroke-linejoin="bevel"/>
<path d="M1042.65 1392.29L991.176 1392.29" stroke="#6349FF" stroke-width="4.41177" stroke-linejoin="bevel"/>
<path d="M1057.35 1379.06L1108.82 1379.06" stroke="#6349FF" stroke-width="4.41177" stroke-linejoin="bevel"/>
<path d="M1057.35 1392.29L1108.82 1392.29" stroke="#6349FF" stroke-width="4.41177" stroke-linejoin="bevel"/>
</g>
<g clip-path="url(#clip17_1973_90475)">
<path d="M1149.65 1257.35L1149.65 1308.82" stroke="#6349FF" stroke-width="4.41177" stroke-linejoin="bevel"/>
<path d="M1142.65 1250.36L1091.18 1250.36" stroke="#6349FF" stroke-width="4.41177" stroke-linejoin="bevel"/>
<path d="M1149.64 1242.65L1149.64 1191.18" stroke="#6349FF" stroke-width="4.41177" stroke-linejoin="bevel"/>
<path d="M1164.35 1242.65L1164.35 1191.18" stroke="#6349FF" stroke-width="4.41177" stroke-linejoin="bevel"/>
<path d="M1179.06 1242.65L1179.06 1191.18" stroke="#6349FF" stroke-width="4.41177" stroke-linejoin="bevel"/>
<path d="M1192.29 1242.65L1192.29 1191.18" stroke="#6349FF" stroke-width="4.41177" stroke-linejoin="bevel"/>
<path d="M1145.05 1255.45L1108.66 1291.84" stroke="#6349FF" stroke-width="4.41177" stroke-linejoin="bevel"/>
</g>
<g clip-path="url(#clip18_1973_90475)">
<path d="M1549.65 1242.65L1549.65 1191.18" stroke="#6349FF" stroke-width="4.41177" stroke-linejoin="bevel"/>
<path d="M1557.35 1264.36L1608.82 1264.36" stroke="#6349FF" stroke-width="4.41177" stroke-linejoin="bevel"/>
<path d="M1557.35 1279.06L1608.82 1279.06" stroke="#6349FF" stroke-width="4.41177" stroke-linejoin="bevel"/>
<path d="M1557.35 1292.3L1608.82 1292.3" stroke="#6349FF" stroke-width="4.41177" stroke-linejoin="bevel"/>
<path d="M1544.55 1245.05L1508.16 1208.66" stroke="#6349FF" stroke-width="4.41177" stroke-linejoin="bevel"/>
<path d="M1542.65 1249.64L1491.18 1249.64" stroke="#6349FF" stroke-width="4.41177" stroke-linejoin="bevel"/>
</g>
<g clip-path="url(#clip19_1973_90475)">
<path d="M1257.35 1250.35L1308.82 1250.35" stroke="#6349FF" stroke-width="4.41177" stroke-linejoin="bevel"/>
<path d="M1250.35 1257.35L1250.35 1308.82" stroke="#6349FF" stroke-width="4.41177" stroke-linejoin="bevel"/>
<path d="M1242.65 1235.65L1191.18 1235.65" stroke="#6349FF" stroke-width="4.41177" stroke-linejoin="bevel"/>
<path d="M1242.65 1220.94L1191.18 1220.94" stroke="#6349FF" stroke-width="4.41177" stroke-linejoin="bevel"/>
<path d="M1242.65 1207.71L1191.18 1207.71" stroke="#6349FF" stroke-width="4.41177" stroke-linejoin="bevel"/>
<path d="M1255.45 1254.95L1291.85 1291.34" stroke="#6349FF" stroke-width="4.41177" stroke-linejoin="bevel"/>
</g>
<g clip-path="url(#clip20_1973_90475)">
<path d="M1149.64 1142.65L1149.64 1091.18" stroke="#6349FF" stroke-width="4.41177" stroke-linejoin="bevel"/>
<path d="M1142.65 1149.65L1091.18 1149.65" stroke="#6349FF" stroke-width="4.41177" stroke-linejoin="bevel"/>
<path d="M1179.06 1157.35L1179.06 1208.82" stroke="#6349FF" stroke-width="4.41177" stroke-linejoin="bevel"/>
<path d="M1192.3 1157.35L1192.3 1208.82" stroke="#6349FF" stroke-width="4.41177" stroke-linejoin="bevel"/>
</g>
<g clip-path="url(#clip21_1973_90475)">
<path d="M949.648 1157.35L949.648 1208.82" stroke="#6349FF" stroke-width="4.41177" stroke-linejoin="bevel"/>
<path d="M957.354 1150.35L1008.82 1150.35" stroke="#6349FF" stroke-width="4.41177" stroke-linejoin="bevel"/>
<path d="M942.646 1149.65L891.176 1149.65" stroke="#6349FF" stroke-width="4.41177" stroke-linejoin="bevel"/>
<path d="M945.051 1144.55L908.656 1108.16" stroke="#6349FF" stroke-width="4.41177" stroke-linejoin="bevel"/>
</g>
<g clip-path="url(#clip22_1973_90475)">
<path d="M1449.65 1257.35L1449.65 1308.82" stroke="#6349FF" stroke-width="4.41177" stroke-linejoin="bevel"/>
<path d="M1457.35 1250.35L1508.82 1250.35" stroke="#6349FF" stroke-width="4.41177" stroke-linejoin="bevel"/>
<path d="M1442.65 1249.65L1391.18 1249.65" stroke="#6349FF" stroke-width="4.41177" stroke-linejoin="bevel"/>
<path d="M1445.05 1244.55L1408.66 1208.16" stroke="#6349FF" stroke-width="4.41177" stroke-linejoin="bevel"/>
</g>
<g clip-path="url(#clip23_1973_90475)">
<path d="M655.449 1045.05L691.844 1008.66" stroke="#6349FF" stroke-width="4.41177" stroke-linejoin="bevel"/>
<path d="M642.646 1049.65L591.176 1049.65" stroke="#6349FF" stroke-width="4.41177" stroke-linejoin="bevel"/>
</g>
<g clip-path="url(#clip24_1973_90475)">
<path d="M1345.05 55.4485L1308.66 91.8438" stroke="#6349FF" stroke-width="4.41177" stroke-linejoin="bevel"/>
<path d="M1349.65 42.6464L1349.65 -8.82422" stroke="#6349FF" stroke-width="4.41177" stroke-linejoin="bevel"/>
</g>
<g clip-path="url(#clip25_1973_90475)">
<path d="M657.354 1150.35L708.824 1150.35" stroke="#6349FF" stroke-width="4.41177" stroke-linejoin="bevel"/>
<path d="M642.646 1149.65L591.176 1149.65" stroke="#6349FF" stroke-width="4.41177" stroke-linejoin="bevel"/>
<path d="M645.051 1144.55L608.656 1108.16" stroke="#6349FF" stroke-width="4.41177" stroke-linejoin="bevel"/>
</g>
<g clip-path="url(#clip26_1973_90475)">
<path d="M1857.35 1349.65L1908.82 1349.65" stroke="#6349FF" stroke-width="4.41177" stroke-linejoin="bevel"/>
<path d="M1842.65 1349.65L1791.18 1349.65" stroke="#6349FF" stroke-width="4.41177" stroke-linejoin="bevel"/>
<path d="M1842.65 1364.35L1791.18 1364.35" stroke="#6349FF" stroke-width="4.41177" stroke-linejoin="bevel"/>
<path d="M1842.65 1379.06L1791.18 1379.06" stroke="#6349FF" stroke-width="4.41177" stroke-linejoin="bevel"/>
<path d="M1842.65 1392.29L1791.18 1392.29" stroke="#6349FF" stroke-width="4.41177" stroke-linejoin="bevel"/>
<path d="M1857.35 1364.35L1908.82 1364.35" stroke="#6349FF" stroke-width="4.41177" stroke-linejoin="bevel"/>
<path d="M1857.35 1379.06L1908.82 1379.06" stroke="#6349FF" stroke-width="4.41177" stroke-linejoin="bevel"/>
<path d="M1857.35 1392.29L1908.82 1392.29" stroke="#6349FF" stroke-width="4.41177" stroke-linejoin="bevel"/>
</g>
<g clip-path="url(#clip27_1973_90475)">
<path d="M1757.35 1349.65L1808.82 1349.65" stroke="#6349FF" stroke-width="4.41177" stroke-linejoin="bevel"/>
<path d="M1742.65 1350.65L1691.18 1350.65" stroke="#6349FF" stroke-width="4.41177" stroke-linejoin="bevel"/>
<path d="M1742.65 1364.35L1691.18 1364.35" stroke="#6349FF" stroke-width="4.41177" stroke-linejoin="bevel"/>
<path d="M1742.65 1379.06L1691.18 1379.06" stroke="#6349FF" stroke-width="4.41177" stroke-linejoin="bevel"/>
<path d="M1742.65 1392.29L1691.18 1392.29" stroke="#6349FF" stroke-width="4.41177" stroke-linejoin="bevel"/>
<path d="M1757.35 1379.06L1808.82 1379.06" stroke="#6349FF" stroke-width="4.41177" stroke-linejoin="bevel"/>
</g>
<g clip-path="url(#clip28_1973_90475)">
<path d="M1957.35 1150.35L2008.82 1150.35" stroke="#6349FF" stroke-width="4.41177" stroke-linejoin="bevel"/>
<path d="M1942.65 1149.65L1891.18 1149.65" stroke="#6349FF" stroke-width="4.41177" stroke-linejoin="bevel"/>
<path d="M1945.05 1144.55L1908.66 1108.16" stroke="#6349FF" stroke-width="4.41177" stroke-linejoin="bevel"/>
</g>
<g clip-path="url(#clip29_1973_90475)">
<path d="M1350.35 357.354L1350.35 408.824" stroke="#6349FF" stroke-width="4.41177" stroke-linejoin="bevel"/>
<path d="M1349.65 342.646L1349.65 291.176" stroke="#6349FF" stroke-width="4.41177" stroke-linejoin="bevel"/>
<path d="M1344.55 345.051L1308.16 308.656" stroke="#6349FF" stroke-width="4.41177" stroke-linejoin="bevel"/>
</g>
<g clip-path="url(#clip30_1973_90475)">
<path d="M349.648 1357.35L349.648 1408.82" stroke="#6349FF" stroke-width="4.41177" stroke-linejoin="bevel"/>
<path d="M357.354 1350.35L408.824 1350.35" stroke="#6349FF" stroke-width="4.41177" stroke-linejoin="bevel"/>
<path d="M342.646 1349.65L291.176 1349.65" stroke="#6349FF" stroke-width="4.41177" stroke-linejoin="bevel"/>
</g>
<g clip-path="url(#clip31_1973_90475)">
<path d="M1049.65 1157.35L1049.65 1208.82" stroke="#6349FF" stroke-width="4.41177" stroke-linejoin="bevel"/>
<path d="M1057.35 1150.35L1108.82 1150.35" stroke="#6349FF" stroke-width="4.41177" stroke-linejoin="bevel"/>
<path d="M1042.65 1149.65L991.176 1149.65" stroke="#6349FF" stroke-width="4.41177" stroke-linejoin="bevel"/>
<path d="M1055.45 1145.05L1091.84 1108.66" stroke="#6349FF" stroke-width="4.41177" stroke-linejoin="bevel"/>
</g>
<g clip-path="url(#clip32_1973_90475)">
<path d="M1242.65 1049.65L1191.18 1049.65" stroke="#6349FF" stroke-width="4.41177" stroke-linejoin="bevel"/>
<path d="M1255.45 1045.05L1291.84 1008.66" stroke="#6349FF" stroke-width="4.41177" stroke-linejoin="bevel"/>
</g>
<g clip-path="url(#clip33_1973_90475)">
<path d="M1358.53 1149L1410 1149" stroke="#6349FF" stroke-width="4.41177" stroke-linejoin="bevel"/>
<path d="M1345.34 1145.45L1308.95 1109.05" stroke="#6349FF" stroke-width="4.41177" stroke-linejoin="bevel"/>
</g>
<g clip-path="url(#clip34_1973_90475)">
<path d="M1542.65 1049.65L1491.18 1049.65" stroke="#6349FF" stroke-width="4.41177" stroke-linejoin="bevel"/>
<path d="M1555.45 1045.05L1591.84 1008.66" stroke="#6349FF" stroke-width="4.41177" stroke-linejoin="bevel"/>
</g>
<g clip-path="url(#clip35_1973_90475)">
<path d="M1157.35 1349.65L1208.82 1349.65" stroke="#6349FF" stroke-width="4.41177" stroke-linejoin="bevel"/>
<path d="M1144.55 1345.05L1108.16 1308.66" stroke="#6349FF" stroke-width="4.41177" stroke-linejoin="bevel"/>
</g>
<g clip-path="url(#clip36_1973_90475)">
<path d="M1242.64 949.715L1191.18 950.195" stroke="#6349FF" stroke-width="4.41177" stroke-linejoin="bevel"/>
<path d="M1254.95 955.449L1291.34 991.844" stroke="#6349FF" stroke-width="4.41177" stroke-linejoin="bevel"/>
</g>
<g clip-path="url(#clip37_1973_90475)">
<path d="M1050.29 642.648L1049.8 591.18" stroke="#6349FF" stroke-width="4" stroke-linejoin="bevel"/>
<path d="M1044.55 654.952L1008.16 691.348" stroke="#6349FF" stroke-width="4.41177" stroke-linejoin="bevel"/>
</g>
<g clip-path="url(#clip38_1973_90475)">
<path d="M742.564 649.648L691.094 649.648" stroke="#6349FF" stroke-width="4.41177" stroke-linejoin="bevel"/>
<path d="M754.949 644.551L791.344 608.156" stroke="#6349FF" stroke-width="4.41177" stroke-linejoin="bevel"/>
</g>
<g clip-path="url(#clip39_1973_90475)">
<path d="M1044.55 1254.95L1008.15 1291.34" stroke="#6349FF" stroke-width="4.41177" stroke-linejoin="bevel"/>
<path d="M1057.35 1250.35L1108.82 1250.35" stroke="#6349FF" stroke-width="4.41177" stroke-linejoin="bevel"/>
</g>
<g clip-path="url(#clip40_1973_90475)">
<path d="M1157.35 1050.35L1208.82 1050.35" stroke="#6349FF" stroke-width="4.41177" stroke-linejoin="bevel"/>
<path d="M1150.35 1042.65L1150.35 991.18" stroke="#6349FF" stroke-width="4.41177" stroke-linejoin="bevel"/>
<path d="M1145.05 1044.55L1108.66 1008.16" stroke="#6349FF" stroke-width="4.41177" stroke-linejoin="bevel"/>
<path d="M1155.45 1045.05L1191.85 1008.66" stroke="#6349FF" stroke-width="4.41177" stroke-linejoin="bevel"/>
<path d="M1144.55 1054.95L1108.15 1091.34" stroke="#6349FF" stroke-width="4.41177" stroke-linejoin="bevel"/>
</g>
<g clip-path="url(#clip41_1973_90475)">
<path d="M258.354 1350.35L309.824 1350.35" stroke="#6349FF" stroke-width="4.41177" stroke-linejoin="bevel"/>
<path d="M251.352 1342.65L251.352 1291.18" stroke="#6349FF" stroke-width="4.41177" stroke-linejoin="bevel"/>
<path d="M246.051 1344.55L209.656 1308.16" stroke="#6349FF" stroke-width="4.41177" stroke-linejoin="bevel"/>
<path d="M256.452 1345.05L292.848 1308.66" stroke="#6349FF" stroke-width="4.41177" stroke-linejoin="bevel"/>
<path d="M245.548 1354.95L209.152 1391.34" stroke="#6349FF" stroke-width="4.41177" stroke-linejoin="bevel"/>
</g>
<g clip-path="url(#clip42_1973_90475)">
<path d="M850.355 1042.65L850.355 991.18" stroke="#6349FF" stroke-width="4.41177" stroke-linejoin="bevel"/>
<path d="M844.551 1054.95L808.156 1091.35" stroke="#6349FF" stroke-width="4.41177" stroke-linejoin="bevel"/>
<path d="M854.949 1055.45L891.344 1091.84" stroke="#6349FF" stroke-width="4.41177" stroke-linejoin="bevel"/>
</g>
<g clip-path="url(#clip43_1973_90475)">
<path d="M649.645 157.35L649.645 208.82" stroke="#6349FF" stroke-width="4.41177" stroke-linejoin="bevel"/>
<path d="M655.449 145.051L691.844 108.656" stroke="#6349FF" stroke-width="4.41177" stroke-linejoin="bevel"/>
<path d="M645.051 144.551L608.656 108.156" stroke="#6349FF" stroke-width="4.41177" stroke-linejoin="bevel"/>
</g>
<g clip-path="url(#clip44_1973_90475)">
<path d="M57.3497 1350.36L108.82 1350.36" stroke="#6349FF" stroke-width="4.41177" stroke-linejoin="bevel"/>
<path d="M45.0514 1344.55L8.65625 1308.16" stroke="#6349FF" stroke-width="4.41177" stroke-linejoin="bevel"/>
<path d="M44.5515 1354.95L8.15625 1391.34" stroke="#6349FF" stroke-width="4.41177" stroke-linejoin="bevel"/>
</g>
<g clip-path="url(#clip45_1973_90475)">
<path d="M1349.64 857.35L1349.64 908.82" stroke="#6349FF" stroke-width="4.41177" stroke-linejoin="bevel"/>
<path d="M1355.45 845.051L1391.84 808.656" stroke="#6349FF" stroke-width="4.41177" stroke-linejoin="bevel"/>
<path d="M1345.05 844.551L1308.66 808.156" stroke="#6349FF" stroke-width="4.41177" stroke-linejoin="bevel"/>
</g>
<g clip-path="url(#clip46_1973_90475)">
<path d="M1357.35 950.352L1408.82 950.352" stroke="#6349FF" stroke-width="4.41177" stroke-linejoin="bevel"/>
<path d="M1350.35 942.65L1350.35 891.18" stroke="#6349FF" stroke-width="4.41177" stroke-linejoin="bevel"/>
<path d="M1349.65 957.354L1349.65 1008.82" stroke="#6349FF" stroke-width="4.41177" stroke-linejoin="bevel"/>
<path d="M1354.95 955.449L1391.34 991.844" stroke="#6349FF" stroke-width="4.41177" stroke-linejoin="bevel"/>
<path d="M1355.45 945.051L1391.85 908.656" stroke="#6349FF" stroke-width="4.41177" stroke-linejoin="bevel"/>
<path d="M1344.55 954.949L1308.15 991.344" stroke="#6349FF" stroke-width="4.41177" stroke-linejoin="bevel"/>
</g>
<g clip-path="url(#clip47_1973_90475)">
<path d="M157.35 750.355L208.82 750.355" stroke="#6349FF" stroke-width="4.41177" stroke-linejoin="bevel"/>
<path d="M145.051 744.551L108.656 708.156" stroke="#6349FF" stroke-width="4.41177" stroke-linejoin="bevel"/>
<path d="M144.551 754.949L108.156 791.344" stroke="#6349FF" stroke-width="4.41177" stroke-linejoin="bevel"/>
</g>
<g clip-path="url(#clip48_1973_90475)">
<path d="M150.648 1157.35L150.648 1208.82" stroke="#6349FF" stroke-width="4.41177" stroke-linejoin="bevel"/>
<path d="M158.354 1150.35L209.824 1150.35" stroke="#6349FF" stroke-width="4.41177" stroke-linejoin="bevel"/>
<path d="M143.646 1149.65L92.1758 1149.65" stroke="#6349FF" stroke-width="4.41177" stroke-linejoin="bevel"/>
<path d="M146.051 1144.55L109.656 1108.16" stroke="#6349FF" stroke-width="4.41177" stroke-linejoin="bevel"/>
</g>
<g clip-path="url(#clip49_1973_90475)">
<path d="M1641.47 1149L1590 1149" stroke="#6349FF" stroke-width="4.41177" stroke-linejoin="bevel"/>
<path d="M1654.66 1145.45L1691.05 1109.05" stroke="#6349FF" stroke-width="4.41177" stroke-linejoin="bevel"/>
<path d="M1656.56 1150.75L1708.03 1150.75" stroke="#6349FF" stroke-width="4.41177" stroke-linejoin="bevel"/>
<path d="M1656.56 1165L1708.03 1165" stroke="#6349FF" stroke-width="4.41177" stroke-linejoin="bevel"/>
<path d="M1656.56 1179L1708.03 1179" stroke="#6349FF" stroke-width="4.41177" stroke-linejoin="bevel"/>
<path d="M1656.56 1193L1708.03 1193" stroke="#6349FF" stroke-width="4.41177" stroke-linejoin="bevel"/>
</g>
</g>
<defs>
<clipPath id="clip0_1973_90475">
<rect width="2000" height="1400" fill="white"/>
</clipPath>
<clipPath id="clip1_1973_90475">
<rect width="100" height="100" fill="white" transform="translate(900 1300)"/>
</clipPath>
<clipPath id="clip2_1973_90475">
<rect width="100" height="100" fill="white" transform="translate(600 1300)"/>
</clipPath>
<clipPath id="clip3_1973_90475">
<rect width="100" height="100" fill="white" transform="matrix(-1 0 0 1 800 1300)"/>
</clipPath>
<clipPath id="clip4_1973_90475">
<rect width="100" height="100" fill="white" transform="translate(500 1300)"/>
</clipPath>
<clipPath id="clip5_1973_90475">
<rect width="100" height="100" fill="white" transform="translate(1400 1000)"/>
</clipPath>
<clipPath id="clip6_1973_90475">
<rect width="100" height="100" fill="white" transform="translate(400 1300)"/>
</clipPath>
<clipPath id="clip7_1973_90475">
<rect width="100" height="100" fill="white" transform="matrix(-1 0 0 1 1400 1300)"/>
</clipPath>
<clipPath id="clip8_1973_90475">
<rect width="100" height="100" fill="white" transform="translate(500 1100) rotate(-90)"/>
</clipPath>
<clipPath id="clip9_1973_90475">
<rect width="100" height="100" fill="white" transform="translate(500 700)"/>
</clipPath>
<clipPath id="clip10_1973_90475">
<rect width="100" height="100" fill="white" transform="translate(1100 200)"/>
</clipPath>
<clipPath id="clip11_1973_90475">
<rect width="100" height="100" fill="white" transform="matrix(-1 0 0 1 1300 1300)"/>
</clipPath>
<clipPath id="clip12_1973_90475">
<rect width="100" height="100" fill="white" transform="matrix(-1 0 0 1 1600 1300)"/>
</clipPath>
<clipPath id="clip13_1973_90475">
<rect width="100" height="100" fill="white" transform="translate(1600 1300)"/>
</clipPath>
<clipPath id="clip14_1973_90475">
<rect width="100" height="100" fill="white" transform="translate(1700 900) rotate(90)"/>
</clipPath>
<clipPath id="clip15_1973_90475">
<rect width="100" height="100" fill="white" transform="translate(800 1300)"/>
</clipPath>
<clipPath id="clip16_1973_90475">
<rect width="100" height="100" fill="white" transform="translate(1000 1300)"/>
</clipPath>
<clipPath id="clip17_1973_90475">
<rect width="100" height="100" fill="white" transform="matrix(4.37114e-08 1 1 -4.37114e-08 1100 1200)"/>
</clipPath>
<clipPath id="clip18_1973_90475">
<rect width="100" height="100" fill="white" transform="matrix(-1 -8.74228e-08 -8.74228e-08 1 1600 1200)"/>
</clipPath>
<clipPath id="clip19_1973_90475">
<rect width="100" height="100" fill="white" transform="matrix(1 0 0 -1 1200 1300)"/>
</clipPath>
<clipPath id="clip20_1973_90475">
<rect width="100" height="100" fill="white" transform="translate(1100 1200) rotate(-90)"/>
</clipPath>
<clipPath id="clip21_1973_90475">
<rect width="100" height="100" fill="white" transform="translate(900 1200) rotate(-90)"/>
</clipPath>
<clipPath id="clip22_1973_90475">
<rect width="100" height="100" fill="white" transform="translate(1400 1300) rotate(-90)"/>
</clipPath>
<clipPath id="clip23_1973_90475">
<rect width="100" height="100" fill="white" transform="translate(700 1100) rotate(180)"/>
</clipPath>
<clipPath id="clip24_1973_90475">
<rect width="100" height="100" fill="white" transform="matrix(4.37114e-08 -1 -1 -4.37114e-08 1400 100)"/>
</clipPath>
<clipPath id="clip25_1973_90475">
<rect width="100" height="100" fill="white" transform="translate(600 1200) rotate(-90)"/>
</clipPath>
<clipPath id="clip26_1973_90475">
<rect width="100" height="100" fill="white" transform="translate(1800 1300)"/>
</clipPath>
<clipPath id="clip27_1973_90475">
<rect width="100" height="100" fill="white" transform="translate(1700 1300)"/>
</clipPath>
<clipPath id="clip28_1973_90475">
<rect width="100" height="100" fill="white" transform="translate(1900 1200) rotate(-90)"/>
</clipPath>
<clipPath id="clip29_1973_90475">
<rect width="100" height="100" fill="white" transform="matrix(-1 0 0 1 1400 300)"/>
</clipPath>
<clipPath id="clip30_1973_90475">
<rect width="100" height="100" fill="white" transform="translate(300 1400) rotate(-90)"/>
</clipPath>
<clipPath id="clip31_1973_90475">
<rect width="100" height="100" fill="white" transform="translate(1000 1200) rotate(-90)"/>
</clipPath>
<clipPath id="clip32_1973_90475">
<rect width="100" height="100" fill="white" transform="translate(1200 1100) rotate(-90)"/>
</clipPath>
<clipPath id="clip33_1973_90475">
<rect width="100" height="100" fill="white" transform="matrix(4.37114e-08 -1 -1 -4.37114e-08 1400 1200)"/>
</clipPath>
<clipPath id="clip34_1973_90475">
<rect width="100" height="100" fill="white" transform="translate(1500 1100) rotate(-90)"/>
</clipPath>
<clipPath id="clip35_1973_90475">
<rect width="100" height="100" fill="white" transform="matrix(4.37114e-08 -1 -1 -4.37114e-08 1200 1400)"/>
</clipPath>
<clipPath id="clip36_1973_90475">
<rect width="100" height="100" fill="white" transform="translate(1200 900)"/>
</clipPath>
<clipPath id="clip37_1973_90475">
<rect width="100" height="100" fill="white" transform="translate(1100 600) rotate(90)"/>
</clipPath>
<clipPath id="clip38_1973_90475">
<rect width="100" height="100" fill="white" transform="matrix(1 -8.74228e-08 -8.74228e-08 -1 700 700)"/>
</clipPath>
<clipPath id="clip39_1973_90475">
<rect width="100" height="100" fill="white" transform="translate(1000 1300) rotate(-90)"/>
</clipPath>
<clipPath id="clip40_1973_90475">
<rect width="100" height="100" fill="white" transform="translate(1200 1100) rotate(180)"/>
</clipPath>
<clipPath id="clip41_1973_90475">
<rect width="100" height="100" fill="white" transform="translate(301 1400) rotate(180)"/>
</clipPath>
<clipPath id="clip42_1973_90475">
<rect width="100" height="100" fill="white" transform="translate(900 1000) rotate(90)"/>
</clipPath>
<clipPath id="clip43_1973_90475">
<rect width="100" height="100" fill="white" transform="translate(600 200) rotate(-90)"/>
</clipPath>
<clipPath id="clip44_1973_90475">
<rect width="100" height="100" fill="white" transform="translate(100 1400) rotate(-180)"/>
</clipPath>
<clipPath id="clip45_1973_90475">
<rect width="100" height="100" fill="white" transform="translate(1300 900) rotate(-90)"/>
</clipPath>
<clipPath id="clip46_1973_90475">
<rect width="100" height="100" fill="white" transform="translate(1400 1000) rotate(180)"/>
</clipPath>
<clipPath id="clip47_1973_90475">
<rect width="100" height="100" fill="white" transform="translate(200 800) rotate(-180)"/>
</clipPath>
<clipPath id="clip48_1973_90475">
<rect width="100" height="100" fill="white" transform="translate(101 1200) rotate(-90)"/>
</clipPath>
<clipPath id="clip49_1973_90475">
<rect width="100" height="100" fill="white" transform="translate(1600 1200) rotate(-90)"/>
</clipPath>
</defs>
</svg>
