<svg width="2000" height="400" viewBox="0 0 2000 400" fill="none" xmlns="http://www.w3.org/2000/svg">
<g clip-path="url(#clip0_1973_90369)">
<g clip-path="url(#clip1_1973_90369)">
<path d="M1357.35 250.352L1408.82 250.352" stroke="#6349FF" stroke-width="4.41177" stroke-linejoin="bevel"/>
<path d="M1349.64 257.354L1349.64 308.824" stroke="#6349FF" stroke-width="4.41177" stroke-linejoin="bevel"/>
<path d="M1344.55 254.949L1308.16 291.344" stroke="#6349FF" stroke-width="4.41177" stroke-linejoin="bevel"/>
</g>
<g clip-path="url(#clip2_1973_90369)">
<path d="M257.354 149.648L308.824 149.648" stroke="#6349FF" stroke-width="4.41177" stroke-linejoin="bevel"/>
<path d="M242.646 149.648L191.176 149.648" stroke="#6349FF" stroke-width="4.41177" stroke-linejoin="bevel"/>
<path d="M250.383 142.721L250.383 91.25" stroke="#6349FF" stroke-width="4.41177" stroke-linejoin="bevel"/>
<path d="M250.352 157.354L250.352 208.824" stroke="#6349FF" stroke-width="4.41177" stroke-linejoin="bevel"/>
</g>
<g clip-path="url(#clip3_1973_90369)">
<path d="M1149.64 342.646L1149.64 291.176" stroke="#6349FF" stroke-width="4.41177" stroke-linejoin="bevel"/>
<path d="M1164.36 357.354L1164.36 408.824" stroke="#6349FF" stroke-width="4.41177" stroke-linejoin="bevel"/>
<path d="M1179.06 357.354L1179.06 408.824" stroke="#6349FF" stroke-width="4.41177" stroke-linejoin="bevel"/>
<path d="M1121.71 357.354L1121.71 408.824" stroke="#6349FF" stroke-width="4.41177" stroke-linejoin="bevel"/>
<path d="M1192.3 357.354L1192.3 408.824" stroke="#6349FF" stroke-width="4.41177" stroke-linejoin="bevel"/>
<path d="M1134.94 357.354L1134.94 408.824" stroke="#6349FF" stroke-width="4.41177" stroke-linejoin="bevel"/>
<path d="M1179.06 342.646L1179.06 291.176" stroke="#6349FF" stroke-width="4.41177" stroke-linejoin="bevel"/>
<path d="M1192.29 342.646L1192.29 291.176" stroke="#6349FF" stroke-width="4.41177" stroke-linejoin="bevel"/>
</g>
<g clip-path="url(#clip4_1973_90369)">
<path d="M1655.45 345.051L1691.84 308.656" stroke="#6349FF" stroke-width="4.41177" stroke-linejoin="bevel"/>
<path d="M1642.65 349.648L1591.18 349.648" stroke="#6349FF" stroke-width="4.41177" stroke-linejoin="bevel"/>
</g>
<g clip-path="url(#clip5_1973_90369)">
<path d="M1442.65 249.648L1391.18 249.648" stroke="#6349FF" stroke-width="4.41177" stroke-linejoin="bevel"/>
<path d="M1454.95 255.449L1491.35 291.844" stroke="#6349FF" stroke-width="4.41177" stroke-linejoin="bevel"/>
<path d="M1455.45 245.051L1491.85 208.656" stroke="#6349FF" stroke-width="4.41177" stroke-linejoin="bevel"/>
</g>
<g clip-path="url(#clip6_1973_90369)">
<path d="M1550.36 142.646L1550.36 91.1758" stroke="#6349FF" stroke-width="4.41177" stroke-linejoin="bevel"/>
<path d="M1544.55 154.949L1508.16 191.344" stroke="#6349FF" stroke-width="4.41177" stroke-linejoin="bevel"/>
<path d="M1554.95 155.449L1591.34 191.844" stroke="#6349FF" stroke-width="4.41177" stroke-linejoin="bevel"/>
</g>
<g clip-path="url(#clip7_1973_90369)">
<path d="M1257.35 350.352L1308.82 350.352" stroke="#6349FF" stroke-width="4.41177" stroke-linejoin="bevel"/>
<path d="M1250.35 342.646L1250.35 291.176" stroke="#6349FF" stroke-width="4.41177" stroke-linejoin="bevel"/>
<path d="M1249.65 357.354L1249.65 408.824" stroke="#6349FF" stroke-width="4.41177" stroke-linejoin="bevel"/>
<path d="M1254.95 355.449L1291.34 391.844" stroke="#6349FF" stroke-width="4.41177" stroke-linejoin="bevel"/>
<path d="M1255.45 345.051L1291.85 308.656" stroke="#6349FF" stroke-width="4.41177" stroke-linejoin="bevel"/>
<path d="M1242.65 349.648L1191.18 349.648" stroke="#6349FF" stroke-width="4.41177" stroke-linejoin="bevel"/>
</g>
<g clip-path="url(#clip8_1973_90369)">
<path d="M457.354 250.355L508.824 250.355" stroke="#6349FF" stroke-width="4.41177" stroke-linejoin="bevel"/>
<path d="M445.051 244.551L408.656 208.156" stroke="#6349FF" stroke-width="4.41177" stroke-linejoin="bevel"/>
<path d="M444.551 254.949L408.156 291.344" stroke="#6349FF" stroke-width="4.41177" stroke-linejoin="bevel"/>
</g>
<g clip-path="url(#clip9_1973_90369)">
<path d="M1542.65 35.6484L1491.18 35.6484" stroke="#6349FF" stroke-width="4.41177" stroke-linejoin="bevel"/>
<path d="M1542.65 78.6484L1491.18 78.6484" stroke="#6349FF" stroke-width="4.41177" stroke-linejoin="bevel"/>
<path d="M1542.65 91.707L1491.18 91.707" stroke="#6349FF" stroke-width="4.41177" stroke-linejoin="bevel"/>
<path d="M1542.65 20.9414L1491.18 20.9414" stroke="#6349FF" stroke-width="4.41177" stroke-linejoin="bevel"/>
<path d="M1542.65 63.9414L1491.18 63.9414" stroke="#6349FF" stroke-width="4.41177" stroke-linejoin="bevel"/>
<path d="M1542.65 7.70703L1491.18 7.70703" stroke="#6349FF" stroke-width="4.41177" stroke-linejoin="bevel"/>
<path d="M1542.65 50.707L1491.18 50.707" stroke="#6349FF" stroke-width="4.41177" stroke-linejoin="bevel"/>
<path d="M1557.35 20.9414L1608.82 20.9414" stroke="#6349FF" stroke-width="4.41177" stroke-linejoin="bevel"/>
<path d="M1557.35 63.9414L1608.82 63.9414" stroke="#6349FF" stroke-width="4.41177" stroke-linejoin="bevel"/>
<path d="M1557.35 7.70704L1608.82 7.70703" stroke="#6349FF" stroke-width="4.41177" stroke-linejoin="bevel"/>
<path d="M1557.35 50.707L1608.82 50.707" stroke="#6349FF" stroke-width="4.41177" stroke-linejoin="bevel"/>
</g>
</g>
<defs>
<clipPath id="clip0_1973_90369">
<rect width="2000" height="400" fill="white"/>
</clipPath>
<clipPath id="clip1_1973_90369">
<rect width="100" height="100" fill="white" transform="translate(1400 300) rotate(-180)"/>
</clipPath>
<clipPath id="clip2_1973_90369">
<rect width="100" height="100" fill="white" transform="translate(200 100)"/>
</clipPath>
<clipPath id="clip3_1973_90369">
<rect width="100" height="100" fill="white" transform="translate(1100 400) rotate(-90)"/>
</clipPath>
<clipPath id="clip4_1973_90369">
<rect width="100" height="100" fill="white" transform="translate(1700 400) rotate(180)"/>
</clipPath>
<clipPath id="clip5_1973_90369">
<rect width="100" height="100" fill="white" transform="translate(1400 200)"/>
</clipPath>
<clipPath id="clip6_1973_90369">
<rect width="100" height="100" fill="white" transform="translate(1600 100) rotate(90)"/>
</clipPath>
<clipPath id="clip7_1973_90369">
<rect width="100" height="100" fill="white" transform="translate(1300 400) rotate(180)"/>
</clipPath>
<clipPath id="clip8_1973_90369">
<rect width="100" height="100" fill="white" transform="translate(500 300) rotate(-180)"/>
</clipPath>
<clipPath id="clip9_1973_90369">
<rect width="100" height="100" fill="white" transform="matrix(1 -8.74228e-08 -8.74228e-08 -1 1500 100)"/>
</clipPath>
</defs>
</svg>
