<svg fill="none" xmlns="http://www.w3.org/2000/svg">
<g clip-path="url(#clip0_1973_90293)">
<g clip-path="url(#clip1_1973_90293)">
<path d="M557.354 348.648L608.824 348.648" stroke="#6349FF" stroke-width="4.41177" stroke-linejoin="bevel"/>
<path d="M542.646 349.648L491.176 349.648" stroke="#6349FF" stroke-width="4.41177" stroke-linejoin="bevel"/>
<path d="M542.646 363.352L491.176 363.352" stroke="#6349FF" stroke-width="4.41177" stroke-linejoin="bevel"/>
<path d="M542.646 378.059L491.176 378.059" stroke="#6349FF" stroke-width="4.41177" stroke-linejoin="bevel"/>
<path d="M542.646 391.293L491.176 391.293" stroke="#6349FF" stroke-width="4.41177" stroke-linejoin="bevel"/>
<path d="M557.354 378.059L608.824 378.059" stroke="#6349FF" stroke-width="4.41177" stroke-linejoin="bevel"/>
</g>
<g clip-path="url(#clip2_1973_90293)">
<path d="M1249.65 356.354L1249.65 407.824" stroke="#6349FF" stroke-width="4.41177" stroke-linejoin="bevel"/>
<path d="M1264.35 341.646L1264.35 290.176" stroke="#6349FF" stroke-width="4.41177" stroke-linejoin="bevel"/>
<path d="M1279.06 341.646L1279.06 290.176" stroke="#6349FF" stroke-width="4.41177" stroke-linejoin="bevel"/>
<path d="M1292.29 341.646L1292.29 290.176" stroke="#6349FF" stroke-width="4.41177" stroke-linejoin="bevel"/>
<path d="M1264.36 356.354L1264.36 407.824" stroke="#6349FF" stroke-width="4.41177" stroke-linejoin="bevel"/>
<path d="M1279.06 356.354L1279.06 407.824" stroke="#6349FF" stroke-width="4.41177" stroke-linejoin="bevel"/>
<path d="M1292.29 356.354L1292.29 407.824" stroke="#6349FF" stroke-width="4.41177" stroke-linejoin="bevel"/>
</g>
<g clip-path="url(#clip3_1973_90293)">
<path d="M1435.65 341.646L1435.65 290.176" stroke="#6349FF" stroke-width="4.41177" stroke-linejoin="bevel"/>
<path d="M1420.94 341.646L1420.94 290.176" stroke="#6349FF" stroke-width="4.41177" stroke-linejoin="bevel"/>
<path d="M1407.71 341.646L1407.71 290.176" stroke="#6349FF" stroke-width="4.41177" stroke-linejoin="bevel"/>
<path d="M1420.94 356.354L1420.94 407.824" stroke="#6349FF" stroke-width="4.41177" stroke-linejoin="bevel"/>
<path d="M1407.71 356.354L1407.71 407.824" stroke="#6349FF" stroke-width="4.41177" stroke-linejoin="bevel"/>
</g>
<g clip-path="url(#clip4_1973_90293)">
<path d="M449.648 356.354L449.648 407.824" stroke="#6349FF" stroke-width="4.41177" stroke-linejoin="bevel"/>
<path d="M457.354 349.352L508.824 349.352" stroke="#6349FF" stroke-width="4.41177" stroke-linejoin="bevel"/>
<path d="M442.646 348.648L391.176 348.648" stroke="#6349FF" stroke-width="4.41177" stroke-linejoin="bevel"/>
</g>
<g clip-path="url(#clip5_1973_90293)">
<path d="M1557.35 349.648L1608.82 349.648" stroke="#6349FF" stroke-width="4.41177" stroke-linejoin="bevel"/>
<path d="M1544.55 345.051L1508.16 308.656" stroke="#6349FF" stroke-width="4.41177" stroke-linejoin="bevel"/>
</g>
<g clip-path="url(#clip6_1973_90293)">
<path d="M357.354 349.352L408.824 349.352" stroke="#6349FF" stroke-width="4.41177" stroke-linejoin="bevel"/>
<path d="M350.352 341.646L350.352 290.176" stroke="#6349FF" stroke-width="4.41177" stroke-linejoin="bevel"/>
<path d="M345.051 343.551L308.656 307.156" stroke="#6349FF" stroke-width="4.41177" stroke-linejoin="bevel"/>
<path d="M355.452 344.051L391.848 307.656" stroke="#6349FF" stroke-width="4.41177" stroke-linejoin="bevel"/>
<path d="M344.548 353.949L308.152 390.344" stroke="#6349FF" stroke-width="4.41177" stroke-linejoin="bevel"/>
</g>
<g clip-path="url(#clip7_1973_90293)">
<path d="M149.648 156.354L149.648 207.824" stroke="#6349FF" stroke-width="4.41177" stroke-linejoin="bevel"/>
<path d="M157.354 149.352L208.824 149.352" stroke="#6349FF" stroke-width="4.41177" stroke-linejoin="bevel"/>
<path d="M142.646 148.648L91.1758 148.648" stroke="#6349FF" stroke-width="4.41177" stroke-linejoin="bevel"/>
<path d="M145.051 143.551L108.656 107.156" stroke="#6349FF" stroke-width="4.41177" stroke-linejoin="bevel"/>
</g>
<g clip-path="url(#clip8_1973_90293)">
<path d="M1757.35 48.6484L1808.82 48.6484" stroke="#6349FF" stroke-width="4.41177" stroke-linejoin="bevel"/>
<path d="M1742.65 48.6484L1691.18 48.6484" stroke="#6349FF" stroke-width="4.41177" stroke-linejoin="bevel"/>
</g>
<g clip-path="url(#clip9_1973_90293)">
<path d="M1857.35 48.6484L1908.82 48.6484" stroke="#6349FF" stroke-width="4.41177" stroke-linejoin="bevel"/>
<path d="M1842.65 48.6484L1791.18 48.6484" stroke="#6349FF" stroke-width="4.41177" stroke-linejoin="bevel"/>
</g>
<g clip-path="url(#clip10_1973_90293)">
<path d="M1650.35 56.3536L1650.35 107.824" stroke="#6349FF" stroke-width="4.41177" stroke-linejoin="bevel"/>
<path d="M1657.35 49.3516L1708.82 49.3516" stroke="#6349FF" stroke-width="4.41177" stroke-linejoin="bevel"/>
<path d="M1650.36 41.6464L1650.36 -9.82422" stroke="#6349FF" stroke-width="4.41177" stroke-linejoin="bevel"/>
<path d="M1635.65 41.6464L1635.65 -9.82422" stroke="#6349FF" stroke-width="4.41177" stroke-linejoin="bevel"/>
<path d="M1620.94 41.6464L1620.94 -9.82422" stroke="#6349FF" stroke-width="4.41177" stroke-linejoin="bevel"/>
<path d="M1607.71 41.6464L1607.71 -9.82422" stroke="#6349FF" stroke-width="4.41177" stroke-linejoin="bevel"/>
<path d="M1654.95 54.4485L1691.34 90.8438" stroke="#6349FF" stroke-width="4.41177" stroke-linejoin="bevel"/>
</g>
<g clip-path="url(#clip11_1973_90293)">
<path d="M1742.65 149.352L1691.18 149.352" stroke="#6349FF" stroke-width="4.41177" stroke-linejoin="bevel"/>
<path d="M1755.45 153.949L1791.84 190.344" stroke="#6349FF" stroke-width="4.41177" stroke-linejoin="bevel"/>
<path d="M1750.36 141.646L1750.36 90.1758" stroke="#6349FF" stroke-width="4.41177" stroke-linejoin="bevel"/>
</g>
</g>
<defs>
<clipPath id="clip0_1973_90293">
<rect width="2000" height="400" fill="white"/>
</clipPath>
<clipPath id="clip1_1973_90293">
<rect width="100" height="100" fill="white" transform="translate(500 299)"/>
</clipPath>
<clipPath id="clip2_1973_90293">
<rect width="100" height="100" fill="white" transform="matrix(4.37114e-08 1 1 -4.37114e-08 1200 299)"/>
</clipPath>
<clipPath id="clip3_1973_90293">
<rect width="100" height="100" fill="white" transform="translate(1500 299) rotate(90)"/>
</clipPath>
<clipPath id="clip4_1973_90293">
<rect width="100" height="100" fill="white" transform="translate(400 399) rotate(-90)"/>
</clipPath>
<clipPath id="clip5_1973_90293">
<rect width="100" height="100" fill="white" transform="matrix(4.37114e-08 -1 -1 -4.37114e-08 1600 400)"/>
</clipPath>
<clipPath id="clip6_1973_90293">
<rect width="100" height="100" fill="white" transform="translate(400 399) rotate(180)"/>
</clipPath>
<clipPath id="clip7_1973_90293">
<rect width="100" height="100" fill="white" transform="translate(100 199) rotate(-90)"/>
</clipPath>
<clipPath id="clip8_1973_90293">
<rect width="100" height="100" fill="white" transform="translate(1700 -1)"/>
</clipPath>
<clipPath id="clip9_1973_90293">
<rect width="100" height="100" fill="white" transform="translate(1800 -1)"/>
</clipPath>
<clipPath id="clip10_1973_90293">
<rect width="100" height="100" fill="white" transform="translate(1700 -1) rotate(90)"/>
</clipPath>
<clipPath id="clip11_1973_90293">
<rect width="100" height="100" fill="white" transform="matrix(-4.37114e-08 1 1 4.37114e-08 1700 99)"/>
</clipPath>
</defs>
</svg>
