<svg width="2000" height="500" viewBox="0 0 2000 500" fill="none" xmlns="http://www.w3.org/2000/svg">
<g clip-path="url(#clip0_1973_90048)">
<path d="M1642.65 449.648L1591.18 449.648" stroke="#6349FF" stroke-width="4.41177" stroke-linejoin="bevel"/>
<path d="M1649.65 442.646L1649.65 391.176" stroke="#6349FF" stroke-width="4.41177" stroke-linejoin="bevel"/>
<path d="M1657.35 449.648L1708.82 449.648" stroke="#6349FF" stroke-width="4.41177" stroke-linejoin="bevel"/>
<path d="M1657.35 464.352L1708.82 464.352" stroke="#6349FF" stroke-width="4.41177" stroke-linejoin="bevel"/>
<path d="M1657.35 479.059L1708.82 479.059" stroke="#6349FF" stroke-width="4.41177" stroke-linejoin="bevel"/>
<path d="M1657.35 492.297L1708.82 492.297" stroke="#6349FF" stroke-width="4.41177" stroke-linejoin="bevel"/>
<path d="M1644.55 445.051L1608.16 408.656" stroke="#6349FF" stroke-width="4.41177" stroke-linejoin="bevel"/>
</g>
<g clip-path="url(#clip1_1973_90048)">
<path d="M1757.35 250.352L1808.82 250.352" stroke="#6349FF" stroke-width="4.41177" stroke-linejoin="bevel"/>
<path d="M1750.35 257.354L1750.35 308.824" stroke="#6349FF" stroke-width="4.41177" stroke-linejoin="bevel"/>
<path d="M1742.65 235.648L1691.18 235.648" stroke="#6349FF" stroke-width="4.41177" stroke-linejoin="bevel"/>
<path d="M1742.65 220.941L1691.18 220.941" stroke="#6349FF" stroke-width="4.41177" stroke-linejoin="bevel"/>
<path d="M1742.65 207.707L1691.18 207.707" stroke="#6349FF" stroke-width="4.41177" stroke-linejoin="bevel"/>
<path d="M1755.45 254.949L1791.85 291.344" stroke="#6349FF" stroke-width="4.41177" stroke-linejoin="bevel"/>
</g>
<g clip-path="url(#clip2_1973_90048)">
<path d="M1542.64 349.715L1491.18 350.195" stroke="#6349FF" stroke-width="4.41177" stroke-linejoin="bevel"/>
<path d="M1554.95 355.449L1591.34 391.844" stroke="#6349FF" stroke-width="4.41177" stroke-linejoin="bevel"/>
</g>
<g clip-path="url(#clip3_1973_90048)">
<path d="M1349.71 42.6441L1350.2 -8.82422" stroke="#6349FF" stroke-width="4" stroke-linejoin="bevel"/>
<path d="M1355.45 54.9486L1391.84 91.3438" stroke="#6349FF" stroke-width="4.41177" stroke-linejoin="bevel"/>
</g>
<g clip-path="url(#clip4_1973_90048)">
<path d="M1449.64 157.354L1449.64 208.824" stroke="#6349FF" stroke-width="4.41177" stroke-linejoin="bevel"/>
<path d="M1455.45 145.051L1491.84 108.656" stroke="#6349FF" stroke-width="4.41177" stroke-linejoin="bevel"/>
<path d="M1445.05 144.551L1408.66 108.156" stroke="#6349FF" stroke-width="4.41177" stroke-linejoin="bevel"/>
</g>
<g clip-path="url(#clip5_1973_90048)">
<path d="M1657.35 150.352L1708.82 150.352" stroke="#6349FF" stroke-width="4.41177" stroke-linejoin="bevel"/>
<path d="M1650.35 142.646L1650.35 91.1758" stroke="#6349FF" stroke-width="4.41177" stroke-linejoin="bevel"/>
<path d="M1649.65 157.354L1649.65 208.824" stroke="#6349FF" stroke-width="4.41177" stroke-linejoin="bevel"/>
<path d="M1654.95 155.449L1691.34 191.844" stroke="#6349FF" stroke-width="4.41177" stroke-linejoin="bevel"/>
<path d="M1655.45 145.051L1691.85 108.656" stroke="#6349FF" stroke-width="4.41177" stroke-linejoin="bevel"/>
<path d="M1644.55 154.949L1608.15 191.344" stroke="#6349FF" stroke-width="4.41177" stroke-linejoin="bevel"/>
</g>
<defs>
<clipPath id="clip0_1973_90048">
<rect width="100" height="100" fill="white" transform="matrix(-1 0 0 1 1700 400)"/>
</clipPath>
<clipPath id="clip1_1973_90048">
<rect width="100" height="100" fill="white" transform="matrix(1 0 0 -1 1700 300)"/>
</clipPath>
<clipPath id="clip2_1973_90048">
<rect width="100" height="100" fill="white" transform="translate(1500 300)"/>
</clipPath>
<clipPath id="clip3_1973_90048">
<rect width="100" height="100" fill="white" transform="matrix(4.37114e-08 1 1 -4.37114e-08 1300 0)"/>
</clipPath>
<clipPath id="clip4_1973_90048">
<rect width="100" height="100" fill="white" transform="translate(1400 200) rotate(-90)"/>
</clipPath>
<clipPath id="clip5_1973_90048">
<rect width="100" height="100" fill="white" transform="translate(1700 200) rotate(180)"/>
</clipPath>
</defs>
</svg>
