<svg viewBox="0 0 2000 400" fill="none" xmlns="http://www.w3.org/2000/svg">
<g clip-path="url(#clip0_1973_89701)">
<path d="M842.646 349.648L791.176 349.648" stroke="#6349FF" stroke-width="4.41177" stroke-linejoin="bevel"/>
<path d="M849.648 342.646L849.648 291.176" stroke="#6349FF" stroke-width="4.41177" stroke-linejoin="bevel"/>
<path d="M857.354 349.648L908.824 349.648" stroke="#6349FF" stroke-width="4.41177" stroke-linejoin="bevel"/>
<path d="M857.354 364.352L908.824 364.352" stroke="#6349FF" stroke-width="4.41177" stroke-linejoin="bevel"/>
<path d="M857.354 379.059L908.824 379.059" stroke="#6349FF" stroke-width="4.41177" stroke-linejoin="bevel"/>
<path d="M857.354 392.293L908.824 392.293" stroke="#6349FF" stroke-width="4.41177" stroke-linejoin="bevel"/>
<path d="M844.548 345.051L808.152 308.656" stroke="#6349FF" stroke-width="4.41177" stroke-linejoin="bevel"/>
</g>
<g clip-path="url(#clip1_1973_89701)">
<path d="M1550.35 357.354L1550.35 408.824" stroke="#6349FF" stroke-width="4.41177" stroke-linejoin="bevel"/>
<path d="M1550.36 342.646L1550.36 291.176" stroke="#6349FF" stroke-width="4.41177" stroke-linejoin="bevel"/>
</g>
<g clip-path="url(#clip2_1973_89701)">
<path d="M750.355 142.646L750.355 91.1758" stroke="#6349FF" stroke-width="4.41177" stroke-linejoin="bevel"/>
<path d="M750.352 157.354L750.352 208.824" stroke="#6349FF" stroke-width="4.41177" stroke-linejoin="bevel"/>
<path d="M744.977 155.421L708.582 191.816" stroke="#6349FF" stroke-width="4.41177" stroke-linejoin="bevel"/>
<path d="M793 157.354L793 208.824" stroke="#6349FF" stroke-width="4.41177" stroke-linejoin="bevel"/>
<path d="M778.293 157.354L778.293 208.824" stroke="#6349FF" stroke-width="4.41177" stroke-linejoin="bevel"/>
<path d="M742.646 149.648L691.176 149.648" stroke="#6349FF" stroke-width="4.41177" stroke-linejoin="bevel"/>
<path d="M764.352 157.354L764.352 208.824" stroke="#6349FF" stroke-width="4.41177" stroke-linejoin="bevel"/>
</g>
<g clip-path="url(#clip3_1973_89701)">
<path d="M942.646 364.352L891.176 364.352" stroke="#6349FF" stroke-width="4.41177" stroke-linejoin="bevel"/>
<path d="M942.646 379.059L891.176 379.059" stroke="#6349FF" stroke-width="4.41177" stroke-linejoin="bevel"/>
<path d="M942.646 392.293L891.176 392.293" stroke="#6349FF" stroke-width="4.41177" stroke-linejoin="bevel"/>
<path d="M957.354 379.059L1008.82 379.059" stroke="#6349FF" stroke-width="4.41177" stroke-linejoin="bevel"/>
<path d="M957.354 392.293L1008.82 392.293" stroke="#6349FF" stroke-width="4.41177" stroke-linejoin="bevel"/>
</g>
<g clip-path="url(#clip4_1973_89701)">
<path d="M644.551 145.051L608.156 108.656" stroke="#6349FF" stroke-width="4.41177" stroke-linejoin="bevel"/>
<path d="M657.354 149.648L708.824 149.648" stroke="#6349FF" stroke-width="4.41177" stroke-linejoin="bevel"/>
</g>
<g clip-path="url(#clip5_1973_89701)">
<path d="M749.648 242.646L749.648 191.176" stroke="#6349FF" stroke-width="4.41177" stroke-linejoin="bevel"/>
<path d="M750.352 257.354L750.352 308.824" stroke="#6349FF" stroke-width="4.41177" stroke-linejoin="bevel"/>
<path d="M755.449 254.949L791.844 291.344" stroke="#6349FF" stroke-width="4.41177" stroke-linejoin="bevel"/>
</g>
<g clip-path="url(#clip6_1973_89701)">
<path d="M1649.64 142.646L1649.64 91.1758" stroke="#6349FF" stroke-width="4.41177" stroke-linejoin="bevel"/>
<path d="M1645.05 155.452L1608.66 191.848" stroke="#6349FF" stroke-width="4.41177" stroke-linejoin="bevel"/>
</g>
<g clip-path="url(#clip7_1973_89701)">
<path d="M1550.35 257.354L1550.35 308.824" stroke="#6349FF" stroke-width="4.41177" stroke-linejoin="bevel"/>
<path d="M1535.71 257.354L1535.71 308.824" stroke="#6349FF" stroke-width="4.41177" stroke-linejoin="bevel"/>
<path d="M1520.71 257.354L1520.71 308.824" stroke="#6349FF" stroke-width="4.41177" stroke-linejoin="bevel"/>
<path d="M1505.7 257.354L1505.7 308.824" stroke="#6349FF" stroke-width="4.41177" stroke-linejoin="bevel"/>
<path d="M1554.95 244.548L1591.34 208.152" stroke="#6349FF" stroke-width="4.41177" stroke-linejoin="bevel"/>
</g>
<g clip-path="url(#clip8_1973_89701)">
<path d="M1642.65 49.6484L1591.18 49.6484" stroke="#6349FF" stroke-width="4.41177" stroke-linejoin="bevel"/>
<path d="M1657.35 64.3516L1708.82 64.3516" stroke="#6349FF" stroke-width="4.41177" stroke-linejoin="bevel"/>
<path d="M1657.35 79.0586L1708.82 79.0586" stroke="#6349FF" stroke-width="4.41177" stroke-linejoin="bevel"/>
<path d="M1657.35 21.707L1708.82 21.707" stroke="#6349FF" stroke-width="4.41177" stroke-linejoin="bevel"/>
<path d="M1657.35 92.293L1708.82 92.293" stroke="#6349FF" stroke-width="4.41177" stroke-linejoin="bevel"/>
<path d="M1657.35 34.9414L1708.82 34.9414" stroke="#6349FF" stroke-width="4.41177" stroke-linejoin="bevel"/>
<path d="M1642.65 79.0586L1591.18 79.0586" stroke="#6349FF" stroke-width="4.41177" stroke-linejoin="bevel"/>
<path d="M1642.65 92.293L1591.18 92.293" stroke="#6349FF" stroke-width="4.41177" stroke-linejoin="bevel"/>
</g>
<g clip-path="url(#clip9_1973_89701)">
<path d="M457.354 250.352L508.824 250.352" stroke="#6349FF" stroke-width="4.41177" stroke-linejoin="bevel"/>
<path d="M450.352 242.646L450.352 191.176" stroke="#6349FF" stroke-width="4.41177" stroke-linejoin="bevel"/>
<path d="M449.648 257.354L449.648 308.824" stroke="#6349FF" stroke-width="4.41177" stroke-linejoin="bevel"/>
<path d="M444.551 254.949L408.156 291.344" stroke="#6349FF" stroke-width="4.41177" stroke-linejoin="bevel"/>
</g>
<defs>
<clipPath id="clip0_1973_89701">
<rect width="100" height="100" fill="white" transform="matrix(-1 0 0 1 900 300)"/>
</clipPath>
<clipPath id="clip1_1973_89701">
<rect width="100" height="100" fill="white" transform="translate(1600 300) rotate(90)"/>
</clipPath>
<clipPath id="clip2_1973_89701">
<rect width="100" height="100" fill="white" transform="matrix(4.37114e-08 -1 -1 -4.37114e-08 800 200)"/>
</clipPath>
<clipPath id="clip3_1973_89701">
<rect width="100" height="100" fill="white" transform="translate(900 300)"/>
</clipPath>
<clipPath id="clip4_1973_89701">
<rect width="100" height="100" fill="white" transform="matrix(1 8.74228e-08 8.74228e-08 -1 600 200)"/>
</clipPath>
<clipPath id="clip5_1973_89701">
<rect width="100" height="100" fill="white" transform="matrix(1 8.74228e-08 8.74228e-08 -1 700 300)"/>
</clipPath>
<clipPath id="clip6_1973_89701">
<rect width="100" height="100" fill="white" transform="matrix(-1 8.74228e-08 8.74228e-08 1 1700 100)"/>
</clipPath>
<clipPath id="clip7_1973_89701">
<rect width="100" height="100" fill="white" transform="matrix(1 0 0 -1 1500 300)"/>
</clipPath>
<clipPath id="clip8_1973_89701">
<rect width="100" height="100" fill="white" transform="matrix(-1 -8.74228e-08 -8.74228e-08 1 1700 0)"/>
</clipPath>
<clipPath id="clip9_1973_89701">
<rect width="100" height="100" fill="white" transform="translate(500 300) rotate(180)"/>
</clipPath>
</defs>
</svg>
