<svg width="2000" height="400" viewBox="0 0 2000 400" fill="none" xmlns="http://www.w3.org/2000/svg">
<g clip-path="url(#clip0_1973_90092)">
<path d="M1350.35 57.3536L1350.35 108.824" stroke="#6349FF" stroke-width="4.41177" stroke-linejoin="bevel"/>
<path d="M1335.64 42.6464L1335.64 -8.82422" stroke="#6349FF" stroke-width="4.41177" stroke-linejoin="bevel"/>
<path d="M1320.94 42.6464L1320.94 -8.82422" stroke="#6349FF" stroke-width="4.41177" stroke-linejoin="bevel"/>
<path d="M1307.7 42.6464L1307.7 -8.82422" stroke="#6349FF" stroke-width="4.41177" stroke-linejoin="bevel"/>
<path d="M1335.65 57.3536L1335.65 108.824" stroke="#6349FF" stroke-width="4.41177" stroke-linejoin="bevel"/>
</g>
<g clip-path="url(#clip1_1973_90092)">
<path d="M1249.65 342.646L1249.65 291.176" stroke="#6349FF" stroke-width="4.41177" stroke-linejoin="bevel"/>
<path d="M1264.35 342.646L1264.35 291.176" stroke="#6349FF" stroke-width="4.41177" stroke-linejoin="bevel"/>
</g>
<g clip-path="url(#clip2_1973_90092)">
<path d="M1757.35 49.6484L1808.82 49.6484" stroke="#6349FF" stroke-width="4.41177" stroke-linejoin="bevel"/>
<path d="M1742.65 49.6484L1691.18 49.6484" stroke="#6349FF" stroke-width="4.41177" stroke-linejoin="bevel"/>
<path d="M1750.38 42.7206L1750.38 -8.75" stroke="#6349FF" stroke-width="4.41177" stroke-linejoin="bevel"/>
<path d="M1750.35 57.3536L1750.35 108.824" stroke="#6349FF" stroke-width="4.41177" stroke-linejoin="bevel"/>
</g>
<g clip-path="url(#clip3_1973_90092)">
<path d="M1449.65 157.354L1449.65 208.824" stroke="#6349FF" stroke-width="4.41177" stroke-linejoin="bevel"/>
<path d="M1457.35 149.645L1508.82 149.645" stroke="#6349FF" stroke-width="4.41177" stroke-linejoin="bevel"/>
<path d="M1435.65 157.35L1435.65 208.82" stroke="#6349FF" stroke-width="4.41177" stroke-linejoin="bevel"/>
<path d="M1420.94 157.354L1420.94 208.824" stroke="#6349FF" stroke-width="4.41177" stroke-linejoin="bevel"/>
<path d="M1407.71 157.35L1407.71 208.82" stroke="#6349FF" stroke-width="4.41177" stroke-linejoin="bevel"/>
</g>
<g clip-path="url(#clip4_1973_90092)">
<path d="M349.648 342.646L349.648 291.176" stroke="#6349FF" stroke-width="4.41177" stroke-linejoin="bevel"/>
<path d="M344.551 354.949L308.156 391.344" stroke="#6349FF" stroke-width="4.41177" stroke-linejoin="bevel"/>
<path d="M357.354 349.648L408.824 349.648" stroke="#6349FF" stroke-width="4.41177" stroke-linejoin="bevel"/>
<path d="M357.178 336.648L408.648 336.648" stroke="#6349FF" stroke-width="4.41177" stroke-linejoin="bevel"/>
<path d="M357.178 321.937L408.648 321.938" stroke="#6349FF" stroke-width="4.41177" stroke-linejoin="bevel"/>
<path d="M357.178 308.703L408.648 308.703" stroke="#6349FF" stroke-width="4.41177" stroke-linejoin="bevel"/>
</g>
<g clip-path="url(#clip5_1973_90092)">
<path d="M1349.64 142.646L1349.64 91.1758" stroke="#6349FF" stroke-width="4.41177" stroke-linejoin="bevel"/>
<path d="M1357.35 149.648L1408.82 149.648" stroke="#6349FF" stroke-width="4.41177" stroke-linejoin="bevel"/>
<path d="M1345.05 155.449L1308.66 191.844" stroke="#6349FF" stroke-width="4.41177" stroke-linejoin="bevel"/>
</g>
<g clip-path="url(#clip6_1973_90092)">
<path d="M1249.65 257.354L1249.65 308.824" stroke="#6349FF" stroke-width="4.41177" stroke-linejoin="bevel"/>
<path d="M1242.65 249.645L1191.18 249.645" stroke="#6349FF" stroke-width="4.41177" stroke-linejoin="bevel"/>
<path d="M1254.95 244.548L1291.34 208.152" stroke="#6349FF" stroke-width="4.41177" stroke-linejoin="bevel"/>
</g>
<g clip-path="url(#clip7_1973_90092)">
<path d="M349.648 257.354L349.648 308.824" stroke="#6349FF" stroke-width="4.41177" stroke-linejoin="bevel"/>
<path d="M355.449 245.051L391.844 208.656" stroke="#6349FF" stroke-width="4.41177" stroke-linejoin="bevel"/>
<path d="M345.051 244.551L308.656 208.156" stroke="#6349FF" stroke-width="4.41177" stroke-linejoin="bevel"/>
</g>
<g clip-path="url(#clip8_1973_90092)">
<path d="M449.648 357.354L449.648 408.824" stroke="#6349FF" stroke-width="4.41177" stroke-linejoin="bevel"/>
<path d="M442.65 349.645L391.18 349.645" stroke="#6349FF" stroke-width="4.41177" stroke-linejoin="bevel"/>
</g>
<defs>
<clipPath id="clip0_1973_90092">
<rect width="100" height="100" fill="white" transform="translate(1400) rotate(90)"/>
</clipPath>
<clipPath id="clip1_1973_90092">
<rect width="100" height="100" fill="white" transform="translate(1200 400) rotate(-90)"/>
</clipPath>
<clipPath id="clip2_1973_90092">
<rect width="100" height="100" fill="white" transform="translate(1700)"/>
</clipPath>
<clipPath id="clip3_1973_90092">
<rect width="100" height="100" fill="white" transform="matrix(-1.19249e-08 -1 -1 1.19249e-08 1500 200)"/>
</clipPath>
<clipPath id="clip4_1973_90092">
<rect width="100" height="100" fill="white" transform="translate(300 400) rotate(-90)"/>
</clipPath>
<clipPath id="clip5_1973_90092">
<rect width="100" height="100" fill="white" transform="matrix(4.37114e-08 1 1 -4.37114e-08 1300 100)"/>
</clipPath>
<clipPath id="clip6_1973_90092">
<rect width="100" height="100" fill="white" transform="matrix(-4.37114e-08 1 1 4.37114e-08 1200 200)"/>
</clipPath>
<clipPath id="clip7_1973_90092">
<rect width="100" height="100" fill="white" transform="translate(300 300) rotate(-90)"/>
</clipPath>
<clipPath id="clip8_1973_90092">
<rect width="100" height="100" fill="white" transform="translate(400 400) rotate(-90)"/>
</clipPath>
</defs>
</svg>
