<svg width="2000" height="400" viewBox="0 0 2000 400" fill="none" xmlns="http://www.w3.org/2000/svg">
<g clip-path="url(#clip0_1973_89775)">
<path d="M1349.65 357.354L1349.65 408.824" stroke="#6349FF" stroke-width="4.41177" stroke-linejoin="bevel"/>
<path d="M1357.35 349.645L1408.82 349.645" stroke="#6349FF" stroke-width="4.41177" stroke-linejoin="bevel"/>
<path d="M1345.05 344.548L1308.66 308.152" stroke="#6349FF" stroke-width="4.41177" stroke-linejoin="bevel"/>
</g>
<g clip-path="url(#clip1_1973_89775)">
<path d="M857.354 349.648L908.824 349.648" stroke="#6349FF" stroke-width="4.41177" stroke-linejoin="bevel"/>
<path d="M842.646 349.648L791.176 349.648" stroke="#6349FF" stroke-width="4.41177" stroke-linejoin="bevel"/>
<path d="M842.646 364.352L791.176 364.352" stroke="#6349FF" stroke-width="4.41177" stroke-linejoin="bevel"/>
<path d="M842.646 379.059L791.176 379.059" stroke="#6349FF" stroke-width="4.41177" stroke-linejoin="bevel"/>
<path d="M842.646 392.293L791.176 392.293" stroke="#6349FF" stroke-width="4.41177" stroke-linejoin="bevel"/>
<path d="M857.354 364.352L908.824 364.352" stroke="#6349FF" stroke-width="4.41177" stroke-linejoin="bevel"/>
<path d="M857.354 379.059L908.824 379.059" stroke="#6349FF" stroke-width="4.41177" stroke-linejoin="bevel"/>
<path d="M857.354 392.293L908.824 392.293" stroke="#6349FF" stroke-width="4.41177" stroke-linejoin="bevel"/>
</g>
<g clip-path="url(#clip2_1973_89775)">
<path d="M1757.35 49.6484L1808.82 49.6484" stroke="#6349FF" stroke-width="4.41177" stroke-linejoin="bevel"/>
<path d="M1742.65 49.6484L1691.18 49.6484" stroke="#6349FF" stroke-width="4.41177" stroke-linejoin="bevel"/>
</g>
<g clip-path="url(#clip3_1973_89775)">
<path d="M1442.65 349.648L1391.18 349.648" stroke="#6349FF" stroke-width="4.41177" stroke-linejoin="bevel"/>
<path d="M1457.35 364.352L1508.82 364.352" stroke="#6349FF" stroke-width="4.41177" stroke-linejoin="bevel"/>
<path d="M1457.35 379.059L1508.82 379.059" stroke="#6349FF" stroke-width="4.41177" stroke-linejoin="bevel"/>
<path d="M1457.35 321.707L1508.82 321.707" stroke="#6349FF" stroke-width="4.41177" stroke-linejoin="bevel"/>
<path d="M1457.35 392.293L1508.82 392.293" stroke="#6349FF" stroke-width="4.41177" stroke-linejoin="bevel"/>
<path d="M1457.35 334.941L1508.82 334.941" stroke="#6349FF" stroke-width="4.41177" stroke-linejoin="bevel"/>
<path d="M1442.65 379.059L1391.18 379.059" stroke="#6349FF" stroke-width="4.41177" stroke-linejoin="bevel"/>
<path d="M1442.65 392.293L1391.18 392.293" stroke="#6349FF" stroke-width="4.41177" stroke-linejoin="bevel"/>
</g>
<g clip-path="url(#clip4_1973_89775)">
<path d="M1242.65 249.648L1191.18 249.648" stroke="#6349FF" stroke-width="4.41177" stroke-linejoin="bevel"/>
<path d="M1257.35 264.352L1308.82 264.352" stroke="#6349FF" stroke-width="4.41177" stroke-linejoin="bevel"/>
<path d="M1257.35 279.059L1308.82 279.059" stroke="#6349FF" stroke-width="4.41177" stroke-linejoin="bevel"/>
<path d="M1257.35 292.293L1308.82 292.293" stroke="#6349FF" stroke-width="4.41177" stroke-linejoin="bevel"/>
<path d="M1242.65 264.352L1191.18 264.352" stroke="#6349FF" stroke-width="4.41177" stroke-linejoin="bevel"/>
<path d="M1242.65 279.059L1191.18 279.059" stroke="#6349FF" stroke-width="4.41177" stroke-linejoin="bevel"/>
<path d="M1242.65 292.293L1191.18 292.293" stroke="#6349FF" stroke-width="4.41177" stroke-linejoin="bevel"/>
</g>
<g clip-path="url(#clip5_1973_89775)">
<path d="M335.354 349.648L386.824 349.648" stroke="#6349FF" stroke-width="4.41177" stroke-linejoin="bevel"/>
<path d="M328.352 342.646L328.352 291.176" stroke="#6349FF" stroke-width="4.41177" stroke-linejoin="bevel"/>
<path d="M320.646 379.059L269.176 379.059" stroke="#6349FF" stroke-width="4.41177" stroke-linejoin="bevel"/>
<path d="M320.646 392.297L269.176 392.297" stroke="#6349FF" stroke-width="4.41177" stroke-linejoin="bevel"/>
</g>
<g clip-path="url(#clip6_1973_89775)">
<path d="M1657.35 149.648L1708.82 149.648" stroke="#6349FF" stroke-width="4.41177" stroke-linejoin="bevel"/>
<path d="M1644.55 145.051L1608.16 108.656" stroke="#6349FF" stroke-width="4.41177" stroke-linejoin="bevel"/>
</g>
<g clip-path="url(#clip7_1973_89775)">
<path d="M1157.35 249.648L1208.82 249.648" stroke="#6349FF" stroke-width="4.41177" stroke-linejoin="bevel"/>
<path d="M1144.55 245.051L1108.16 208.656" stroke="#6349FF" stroke-width="4.41177" stroke-linejoin="bevel"/>
</g>
<g clip-path="url(#clip8_1973_89775)">
<path d="M1742.65 150.352L1691.18 150.352" stroke="#6349FF" stroke-width="4.41177" stroke-linejoin="bevel"/>
<path d="M1755.45 154.949L1791.84 191.344" stroke="#6349FF" stroke-width="4.41177" stroke-linejoin="bevel"/>
<path d="M1750.36 142.646L1750.36 91.1758" stroke="#6349FF" stroke-width="4.41177" stroke-linejoin="bevel"/>
</g>
<defs>
<clipPath id="clip0_1973_89775">
<rect width="100" height="100" fill="white" transform="translate(1300 400) rotate(-90)"/>
</clipPath>
<clipPath id="clip1_1973_89775">
<rect width="100" height="100" fill="white" transform="translate(800 300)"/>
</clipPath>
<clipPath id="clip2_1973_89775">
<rect width="100" height="100" fill="white" transform="translate(1700)"/>
</clipPath>
<clipPath id="clip3_1973_89775">
<rect width="100" height="100" fill="white" transform="matrix(-1 0 0 1 1500 300)"/>
</clipPath>
<clipPath id="clip4_1973_89775">
<rect width="100" height="100" fill="white" transform="matrix(-1 0 0 1 1300 200)"/>
</clipPath>
<clipPath id="clip5_1973_89775">
<rect width="100" height="100" fill="white" transform="translate(278 300)"/>
</clipPath>
<clipPath id="clip6_1973_89775">
<rect width="100" height="100" fill="white" transform="matrix(4.37114e-08 -1 -1 -4.37114e-08 1700 200)"/>
</clipPath>
<clipPath id="clip7_1973_89775">
<rect width="100" height="100" fill="white" transform="matrix(4.37114e-08 -1 -1 -4.37114e-08 1200 300)"/>
</clipPath>
<clipPath id="clip8_1973_89775">
<rect width="100" height="100" fill="white" transform="matrix(-4.37114e-08 1 1 4.37114e-08 1700 100)"/>
</clipPath>
</defs>
</svg>
