<svg width="2000" height="400" viewBox="0 0 2000 400" fill="none" xmlns="http://www.w3.org/2000/svg">
<g clip-path="url(#clip0_1973_90218)">
<g clip-path="url(#clip1_1973_90218)">
<path d="M1550.35 357.354L1550.35 408.824" stroke="#6349FF" stroke-width="4.41177" stroke-linejoin="bevel"/>
<path d="M1557.35 349.648L1608.82 349.648" stroke="#6349FF" stroke-width="4.41177" stroke-linejoin="bevel"/>
<path d="M1554.95 344.548L1591.34 308.152" stroke="#6349FF" stroke-width="4.41177" stroke-linejoin="bevel"/>
</g>
<g clip-path="url(#clip2_1973_90218)">
<path d="M257.354 149.648L308.824 149.648" stroke="#6349FF" stroke-width="4.41177" stroke-linejoin="bevel"/>
<path d="M242.646 149.648L191.176 149.648" stroke="#6349FF" stroke-width="4.41177" stroke-linejoin="bevel"/>
<path d="M250.383 142.721L250.383 91.25" stroke="#6349FF" stroke-width="4.41177" stroke-linejoin="bevel"/>
<path d="M250.352 157.354L250.352 208.824" stroke="#6349FF" stroke-width="4.41177" stroke-linejoin="bevel"/>
</g>
<g clip-path="url(#clip3_1973_90218)">
<path d="M1655.45 145.051L1691.84 108.656" stroke="#6349FF" stroke-width="4.41177" stroke-linejoin="bevel"/>
<path d="M1642.65 149.648L1591.18 149.648" stroke="#6349FF" stroke-width="4.41177" stroke-linejoin="bevel"/>
</g>
<g clip-path="url(#clip4_1973_90218)">
<path d="M1557.35 150.355L1608.82 150.355" stroke="#6349FF" stroke-width="4.41177" stroke-linejoin="bevel"/>
<path d="M1557.35 162.707L1608.82 162.707" stroke="#6349FF" stroke-width="4.41177" stroke-linejoin="bevel"/>
<path d="M1557.35 177.707L1608.82 177.707" stroke="#6349FF" stroke-width="4.41177" stroke-linejoin="bevel"/>
<path d="M1557.35 189.707L1608.82 189.707" stroke="#6349FF" stroke-width="4.41177" stroke-linejoin="bevel"/>
<path d="M1545.05 144.551L1508.66 108.156" stroke="#6349FF" stroke-width="4.41177" stroke-linejoin="bevel"/>
<path d="M1544.55 154.949L1508.16 191.344" stroke="#6349FF" stroke-width="4.41177" stroke-linejoin="bevel"/>
</g>
<g clip-path="url(#clip5_1973_90218)">
<path d="M1150.36 42.6464L1150.36 -8.82422" stroke="#6349FF" stroke-width="4.41177" stroke-linejoin="bevel"/>
<path d="M1142.65 49.6445L1091.18 49.6445" stroke="#6349FF" stroke-width="4.41177" stroke-linejoin="bevel"/>
<path d="M1157.35 50.3555L1208.82 50.3555" stroke="#6349FF" stroke-width="4.41177" stroke-linejoin="bevel"/>
<path d="M1155.45 45.0514L1191.84 8.65625" stroke="#6349FF" stroke-width="4.41177" stroke-linejoin="bevel"/>
<path d="M1145.05 44.5476L1108.66 8.15234" stroke="#6349FF" stroke-width="4.41177" stroke-linejoin="bevel"/>
<path d="M1149.64 57.3536L1149.64 108.824" stroke="#6349FF" stroke-width="4.41177" stroke-linejoin="bevel"/>
</g>
<g clip-path="url(#clip6_1973_90218)">
<path d="M350.352 242.646L350.352 191.176" stroke="#6349FF" stroke-width="4.41177" stroke-linejoin="bevel"/>
<path d="M344.551 254.949L308.156 291.344" stroke="#6349FF" stroke-width="4.41177" stroke-linejoin="bevel"/>
<path d="M354.949 255.449L391.344 291.844" stroke="#6349FF" stroke-width="4.41177" stroke-linejoin="bevel"/>
</g>
<g clip-path="url(#clip7_1973_90218)">
<path d="M1457.35 35.6484L1508.82 35.6484" stroke="#6349FF" stroke-width="4.41177" stroke-linejoin="bevel"/>
<path d="M1457.35 78.6484L1508.82 78.6484" stroke="#6349FF" stroke-width="4.41177" stroke-linejoin="bevel"/>
<path d="M1457.35 91.707L1508.82 91.707" stroke="#6349FF" stroke-width="4.41177" stroke-linejoin="bevel"/>
<path d="M1457.35 20.9414L1508.82 20.9414" stroke="#6349FF" stroke-width="4.41177" stroke-linejoin="bevel"/>
<path d="M1457.35 63.9414L1508.82 63.9414" stroke="#6349FF" stroke-width="4.41177" stroke-linejoin="bevel"/>
<path d="M1457.35 7.70703L1508.82 7.70703" stroke="#6349FF" stroke-width="4.41177" stroke-linejoin="bevel"/>
<path d="M1457.35 50.707L1508.82 50.707" stroke="#6349FF" stroke-width="4.41177" stroke-linejoin="bevel"/>
<path d="M1442.65 20.9414L1391.18 20.9414" stroke="#6349FF" stroke-width="4.41177" stroke-linejoin="bevel"/>
<path d="M1442.65 63.9414L1391.18 63.9414" stroke="#6349FF" stroke-width="4.41177" stroke-linejoin="bevel"/>
<path d="M1442.65 7.70704L1391.18 7.70703" stroke="#6349FF" stroke-width="4.41177" stroke-linejoin="bevel"/>
<path d="M1442.65 50.707L1391.18 50.707" stroke="#6349FF" stroke-width="4.41177" stroke-linejoin="bevel"/>
</g>
<g clip-path="url(#clip8_1973_90218)">
<path d="M442.646 349.648L391.176 349.648" stroke="#6349FF" stroke-width="4.41177" stroke-linejoin="bevel"/>
<path d="M449.648 342.646L449.648 291.176" stroke="#6349FF" stroke-width="4.41177" stroke-linejoin="bevel"/>
<path d="M457.35 349.648L508.82 349.648" stroke="#6349FF" stroke-width="4.41177" stroke-linejoin="bevel"/>
<path d="M457.35 364.352L508.82 364.352" stroke="#6349FF" stroke-width="4.41177" stroke-linejoin="bevel"/>
<path d="M457.35 379.059L508.82 379.059" stroke="#6349FF" stroke-width="4.41177" stroke-linejoin="bevel"/>
<path d="M457.35 392.297L508.82 392.297" stroke="#6349FF" stroke-width="4.41177" stroke-linejoin="bevel"/>
<path d="M444.551 345.051L408.156 308.656" stroke="#6349FF" stroke-width="4.41177" stroke-linejoin="bevel"/>
</g>
</g>
<defs>
<clipPath id="clip0_1973_90218">
<rect width="2000" height="400" fill="white"/>
</clipPath>
<clipPath id="clip1_1973_90218">
<rect width="100" height="100" fill="white" transform="matrix(4.37114e-08 -1 -1 -4.37114e-08 1600 400)"/>
</clipPath>
<clipPath id="clip2_1973_90218">
<rect width="100" height="100" fill="white" transform="translate(200 100)"/>
</clipPath>
<clipPath id="clip3_1973_90218">
<rect width="100" height="100" fill="white" transform="translate(1700 200) rotate(180)"/>
</clipPath>
<clipPath id="clip4_1973_90218">
<rect width="100" height="100" fill="white" transform="translate(1600 200) rotate(-180)"/>
</clipPath>
<clipPath id="clip5_1973_90218">
<rect width="100" height="100" fill="white" transform="translate(1200) rotate(90)"/>
</clipPath>
<clipPath id="clip6_1973_90218">
<rect width="100" height="100" fill="white" transform="translate(400 200) rotate(90)"/>
</clipPath>
<clipPath id="clip7_1973_90218">
<rect width="100" height="100" fill="white" transform="translate(1500 100) rotate(-180)"/>
</clipPath>
<clipPath id="clip8_1973_90218">
<rect width="100" height="100" fill="white" transform="matrix(-1 0 0 1 500 300)"/>
</clipPath>
</defs>
</svg>
