<svg viewBox="0 0 2000 400" fill="none" xmlns="http://www.w3.org/2000/svg">
<g clip-path="url(#clip0_1973_89986)">
<path d="M757.354 349.648L808.824 349.648" stroke="#6349FF" stroke-width="4.41177" stroke-linejoin="bevel"/>
<path d="M742.646 350.648L691.176 350.648" stroke="#6349FF" stroke-width="4.41177" stroke-linejoin="bevel"/>
<path d="M742.646 364.352L691.176 364.352" stroke="#6349FF" stroke-width="4.41177" stroke-linejoin="bevel"/>
<path d="M742.646 379.059L691.176 379.059" stroke="#6349FF" stroke-width="4.41177" stroke-linejoin="bevel"/>
<path d="M742.646 392.293L691.176 392.293" stroke="#6349FF" stroke-width="4.41177" stroke-linejoin="bevel"/>
<path d="M757.354 379.059L808.824 379.059" stroke="#6349FF" stroke-width="4.41177" stroke-linejoin="bevel"/>
</g>
<g clip-path="url(#clip1_1973_89986)">
<path d="M1349.65 357.354L1349.65 408.824" stroke="#6349FF" stroke-width="4.41177" stroke-linejoin="bevel"/>
<path d="M1364.35 342.646L1364.35 291.176" stroke="#6349FF" stroke-width="4.41177" stroke-linejoin="bevel"/>
<path d="M1379.06 342.646L1379.06 291.176" stroke="#6349FF" stroke-width="4.41177" stroke-linejoin="bevel"/>
<path d="M1392.29 342.646L1392.29 291.176" stroke="#6349FF" stroke-width="4.41177" stroke-linejoin="bevel"/>
<path d="M1364.36 357.354L1364.36 408.824" stroke="#6349FF" stroke-width="4.41177" stroke-linejoin="bevel"/>
<path d="M1379.06 357.354L1379.06 408.824" stroke="#6349FF" stroke-width="4.41177" stroke-linejoin="bevel"/>
<path d="M1392.29 357.354L1392.29 408.824" stroke="#6349FF" stroke-width="4.41177" stroke-linejoin="bevel"/>
</g>
<g clip-path="url(#clip2_1973_89986)">
<path d="M1535.65 342.646L1535.65 291.176" stroke="#6349FF" stroke-width="4.41177" stroke-linejoin="bevel"/>
<path d="M1520.94 342.646L1520.94 291.176" stroke="#6349FF" stroke-width="4.41177" stroke-linejoin="bevel"/>
<path d="M1507.71 342.646L1507.71 291.176" stroke="#6349FF" stroke-width="4.41177" stroke-linejoin="bevel"/>
<path d="M1520.94 357.354L1520.94 408.824" stroke="#6349FF" stroke-width="4.41177" stroke-linejoin="bevel"/>
<path d="M1507.71 357.354L1507.71 408.824" stroke="#6349FF" stroke-width="4.41177" stroke-linejoin="bevel"/>
</g>
<g clip-path="url(#clip3_1973_89986)">
<path d="M649.648 357.354L649.648 408.824" stroke="#6349FF" stroke-width="4.41177" stroke-linejoin="bevel"/>
<path d="M657.354 350.352L708.824 350.352" stroke="#6349FF" stroke-width="4.41177" stroke-linejoin="bevel"/>
<path d="M642.646 349.648L591.176 349.648" stroke="#6349FF" stroke-width="4.41177" stroke-linejoin="bevel"/>
</g>
<g clip-path="url(#clip4_1973_89986)">
<path d="M1657.35 349.648L1708.82 349.648" stroke="#6349FF" stroke-width="4.41177" stroke-linejoin="bevel"/>
<path d="M1644.55 345.051L1608.16 308.656" stroke="#6349FF" stroke-width="4.41177" stroke-linejoin="bevel"/>
</g>
<g clip-path="url(#clip5_1973_89986)">
<path d="M557.354 350.352L608.824 350.352" stroke="#6349FF" stroke-width="4.41177" stroke-linejoin="bevel"/>
<path d="M550.352 342.646L550.352 291.176" stroke="#6349FF" stroke-width="4.41177" stroke-linejoin="bevel"/>
<path d="M545.051 344.551L508.656 308.156" stroke="#6349FF" stroke-width="4.41177" stroke-linejoin="bevel"/>
<path d="M555.452 345.051L591.848 308.656" stroke="#6349FF" stroke-width="4.41177" stroke-linejoin="bevel"/>
<path d="M544.548 354.949L508.152 391.344" stroke="#6349FF" stroke-width="4.41177" stroke-linejoin="bevel"/>
</g>
<g clip-path="url(#clip6_1973_89986)">
<path d="M349.648 157.354L349.648 208.824" stroke="#6349FF" stroke-width="4.41177" stroke-linejoin="bevel"/>
<path d="M357.354 150.352L408.824 150.352" stroke="#6349FF" stroke-width="4.41177" stroke-linejoin="bevel"/>
<path d="M342.646 149.648L291.176 149.648" stroke="#6349FF" stroke-width="4.41177" stroke-linejoin="bevel"/>
<path d="M345.051 144.551L308.656 108.156" stroke="#6349FF" stroke-width="4.41177" stroke-linejoin="bevel"/>
</g>
<g clip-path="url(#clip7_1973_89986)">
<path d="M457.354 50.3516L508.824 50.3516" stroke="#6349FF" stroke-width="4.41177" stroke-linejoin="bevel"/>
<path d="M449.645 57.3536L449.645 108.824" stroke="#6349FF" stroke-width="4.41177" stroke-linejoin="bevel"/>
<path d="M444.551 54.9486L408.156 91.3438" stroke="#6349FF" stroke-width="4.41177" stroke-linejoin="bevel"/>
</g>
<g clip-path="url(#clip8_1973_89986)">
<path d="M542.65 249.648L491.18 249.648" stroke="#6349FF" stroke-width="4.41177" stroke-linejoin="bevel"/>
<path d="M554.952 255.449L591.348 291.844" stroke="#6349FF" stroke-width="4.41177" stroke-linejoin="bevel"/>
<path d="M555.452 245.051L591.848 208.656" stroke="#6349FF" stroke-width="4.41177" stroke-linejoin="bevel"/>
</g>
<defs>
<clipPath id="clip0_1973_89986">
<rect width="100" height="100" fill="white" transform="translate(700 300)"/>
</clipPath>
<clipPath id="clip1_1973_89986">
<rect width="100" height="100" fill="white" transform="matrix(4.37114e-08 1 1 -4.37114e-08 1300 300)"/>
</clipPath>
<clipPath id="clip2_1973_89986">
<rect width="100" height="100" fill="white" transform="translate(1600 300) rotate(90)"/>
</clipPath>
<clipPath id="clip3_1973_89986">
<rect width="100" height="100" fill="white" transform="translate(600 400) rotate(-90)"/>
</clipPath>
<clipPath id="clip4_1973_89986">
<rect width="100" height="100" fill="white" transform="matrix(4.37114e-08 -1 -1 -4.37114e-08 1700 400)"/>
</clipPath>
<clipPath id="clip5_1973_89986">
<rect width="100" height="100" fill="white" transform="translate(600 400) rotate(180)"/>
</clipPath>
<clipPath id="clip6_1973_89986">
<rect width="100" height="100" fill="white" transform="translate(300 200) rotate(-90)"/>
</clipPath>
<clipPath id="clip7_1973_89986">
<rect width="100" height="100" fill="white" transform="translate(500 100) rotate(-180)"/>
</clipPath>
<clipPath id="clip8_1973_89986">
<rect width="100" height="100" fill="white" transform="translate(500 200)"/>
</clipPath>
</defs>
</svg>
