<svg width="2000" height="800" viewBox="0 0 2000 800" fill="none" xmlns="http://www.w3.org/2000/svg">
<g clip-path="url(#clip0_1973_89838)">
<path d="M1457.35 50.3516L1508.82 50.3516" stroke="#6349FF" stroke-width="4.41177" stroke-linejoin="bevel"/>
<path d="M1442.65 35.6484L1391.18 35.6484" stroke="#6349FF" stroke-width="4.41177" stroke-linejoin="bevel"/>
<path d="M1442.65 20.9414L1391.18 20.9414" stroke="#6349FF" stroke-width="4.41177" stroke-linejoin="bevel"/>
<path d="M1442.65 7.70703L1391.18 7.70703" stroke="#6349FF" stroke-width="4.41177" stroke-linejoin="bevel"/>
<path d="M1457.35 35.6484L1508.82 35.6484" stroke="#6349FF" stroke-width="4.41177" stroke-linejoin="bevel"/>
</g>
<g clip-path="url(#clip1_1973_89838)">
<path d="M742.646 50.3516L691.176 50.3516" stroke="#6349FF" stroke-width="4.41177" stroke-linejoin="bevel"/>
<path d="M742.646 35.6484L691.176 35.6484" stroke="#6349FF" stroke-width="4.41177" stroke-linejoin="bevel"/>
</g>
<g clip-path="url(#clip2_1973_89838)">
<path d="M1649.65 157.354L1649.65 208.824" stroke="#6349FF" stroke-width="4.41177" stroke-linejoin="bevel"/>
<path d="M1654.95 144.551L1691.34 108.156" stroke="#6349FF" stroke-width="4.41177" stroke-linejoin="bevel"/>
<path d="M1635.65 157.35L1635.65 208.82" stroke="#6349FF" stroke-width="4.41177" stroke-linejoin="bevel"/>
<path d="M1620.94 157.354L1620.94 208.824" stroke="#6349FF" stroke-width="4.41177" stroke-linejoin="bevel"/>
<path d="M1607.71 157.35L1607.71 208.82" stroke="#6349FF" stroke-width="4.41177" stroke-linejoin="bevel"/>
</g>
<g clip-path="url(#clip3_1973_89838)">
<path d="M1349.64 142.65L1349.64 91.1797" stroke="#6349FF" stroke-width="4.41177" stroke-linejoin="bevel"/>
<path d="M1357.35 149.648L1408.82 149.648" stroke="#6349FF" stroke-width="4.41177" stroke-linejoin="bevel"/>
<path d="M1345.05 155.449L1308.66 191.844" stroke="#6349FF" stroke-width="4.41177" stroke-linejoin="bevel"/>
</g>
<g clip-path="url(#clip4_1973_89838)">
<path d="M657.354 50.3516L708.824 50.3516" stroke="#6349FF" stroke-width="4.41177" stroke-linejoin="bevel"/>
<path d="M649.648 57.3536L649.648 108.824" stroke="#6349FF" stroke-width="4.41177" stroke-linejoin="bevel"/>
<path d="M644.548 45.0514L608.152 8.65625" stroke="#6349FF" stroke-width="4.41177" stroke-linejoin="bevel"/>
</g>
<g clip-path="url(#clip5_1973_89838)">
<path d="M357.35 250.352L408.82 250.352" stroke="#6349FF" stroke-width="4.41177" stroke-linejoin="bevel"/>
<path d="M345.048 244.551L308.652 208.156" stroke="#6349FF" stroke-width="4.41177" stroke-linejoin="bevel"/>
<path d="M344.548 254.949L308.152 291.344" stroke="#6349FF" stroke-width="4.41177" stroke-linejoin="bevel"/>
</g>
<g clip-path="url(#clip6_1973_89838)">
<path d="M1650.35 257.354L1650.35 308.824" stroke="#6349FF" stroke-width="4.41177" stroke-linejoin="bevel"/>
<path d="M1635.65 242.646L1635.65 191.176" stroke="#6349FF" stroke-width="4.41177" stroke-linejoin="bevel"/>
<path d="M1620.94 242.646L1620.94 191.176" stroke="#6349FF" stroke-width="4.41177" stroke-linejoin="bevel"/>
<path d="M1607.71 242.646L1607.71 191.176" stroke="#6349FF" stroke-width="4.41177" stroke-linejoin="bevel"/>
<path d="M1620.94 257.354L1620.94 308.824" stroke="#6349FF" stroke-width="4.41177" stroke-linejoin="bevel"/>
</g>
<g clip-path="url(#clip7_1973_89838)">
<path d="M657.354 399.648L708.824 399.648" stroke="#6349FF" stroke-width="4.41177" stroke-linejoin="bevel"/>
<path d="M642.646 399.648L591.176 399.648" stroke="#6349FF" stroke-width="4.41177" stroke-linejoin="bevel"/>
<path d="M650.383 392.721L650.383 341.25" stroke="#6349FF" stroke-width="4.41177" stroke-linejoin="bevel"/>
<path d="M650.352 407.354L650.352 458.824" stroke="#6349FF" stroke-width="4.41177" stroke-linejoin="bevel"/>
</g>
<g clip-path="url(#clip8_1973_89838)">
<path d="M1657.35 550.352L1708.82 550.352" stroke="#6349FF" stroke-width="4.41177" stroke-linejoin="bevel"/>
<path d="M1657.35 535.648L1708.82 535.648" stroke="#6349FF" stroke-width="4.41177" stroke-linejoin="bevel"/>
<path d="M1642.65 520.941L1591.18 520.941" stroke="#6349FF" stroke-width="4.41177" stroke-linejoin="bevel"/>
</g>
<g clip-path="url(#clip9_1973_89838)">
<path d="M1742.65 550.352L1691.18 550.352" stroke="#6349FF" stroke-width="4.41177" stroke-linejoin="bevel"/>
<path d="M1754.95 556.097L1791.35 592.492" stroke="#6349FF" stroke-width="4.41177" stroke-linejoin="bevel"/>
<path d="M1757.35 520.941L1808.82 520.941" stroke="#6349FF" stroke-width="4.41177" stroke-linejoin="bevel"/>
<path d="M1742.65 520.941L1691.18 520.941" stroke="#6349FF" stroke-width="4.41177" stroke-linejoin="bevel"/>
</g>
<g clip-path="url(#clip10_1973_89838)">
<path d="M849.648 742.646L849.648 691.176" stroke="#6349FF" stroke-width="4.41177" stroke-linejoin="bevel"/>
<path d="M844.551 754.949L808.156 791.344" stroke="#6349FF" stroke-width="4.41177" stroke-linejoin="bevel"/>
<path d="M857.354 749.648L908.824 749.648" stroke="#6349FF" stroke-width="4.41177" stroke-linejoin="bevel"/>
</g>
<g clip-path="url(#clip11_1973_89838)">
<path d="M449.648 657.354L449.648 708.824" stroke="#6349FF" stroke-width="4.41177" stroke-linejoin="bevel"/>
<path d="M442.65 649.648L391.18 649.648" stroke="#6349FF" stroke-width="4.41177" stroke-linejoin="bevel"/>
</g>
<defs>
<clipPath id="clip0_1973_89838">
<rect width="100" height="100" fill="white" transform="matrix(1 -8.74228e-08 -8.74228e-08 -1 1400 100)"/>
</clipPath>
<clipPath id="clip1_1973_89838">
<rect width="100" height="100" fill="white" transform="translate(800 100) rotate(180)"/>
</clipPath>
<clipPath id="clip2_1973_89838">
<rect width="100" height="100" fill="white" transform="matrix(-1.19249e-08 -1 -1 1.19249e-08 1700 200)"/>
</clipPath>
<clipPath id="clip3_1973_89838">
<rect width="100" height="100" fill="white" transform="matrix(4.37114e-08 1 1 -4.37114e-08 1300 100)"/>
</clipPath>
<clipPath id="clip4_1973_89838">
<rect width="100" height="100" fill="white" transform="matrix(1 0 0 -1 600 100)"/>
</clipPath>
<clipPath id="clip5_1973_89838">
<rect width="100" height="100" fill="white" transform="translate(400 300) rotate(180)"/>
</clipPath>
<clipPath id="clip6_1973_89838">
<rect width="100" height="100" fill="white" transform="translate(1700 200) rotate(90)"/>
</clipPath>
<clipPath id="clip7_1973_89838">
<rect width="100" height="100" fill="white" transform="translate(600 350)"/>
</clipPath>
<clipPath id="clip8_1973_89838">
<rect width="100" height="100" fill="white" transform="matrix(1 8.74228e-08 8.74228e-08 -1 1600 600)"/>
</clipPath>
<clipPath id="clip9_1973_89838">
<rect width="100" height="100" fill="white" transform="translate(1800 600) rotate(-180)"/>
</clipPath>
<clipPath id="clip10_1973_89838">
<rect width="100" height="100" fill="white" transform="translate(800 800) rotate(-90)"/>
</clipPath>
<clipPath id="clip11_1973_89838">
<rect width="100" height="100" fill="white" transform="translate(400 700) rotate(-90)"/>
</clipPath>
</defs>
</svg>
