<svg width="1000" height="1191" viewBox="0 0 1000 1191" fill="none" xmlns="http://www.w3.org/2000/svg">
<g clip-path="url(#clip0_2502_205779)">
<g clip-path="url(#clip1_2502_205779)">
<g clip-path="url(#clip2_2502_205779)">
<path d="M728.679 524.824L754.414 524.824" stroke="#6349FF" stroke-width="2.20588" stroke-linejoin="bevel"/>
<path d="M721.325 524.824L695.59 524.824" stroke="#6349FF" stroke-width="2.20588" stroke-linejoin="bevel"/>
<path d="M722.526 522.276L704.328 504.078" stroke="#6349FF" stroke-width="2.20588" stroke-linejoin="bevel"/>
<path d="M725.176 521.325L725.176 495.59" stroke="#6349FF" stroke-width="2.20588" stroke-linejoin="bevel"/>
</g>
<g clip-path="url(#clip3_2502_205779)">
<path d="M274.824 521.325L274.824 495.59" stroke="#6349FF" stroke-width="2.20588" stroke-linejoin="bevel"/>
<path d="M274.824 528.675L274.824 554.41" stroke="#6349FF" stroke-width="2.20588" stroke-linejoin="bevel"/>
<path d="M277.513 527.709L295.711 545.906" stroke="#6349FF" stroke-width="2.20588" stroke-linejoin="bevel"/>
<path d="M253.5 528.675L253.5 554.41" stroke="#6349FF" stroke-width="2.20588" stroke-linejoin="bevel"/>
<path d="M260.855 528.675L260.855 554.41" stroke="#6349FF" stroke-width="2.20588" stroke-linejoin="bevel"/>
<path d="M278.675 524.824L304.41 524.824" stroke="#6349FF" stroke-width="2.20588" stroke-linejoin="bevel"/>
<path d="M267.824 528.679L267.824 554.414" stroke="#6349FF" stroke-width="2.20588" stroke-linejoin="bevel"/>
</g>
<g clip-path="url(#clip4_2502_205779)">
<path d="M278.679 374.824L304.414 374.824" stroke="#6349FF" stroke-width="2.20588" stroke-linejoin="bevel"/>
<path d="M271.321 374.824L245.586 374.824" stroke="#6349FF" stroke-width="2.20588" stroke-linejoin="bevel"/>
<path d="M275.191 371.36L275.191 345.625" stroke="#6349FF" stroke-width="2.20588" stroke-linejoin="bevel"/>
<path d="M275.176 378.679L275.176 404.414" stroke="#6349FF" stroke-width="2.20588" stroke-linejoin="bevel"/>
</g>
<g clip-path="url(#clip5_2502_205779)">
<path d="M578.679 124.824L604.414 124.824" stroke="#6349FF" stroke-width="2.20588" stroke-linejoin="bevel"/>
<path d="M571.321 124.824L545.586 124.824" stroke="#6349FF" stroke-width="2.20588" stroke-linejoin="bevel"/>
<path d="M575.191 121.36L575.191 95.625" stroke="#6349FF" stroke-width="2.20588" stroke-linejoin="bevel"/>
<path d="M575.176 128.679L575.176 154.414" stroke="#6349FF" stroke-width="2.20588" stroke-linejoin="bevel"/>
</g>
<g clip-path="url(#clip6_2502_205779)">
<path d="M521.321 682.176L495.586 682.176" stroke="#6349FF" stroke-width="2.20588" stroke-linejoin="bevel"/>
<path d="M521.321 689.531L495.586 689.531" stroke="#6349FF" stroke-width="2.20588" stroke-linejoin="bevel"/>
<path d="M521.321 696.148L495.586 696.148" stroke="#6349FF" stroke-width="2.20588" stroke-linejoin="bevel"/>
<path d="M528.679 689.531L554.414 689.531" stroke="#6349FF" stroke-width="2.20588" stroke-linejoin="bevel"/>
<path d="M528.679 696.148L554.414 696.148" stroke="#6349FF" stroke-width="2.20588" stroke-linejoin="bevel"/>
</g>
<g clip-path="url(#clip7_2502_205779)">
<path d="M774.824 621.325L774.824 595.59" stroke="#6349FF" stroke-width="2.20588" stroke-linejoin="bevel"/>
<path d="M778.675 632.18L804.41 632.18" stroke="#6349FF" stroke-width="2.20588" stroke-linejoin="bevel"/>
<path d="M778.679 639.531L804.414 639.531" stroke="#6349FF" stroke-width="2.20588" stroke-linejoin="bevel"/>
<path d="M778.675 646.148L804.41 646.148" stroke="#6349FF" stroke-width="2.20588" stroke-linejoin="bevel"/>
<path d="M772.276 622.526L754.078 604.328" stroke="#6349FF" stroke-width="2.20588" stroke-linejoin="bevel"/>
<path d="M771.321 624.824L745.586 624.824" stroke="#6349FF" stroke-width="2.20588" stroke-linejoin="bevel"/>
</g>
<g clip-path="url(#clip8_2502_205779)">
<path d="M628.679 625.176L654.414 625.176" stroke="#6349FF" stroke-width="2.20588" stroke-linejoin="bevel"/>
<path d="M625.176 628.675L625.176 654.41" stroke="#6349FF" stroke-width="2.20588" stroke-linejoin="bevel"/>
<path d="M621.321 617.824L595.586 617.824" stroke="#6349FF" stroke-width="2.20588" stroke-linejoin="bevel"/>
<path d="M621.321 610.469L595.586 610.469" stroke="#6349FF" stroke-width="2.20588" stroke-linejoin="bevel"/>
<path d="M621.321 603.852L595.586 603.852" stroke="#6349FF" stroke-width="2.20588" stroke-linejoin="bevel"/>
<path d="M627.728 627.474L645.926 645.672" stroke="#6349FF" stroke-width="2.20588" stroke-linejoin="bevel"/>
</g>
<g clip-path="url(#clip9_2502_205779)">
<path d="M474.824 578.675L474.824 604.41" stroke="#6349FF" stroke-width="2.20588" stroke-linejoin="bevel"/>
<path d="M478.679 575.176L504.414 575.176" stroke="#6349FF" stroke-width="2.20588" stroke-linejoin="bevel"/>
<path d="M471.325 574.824L445.59 574.824" stroke="#6349FF" stroke-width="2.20588" stroke-linejoin="bevel"/>
<path d="M472.526 572.276L454.328 554.078" stroke="#6349FF" stroke-width="2.20588" stroke-linejoin="bevel"/>
</g>
<g clip-path="url(#clip10_2502_205779)">
<path d="M672.526 27.7243L654.328 45.9219" stroke="#6349FF" stroke-width="2.20588" stroke-linejoin="bevel"/>
<path d="M674.824 21.3251L674.824 -4.41016" stroke="#6349FF" stroke-width="2.20588" stroke-linejoin="bevel"/>
</g>
<g clip-path="url(#clip11_2502_205779)">
<path d="M328.679 575.176L354.414 575.176" stroke="#6349FF" stroke-width="2.20588" stroke-linejoin="bevel"/>
<path d="M321.325 574.824L295.59 574.824" stroke="#6349FF" stroke-width="2.20588" stroke-linejoin="bevel"/>
<path d="M322.526 572.276L304.328 554.078" stroke="#6349FF" stroke-width="2.20588" stroke-linejoin="bevel"/>
</g>
<g clip-path="url(#clip12_2502_205779)">
<path d="M928.679 674.824L954.414 674.824" stroke="#6349FF" stroke-width="2.20588" stroke-linejoin="bevel"/>
<path d="M921.325 674.824L895.59 674.824" stroke="#6349FF" stroke-width="2.20588" stroke-linejoin="bevel"/>
<path d="M921.325 682.176L895.59 682.176" stroke="#6349FF" stroke-width="2.20588" stroke-linejoin="bevel"/>
<path d="M921.325 689.531L895.59 689.531" stroke="#6349FF" stroke-width="2.20588" stroke-linejoin="bevel"/>
<path d="M921.325 696.148L895.59 696.148" stroke="#6349FF" stroke-width="2.20588" stroke-linejoin="bevel"/>
<path d="M928.679 682.176L954.414 682.176" stroke="#6349FF" stroke-width="2.20588" stroke-linejoin="bevel"/>
<path d="M928.679 689.531L954.414 689.531" stroke="#6349FF" stroke-width="2.20588" stroke-linejoin="bevel"/>
<path d="M928.679 696.148L954.414 696.148" stroke="#6349FF" stroke-width="2.20588" stroke-linejoin="bevel"/>
</g>
<g clip-path="url(#clip13_2502_205779)">
<path d="M978.679 575.176L1004.41 575.176" stroke="#6349FF" stroke-width="2.20588" stroke-linejoin="bevel"/>
<path d="M971.325 574.824L945.59 574.824" stroke="#6349FF" stroke-width="2.20588" stroke-linejoin="bevel"/>
<path d="M972.526 572.276L954.328 554.078" stroke="#6349FF" stroke-width="2.20588" stroke-linejoin="bevel"/>
</g>
<g clip-path="url(#clip14_2502_205779)">
<path d="M675.176 178.675L675.176 204.41" stroke="#6349FF" stroke-width="2.20588" stroke-linejoin="bevel"/>
<path d="M674.824 171.325L674.824 145.59" stroke="#6349FF" stroke-width="2.20588" stroke-linejoin="bevel"/>
<path d="M672.276 172.526L654.078 154.328" stroke="#6349FF" stroke-width="2.20588" stroke-linejoin="bevel"/>
</g>
<g clip-path="url(#clip15_2502_205779)">
<path d="M174.824 678.675L174.824 704.41" stroke="#6349FF" stroke-width="2.20588" stroke-linejoin="bevel"/>
<path d="M178.679 675.176L204.414 675.176" stroke="#6349FF" stroke-width="2.20588" stroke-linejoin="bevel"/>
<path d="M171.325 674.824L145.59 674.824" stroke="#6349FF" stroke-width="2.20588" stroke-linejoin="bevel"/>
</g>
<g clip-path="url(#clip16_2502_205779)">
<path d="M621.325 524.824L595.59 524.824" stroke="#6349FF" stroke-width="2.20588" stroke-linejoin="bevel"/>
<path d="M627.724 522.526L645.922 504.328" stroke="#6349FF" stroke-width="2.20588" stroke-linejoin="bevel"/>
</g>
<g clip-path="url(#clip17_2502_205779)">
<path d="M679.265 574.5L705 574.5" stroke="#6349FF" stroke-width="2.20588" stroke-linejoin="bevel"/>
<path d="M672.674 572.721L654.477 554.523" stroke="#6349FF" stroke-width="2.20588" stroke-linejoin="bevel"/>
</g>
<g clip-path="url(#clip18_2502_205779)">
<path d="M525.143 321.324L524.902 295.59" stroke="#6349FF" stroke-width="2" stroke-linejoin="bevel"/>
<path d="M522.276 327.474L504.078 345.672" stroke="#6349FF" stroke-width="2.20588" stroke-linejoin="bevel"/>
</g>
<g clip-path="url(#clip19_2502_205779)">
<path d="M371.282 324.824L345.547 324.824" stroke="#6349FF" stroke-width="2.20588" stroke-linejoin="bevel"/>
<path d="M377.474 322.276L395.672 304.078" stroke="#6349FF" stroke-width="2.20588" stroke-linejoin="bevel"/>
</g>
<g clip-path="url(#clip20_2502_205779)">
<path d="M522.272 627.474L504.074 645.672" stroke="#6349FF" stroke-width="2.20588" stroke-linejoin="bevel"/>
<path d="M528.679 625.176L554.414 625.176" stroke="#6349FF" stroke-width="2.20588" stroke-linejoin="bevel"/>
</g>
<g clip-path="url(#clip21_2502_205779)">
<path d="M129.175 675.176L154.91 675.176" stroke="#6349FF" stroke-width="2.20588" stroke-linejoin="bevel"/>
<path d="M125.676 671.325L125.676 645.59" stroke="#6349FF" stroke-width="2.20588" stroke-linejoin="bevel"/>
<path d="M123.026 672.276L104.828 654.078" stroke="#6349FF" stroke-width="2.20588" stroke-linejoin="bevel"/>
<path d="M128.228 672.526L146.426 654.328" stroke="#6349FF" stroke-width="2.20588" stroke-linejoin="bevel"/>
<path d="M122.772 677.474L104.574 695.672" stroke="#6349FF" stroke-width="2.20588" stroke-linejoin="bevel"/>
</g>
<g clip-path="url(#clip22_2502_205779)">
<path d="M324.824 78.6749L324.824 104.41" stroke="#6349FF" stroke-width="2.20588" stroke-linejoin="bevel"/>
<path d="M327.724 72.5257L345.922 54.3281" stroke="#6349FF" stroke-width="2.20588" stroke-linejoin="bevel"/>
<path d="M322.526 72.2757L304.328 54.0781" stroke="#6349FF" stroke-width="2.20588" stroke-linejoin="bevel"/>
</g>
<g clip-path="url(#clip23_2502_205779)">
<path d="M28.6749 675.176L54.4102 675.176" stroke="#6349FF" stroke-width="2.20588" stroke-linejoin="bevel"/>
<path d="M22.5257 672.276L4.32812 654.078" stroke="#6349FF" stroke-width="2.20588" stroke-linejoin="bevel"/>
<path d="M22.2757 677.474L4.07812 695.672" stroke="#6349FF" stroke-width="2.20588" stroke-linejoin="bevel"/>
</g>
<g clip-path="url(#clip24_2502_205779)">
<path d="M674.824 428.675L674.824 454.41" stroke="#6349FF" stroke-width="2.20588" stroke-linejoin="bevel"/>
<path d="M677.724 422.526L695.922 404.328" stroke="#6349FF" stroke-width="2.20588" stroke-linejoin="bevel"/>
<path d="M672.526 422.276L654.328 404.078" stroke="#6349FF" stroke-width="2.20588" stroke-linejoin="bevel"/>
</g>
<g clip-path="url(#clip25_2502_205779)">
<path d="M78.6749 375.176L104.41 375.176" stroke="#6349FF" stroke-width="2.20588" stroke-linejoin="bevel"/>
<path d="M72.5257 372.276L54.3281 354.078" stroke="#6349FF" stroke-width="2.20588" stroke-linejoin="bevel"/>
<path d="M72.2757 377.474L54.0781 395.672" stroke="#6349FF" stroke-width="2.20588" stroke-linejoin="bevel"/>
</g>
<g clip-path="url(#clip26_2502_205779)">
<path d="M75.3242 578.675L75.3242 604.41" stroke="#6349FF" stroke-width="2.20588" stroke-linejoin="bevel"/>
<path d="M79.1788 575.176L104.914 575.176" stroke="#6349FF" stroke-width="2.20588" stroke-linejoin="bevel"/>
<path d="M71.8251 574.824L46.0898 574.824" stroke="#6349FF" stroke-width="2.20588" stroke-linejoin="bevel"/>
<path d="M73.0257 572.276L54.8281 554.078" stroke="#6349FF" stroke-width="2.20588" stroke-linejoin="bevel"/>
</g>
<g clip-path="url(#clip27_2502_205779)">
<path d="M820.735 574.5L795 574.5" stroke="#6349FF" stroke-width="2.20588" stroke-linejoin="bevel"/>
<path d="M827.326 572.721L845.523 554.523" stroke="#6349FF" stroke-width="2.20588" stroke-linejoin="bevel"/>
<path d="M828.276 575.371L854.012 575.371" stroke="#6349FF" stroke-width="2.20588" stroke-linejoin="bevel"/>
<path d="M828.28 582.5L854.016 582.5" stroke="#6349FF" stroke-width="2.20588" stroke-linejoin="bevel"/>
<path d="M828.28 589.5L854.016 589.5" stroke="#6349FF" stroke-width="2.20588" stroke-linejoin="bevel"/>
<path d="M828.28 596.5L854.016 596.5" stroke="#6349FF" stroke-width="2.20588" stroke-linejoin="bevel"/>
</g>
</g>
<g clip-path="url(#clip28_2502_205779)">
<path d="M528.679 725.176L554.414 725.176" stroke="#6349FF" stroke-width="2.20588" stroke-linejoin="bevel"/>
<path d="M524.824 728.679L524.824 754.414" stroke="#6349FF" stroke-width="2.20588" stroke-linejoin="bevel"/>
<path d="M522.272 727.474L504.074 745.672" stroke="#6349FF" stroke-width="2.20588" stroke-linejoin="bevel"/>
</g>
<g clip-path="url(#clip29_2502_205779)">
<path d="M628.679 725.176L654.414 725.176" stroke="#6349FF" stroke-width="2.20588" stroke-linejoin="bevel"/>
<path d="M621.325 717.824L595.59 717.824" stroke="#6349FF" stroke-width="2.20588" stroke-linejoin="bevel"/>
<path d="M621.321 710.469L595.586 710.469" stroke="#6349FF" stroke-width="2.20588" stroke-linejoin="bevel"/>
<path d="M621.325 703.852L595.59 703.852" stroke="#6349FF" stroke-width="2.20588" stroke-linejoin="bevel"/>
<path d="M628.679 717.824L654.414 717.824" stroke="#6349FF" stroke-width="2.20588" stroke-linejoin="bevel"/>
<path d="M628.679 710.469L654.414 710.469" stroke="#6349FF" stroke-width="2.20588" stroke-linejoin="bevel"/>
<path d="M628.679 703.852L654.414 703.852" stroke="#6349FF" stroke-width="2.20588" stroke-linejoin="bevel"/>
</g>
<g clip-path="url(#clip30_2502_205779)">
<path d="M271.325 875.176L245.59 875.176" stroke="#6349FF" stroke-width="2.20588" stroke-linejoin="bevel"/>
<path d="M278.679 875.176L304.414 875.176" stroke="#6349FF" stroke-width="2.20588" stroke-linejoin="bevel"/>
<path d="M277.474 877.724L295.672 895.922" stroke="#6349FF" stroke-width="2.20588" stroke-linejoin="bevel"/>
<path d="M274.824 878.675L274.824 904.41" stroke="#6349FF" stroke-width="2.20588" stroke-linejoin="bevel"/>
</g>
<g clip-path="url(#clip31_2502_205779)">
<path d="M725.176 878.675L725.176 904.41" stroke="#6349FF" stroke-width="2.20588" stroke-linejoin="bevel"/>
<path d="M725.176 871.321L725.176 845.586" stroke="#6349FF" stroke-width="2.20588" stroke-linejoin="bevel"/>
<path d="M722.487 872.291L704.289 854.094" stroke="#6349FF" stroke-width="2.20588" stroke-linejoin="bevel"/>
<path d="M746.5 871.321L746.5 845.586" stroke="#6349FF" stroke-width="2.20588" stroke-linejoin="bevel"/>
<path d="M739.145 871.325L739.145 845.59" stroke="#6349FF" stroke-width="2.20588" stroke-linejoin="bevel"/>
<path d="M721.321 875.176L695.586 875.176" stroke="#6349FF" stroke-width="2.20588" stroke-linejoin="bevel"/>
<path d="M732.176 871.325L732.176 845.59" stroke="#6349FF" stroke-width="2.20588" stroke-linejoin="bevel"/>
</g>
<g clip-path="url(#clip32_2502_205779)">
<path d="M721.325 1025.18L695.59 1025.18" stroke="#6349FF" stroke-width="2.20588" stroke-linejoin="bevel"/>
<path d="M728.679 1025.18L754.414 1025.18" stroke="#6349FF" stroke-width="2.20588" stroke-linejoin="bevel"/>
<path d="M724.809 1028.64L724.809 1054.38" stroke="#6349FF" stroke-width="2.20588" stroke-linejoin="bevel"/>
<path d="M724.824 1021.32L724.824 995.586" stroke="#6349FF" stroke-width="2.20588" stroke-linejoin="bevel"/>
</g>
<g clip-path="url(#clip33_2502_205779)">
<path d="M478.679 717.824L504.414 717.824" stroke="#6349FF" stroke-width="2.20588" stroke-linejoin="bevel"/>
<path d="M478.675 710.469L504.41 710.469" stroke="#6349FF" stroke-width="2.20588" stroke-linejoin="bevel"/>
<path d="M478.679 703.852L504.414 703.852" stroke="#6349FF" stroke-width="2.20588" stroke-linejoin="bevel"/>
<path d="M471.321 710.469L445.586 710.469" stroke="#6349FF" stroke-width="2.20588" stroke-linejoin="bevel"/>
<path d="M471.325 703.852L445.59 703.852" stroke="#6349FF" stroke-width="2.20588" stroke-linejoin="bevel"/>
</g>
<g clip-path="url(#clip34_2502_205779)">
<path d="M225.176 778.675L225.176 804.41" stroke="#6349FF" stroke-width="2.20588" stroke-linejoin="bevel"/>
<path d="M221.325 767.82L195.59 767.82" stroke="#6349FF" stroke-width="2.20588" stroke-linejoin="bevel"/>
<path d="M221.325 760.469L195.59 760.469" stroke="#6349FF" stroke-width="2.20588" stroke-linejoin="bevel"/>
<path d="M221.321 753.852L195.586 753.852" stroke="#6349FF" stroke-width="2.20588" stroke-linejoin="bevel"/>
<path d="M227.724 777.474L245.922 795.672" stroke="#6349FF" stroke-width="2.20588" stroke-linejoin="bevel"/>
<path d="M228.675 775.176L254.41 775.176" stroke="#6349FF" stroke-width="2.20588" stroke-linejoin="bevel"/>
</g>
<g clip-path="url(#clip35_2502_205779)">
<path d="M371.321 774.824L345.586 774.824" stroke="#6349FF" stroke-width="2.20588" stroke-linejoin="bevel"/>
<path d="M374.824 771.325L374.824 745.59" stroke="#6349FF" stroke-width="2.20588" stroke-linejoin="bevel"/>
<path d="M378.675 782.176L404.41 782.176" stroke="#6349FF" stroke-width="2.20588" stroke-linejoin="bevel"/>
<path d="M378.679 789.531L404.414 789.531" stroke="#6349FF" stroke-width="2.20588" stroke-linejoin="bevel"/>
<path d="M378.675 796.148L404.41 796.148" stroke="#6349FF" stroke-width="2.20588" stroke-linejoin="bevel"/>
<path d="M372.272 772.526L354.074 754.328" stroke="#6349FF" stroke-width="2.20588" stroke-linejoin="bevel"/>
</g>
<g clip-path="url(#clip36_2502_205779)">
<path d="M525.176 821.321L525.176 795.586" stroke="#6349FF" stroke-width="2.20588" stroke-linejoin="bevel"/>
<path d="M521.325 824.824L495.59 824.824" stroke="#6349FF" stroke-width="2.20588" stroke-linejoin="bevel"/>
<path d="M528.679 825.176L554.414 825.176" stroke="#6349FF" stroke-width="2.20588" stroke-linejoin="bevel"/>
<path d="M527.474 827.724L545.672 845.922" stroke="#6349FF" stroke-width="2.20588" stroke-linejoin="bevel"/>
</g>
<g clip-path="url(#clip37_2502_205779)">
<path d="M671.325 824.824L645.59 824.824" stroke="#6349FF" stroke-width="2.20588" stroke-linejoin="bevel"/>
<path d="M678.679 825.176L704.414 825.176" stroke="#6349FF" stroke-width="2.20588" stroke-linejoin="bevel"/>
<path d="M677.474 827.724L695.672 845.922" stroke="#6349FF" stroke-width="2.20588" stroke-linejoin="bevel"/>
</g>
<g clip-path="url(#clip38_2502_205779)">
<path d="M21.3251 824.824L-4.41016 824.824" stroke="#6349FF" stroke-width="2.20588" stroke-linejoin="bevel"/>
<path d="M28.6788 825.176L54.4141 825.176" stroke="#6349FF" stroke-width="2.20588" stroke-linejoin="bevel"/>
<path d="M27.4743 827.724L45.6719 845.922" stroke="#6349FF" stroke-width="2.20588" stroke-linejoin="bevel"/>
</g>
<g clip-path="url(#clip39_2502_205779)">
<path d="M825.176 721.321L825.176 695.586" stroke="#6349FF" stroke-width="2.20588" stroke-linejoin="bevel"/>
<path d="M821.325 724.824L795.59 724.824" stroke="#6349FF" stroke-width="2.20588" stroke-linejoin="bevel"/>
<path d="M828.679 725.176L854.414 725.176" stroke="#6349FF" stroke-width="2.20588" stroke-linejoin="bevel"/>
</g>
<g clip-path="url(#clip40_2502_205779)">
<path d="M378.675 875.176L404.41 875.176" stroke="#6349FF" stroke-width="2.20588" stroke-linejoin="bevel"/>
<path d="M372.276 877.474L354.078 895.672" stroke="#6349FF" stroke-width="2.20588" stroke-linejoin="bevel"/>
</g>
<g clip-path="url(#clip41_2502_205779)">
<path d="M320.735 825.5L295 825.5" stroke="#6349FF" stroke-width="2.20588" stroke-linejoin="bevel"/>
<path d="M327.326 827.279L345.523 845.477" stroke="#6349FF" stroke-width="2.20588" stroke-linejoin="bevel"/>
</g>
<g clip-path="url(#clip42_2502_205779)">
<path d="M474.857 1078.68L475.098 1104.41" stroke="#6349FF" stroke-width="2" stroke-linejoin="bevel"/>
<path d="M477.724 1072.53L495.922 1054.33" stroke="#6349FF" stroke-width="2.20588" stroke-linejoin="bevel"/>
</g>
<g clip-path="url(#clip43_2502_205779)">
<path d="M628.718 1075.18L654.453 1075.18" stroke="#6349FF" stroke-width="2.20588" stroke-linejoin="bevel"/>
<path d="M622.526 1077.72L604.328 1095.92" stroke="#6349FF" stroke-width="2.20588" stroke-linejoin="bevel"/>
</g>
<g clip-path="url(#clip44_2502_205779)">
<path d="M477.728 772.526L495.926 754.328" stroke="#6349FF" stroke-width="2.20588" stroke-linejoin="bevel"/>
<path d="M471.321 774.824L445.586 774.824" stroke="#6349FF" stroke-width="2.20588" stroke-linejoin="bevel"/>
</g>
<g clip-path="url(#clip45_2502_205779)">
<path d="M325.176 971.325L325.176 945.59" stroke="#6349FF" stroke-width="2.20588" stroke-linejoin="bevel"/>
<path d="M322.276 977.474L304.078 995.672" stroke="#6349FF" stroke-width="2.20588" stroke-linejoin="bevel"/>
<path d="M327.474 977.724L345.672 995.922" stroke="#6349FF" stroke-width="2.20588" stroke-linejoin="bevel"/>
</g>
<g clip-path="url(#clip46_2502_205779)">
<path d="M921.325 1024.82L895.59 1024.82" stroke="#6349FF" stroke-width="2.20588" stroke-linejoin="bevel"/>
<path d="M927.474 1027.72L945.672 1045.92" stroke="#6349FF" stroke-width="2.20588" stroke-linejoin="bevel"/>
<path d="M927.724 1022.53L945.922 1004.33" stroke="#6349FF" stroke-width="2.20588" stroke-linejoin="bevel"/>
</g>
<g clip-path="url(#clip47_2502_205779)">
<path d="M179.265 825.5L205 825.5" stroke="#6349FF" stroke-width="2.20588" stroke-linejoin="bevel"/>
<path d="M172.674 827.279L154.477 845.477" stroke="#6349FF" stroke-width="2.20588" stroke-linejoin="bevel"/>
<path d="M171.72 824.629L145.984 824.629" stroke="#6349FF" stroke-width="2.20588" stroke-linejoin="bevel"/>
<path d="M171.724 817.5L145.988 817.5" stroke="#6349FF" stroke-width="2.20588" stroke-linejoin="bevel"/>
<path d="M171.72 810.5L145.984 810.5" stroke="#6349FF" stroke-width="2.20588" stroke-linejoin="bevel"/>
<path d="M171.72 803.5L145.984 803.5" stroke="#6349FF" stroke-width="2.20588" stroke-linejoin="bevel"/>
</g>
</g>
<defs>
<clipPath id="clip0_2502_205779">
<rect width="1000" height="1191" fill="white"/>
</clipPath>
<clipPath id="clip1_2502_205779">
<rect width="1000" height="700" fill="white"/>
</clipPath>
<clipPath id="clip2_2502_205779">
<rect width="50" height="50" fill="white" transform="translate(700 500)"/>
</clipPath>
<clipPath id="clip3_2502_205779">
<rect width="50" height="50" fill="white" transform="translate(250 550) rotate(-90)"/>
</clipPath>
<clipPath id="clip4_2502_205779">
<rect width="50" height="50" fill="white" transform="translate(250 350)"/>
</clipPath>
<clipPath id="clip5_2502_205779">
<rect width="50" height="50" fill="white" transform="translate(550 100)"/>
</clipPath>
<clipPath id="clip6_2502_205779">
<rect width="50" height="50" fill="white" transform="translate(500 650)"/>
</clipPath>
<clipPath id="clip7_2502_205779">
<rect width="50" height="50" fill="white" transform="matrix(-1 -8.74228e-08 -8.74228e-08 1 800 600)"/>
</clipPath>
<clipPath id="clip8_2502_205779">
<rect width="50" height="50" fill="white" transform="matrix(1 0 0 -1 600 650)"/>
</clipPath>
<clipPath id="clip9_2502_205779">
<rect width="50" height="50" fill="white" transform="translate(450 600) rotate(-90)"/>
</clipPath>
<clipPath id="clip10_2502_205779">
<rect width="50" height="50" fill="white" transform="matrix(4.37114e-08 -1 -1 -4.37114e-08 700 50)"/>
</clipPath>
<clipPath id="clip11_2502_205779">
<rect width="50" height="50" fill="white" transform="translate(300 600) rotate(-90)"/>
</clipPath>
<clipPath id="clip12_2502_205779">
<rect width="50" height="50" fill="white" transform="translate(900 650)"/>
</clipPath>
<clipPath id="clip13_2502_205779">
<rect width="50" height="50" fill="white" transform="translate(950 600) rotate(-90)"/>
</clipPath>
<clipPath id="clip14_2502_205779">
<rect width="50" height="50" fill="white" transform="matrix(-1 0 0 1 700 150)"/>
</clipPath>
<clipPath id="clip15_2502_205779">
<rect width="50" height="50" fill="white" transform="translate(150 700) rotate(-90)"/>
</clipPath>
<clipPath id="clip16_2502_205779">
<rect width="50" height="50" fill="white" transform="translate(600 550) rotate(-90)"/>
</clipPath>
<clipPath id="clip17_2502_205779">
<rect width="50" height="50" fill="white" transform="matrix(4.37114e-08 -1 -1 -4.37114e-08 700 600)"/>
</clipPath>
<clipPath id="clip18_2502_205779">
<rect width="50" height="50" fill="white" transform="translate(550 300) rotate(90)"/>
</clipPath>
<clipPath id="clip19_2502_205779">
<rect width="50" height="50" fill="white" transform="matrix(1 -8.74228e-08 -8.74228e-08 -1 350 350)"/>
</clipPath>
<clipPath id="clip20_2502_205779">
<rect width="50" height="50" fill="white" transform="translate(500 650) rotate(-90)"/>
</clipPath>
<clipPath id="clip21_2502_205779">
<rect width="50" height="50" fill="white" transform="translate(150.5 700) rotate(180)"/>
</clipPath>
<clipPath id="clip22_2502_205779">
<rect width="50" height="50" fill="white" transform="translate(300 100) rotate(-90)"/>
</clipPath>
<clipPath id="clip23_2502_205779">
<rect width="50" height="50" fill="white" transform="translate(50 700) rotate(-180)"/>
</clipPath>
<clipPath id="clip24_2502_205779">
<rect width="50" height="50" fill="white" transform="translate(650 450) rotate(-90)"/>
</clipPath>
<clipPath id="clip25_2502_205779">
<rect width="50" height="50" fill="white" transform="translate(100 400) rotate(-180)"/>
</clipPath>
<clipPath id="clip26_2502_205779">
<rect width="50" height="50" fill="white" transform="translate(50.5 600) rotate(-90)"/>
</clipPath>
<clipPath id="clip27_2502_205779">
<rect width="50" height="50" fill="white" transform="translate(800 600) rotate(-90)"/>
</clipPath>
<clipPath id="clip28_2502_205779">
<rect width="50" height="50" fill="white" transform="translate(550 750) rotate(180)"/>
</clipPath>
<clipPath id="clip29_2502_205779">
<rect width="50" height="50" fill="white" transform="matrix(1 -1.74846e-07 -1.74846e-07 -1 600 750)"/>
</clipPath>
<clipPath id="clip30_2502_205779">
<rect width="50" height="50" fill="white" transform="translate(300 900) rotate(180)"/>
</clipPath>
<clipPath id="clip31_2502_205779">
<rect width="50" height="50" fill="white" transform="translate(750 850) rotate(90)"/>
</clipPath>
<clipPath id="clip32_2502_205779">
<rect width="50" height="50" fill="white" transform="translate(750 1050) rotate(180)"/>
</clipPath>
<clipPath id="clip33_2502_205779">
<rect width="50" height="50" fill="white" transform="translate(500 750) rotate(180)"/>
</clipPath>
<clipPath id="clip34_2502_205779">
<rect width="50" height="50" fill="white" transform="matrix(1 -8.74228e-08 -8.74228e-08 -1 200 800)"/>
</clipPath>
<clipPath id="clip35_2502_205779">
<rect width="50" height="50" fill="white" transform="matrix(-1 1.74846e-07 1.74846e-07 1 400 750)"/>
</clipPath>
<clipPath id="clip36_2502_205779">
<rect width="50" height="50" fill="white" transform="translate(550 800) rotate(90)"/>
</clipPath>
<clipPath id="clip37_2502_205779">
<rect width="50" height="50" fill="white" transform="translate(700 800) rotate(90)"/>
</clipPath>
<clipPath id="clip38_2502_205779">
<rect width="50" height="50" fill="white" transform="translate(50 800) rotate(90)"/>
</clipPath>
<clipPath id="clip39_2502_205779">
<rect width="50" height="50" fill="white" transform="translate(850 700) rotate(90)"/>
</clipPath>
<clipPath id="clip40_2502_205779">
<rect width="50" height="50" fill="white" transform="translate(400 850) rotate(90)"/>
</clipPath>
<clipPath id="clip41_2502_205779">
<rect width="50" height="50" fill="white" transform="matrix(1.31134e-07 1 1 -1.31134e-07 300 800)"/>
</clipPath>
<clipPath id="clip42_2502_205779">
<rect width="50" height="50" fill="white" transform="translate(450 1100) rotate(-90)"/>
</clipPath>
<clipPath id="clip43_2502_205779">
<rect width="50" height="50" fill="white" transform="matrix(-1 2.62268e-07 2.62268e-07 1 650 1050)"/>
</clipPath>
<clipPath id="clip44_2502_205779">
<rect width="50" height="50" fill="white" transform="translate(500 750) rotate(90)"/>
</clipPath>
<clipPath id="clip45_2502_205779">
<rect width="50" height="50" fill="white" transform="translate(350 950) rotate(90)"/>
</clipPath>
<clipPath id="clip46_2502_205779">
<rect width="50" height="50" fill="white" transform="translate(900 1000)"/>
</clipPath>
<clipPath id="clip47_2502_205779">
<rect width="50" height="50" fill="white" transform="translate(200 800) rotate(90)"/>
</clipPath>
</defs>
</svg>
