<svg width="24" height="24" viewBox="0 0 24 24" fill="none" xmlns="http://www.w3.org/2000/svg">
<path d="M6.27152 6.27067C5.91104 6.63115 5.91104 7.21562 6.27152 7.5761L10.8398 12.1444L6.27036 16.7139C5.90988 17.0744 5.90988 17.6588 6.27036 18.0193C6.63084 18.3798 7.2153 18.3798 7.57578 18.0193L12.1452 13.4498L16.7149 18.0196C17.0753 18.3801 17.6598 18.3801 18.0203 18.0196C18.3808 17.6591 18.3808 17.0747 18.0203 16.7142L13.4506 12.1444L18.0191 7.5758C18.3796 7.21532 18.3796 6.63085 18.0191 6.27036C17.6586 5.90988 17.0742 5.90988 16.7137 6.27037L12.1452 10.839L7.57694 6.27067C7.21646 5.91018 6.632 5.91018 6.27152 6.27067Z" fill="#212121"/>
</svg>
