<svg width="25" height="24" viewBox="0 0 25 24" fill="none" xmlns="http://www.w3.org/2000/svg">
<path d="M16.5 8V6C16.5 5.46957 16.2893 4.96086 15.9142 4.58579C15.5391 4.21071 15.0304 4 14.5 4H6.5C5.96957 4 5.46086 4.21071 5.08579 4.58579C4.71071 4.96086 4.5 5.46957 4.5 6V14C4.5 14.5304 4.71071 15.0391 5.08579 15.4142C5.46086 15.7893 5.96957 16 6.5 16H8.5M8.5 10C8.5 9.46957 8.71071 8.96086 9.08579 8.58579C9.46086 8.21071 9.96957 8 10.5 8H18.5C19.0304 8 19.5391 8.21071 19.9142 8.58579C20.2893 8.96086 20.5 9.46957 20.5 10V18C20.5 18.5304 20.2893 19.0391 19.9142 19.4142C19.5391 19.7893 19.0304 20 18.5 20H10.5C9.96957 20 9.46086 19.7893 9.08579 19.4142C8.71071 19.0391 8.5 18.5304 8.5 18V10Z" stroke="#4A4A4A" stroke-width="2" stroke-linecap="round" stroke-linejoin="round"/>
</svg>
