<svg viewBox="0 0 24 24" fill="none" xmlns="http://www.w3.org/2000/svg">
<path fill-rule="evenodd" clip-rule="evenodd" d="M12 3C9.79088 3 8 4.79086 8 7V9H16V7C16 4.79086 14.2091 3 12 3ZM18 9V7C18 3.68629 15.3137 1 12 1C8.68632 1 6 3.68629 6 7V9H4.88889C3.66401 9 3 10.1373 3 11.0909V20.9091C3 21.8627 3.66401 23 4.88889 23H19.1111C20.336 23 21 21.8627 21 20.9091V11.0909C21 10.1373 20.336 9 19.1111 9H18ZM5.0127 11C5.00574 11.0226 5 11.0528 5 11.0909V20.9091C5 20.9472 5.00574 20.9774 5.0127 21H18.9873C18.9943 20.9774 19 20.9472 19 20.9091V11.0909C19 11.0528 18.9943 11.0226 18.9873 11H5.0127ZM12 14C12.5523 14 13 14.4477 13 15V17C13 17.5523 12.5523 18 12 18C11.4477 18 11 17.5523 11 17V15C11 14.4477 11.4477 14 12 14Z" fill="url(#paint0_linear_2456_225459)" fill-opacity="0.55"/>
<path d="M7.75 9C7.75 9.13807 7.86193 9.25 8 9.25H16C16.1381 9.25 16.25 9.13807 16.25 9V7C16.25 4.65279 14.3472 2.75 12 2.75C9.65281 2.75 7.75 4.65279 7.75 7V9ZM17.75 9C17.75 9.13807 17.8619 9.25 18 9.25H19.1111C19.6373 9.25 20.0407 9.49121 20.3188 9.84292C20.6011 10.2 20.75 10.6673 20.75 11.0909V20.9091C20.75 21.3327 20.6011 21.8 20.3188 22.1571C20.0407 22.5088 19.6373 22.75 19.1111 22.75H4.88889C4.3627 22.75 3.95935 22.5088 3.68121 22.1571C3.39885 21.8 3.25 21.3327 3.25 20.9091V11.0909C3.25 10.6673 3.39885 10.2 3.68121 9.84292C3.95935 9.49121 4.3627 9.25 4.88889 9.25H6C6.13807 9.25 6.25 9.13807 6.25 9V7C6.25 3.82436 8.82439 1.25 12 1.25C15.1756 1.25 17.75 3.82436 17.75 7V9ZM5.0127 10.75C4.90299 10.75 4.80609 10.8215 4.77379 10.9264C4.75964 10.9723 4.75 11.0274 4.75 11.0909V20.9091C4.75 20.9726 4.75963 21.0277 4.77379 21.0736C4.8061 21.1785 4.90299 21.25 5.0127 21.25H18.9873C19.097 21.25 19.1939 21.1785 19.2262 21.0736C19.2404 21.0277 19.25 20.9726 19.25 20.9091V11.0909C19.25 11.0274 19.2404 10.9723 19.2262 10.9264C19.1939 10.8215 19.097 10.75 18.9873 10.75H5.0127ZM12 14.25C12.4142 14.25 12.75 14.5858 12.75 15V17C12.75 17.4142 12.4142 17.75 12 17.75C11.5858 17.75 11.25 17.4142 11.25 17V15C11.25 14.5858 11.5858 14.25 12 14.25Z" stroke="url(#paint1_radial_2456_225459)" stroke-opacity="0.3" stroke-width="0.5" stroke-linejoin="round"/>
<defs>
<linearGradient id="paint0_linear_2456_225459" x1="3.125" y1="1.15278" x2="24.6894" y2="18.7963" gradientUnits="userSpaceOnUse">
<stop stop-color="white"/>
<stop offset="1" stop-color="white" stop-opacity="0.3"/>
</linearGradient>
<radialGradient id="paint1_radial_2456_225459" cx="0" cy="0" r="1" gradientUnits="userSpaceOnUse" gradientTransform="translate(-7.125 -12.9028) rotate(61.0365) scale(35.622 32.5203)">
<stop stop-color="white"/>
<stop offset="1" stop-color="white" stop-opacity="0"/>
</radialGradient>
</defs>
</svg>
