<svg viewBox="0 0 24 24" fill="none" xmlns="http://www.w3.org/2000/svg">
<path fill-rule="evenodd" clip-rule="evenodd" d="M11.493 1.13807C11.8059 0.953978 12.1941 0.953978 12.507 1.13807L21.007 6.13807C21.3125 6.31774 21.5 6.64564 21.5 7V17C21.5 17.3544 21.3125 17.6823 21.007 17.8619L12.507 22.8619C12.1941 23.046 11.8059 23.046 11.493 22.8619L2.99298 17.8619C2.68754 17.6823 2.5 17.3544 2.5 17V7C2.5 6.64564 2.68754 6.31774 2.99298 6.13807L11.493 1.13807ZM4.5 7.57195V16.4281L12 20.8398L19.5 16.4281V7.57195L12 3.16018L4.5 7.57195ZM16.8455 8.96897C17.1382 9.43728 16.9959 10.0542 16.5276 10.347L13 12.552V16.5C13 17.0523 12.5523 17.5 12 17.5C11.4477 17.5 11 17.0523 11 16.5V12.5561L7.46951 10.3467C7.00135 10.0537 6.85933 9.43671 7.15231 8.96854C7.44528 8.50037 8.06232 8.35835 8.53049 8.65133L11.9968 10.8205L15.4674 8.65106C15.9358 8.35832 16.5527 8.50065 16.8455 8.96897Z" fill="url(#paint0_linear_2456_225452)" fill-opacity="0.55"/>
<path d="M4.37325 7.35646C4.29689 7.40138 4.25 7.48336 4.25 7.57195V16.4281C4.25 16.5166 4.29689 16.5986 4.37325 16.6435L11.8732 21.0553C11.9515 21.1013 12.0485 21.1013 12.1268 21.0553L19.6268 16.6435C19.7031 16.5986 19.75 16.5166 19.75 16.4281V7.57195C19.75 7.48336 19.7031 7.40138 19.6268 7.35646L12.1268 2.9447C12.0485 2.89868 11.9515 2.89868 11.8732 2.9447L4.37325 7.35646ZM12.8675 12.34C12.7944 12.3857 12.75 12.4658 12.75 12.552V16.5C12.75 16.9142 12.4142 17.25 12 17.25C11.5858 17.25 11.25 16.9142 11.25 16.5V12.5561C11.25 12.4699 11.2056 12.3899 11.1326 12.3442L7.60214 10.1348C7.25101 9.91506 7.1445 9.45229 7.36423 9.10116C7.58396 8.75003 8.04674 8.64352 8.39786 8.86325L11.8642 11.0325C11.9453 11.0832 12.0482 11.0832 12.1293 11.0325L15.6 8.86305C15.9512 8.6435 16.4139 8.75024 16.6335 9.10148C16.853 9.45272 16.7463 9.91544 16.395 10.135L12.8675 12.34ZM11.6197 1.35355C11.8544 1.21548 12.1456 1.21548 12.3803 1.35355L20.8803 6.35355C21.1093 6.4883 21.25 6.73423 21.25 7V17C21.25 17.2658 21.1093 17.5117 20.8803 17.6465L12.3803 22.6465C12.1456 22.7845 11.8544 22.7845 11.6197 22.6465L3.11973 17.6465C2.89066 17.5117 2.75 17.2658 2.75 17V7C2.75 6.73423 2.89066 6.4883 3.11973 6.35355L11.6197 1.35355Z" stroke="url(#paint1_radial_2456_225452)" stroke-opacity="0.3" stroke-width="0.5" stroke-linejoin="round"/>
<defs>
<linearGradient id="paint0_linear_2456_225452" x1="2.63194" y1="1.15278" x2="24.3976" y2="19.9504" gradientUnits="userSpaceOnUse">
<stop stop-color="white"/>
<stop offset="1" stop-color="white" stop-opacity="0.3"/>
</linearGradient>
<radialGradient id="paint1_radial_2456_225452" cx="0" cy="0" r="1" gradientUnits="userSpaceOnUse" gradientTransform="translate(-8.1875 -12.9028) rotate(59.7055) scale(36.0958 33.8764)">
<stop stop-color="white"/>
<stop offset="1" stop-color="white" stop-opacity="0"/>
</radialGradient>
</defs>
</svg>
