<svg viewBox="0 0 24 24" fill="none" xmlns="http://www.w3.org/2000/svg">
<path fill-rule="evenodd" clip-rule="evenodd" d="M2.08579 2.58579C2.46086 2.21071 2.96957 2 3.5 2H9.5C9.79678 2 10.0782 2.13182 10.2682 2.35982L12.4684 5H20.5C21.0304 5 21.5391 5.21071 21.9142 5.58579C22.2893 5.96086 22.5 6.46957 22.5 7V12C22.5 12.5523 22.0523 13 21.5 13C20.9477 13 20.5 12.5523 20.5 12V7H12C11.7032 7 11.4218 6.86818 11.2318 6.64018L9.03162 4H3.5V20H11C11.5523 20 12 20.4477 12 21C12 21.5523 11.5523 22 11 22H3.5C2.96957 22 2.46086 21.7893 2.08579 21.4142C1.71071 21.0391 1.5 20.5304 1.5 20V4C1.5 3.46957 1.71071 2.96086 2.08579 2.58579ZM16.2071 15C16.5976 15.3905 16.5976 16.0237 16.2071 16.4142L14.4142 18.2071L16.2071 20C16.5976 20.3905 16.5976 21.0237 16.2071 21.4142C15.8166 21.8047 15.1834 21.8047 14.7929 21.4142L12.2929 18.9142C11.9024 18.5237 11.9024 17.8905 12.2929 17.5L14.7929 15C15.1834 14.6095 15.8166 14.6095 16.2071 15ZM18.7929 15C19.1834 14.6095 19.8166 14.6095 20.2071 15L22.7071 17.5C23.0976 17.8905 23.0976 18.5237 22.7071 18.9142L20.2071 21.4142C19.8166 21.8047 19.1834 21.8047 18.7929 21.4142C18.4024 21.0237 18.4024 20.3905 18.7929 20L20.5858 18.2071L18.7929 16.4142C18.4024 16.0237 18.4024 15.3905 18.7929 15Z" fill="url(#paint0_linear_2456_225455)" fill-opacity="0.55"/>
<path d="M12.2763 5.16005C12.3238 5.21704 12.3942 5.25 12.4684 5.25H20.5C20.9641 5.25 21.4092 5.43437 21.7374 5.76256C22.0656 6.09075 22.25 6.53587 22.25 7V12C22.25 12.4142 21.9142 12.75 21.5 12.75C21.0858 12.75 20.75 12.4142 20.75 12V7C20.75 6.86193 20.6381 6.75 20.5 6.75H12C11.7774 6.75 11.5663 6.65113 11.4238 6.48014L9.22368 3.83995C9.17618 3.78296 9.10582 3.75 9.03162 3.75H3.5C3.36193 3.75 3.25 3.86193 3.25 4V20C3.25 20.1381 3.36193 20.25 3.5 20.25H11C11.4142 20.25 11.75 20.5858 11.75 21C11.75 21.4142 11.4142 21.75 11 21.75H3.5C3.03587 21.75 2.59075 21.5656 2.26256 21.2374C1.93437 20.9092 1.75 20.4641 1.75 20V4C1.75 3.53587 1.93437 3.09075 2.26256 2.76256C2.59075 2.43437 3.03587 2.25 3.5 2.25H9.5C9.72258 2.25 9.93367 2.34887 10.0762 2.51986L12.2763 5.16005ZM14.2374 18.0303C14.1906 18.0772 14.1642 18.1408 14.1642 18.2071C14.1642 18.2734 14.1906 18.337 14.2374 18.3839L16.0303 20.1768C16.3232 20.4697 16.3232 20.9445 16.0303 21.2374C15.7374 21.5303 15.2626 21.5303 14.9697 21.2374L12.4697 18.7374C12.1768 18.4445 12.1768 17.9697 12.4697 17.6768L14.9697 15.1768C15.2626 14.8839 15.7374 14.8839 16.0303 15.1768C16.3232 15.4697 16.3232 15.9445 16.0303 16.2374L14.2374 18.0303ZM20.7626 18.3839C20.8602 18.2863 20.8602 18.128 20.7626 18.0303L18.9697 16.2374C18.6768 15.9445 18.6768 15.4697 18.9697 15.1768C19.2626 14.8839 19.7374 14.8839 20.0303 15.1768L22.5303 17.6768C22.8232 17.9697 22.8232 18.4445 22.5303 18.7374L20.0303 21.2374C19.7374 21.5303 19.2626 21.5303 18.9697 21.2374C18.6768 20.9445 18.6768 20.4697 18.9697 20.1768L20.7626 18.3839Z" stroke="url(#paint1_radial_2456_225455)" stroke-opacity="0.3" stroke-width="0.5" stroke-linejoin="round"/>
<defs>
<linearGradient id="paint0_linear_2456_225455" x1="1.64931" y1="2.13889" x2="21.5971" y2="23.5828" gradientUnits="userSpaceOnUse">
<stop stop-color="white"/>
<stop offset="1" stop-color="white" stop-opacity="0.3"/>
</linearGradient>
<radialGradient id="paint1_radial_2456_225455" cx="0" cy="0" r="1" gradientUnits="userSpaceOnUse" gradientTransform="translate(-10.5937 -10.6389) rotate(53.9751) scale(35.033 35.9061)">
<stop stop-color="white"/>
<stop offset="1" stop-color="white" stop-opacity="0"/>
</radialGradient>
</defs>
</svg>
