<svg viewBox="0 0 24 24" fill="none" xmlns="http://www.w3.org/2000/svg">
<path fill-rule="evenodd" clip-rule="evenodd" d="M1 12C1 5.92472 5.92472 1 12 1C18.0753 1 23 5.92472 23 12C23 18.0753 18.0753 23 12 23C5.92472 23 1 18.0753 1 12ZM12 3C7.02928 3 3 7.02928 3 12C3 16.9707 7.02928 21 12 21C16.9707 21 21 16.9707 21 12C21 7.02928 16.9707 3 12 3ZM9.24999 7.23698C9.72828 6.96083 10.3399 7.1247 10.616 7.60299L12 10L13.384 7.60299C13.6601 7.1247 14.2717 6.96083 14.75 7.23698C15.2283 7.51313 15.3922 8.12472 15.116 8.60301L13.7321 11H16.5C17.0523 11 17.5 11.4477 17.5 12C17.5 12.5523 17.0523 13 16.5 13H13.7321L15.116 15.397C15.3922 15.8753 15.2283 16.4869 14.75 16.763C14.2717 17.0392 13.6601 16.8753 13.384 16.397L12 14L10.616 16.397C10.3399 16.8753 9.72828 17.0392 9.24999 16.763C8.7717 16.4869 8.60783 15.8753 8.88398 15.397L10.2679 13H7.5C6.94772 13 6.5 12.5523 6.5 12C6.5 11.4477 6.94772 11 7.5 11H10.2679L8.88398 8.60301C8.60783 8.12472 8.7717 7.51313 9.24999 7.23698Z" fill="url(#paint0_linear_2456_225457)" fill-opacity="0.55"/>
<path d="M11.7835 10.125C11.8282 10.2024 11.9107 10.25 12 10.25C12.0893 10.25 12.1718 10.2024 12.2165 10.125L13.6005 7.72799C13.8076 7.36927 14.2663 7.24637 14.625 7.45349C14.9837 7.6606 15.1066 8.11929 14.8995 8.47801L13.5156 10.875C13.4709 10.9523 13.4709 11.0476 13.5156 11.125C13.5602 11.2023 13.6428 11.25 13.7321 11.25H16.5C16.9142 11.25 17.25 11.5858 17.25 12C17.25 12.4142 16.9142 12.75 16.5 12.75H13.7321C13.6428 12.75 13.5602 12.7977 13.5156 12.875C13.4709 12.9524 13.4709 13.0477 13.5156 13.125L14.8995 15.522C15.1066 15.8807 14.9837 16.3394 14.625 16.5465C14.2663 16.7536 13.8076 16.6307 13.6005 16.272L12.2165 13.875C12.1718 13.7976 12.0893 13.75 12 13.75C11.9107 13.75 11.8282 13.7976 11.7835 13.875L10.3995 16.272C10.1924 16.6307 9.73371 16.7536 9.37499 16.5465C9.01627 16.3394 8.89337 15.8807 9.10049 15.522L10.4844 13.125C10.5291 13.0477 10.5291 12.9524 10.4844 12.875C10.4398 12.7977 10.3572 12.75 10.2679 12.75H7.5C7.08579 12.75 6.75 12.4142 6.75 12C6.75 11.5858 7.08579 11.25 7.5 11.25H10.2679C10.3572 11.25 10.4398 11.2023 10.4844 11.125C10.5291 11.0476 10.5291 10.9523 10.4844 10.875L9.10049 8.47801C8.89337 8.11929 9.01627 7.6606 9.37499 7.45349C9.73371 7.24637 10.1924 7.36927 10.3995 7.72799L11.7835 10.125ZM1.25 12C1.25 6.06279 6.06279 1.25 12 1.25C17.9372 1.25 22.75 6.06279 22.75 12C22.75 17.9372 17.9372 22.75 12 22.75C6.06279 22.75 1.25 17.9372 1.25 12ZM12 2.75C6.89121 2.75 2.75 6.89121 2.75 12C2.75 17.1088 6.89121 21.25 12 21.25C17.1088 21.25 21.25 17.1088 21.25 12C21.25 6.89121 17.1088 2.75 12 2.75Z" stroke="url(#paint1_radial_2456_225457)" stroke-opacity="0.3" stroke-width="0.5" stroke-linejoin="round"/>
<defs>
<linearGradient id="paint0_linear_2456_225457" x1="1.15278" y1="1.15278" x2="23.1528" y2="23.1528" gradientUnits="userSpaceOnUse">
<stop stop-color="white"/>
<stop offset="1" stop-color="white" stop-opacity="0.3"/>
</linearGradient>
<radialGradient id="paint1_radial_2456_225457" cx="0" cy="0" r="1" gradientUnits="userSpaceOnUse" gradientTransform="translate(-11.375 -12.9028) rotate(55.9228) scale(37.628)">
<stop stop-color="white"/>
<stop offset="1" stop-color="white" stop-opacity="0"/>
</radialGradient>
</defs>
</svg>
