<svg viewBox="0 0 24 24" fill="none" xmlns="http://www.w3.org/2000/svg">
<path fill-rule="evenodd" clip-rule="evenodd" d="M12 2C12.3589 2 12.6902 2.19229 12.8682 2.50386L17.8649 11.2481C17.8661 11.2502 17.8673 11.2523 17.8685 11.2544L22.8682 20.0039C23.0451 20.3134 23.0438 20.6936 22.8649 21.0019C22.686 21.3102 22.3565 21.5 22 21.5H2C1.64353 21.5 1.31401 21.3102 1.13509 21.0019C0.956168 20.6936 0.954898 20.3134 1.13176 20.0039L11.1318 2.50386C11.3098 2.19229 11.6411 2 12 2ZM7 13.7656L3.72318 19.5H10.2768L7 13.7656ZM13.7232 19.5H20.2768L17 13.7656L13.7232 19.5ZM15.2768 10.75H8.72318L12 5.01556L15.2768 10.75ZM15.2768 12.75H8.72318L12 18.4844L15.2768 12.75Z" fill="url(#paint0_linear_2456_225454)" fill-opacity="0.55"/>
<path d="M17.6478 11.3721L17.6486 11.3735L17.6514 11.3783L17.6515 11.3784L22.6512 20.1279C22.7838 20.36 22.7829 20.6452 22.6487 20.8764C22.5145 21.1077 22.2674 21.25 22 21.25H2C1.73265 21.25 1.48551 21.1077 1.35132 20.8764C1.21713 20.6452 1.21617 20.36 1.34882 20.1279L11.3488 2.6279C11.4824 2.39421 11.7309 2.25 12 2.25C12.2691 2.25 12.5176 2.39421 12.6512 2.6279L17.6478 11.3721ZM7.21706 13.6415C7.17255 13.5636 7.08971 13.5156 7 13.5156C6.91029 13.5156 6.82745 13.5636 6.78294 13.6415L3.50612 19.376C3.4619 19.4533 3.46222 19.5484 3.50695 19.6255C3.55168 19.7026 3.63406 19.75 3.72318 19.75H10.2768C10.3659 19.75 10.4483 19.7026 10.493 19.6255C10.5378 19.5484 10.5381 19.4533 10.4939 19.376L7.21706 13.6415ZM13.5061 19.376C13.4619 19.4533 13.4622 19.5484 13.507 19.6255C13.5517 19.7026 13.6341 19.75 13.7232 19.75H20.2768C20.3659 19.75 20.4483 19.7026 20.493 19.6255C20.5378 19.5484 20.5381 19.4533 20.4939 19.376L17.2171 13.6415C17.1726 13.5636 17.0897 13.5156 17 13.5156C16.9103 13.5156 16.8274 13.5636 16.7829 13.6415L13.5061 19.376ZM15.2768 11C15.3659 11 15.4483 10.9526 15.493 10.8755C15.5378 10.7984 15.5381 10.7033 15.4939 10.626L12.2171 4.89153C12.1726 4.81364 12.0897 4.76556 12 4.76556C11.9103 4.76556 11.8274 4.81364 11.7829 4.89153L8.50612 10.626C8.4619 10.7033 8.46222 10.7984 8.50695 10.8755C8.55168 10.9526 8.63406 11 8.72318 11H15.2768ZM15.4939 12.874C15.5381 12.7967 15.5378 12.7016 15.493 12.6245C15.4483 12.5474 15.3659 12.5 15.2768 12.5H8.72318C8.63406 12.5 8.55168 12.5474 8.50695 12.6245C8.46222 12.7016 8.4619 12.7967 8.50612 12.874L11.7829 18.6085C11.8274 18.6864 11.9103 18.7344 12 18.7344C12.0897 18.7344 12.1726 18.6864 12.2171 18.6085L15.4939 12.874Z" stroke="url(#paint1_radial_2456_225454)" stroke-opacity="0.3" stroke-width="0.5" stroke-linejoin="round"/>
<defs>
<linearGradient id="paint0_linear_2456_225454" x1="1.15278" y1="2.13542" x2="20.5118" y2="23.9763" gradientUnits="userSpaceOnUse">
<stop stop-color="white"/>
<stop offset="1" stop-color="white" stop-opacity="0.3"/>
</linearGradient>
<radialGradient id="paint1_radial_2456_225454" cx="0" cy="0" r="1" gradientUnits="userSpaceOnUse" gradientTransform="translate(-11.375 -10.3229) rotate(52.6492) scale(34.7512 36.1131)">
<stop stop-color="white"/>
<stop offset="1" stop-color="white" stop-opacity="0"/>
</radialGradient>
</defs>
</svg>
