<svg viewBox="0 0 24 24" fill="none" xmlns="http://www.w3.org/2000/svg">
<mask id="path-1-inside-1_2456_225453" fill="white">
<path fill-rule="evenodd" clip-rule="evenodd" d="M9.87865 1.87868C10.4413 1.31607 11.2043 1 12 1C12.7956 1 13.5587 1.31607 14.1213 1.87868C14.6839 2.44129 15 3.20435 15 4C15 4.79565 14.6839 5.55871 14.1213 6.12132C13.5587 6.68393 12.7956 7 12 7C11.2043 7 10.4413 6.68393 9.87865 6.12132C9.31604 5.55871 8.99997 4.79565 8.99997 4C8.99997 3.20435 9.31604 2.44129 9.87865 1.87868ZM12 3C11.7348 3 11.4804 3.10536 11.2929 3.29289C11.1053 3.48043 11 3.73478 11 4C11 4.26522 11.1053 4.51957 11.2929 4.70711C11.4804 4.89464 11.7348 5 12 5C12.2652 5 12.5195 4.89464 12.7071 4.70711C12.8946 4.51957 13 4.26522 13 4C13 3.73478 12.8946 3.48043 12.7071 3.29289C12.5195 3.10536 12.2652 3 12 3ZM4.29258 5.09331C4.6744 4.98965 5.07295 4.96254 5.46529 5.01354C5.85763 5.06453 6.23601 5.19263 6.57864 5.39045C6.92127 5.58828 7.22139 5.85192 7.46171 6.16621C7.70204 6.48049 7.87783 6.83921 7.97895 7.22171C8.08008 7.6042 8.10455 8.00293 8.05095 8.39492C7.99735 8.78691 7.86675 9.16443 7.66666 9.50574C7.266 10.1892 6.6113 10.6864 5.84541 10.8889C5.07952 11.0913 4.26463 10.9827 3.57857 10.5866C2.89251 10.1905 2.39097 9.53907 2.18341 8.77454C1.97584 8.01001 2.0791 7.19442 2.47065 6.50574C2.6662 6.16181 2.92785 5.85995 3.24053 5.61754C3.55322 5.37514 3.91076 5.19698 4.29258 5.09331ZM5.2075 6.99685C5.07672 6.97985 4.94387 6.98889 4.8166 7.02345C4.68932 7.058 4.57014 7.11739 4.46591 7.19819C4.36169 7.27899 4.27447 7.37961 4.20929 7.49426C4.07877 7.72381 4.04435 7.99568 4.11354 8.25052C4.18273 8.50536 4.34991 8.72249 4.57859 8.85453C4.80728 8.98657 5.07891 9.02279 5.33421 8.95529C5.5895 8.8878 5.80774 8.72206 5.94129 8.49426C6.00799 8.38048 6.05152 8.25464 6.06939 8.12398C6.08725 7.99332 6.0791 7.86041 6.04539 7.73291C6.01168 7.60541 5.95308 7.48584 5.87297 7.38108C5.79287 7.27632 5.69283 7.18843 5.57862 7.12249C5.4644 7.05655 5.33828 7.01385 5.2075 6.99685ZM17.4351 5.41343C18.1211 5.01732 18.936 4.90865 19.7019 5.11114C20.4678 5.31363 21.1225 5.81084 21.5232 6.49426L21.5265 6.50003L21.5265 6.50004C21.7235 6.84126 21.8513 7.21793 21.9027 7.60855C21.9542 7.99917 21.9281 8.39609 21.8261 8.77665C21.7241 9.1572 21.5482 9.51395 21.3083 9.82651C21.0685 10.1391 20.7694 10.4013 20.4282 10.5983C20.087 10.7953 19.7103 10.9231 19.3197 10.9745C18.9291 11.0259 18.5321 10.9999 18.1516 10.8979C17.771 10.7959 17.4143 10.62 17.1017 10.3801C16.7892 10.1402 16.5269 9.84117 16.3299 9.49996C16.3227 9.48751 16.3158 9.47495 16.3092 9.46228C15.9325 8.78042 15.8355 7.97819 16.0399 7.22546C16.2475 6.46094 16.749 5.80954 17.4351 5.41343ZM18.0727 8.5181C18.1371 8.62436 18.2207 8.71776 18.3193 8.79346C18.4235 8.87342 18.5424 8.93208 18.6693 8.96608C18.7962 9.00008 18.9285 9.00876 19.0587 8.99162C19.1889 8.97449 19.3145 8.93187 19.4283 8.8662C19.542 8.80053 19.6417 8.7131 19.7217 8.60891C19.8016 8.50471 19.8603 8.38578 19.8943 8.25891C19.9283 8.13205 19.937 7.99972 19.9198 7.8695C19.9029 7.74039 19.8608 7.61586 19.7961 7.50288C19.6624 7.27655 19.4449 7.11192 19.1907 7.04471C18.9354 6.97721 18.6638 7.01343 18.4351 7.14547C18.2064 7.27751 18.0392 7.49464 17.97 7.74948C17.9009 8.00432 17.9353 8.27619 18.0658 8.50574C18.0681 8.50985 18.0704 8.51397 18.0727 8.5181ZM9.87865 9.87868C10.4413 9.31607 11.2043 9 12 9C12.7956 9 13.5587 9.31607 14.1213 9.87868C14.6839 10.4413 15 11.2043 15 12C15 12.7957 14.6839 13.5587 14.1213 14.1213C13.5587 14.6839 12.7956 15 12 15C11.2043 15 10.4413 14.6839 9.87865 14.1213C9.31604 13.5587 8.99997 12.7957 8.99997 12C8.99997 11.2043 9.31604 10.4413 9.87865 9.87868ZM12 11C11.7348 11 11.4804 11.1054 11.2929 11.2929C11.1053 11.4804 11 11.7348 11 12C11 12.2652 11.1053 12.5196 11.2929 12.7071C11.4804 12.8946 11.7348 13 12 13C12.2652 13 12.5195 12.8946 12.7071 12.7071C12.8946 12.5196 13 12.2652 13 12C13 11.7348 12.8946 11.4804 12.7071 11.2929C12.5195 11.1054 12.2652 11 12 11ZM4.67865 13.0135C5.07099 12.9625 5.46955 12.9897 5.85137 13.0933C6.23318 13.197 6.59073 13.3751 6.90341 13.6175C7.21609 13.8599 7.47774 14.1618 7.67329 14.5057C8.06484 15.1944 8.1681 16.01 7.96053 16.7745C7.75297 17.5391 7.25143 18.1905 6.56537 18.5866C5.87931 18.9827 5.06442 19.0913 4.29853 18.8889C3.53265 18.6864 2.87794 18.1892 2.47729 17.5057C2.2772 17.1644 2.14659 16.7869 2.09299 16.3949C2.0394 16.0029 2.06387 15.6042 2.16499 15.2217C2.26612 14.8392 2.4419 14.4805 2.68223 14.1662C2.92255 13.8519 3.22267 13.5883 3.56531 13.3905C3.90794 13.1926 4.28632 13.0645 4.67865 13.0135ZM5.32735 15.0234C5.20008 14.9889 5.06722 14.9799 4.93644 14.9969C4.80566 15.0139 4.67954 15.0566 4.56533 15.1225C4.45112 15.1884 4.35108 15.2763 4.27097 15.3811C4.19086 15.4858 4.13226 15.6054 4.09856 15.7329C4.06485 15.8604 4.05669 15.9933 4.07456 16.124C4.09242 16.2546 4.13596 16.3805 4.20265 16.4943C4.33621 16.7221 4.55444 16.8878 4.80974 16.9553C5.06503 17.0228 5.33666 16.9866 5.56535 16.8545C5.79404 16.7225 5.96122 16.5054 6.0304 16.2505C6.09959 15.9957 6.06517 15.7238 5.93465 15.4943C5.86947 15.3796 5.78226 15.279 5.67803 15.1982C5.5738 15.1174 5.45462 15.058 5.32735 15.0234ZM18.155 13.1111C18.9209 12.9087 19.7358 13.0173 20.4219 13.4134C21.1079 13.8095 21.6095 14.4609 21.817 15.2255C22.0246 15.99 21.9213 16.8056 21.5298 17.4943L21.5265 17.5L21.5265 17.5C21.1287 18.1891 20.4734 18.6919 19.7049 18.8979C18.9363 19.1039 18.1174 18.9961 17.4283 18.5983C16.7392 18.2005 16.2363 17.5452 16.0303 16.7766C15.8243 16.0081 15.9321 15.1892 16.3299 14.5C16.3371 14.4877 16.3444 14.4755 16.3521 14.4635C16.7542 13.7959 17.4007 13.3106 18.155 13.1111ZM19.4218 15.1455C19.1932 15.0134 18.9215 14.9772 18.6662 15.0447C18.4109 15.1122 18.1927 15.2779 18.0592 15.5057C18.0567 15.5099 18.0543 15.5139 18.0518 15.518C17.9276 15.7439 17.8953 16.0094 17.9621 16.2589C18.0308 16.5151 18.1984 16.7336 18.4282 16.8662C18.6579 16.9988 18.9309 17.0347 19.1871 16.9661C19.4423 16.8977 19.66 16.7311 19.7928 16.5028C19.922 16.2739 19.9558 16.0032 19.8869 15.7495C19.8177 15.4946 19.6505 15.2775 19.4218 15.1455ZM9.87865 17.8787C10.4413 17.3161 11.2043 17 12 17C12.7956 17 13.5587 17.3161 14.1213 17.8787C14.6839 18.4413 15 19.2043 15 20C15 20.7957 14.6839 21.5587 14.1213 22.1213C13.5587 22.6839 12.7956 23 12 23C11.2043 23 10.4413 22.6839 9.87865 22.1213C9.31604 21.5587 8.99997 20.7957 8.99997 20C8.99997 19.2043 9.31604 18.4413 9.87865 17.8787ZM12 19C11.7348 19 11.4804 19.1054 11.2929 19.2929C11.1053 19.4804 11 19.7348 11 20C11 20.2652 11.1053 20.5196 11.2929 20.7071C11.4804 20.8946 11.7348 21 12 21C12.2652 21 12.5195 20.8946 12.7071 20.7071C12.8946 20.5196 13 20.2652 13 20C13 19.7348 12.8946 19.4804 12.7071 19.2929C12.5195 19.1054 12.2652 19 12 19Z"/>
</mask>
<path fill-rule="evenodd" clip-rule="evenodd" d="M9.87865 1.87868C10.4413 1.31607 11.2043 1 12 1C12.7956 1 13.5587 1.31607 14.1213 1.87868C14.6839 2.44129 15 3.20435 15 4C15 4.79565 14.6839 5.55871 14.1213 6.12132C13.5587 6.68393 12.7956 7 12 7C11.2043 7 10.4413 6.68393 9.87865 6.12132C9.31604 5.55871 8.99997 4.79565 8.99997 4C8.99997 3.20435 9.31604 2.44129 9.87865 1.87868ZM12 3C11.7348 3 11.4804 3.10536 11.2929 3.29289C11.1053 3.48043 11 3.73478 11 4C11 4.26522 11.1053 4.51957 11.2929 4.70711C11.4804 4.89464 11.7348 5 12 5C12.2652 5 12.5195 4.89464 12.7071 4.70711C12.8946 4.51957 13 4.26522 13 4C13 3.73478 12.8946 3.48043 12.7071 3.29289C12.5195 3.10536 12.2652 3 12 3ZM4.29258 5.09331C4.6744 4.98965 5.07295 4.96254 5.46529 5.01354C5.85763 5.06453 6.23601 5.19263 6.57864 5.39045C6.92127 5.58828 7.22139 5.85192 7.46171 6.16621C7.70204 6.48049 7.87783 6.83921 7.97895 7.22171C8.08008 7.6042 8.10455 8.00293 8.05095 8.39492C7.99735 8.78691 7.86675 9.16443 7.66666 9.50574C7.266 10.1892 6.6113 10.6864 5.84541 10.8889C5.07952 11.0913 4.26463 10.9827 3.57857 10.5866C2.89251 10.1905 2.39097 9.53907 2.18341 8.77454C1.97584 8.01001 2.0791 7.19442 2.47065 6.50574C2.6662 6.16181 2.92785 5.85995 3.24053 5.61754C3.55322 5.37514 3.91076 5.19698 4.29258 5.09331ZM5.2075 6.99685C5.07672 6.97985 4.94387 6.98889 4.8166 7.02345C4.68932 7.058 4.57014 7.11739 4.46591 7.19819C4.36169 7.27899 4.27447 7.37961 4.20929 7.49426C4.07877 7.72381 4.04435 7.99568 4.11354 8.25052C4.18273 8.50536 4.34991 8.72249 4.57859 8.85453C4.80728 8.98657 5.07891 9.02279 5.33421 8.95529C5.5895 8.8878 5.80774 8.72206 5.94129 8.49426C6.00799 8.38048 6.05152 8.25464 6.06939 8.12398C6.08725 7.99332 6.0791 7.86041 6.04539 7.73291C6.01168 7.60541 5.95308 7.48584 5.87297 7.38108C5.79287 7.27632 5.69283 7.18843 5.57862 7.12249C5.4644 7.05655 5.33828 7.01385 5.2075 6.99685ZM17.4351 5.41343C18.1211 5.01732 18.936 4.90865 19.7019 5.11114C20.4678 5.31363 21.1225 5.81084 21.5232 6.49426L21.5265 6.50003L21.5265 6.50004C21.7235 6.84126 21.8513 7.21793 21.9027 7.60855C21.9542 7.99917 21.9281 8.39609 21.8261 8.77665C21.7241 9.1572 21.5482 9.51395 21.3083 9.82651C21.0685 10.1391 20.7694 10.4013 20.4282 10.5983C20.087 10.7953 19.7103 10.9231 19.3197 10.9745C18.9291 11.0259 18.5321 10.9999 18.1516 10.8979C17.771 10.7959 17.4143 10.62 17.1017 10.3801C16.7892 10.1402 16.5269 9.84117 16.3299 9.49996C16.3227 9.48751 16.3158 9.47495 16.3092 9.46228C15.9325 8.78042 15.8355 7.97819 16.0399 7.22546C16.2475 6.46094 16.749 5.80954 17.4351 5.41343ZM18.0727 8.5181C18.1371 8.62436 18.2207 8.71776 18.3193 8.79346C18.4235 8.87342 18.5424 8.93208 18.6693 8.96608C18.7962 9.00008 18.9285 9.00876 19.0587 8.99162C19.1889 8.97449 19.3145 8.93187 19.4283 8.8662C19.542 8.80053 19.6417 8.7131 19.7217 8.60891C19.8016 8.50471 19.8603 8.38578 19.8943 8.25891C19.9283 8.13205 19.937 7.99972 19.9198 7.8695C19.9029 7.74039 19.8608 7.61586 19.7961 7.50288C19.6624 7.27655 19.4449 7.11192 19.1907 7.04471C18.9354 6.97721 18.6638 7.01343 18.4351 7.14547C18.2064 7.27751 18.0392 7.49464 17.97 7.74948C17.9009 8.00432 17.9353 8.27619 18.0658 8.50574C18.0681 8.50985 18.0704 8.51397 18.0727 8.5181ZM9.87865 9.87868C10.4413 9.31607 11.2043 9 12 9C12.7956 9 13.5587 9.31607 14.1213 9.87868C14.6839 10.4413 15 11.2043 15 12C15 12.7957 14.6839 13.5587 14.1213 14.1213C13.5587 14.6839 12.7956 15 12 15C11.2043 15 10.4413 14.6839 9.87865 14.1213C9.31604 13.5587 8.99997 12.7957 8.99997 12C8.99997 11.2043 9.31604 10.4413 9.87865 9.87868ZM12 11C11.7348 11 11.4804 11.1054 11.2929 11.2929C11.1053 11.4804 11 11.7348 11 12C11 12.2652 11.1053 12.5196 11.2929 12.7071C11.4804 12.8946 11.7348 13 12 13C12.2652 13 12.5195 12.8946 12.7071 12.7071C12.8946 12.5196 13 12.2652 13 12C13 11.7348 12.8946 11.4804 12.7071 11.2929C12.5195 11.1054 12.2652 11 12 11ZM4.67865 13.0135C5.07099 12.9625 5.46955 12.9897 5.85137 13.0933C6.23318 13.197 6.59073 13.3751 6.90341 13.6175C7.21609 13.8599 7.47774 14.1618 7.67329 14.5057C8.06484 15.1944 8.1681 16.01 7.96053 16.7745C7.75297 17.5391 7.25143 18.1905 6.56537 18.5866C5.87931 18.9827 5.06442 19.0913 4.29853 18.8889C3.53265 18.6864 2.87794 18.1892 2.47729 17.5057C2.2772 17.1644 2.14659 16.7869 2.09299 16.3949C2.0394 16.0029 2.06387 15.6042 2.16499 15.2217C2.26612 14.8392 2.4419 14.4805 2.68223 14.1662C2.92255 13.8519 3.22267 13.5883 3.56531 13.3905C3.90794 13.1926 4.28632 13.0645 4.67865 13.0135ZM5.32735 15.0234C5.20008 14.9889 5.06722 14.9799 4.93644 14.9969C4.80566 15.0139 4.67954 15.0566 4.56533 15.1225C4.45112 15.1884 4.35108 15.2763 4.27097 15.3811C4.19086 15.4858 4.13226 15.6054 4.09856 15.7329C4.06485 15.8604 4.05669 15.9933 4.07456 16.124C4.09242 16.2546 4.13596 16.3805 4.20265 16.4943C4.33621 16.7221 4.55444 16.8878 4.80974 16.9553C5.06503 17.0228 5.33666 16.9866 5.56535 16.8545C5.79404 16.7225 5.96122 16.5054 6.0304 16.2505C6.09959 15.9957 6.06517 15.7238 5.93465 15.4943C5.86947 15.3796 5.78226 15.279 5.67803 15.1982C5.5738 15.1174 5.45462 15.058 5.32735 15.0234ZM18.155 13.1111C18.9209 12.9087 19.7358 13.0173 20.4219 13.4134C21.1079 13.8095 21.6095 14.4609 21.817 15.2255C22.0246 15.99 21.9213 16.8056 21.5298 17.4943L21.5265 17.5L21.5265 17.5C21.1287 18.1891 20.4734 18.6919 19.7049 18.8979C18.9363 19.1039 18.1174 18.9961 17.4283 18.5983C16.7392 18.2005 16.2363 17.5452 16.0303 16.7766C15.8243 16.0081 15.9321 15.1892 16.3299 14.5C16.3371 14.4877 16.3444 14.4755 16.3521 14.4635C16.7542 13.7959 17.4007 13.3106 18.155 13.1111ZM19.4218 15.1455C19.1932 15.0134 18.9215 14.9772 18.6662 15.0447C18.4109 15.1122 18.1927 15.2779 18.0592 15.5057C18.0567 15.5099 18.0543 15.5139 18.0518 15.518C17.9276 15.7439 17.8953 16.0094 17.9621 16.2589C18.0308 16.5151 18.1984 16.7336 18.4282 16.8662C18.6579 16.9988 18.9309 17.0347 19.1871 16.9661C19.4423 16.8977 19.66 16.7311 19.7928 16.5028C19.922 16.2739 19.9558 16.0032 19.8869 15.7495C19.8177 15.4946 19.6505 15.2775 19.4218 15.1455ZM9.87865 17.8787C10.4413 17.3161 11.2043 17 12 17C12.7956 17 13.5587 17.3161 14.1213 17.8787C14.6839 18.4413 15 19.2043 15 20C15 20.7957 14.6839 21.5587 14.1213 22.1213C13.5587 22.6839 12.7956 23 12 23C11.2043 23 10.4413 22.6839 9.87865 22.1213C9.31604 21.5587 8.99997 20.7957 8.99997 20C8.99997 19.2043 9.31604 18.4413 9.87865 17.8787ZM12 19C11.7348 19 11.4804 19.1054 11.2929 19.2929C11.1053 19.4804 11 19.7348 11 20C11 20.2652 11.1053 20.5196 11.2929 20.7071C11.4804 20.8946 11.7348 21 12 21C12.2652 21 12.5195 20.8946 12.7071 20.7071C12.8946 20.5196 13 20.2652 13 20C13 19.7348 12.8946 19.4804 12.7071 19.2929C12.5195 19.1054 12.2652 19 12 19Z" fill="url(#paint0_linear_2456_225453)" fill-opacity="0.55" stroke="url(#paint1_radial_2456_225453)" stroke-opacity="0.3" stroke-linejoin="round" mask="url(#path-1-inside-1_2456_225453)"/>
<defs>
<linearGradient id="paint0_linear_2456_225453" x1="2.20328" y1="1.15278" x2="24.0889" y2="20.9126" gradientUnits="userSpaceOnUse">
<stop stop-color="white"/>
<stop offset="1" stop-color="white" stop-opacity="0.3"/>
</linearGradient>
<radialGradient id="paint1_radial_2456_225453" cx="0" cy="0" r="1" gradientUnits="userSpaceOnUse" gradientTransform="translate(-9.10763 -12.9028) rotate(58.585) scale(36.52 35.0038)">
<stop stop-color="white"/>
<stop offset="1" stop-color="white" stop-opacity="0"/>
</radialGradient>
</defs>
</svg>
