<svg viewBox="0 0 24 24" fill="none" xmlns="http://www.w3.org/2000/svg">
<path fill-rule="evenodd" clip-rule="evenodd" d="M9.9845 1.86432C11.3151 1.60085 12.6845 1.60085 14.0151 1.86432C14.5569 1.97159 14.9091 2.49774 14.8019 3.03951C14.6946 3.58127 14.1685 3.9335 13.6267 3.82623C12.5525 3.61355 11.4471 3.61355 10.373 3.82623C9.83119 3.9335 9.30504 3.58127 9.19777 3.03951C9.0905 2.49774 9.44273 1.97159 9.9845 1.86432ZM3.04313 3.04356C3.66825 2.41843 4.5161 2.06724 5.40016 2.06724C6.28421 2.06724 7.13206 2.41843 7.75718 3.04356C8.3823 3.66868 8.73349 4.51652 8.73349 5.40058C8.73349 5.94226 8.60164 6.47034 8.35572 6.94193L11.9998 10.586L15.6439 6.94193C15.398 6.47034 15.2662 5.94226 15.2662 5.40058C15.2662 4.51652 15.6173 3.66868 16.2425 3.04356C16.8676 2.41843 17.7154 2.06725 18.5995 2.06725C19.4835 2.06725 20.3314 2.41843 20.9565 3.04356C21.5816 3.66868 21.9328 4.51652 21.9328 5.40058C21.9328 6.28463 21.5816 7.13248 20.9565 7.7576C20.3314 8.38272 19.4835 8.73391 18.5995 8.73391C18.0578 8.73391 17.5297 8.60206 17.0581 8.35614L13.414 12.0002L17.0581 15.6443C17.5297 15.3984 18.0578 15.2666 18.5995 15.2666C19.4835 15.2666 20.3314 15.6178 20.9565 16.2429C21.5816 16.868 21.9328 17.7159 21.9328 18.5999C21.9328 19.484 21.5816 20.3318 20.9565 20.9569C20.3314 21.5821 19.4835 21.9332 18.5995 21.9332C17.7154 21.9332 16.8676 21.5821 16.2425 20.9569C15.6173 20.3318 15.2662 19.484 15.2662 18.5999C15.2662 18.0582 15.398 17.5301 15.6439 17.0586L11.9998 13.4145L8.35572 17.0586C8.60164 17.5301 8.73349 18.0582 8.73349 18.5999C8.73349 19.484 8.3823 20.3318 7.75718 20.9569C7.13206 21.582 6.28421 21.9332 5.40016 21.9332C4.5161 21.9332 3.66825 21.582 3.04313 20.9569C2.41801 20.3318 2.06682 19.484 2.06682 18.5999C2.06682 17.7159 2.41801 16.868 3.04313 16.2429C3.66825 15.6178 4.5161 15.2666 5.40016 15.2666C5.94184 15.2666 6.46992 15.3984 6.94151 15.6443L10.5856 12.0002L6.94151 8.35614C6.46992 8.60206 5.94184 8.73391 5.40016 8.73391C4.5161 8.73391 3.66825 8.38272 3.04313 7.7576C2.41801 7.13248 2.06682 6.28463 2.06682 5.40058C2.06682 4.51652 2.41801 3.66868 3.04313 3.04356ZM5.40016 4.06724C5.04653 4.06724 4.7074 4.20772 4.45735 4.45777C4.2073 4.70782 4.06682 5.04696 4.06682 5.40058C4.06682 5.7542 4.2073 6.09334 4.45735 6.34339C4.7074 6.59344 5.04653 6.73391 5.40016 6.73391C5.75378 6.73391 6.09292 6.59344 6.34297 6.34339C6.59301 6.09334 6.73349 5.7542 6.73349 5.40058C6.73349 5.04696 6.59301 4.70782 6.34297 4.45777C6.09292 4.20772 5.75378 4.06724 5.40016 4.06724ZM18.5995 4.06725C18.2459 4.06725 17.9067 4.20772 17.6567 4.45777C17.4066 4.70782 17.2662 5.04695 17.2662 5.40058C17.2662 5.7542 17.4066 6.09334 17.6567 6.34339C17.9067 6.59343 18.2459 6.73391 18.5995 6.73391C18.9531 6.73391 19.2922 6.59344 19.5423 6.34339C19.7923 6.09334 19.9328 5.7542 19.9328 5.40058C19.9328 5.04695 19.7923 4.70782 19.5423 4.45777C19.2922 4.20772 18.9531 4.06725 18.5995 4.06725ZM21.0577 9.18351C21.5697 9.13332 22.0363 9.47986 22.1362 9.98458C22.3995 11.3152 22.3995 12.6845 22.1362 14.0151C22.0363 14.5198 21.5697 14.8663 21.0577 14.8162C20.5456 14.766 20.1552 14.3354 20.1552 13.8209V10.1787C20.1552 9.66423 20.5456 9.23369 21.0577 9.18351ZM2.94243 9.18392C3.45446 9.23412 3.84485 9.66466 3.84485 10.1792L3.84485 13.8213C3.84485 14.3358 3.45446 14.7664 2.94243 14.8166C2.43039 14.8668 1.96382 14.5203 1.86389 14.0156C1.60044 12.6849 1.60044 11.3156 1.86389 9.98493C1.96382 9.48024 2.43039 9.13372 2.94243 9.18392ZM5.40016 17.2666C5.04653 17.2666 4.7074 17.407 4.45735 17.6571C4.2073 17.9071 4.06682 18.2463 4.06682 18.5999C4.06682 18.9535 4.2073 19.2927 4.45735 19.5427C4.7074 19.7928 5.04653 19.9332 5.40016 19.9332C5.75378 19.9332 6.09292 19.7928 6.34297 19.5427C6.59301 19.2927 6.73349 18.9535 6.73349 18.5999C6.73349 18.2463 6.59301 17.9071 6.34297 17.6571C6.09292 17.407 5.75378 17.2666 5.40016 17.2666ZM18.5995 17.2666C18.2459 17.2666 17.9067 17.407 17.6567 17.6571C17.4066 17.9071 17.2662 18.2463 17.2662 18.5999C17.2662 18.9535 17.4066 19.2927 17.6567 19.5427C17.9067 19.7928 18.2459 19.9332 18.5995 19.9332C18.9531 19.9332 19.2922 19.7928 19.5423 19.5427C19.7923 19.2927 19.9328 18.9535 19.9328 18.5999C19.9328 18.2463 19.7923 17.9071 19.5423 17.6571C19.2922 17.407 18.9531 17.2666 18.5995 17.2666ZM9.18391 21.0573C9.23409 20.5452 9.66463 20.1548 10.1791 20.1548H13.8213C14.3358 20.1548 14.7664 20.5452 14.8166 21.0573C14.8667 21.5693 14.5202 22.0359 14.0155 22.1358C12.6849 22.3991 11.3156 22.3991 9.98499 22.1358C9.48028 22.0359 9.13372 21.5693 9.18391 21.0573Z" fill="url(#paint0_linear_2456_225471)" fill-opacity="0.55"/>
<path d="M8.13405 6.82634C8.08357 6.92314 8.10175 7.04151 8.17895 7.11871L11.823 10.7628C11.8699 10.8097 11.9335 10.836 11.9998 10.836C12.0661 10.836 12.1297 10.8097 12.1766 10.7628L15.8207 7.11871C15.8979 7.04151 15.9161 6.92314 15.8656 6.82633C15.6381 6.3901 15.5162 5.90163 15.5162 5.40058C15.5162 4.58283 15.841 3.79857 16.4192 3.22033C16.9975 2.64209 17.7817 2.31725 18.5995 2.31725C19.4172 2.31725 20.2015 2.64209 20.7797 3.22033C21.358 3.79857 21.6828 4.58283 21.6828 5.40058C21.6828 6.21833 21.358 7.00259 20.7797 7.58082C20.2015 8.15906 19.4172 8.48391 18.5995 8.48391C18.0984 8.48391 17.61 8.36196 17.1737 8.13447C17.0769 8.08399 16.9586 8.10217 16.8814 8.17937L13.2373 11.8235C13.1396 11.9211 13.1396 12.0794 13.2373 12.177L16.8814 15.8211C16.9586 15.8983 17.0769 15.9165 17.1737 15.866C17.61 15.6385 18.0984 15.5166 18.5995 15.5166C19.4172 15.5166 20.2015 15.8414 20.7797 16.4197C21.358 16.9979 21.6828 17.7822 21.6828 18.5999C21.6828 19.4177 21.358 20.2019 20.7797 20.7802C20.2015 21.3584 19.4172 21.6832 18.5995 21.6832C17.7817 21.6832 16.9975 21.3584 16.4192 20.7802C15.841 20.2019 15.5162 19.4177 15.5162 18.5999C15.5162 18.0989 15.6381 17.6104 15.8656 17.1741C15.9161 17.0773 15.8979 16.959 15.8207 16.8818L12.1766 13.2377C12.1297 13.1908 12.0661 13.1645 11.9998 13.1645C11.9335 13.1645 11.8699 13.1908 11.823 13.2377L8.17895 16.8818C8.10175 16.959 8.08357 17.0773 8.13405 17.1741C8.36154 17.6104 8.48349 18.0989 8.48349 18.5999C8.48349 19.4177 8.15864 20.2019 7.5804 20.7802C7.00216 21.3584 6.21791 21.6832 5.40016 21.6832C4.5824 21.6832 3.79815 21.3584 3.21991 20.7802C2.64167 20.2019 2.31682 19.4177 2.31682 18.5999C2.31682 17.7822 2.64167 16.9979 3.21991 16.4197C3.79815 15.8414 4.58241 15.5166 5.40016 15.5166C5.9012 15.5166 6.38968 15.6385 6.82591 15.866C6.92272 15.9165 7.04109 15.8983 7.11829 15.8211L10.7624 12.177C10.8093 12.1301 10.8356 12.0665 10.8356 12.0002C10.8356 11.9339 10.8093 11.8703 10.7624 11.8235L7.11829 8.17937C7.04109 8.10217 6.92272 8.08399 6.82591 8.13447C6.38968 8.36196 5.9012 8.48391 5.40016 8.48391C4.58241 8.48391 3.79815 8.15906 3.21991 7.58082C2.64167 7.00259 2.31682 6.21833 2.31682 5.40058C2.31682 4.58283 2.64167 3.79857 3.21991 3.22033C3.79815 2.64209 4.5824 2.31724 5.40016 2.31724C6.21791 2.31724 7.00216 2.64209 7.5804 3.22033C8.15864 3.79857 8.48349 4.58283 8.48349 5.40058C8.48349 5.90163 8.36154 6.3901 8.13405 6.82634ZM10.0331 2.10956C11.3316 1.85244 12.668 1.85244 13.9666 2.10956C14.3729 2.19001 14.6371 2.58462 14.5566 2.99095C14.4762 3.39727 14.0816 3.66144 13.6752 3.58099C12.569 3.36196 11.4306 3.36196 10.3244 3.58099C9.91808 3.66144 9.52346 3.39727 9.44301 2.99095C9.36256 2.58462 9.62673 2.19001 10.0331 2.10956ZM5.40016 3.81724C4.98023 3.81724 4.5775 3.98406 4.28057 4.28099C3.98364 4.57792 3.81682 4.98065 3.81682 5.40058C3.81682 5.8205 3.98364 6.22323 4.28057 6.52016C4.5775 6.8171 4.98023 6.98391 5.40016 6.98391C5.82008 6.98391 6.22281 6.8171 6.51974 6.52016C6.81667 6.22323 6.98349 5.8205 6.98349 5.40058C6.98349 4.98065 6.81667 4.57792 6.51974 4.28099C6.22281 3.98406 5.82008 3.81724 5.40016 3.81724ZM18.5995 3.81725C18.1796 3.81725 17.7768 3.98406 17.4799 4.28099C17.183 4.57792 17.0162 4.98065 17.0162 5.40058C17.0162 5.8205 17.183 6.22323 17.4799 6.52016C17.7768 6.8171 18.1796 6.98391 18.5995 6.98391C19.0194 6.98391 19.4221 6.8171 19.7191 6.52016C20.016 6.22323 20.1828 5.82051 20.1828 5.40058C20.1828 4.98065 20.016 4.57792 19.7191 4.28099C19.4221 3.98406 19.0194 3.81725 18.5995 3.81725ZM21.082 9.43231C21.4661 9.39467 21.816 9.65458 21.8909 10.0331C22.1479 11.3317 22.1479 12.668 21.8909 13.9665C21.816 14.3451 21.4661 14.605 21.082 14.5674C20.698 14.5297 20.4052 14.2068 20.4052 13.8209V10.1787C20.4052 9.79286 20.698 9.46995 21.082 9.43231ZM2.91803 9.43273C3.30206 9.47038 3.59485 9.79328 3.59485 10.1792L3.59485 13.8213C3.59485 14.2072 3.30206 14.5301 2.91803 14.5678C2.534 14.6054 2.18408 14.3455 2.10913 13.967C1.85203 12.6684 1.85203 11.3321 2.10913 10.0335C2.18408 9.65496 2.534 9.39508 2.91803 9.43273ZM5.40016 17.0166C4.98023 17.0166 4.5775 17.1834 4.28057 17.4803C3.98364 17.7773 3.81682 18.18 3.81682 18.5999C3.81682 19.0198 3.98364 19.4226 4.28057 19.7195C4.5775 20.0164 4.98023 20.1832 5.40016 20.1832C5.82008 20.1832 6.22281 20.0164 6.51974 19.7195C6.81667 19.4226 6.98349 19.0198 6.98349 18.5999C6.98349 18.18 6.81667 17.7773 6.51974 17.4803C6.22281 17.1834 5.82008 17.0166 5.40016 17.0166ZM18.5995 17.0166C18.1796 17.0166 17.7768 17.1834 17.4799 17.4803C17.183 17.7773 17.0162 18.18 17.0162 18.5999C17.0162 19.0198 17.183 19.4226 17.4799 19.7195C17.7768 20.0164 18.1796 20.1832 18.5995 20.1832C19.0194 20.1832 19.4221 20.0164 19.7191 19.7195C20.016 19.4226 20.1828 19.0198 20.1828 18.5999C20.1828 18.18 20.016 17.7773 19.7191 17.4803C19.4221 17.1834 19.0194 17.0166 18.5995 17.0166ZM9.43272 21.0816C9.47035 20.6976 9.79326 20.4048 10.1791 20.4048H13.8213C14.2072 20.4048 14.5301 20.6976 14.5678 21.0816C14.6054 21.4657 14.3455 21.8156 13.9669 21.8905C12.6684 22.1475 11.3321 22.1475 10.0335 21.8905C9.65499 21.8156 9.39508 21.4657 9.43272 21.0816Z" stroke="url(#paint1_radial_2456_225471)" stroke-opacity="0.3" stroke-width="0.5" stroke-linejoin="round"/>
<defs>
<linearGradient id="paint0_linear_2456_225471" x1="1.80983" y1="1.81024" x2="22.4764" y2="22.4776" gradientUnits="userSpaceOnUse">
<stop stop-color="white"/>
<stop offset="1" stop-color="white" stop-opacity="0.3"/>
</linearGradient>
<radialGradient id="paint1_radial_2456_225471" cx="0" cy="0" r="1" gradientUnits="userSpaceOnUse" gradientTransform="translate(-9.9591 -11.3934) rotate(55.9217) scale(35.3478 35.3483)">
<stop stop-color="white"/>
<stop offset="1" stop-color="white" stop-opacity="0"/>
</radialGradient>
</defs>
</svg>
