<svg viewBox="0 0 24 24" fill="none" xmlns="http://www.w3.org/2000/svg">
<path fill-rule="evenodd" clip-rule="evenodd" d="M8.1199 4.78412C7.20428 3.8685 5.71341 3.86749 4.79045 4.79045C3.86749 5.71341 3.86849 7.20429 4.78411 8.11991L10.3321 13.6679C10.7226 14.0584 10.7226 14.6916 10.3321 15.0821C9.94159 15.4727 9.30843 15.4727 8.9179 15.0821L3.3699 9.53412C1.66985 7.83407 1.67561 5.07686 3.37623 3.37624C5.07686 1.67561 7.83407 1.66986 9.53411 3.36991L10.3278 4.16355C10.7183 4.55408 10.7183 5.18724 10.3278 5.57777C9.93724 5.96829 9.30407 5.96829 8.91355 5.57777L8.1199 4.78412ZM17.5417 4.09959C16.9161 4.09959 16.3161 4.3481 15.8738 4.79045L10.3571 10.3072C9.96653 10.6977 9.33337 10.6977 8.94284 10.3072C8.55232 9.91666 8.55232 9.2835 8.94284 8.89297L14.4596 3.37624C15.277 2.55881 16.3857 2.09959 17.5417 2.09959C18.6977 2.09959 19.8064 2.55881 20.6238 3.37624C21.4412 4.19366 21.9004 5.30233 21.9004 6.45835C21.9004 7.61436 21.4412 8.72303 20.6238 9.54045L19.8297 10.3345C19.4392 10.725 18.8061 10.725 18.4155 10.3345C18.025 9.94397 18.025 9.31081 18.4155 8.92028L19.2096 8.12624C19.6519 7.68389 19.9004 7.08393 19.9004 6.45835C19.9004 5.83277 19.6519 5.23281 19.2096 4.79045C18.7672 4.3481 18.1673 4.09959 17.5417 4.09959ZM13.6679 8.91791C14.0584 8.52739 14.6916 8.52739 15.0821 8.91791L20.6188 14.4546C21.4375 15.2719 21.898 16.3809 21.899 17.5377C21.9001 18.6945 21.4416 19.8043 20.6245 20.6231C18.921 22.3266 16.1587 22.3229 14.4552 20.6194L13.694 19.8583C13.3035 19.4677 13.3035 18.8346 13.694 18.444C14.0846 18.0535 14.7177 18.0535 15.1082 18.444L15.8694 19.2052C16.7943 20.1301 18.2895 20.1296 19.2096 19.2096C19.6516 18.7663 19.8996 18.1656 19.899 17.5395C19.8985 16.9131 19.6491 16.3126 19.2058 15.87L13.6679 10.3321C13.2774 9.9416 13.2774 9.30843 13.6679 8.91791ZM5.59399 13.656C5.98452 14.0466 5.98452 14.6797 5.59399 15.0703L4.79045 15.8738C4.3481 16.3161 4.09958 16.9161 4.09958 17.5417C4.09958 18.1673 4.3481 18.7672 4.79045 19.2096C5.2328 19.6519 5.83276 19.9004 6.45834 19.9004C7.08393 19.9004 7.68389 19.6519 8.12624 19.2096L13.6667 13.6691C14.0572 13.2786 14.6904 13.2786 15.0809 13.6691C15.4715 14.0596 15.4715 14.6928 15.0809 15.0833L9.54045 20.6238C8.72303 21.4412 7.61436 21.9004 6.45834 21.9004C5.30233 21.9004 4.19366 21.4412 3.37624 20.6238C2.55881 19.8064 2.09958 18.6977 2.09958 17.5417C2.09958 16.3857 2.55881 15.277 3.37624 14.4596L4.17978 13.656C4.5703 13.2655 5.20347 13.2655 5.59399 13.656Z" fill="url(#paint0_linear_2456_225468)" fill-opacity="0.55"/>
<path d="M20.4421 14.6314L20.4422 14.6316C21.2139 15.402 21.6481 16.4474 21.649 17.5379C21.65 18.6283 21.2179 19.6745 20.4477 20.4463C18.8421 22.0519 16.2381 22.0488 14.632 20.4427L13.8708 19.6815C13.5779 19.3886 13.5779 18.9137 13.8708 18.6208C14.1637 18.3279 14.6386 18.3279 14.9315 18.6208L15.6927 19.382C16.7149 20.4042 18.3684 20.4043 19.3864 19.3864L19.3866 19.3861C19.8754 18.8959 20.1497 18.2316 20.149 17.5393C20.1484 16.8466 19.8727 16.1825 19.3824 15.6931L13.8447 10.1553C13.5518 9.86245 13.5518 9.38758 13.8447 9.09469C14.1376 8.80179 14.6124 8.80179 14.9053 9.09469L20.4421 14.6314ZM8.29668 4.60734C7.28306 3.59372 5.63389 3.59345 4.61367 4.61368C3.59345 5.6339 3.59372 7.28307 4.60734 8.29669L10.1553 13.8447C10.4482 14.1376 10.4482 14.6125 10.1553 14.9053C9.86245 15.1982 9.38757 15.1982 9.09468 14.9053L3.54668 9.35735C1.94471 7.75538 1.94956 5.15646 3.55301 3.55302C5.15646 1.94957 7.75537 1.94472 9.35734 3.54668L10.151 4.34033C10.4439 4.63322 10.4439 5.1081 10.151 5.40099C9.85809 5.69388 9.38322 5.69388 9.09032 5.40099L8.29668 4.60734ZM17.5417 3.84959C16.8498 3.84959 16.1863 4.12444 15.697 4.61368L10.1803 10.1304C9.88739 10.4233 9.41251 10.4233 9.11962 10.1304C8.82673 9.83752 8.82673 9.36264 9.11962 9.06975L14.6364 3.55302C15.4069 2.78247 16.452 2.34959 17.5417 2.34959C18.6314 2.34959 19.6765 2.78247 20.447 3.55302C21.2176 4.32356 21.6504 5.36864 21.6504 6.45835C21.6504 7.54806 21.2176 8.59314 20.447 9.36368L19.653 10.1577C19.3601 10.4506 18.8852 10.4506 18.5923 10.1577C18.2994 9.86483 18.2994 9.38995 18.5923 9.09706L19.3864 8.30302C19.8756 7.81378 20.1504 7.15023 20.1504 6.45835C20.1504 5.76646 19.8756 5.10291 19.3864 4.61368C18.8971 4.12444 18.2336 3.84959 17.5417 3.84959ZM5.41721 13.8328C5.71011 14.1257 5.71011 14.6006 5.41721 14.8935L4.61367 15.697C4.12444 16.1863 3.84958 16.8498 3.84958 17.5417C3.84958 18.2336 4.12444 18.8971 4.61367 19.3864C5.10291 19.8756 5.76646 20.1504 6.45834 20.1504C7.15023 20.1504 7.81378 19.8756 8.30302 19.3864L13.8435 13.8459C14.1364 13.553 14.6113 13.553 14.9042 13.8459C15.1971 14.1388 15.1971 14.6136 14.9042 14.9065L9.36368 20.447C8.59313 21.2176 7.54805 21.6504 6.45834 21.6504C5.36863 21.6504 4.32355 21.2176 3.55301 20.447C2.78247 19.6765 2.34958 18.6314 2.34958 17.5417C2.34958 16.452 2.78247 15.4069 3.55301 14.6364L4.35655 13.8328C4.64945 13.5399 5.12432 13.5399 5.41721 13.8328Z" stroke="url(#paint1_radial_2456_225468)" stroke-opacity="0.3" stroke-width="0.5" stroke-linejoin="round"/>
<defs>
<linearGradient id="paint0_linear_2456_225468" x1="2.23533" y1="2.23533" x2="22.038" y2="22.038" gradientUnits="userSpaceOnUse">
<stop stop-color="white"/>
<stop offset="1" stop-color="white" stop-opacity="0.3"/>
</linearGradient>
<radialGradient id="paint1_radial_2456_225468" cx="0" cy="0" r="1" gradientUnits="userSpaceOnUse" gradientTransform="translate(-9.04117 -10.4163) rotate(55.9228) scale(33.8697 33.8697)">
<stop stop-color="white"/>
<stop offset="1" stop-color="white" stop-opacity="0"/>
</radialGradient>
</defs>
</svg>
