<svg viewBox="0 0 24 24" fill="none" xmlns="http://www.w3.org/2000/svg">
<path fill-rule="evenodd" clip-rule="evenodd" d="M13.0215 2.79381C13.1354 2.25339 13.6658 1.90762 14.2062 2.02151C14.871 2.16162 15.5187 2.37337 16.1389 2.65266C16.763 2.22888 17.5078 2.00002 18.2727 2.00002C19.2492 2.00002 20.193 2.37301 20.8947 3.04838C21.5976 3.72499 22 4.65101 22 5.62502C22 6.45234 21.7097 7.24503 21.1915 7.87967C21.4646 8.52818 21.6708 9.20511 21.8064 9.89918C21.9123 10.4412 21.5588 10.9665 21.0167 11.0724C20.4747 11.1783 19.9494 10.8247 19.8435 10.2827C19.7612 9.86132 19.6467 9.44828 19.5015 9.04741C19.1092 9.18059 18.694 9.25002 18.2727 9.25002C17.2963 9.25002 16.3525 8.87703 15.6508 8.20166C14.9478 7.52505 14.5454 6.59903 14.5454 5.62502C14.5454 5.15512 14.6391 4.69638 14.815 4.27143C14.4817 4.1495 14.1405 4.05159 13.7938 3.97853C13.2534 3.86464 12.9076 3.33422 13.0215 2.79381ZM16.8546 4.69765C16.6525 4.97099 16.5454 5.2952 16.5454 5.62502C16.5454 6.0434 16.7178 6.45274 17.0377 6.76069C17.359 7.06989 17.8025 7.25002 18.2727 7.25002C18.7429 7.25002 19.1865 7.06989 19.5077 6.76069C19.8277 6.45274 20 6.0434 20 5.62502C20 5.20664 19.8277 4.7973 19.5077 4.48935C19.1865 4.18015 18.7429 4.00002 18.2727 4.00002C17.8636 4.00002 17.4745 4.13643 17.1687 4.37561C17.0875 4.5095 16.9791 4.61791 16.8546 4.69765ZM3.02512 3.02515C3.68149 2.36877 4.57173 2.00002 5.49999 2.00002C6.34149 2.00002 7.15174 2.30306 7.78485 2.84871C8.46214 2.55547 9.17129 2.33568 9.89928 2.19355C10.4413 2.08772 10.9665 2.44135 11.0724 2.9834C11.1782 3.52545 10.8246 4.05066 10.2825 4.15649C9.79966 4.25076 9.32771 4.38726 8.87248 4.56387C8.95639 4.86611 8.99999 5.18082 8.99999 5.50002C8.99999 6.42828 8.63124 7.31852 7.97486 7.97489C7.31849 8.63127 6.42825 9.00002 5.49999 9.00002C5.12729 9.00002 4.76072 8.94058 4.41295 8.82694C4.22347 9.27245 4.07796 9.73423 3.9785 10.2062C3.86461 10.7466 3.3342 11.0924 2.79378 10.9785C2.25337 10.8646 1.9076 10.3342 2.02148 9.79381C2.1768 9.05681 2.42017 8.34082 2.74601 7.66005C2.26515 7.04699 1.99999 6.28718 1.99999 5.50002C1.99999 4.57176 2.36874 3.68152 3.02512 3.02515ZM5.49999 4.00002C5.10217 4.00002 4.72063 4.15806 4.43933 4.43936C4.15803 4.72066 3.99999 5.1022 3.99999 5.50002C3.99999 5.89785 4.15803 6.27938 4.43933 6.56068C4.72063 6.84198 5.10217 7.00002 5.49999 7.00002C5.89781 7.00002 6.27935 6.84198 6.56065 6.56068C6.84195 6.27938 6.99999 5.89785 6.99999 5.50002C6.99999 5.1022 6.84195 4.72066 6.56065 4.43936C6.27935 4.15806 5.89781 4.00002 5.49999 4.00002ZM2.8012 12.7075C3.34246 12.5977 3.87024 12.9475 3.98003 13.4887C4.08338 13.9982 4.23419 14.4963 4.43018 14.9766C4.84244 14.8278 5.28145 14.75 5.72726 14.75C6.70373 14.75 7.64753 15.123 8.3492 15.7984C9.05218 16.475 9.45454 17.401 9.45454 18.375C9.45454 18.8147 9.37256 19.2445 9.21796 19.6461C9.63778 19.8053 10.0703 19.9305 10.5114 20.02C11.0527 20.1299 11.4024 20.6577 11.2925 21.199C11.1826 21.7402 10.6548 22.0899 10.1135 21.98C9.36827 21.8287 8.64267 21.5956 7.94985 21.2852C7.30821 21.7487 6.52874 22 5.72726 22C4.7508 22 3.807 21.627 3.10532 20.9517C2.40234 20.275 1.99999 19.349 1.99999 18.375C1.99999 17.569 2.27551 16.7959 2.76891 16.1697C2.43134 15.4409 2.17985 14.6746 2.01995 13.8863C1.91016 13.3451 2.25993 12.8173 2.8012 12.7075ZM21.2064 13.0215C21.7468 13.1355 22.0924 13.666 21.9785 14.2064C21.8383 14.871 21.6265 15.5186 21.3472 16.1386C21.7711 16.7628 22 17.5078 22 18.2727C22 19.2492 21.627 20.193 20.9516 20.8947C20.275 21.5977 19.349 22 18.375 22C17.5477 22 16.755 21.7097 16.1203 21.1915C15.4718 21.4646 14.7949 21.6708 14.1008 21.8065C13.5588 21.9124 13.0335 21.5588 12.9276 21.0168C12.8217 20.4747 13.1753 19.9495 13.7173 19.8436C14.1387 19.7612 14.5517 19.6468 14.9526 19.5015C14.8194 19.1092 14.75 18.694 14.75 18.2727C14.75 17.2963 15.123 16.3525 15.7983 15.6508C16.475 14.9478 17.401 14.5455 18.375 14.5455C18.8448 14.5455 19.3035 14.6391 19.7284 14.8149C19.8504 14.4816 19.9484 14.1404 20.0215 13.7937C20.1355 13.2533 20.666 12.9076 21.2064 13.0215ZM19.3015 16.854C19.0283 16.6523 18.7045 16.5455 18.375 16.5455C17.9566 16.5455 17.5473 16.7178 17.2393 17.0377C16.9301 17.359 16.75 17.8026 16.75 18.2727C16.75 18.7429 16.9301 19.1865 17.2393 19.5078C17.5473 19.8277 17.9566 20 18.375 20C18.7934 20 19.2027 19.8277 19.5107 19.5078C19.8199 19.1865 20 18.7429 20 18.2727C20 17.8638 19.8637 17.475 19.6248 17.1693C19.4903 17.0878 19.3814 16.979 19.3015 16.854ZM5.72726 16.75C5.25709 16.75 4.81351 16.9301 4.49226 17.2394C4.17231 17.5473 3.99999 17.9566 3.99999 18.375C3.99999 18.7934 4.17231 19.2027 4.49226 19.5107C4.81351 19.8199 5.25709 20 5.72726 20C6.19743 20 6.64102 19.8199 6.96227 19.5107C7.28222 19.2027 7.45454 18.7934 7.45454 18.375C7.45454 17.9566 7.28222 17.5473 6.96227 17.2394C6.64102 16.9301 6.19743 16.75 5.72726 16.75Z" fill="url(#paint0_linear_2456_225503)" fill-opacity="0.55"/>
<path d="M16.0362 2.88061C16.1154 2.91628 16.2075 2.90828 16.2793 2.85949C16.8617 2.46406 17.5575 2.25002 18.2727 2.25002C19.1859 2.25002 20.0672 2.59892 20.7213 3.2285C21.3764 3.85905 21.75 4.72049 21.75 5.62502C21.75 6.39341 21.4804 7.13053 20.9978 7.72155C20.9393 7.79325 20.9251 7.89142 20.9611 7.97672C21.2275 8.60936 21.4287 9.26982 21.5611 9.94712C21.6405 10.3536 21.3753 10.7476 20.9688 10.827C20.5623 10.9064 20.1683 10.6413 20.0889 10.2347C20.0041 9.80075 19.8862 9.37527 19.7366 8.96225C19.6902 8.8343 19.55 8.76693 19.4211 8.81068C19.0546 8.93511 18.6665 9.00002 18.2727 9.00002C17.3595 9.00002 16.4783 8.65112 15.8241 8.02154C15.169 7.39099 14.7954 6.52955 14.7954 5.62502C14.7954 5.18845 14.8824 4.76217 15.046 4.36703C15.072 4.3041 15.0713 4.23326 15.0439 4.1709C15.0165 4.10854 14.9648 4.06005 14.9009 4.03665C14.5564 3.91064 14.2038 3.80944 13.8453 3.7339C13.44 3.64848 13.1807 3.25067 13.2661 2.84536C13.3515 2.44005 13.7493 2.18072 14.1547 2.26614C14.8018 2.40252 15.4323 2.60866 16.0362 2.88061ZM16.7198 4.48714C16.6941 4.50356 16.6717 4.52454 16.6536 4.54902C16.4203 4.86461 16.2954 5.24072 16.2954 5.62502C16.2954 6.11279 16.4965 6.58673 16.8643 6.94081C17.2331 7.29575 17.7392 7.50002 18.2727 7.50002C18.8062 7.50002 19.3123 7.29575 19.6811 6.94081C20.049 6.58673 20.25 6.11279 20.25 5.62502C20.25 5.13725 20.049 4.66331 19.6811 4.30923C19.3123 3.95429 18.8062 3.75002 18.2727 3.75002C17.8083 3.75002 17.3649 3.90479 17.0147 4.17869C16.9909 4.19729 16.9707 4.22005 16.9551 4.24586C16.894 4.34639 16.8129 4.42747 16.7198 4.48714ZM7.62164 3.03808C7.69424 3.10065 7.79622 3.11621 7.88418 3.07813C8.54489 2.79207 9.23679 2.57761 9.94719 2.43892C10.3537 2.35955 10.7476 2.62477 10.827 3.03131C10.9064 3.43785 10.6412 3.83175 10.2346 3.91112C9.73728 4.00822 9.25111 4.14883 8.78206 4.33079C8.66228 4.37726 8.59722 4.50695 8.63159 4.63074C8.7095 4.91139 8.74999 5.20361 8.74999 5.50002C8.74999 6.36197 8.40758 7.18862 7.79809 7.79812C7.18859 8.40761 6.36194 8.75002 5.49999 8.75002C5.1539 8.75002 4.81353 8.69482 4.4906 8.5893C4.3673 8.54901 4.23367 8.60972 4.1829 8.72909C3.9871 9.18945 3.8367 9.66673 3.73387 10.1547C3.64846 10.56 3.25065 10.8193 2.84533 10.7339C2.44002 10.6485 2.18069 10.2507 2.26611 9.84536C2.41729 9.12797 2.65422 8.4309 2.97152 7.76798C3.01257 7.68221 3.00141 7.58057 2.94272 7.50575C2.49621 6.93649 2.24999 6.23094 2.24999 5.50002C2.24999 4.63807 2.5924 3.81142 3.20189 3.20192C3.81139 2.59243 4.63804 2.25002 5.49999 2.25002C6.28138 2.25002 7.03376 2.53141 7.62164 3.03808ZM4.19871 15.071C4.24937 15.1951 4.38893 15.2572 4.51504 15.2117C4.9002 15.0727 5.3105 15 5.72726 15C6.64046 15 7.52173 15.3489 8.17584 15.9785C8.83096 16.6091 9.20454 17.4705 9.20454 18.375C9.20454 18.7835 9.12839 19.1829 8.98465 19.5563C8.96075 19.6184 8.96258 19.6874 8.98973 19.7481C9.01687 19.8089 9.06711 19.8563 9.1293 19.8799C9.56175 20.0439 10.0073 20.1728 10.4617 20.265C10.8676 20.3474 11.1299 20.7433 11.0475 21.1492C10.9651 21.5552 10.5692 21.8174 10.1633 21.735C9.43607 21.5874 8.72807 21.3599 8.05206 21.0571C7.97058 21.0206 7.87582 21.0303 7.80345 21.0826C7.20483 21.515 6.47669 21.75 5.72726 21.75C4.81406 21.75 3.9328 21.4011 3.27869 20.7715C2.62357 20.141 2.24999 19.2796 2.24999 18.375C2.24999 17.6264 2.50583 16.9075 2.96527 16.3245C3.02354 16.2505 3.03533 16.1501 2.99576 16.0647C2.66638 15.3535 2.42098 14.6058 2.26496 13.8366C2.18262 13.4307 2.44495 13.0348 2.8509 12.9525C3.25684 12.8701 3.65268 13.1325 3.73502 13.5384C3.84148 14.0632 3.99683 14.5763 4.19871 15.071ZM21.1192 16.0359C21.0835 16.1152 21.0915 16.2072 21.1403 16.2791C21.5359 16.8615 21.75 17.5575 21.75 18.2727C21.75 19.1859 21.4011 20.0672 20.7715 20.7213C20.141 21.3764 19.2795 21.75 18.375 21.75C17.6066 21.75 16.8695 21.4805 16.2785 20.9979C16.2068 20.9393 16.1086 20.9252 16.0233 20.9611C15.3907 21.2276 14.7302 21.4288 14.0529 21.5611C13.6464 21.6405 13.2524 21.3754 13.173 20.9688C13.0936 20.5623 13.3587 20.1684 13.7653 20.0889C14.1993 20.0041 14.6247 19.8862 15.0378 19.7366C15.1657 19.6902 15.2331 19.55 15.1893 19.4212C15.0649 19.0546 15 18.6666 15 18.2727C15 17.3595 15.3489 16.4783 15.9785 15.8242C16.609 15.1691 17.4705 14.7955 18.375 14.7955C18.8115 14.7955 19.2377 14.8824 19.6328 15.0459C19.6957 15.072 19.7666 15.0712 19.8289 15.0438C19.8913 15.0164 19.9398 14.9648 19.9632 14.9009C20.0893 14.5564 20.1905 14.2037 20.2661 13.8452C20.3516 13.4399 20.7495 13.1807 21.1548 13.2662C21.5601 13.3516 21.8193 13.7495 21.7338 14.1548C21.5974 14.8018 21.3912 15.4322 21.1192 16.0359ZM19.5121 16.7193C19.4956 16.6936 19.4746 16.6711 19.45 16.6529C19.1346 16.4201 18.7589 16.2955 18.375 16.2955C17.8872 16.2955 17.4133 16.4965 17.0592 16.8644C16.7043 17.2331 16.5 17.7392 16.5 18.2727C16.5 18.8063 16.7043 19.3123 17.0592 19.6811C17.4133 20.049 17.8872 20.25 18.375 20.25C18.8628 20.25 19.3367 20.049 19.6908 19.6811C20.0457 19.3123 20.25 18.8063 20.25 18.2727C20.25 17.8086 20.0954 17.3654 19.8218 17.0154C19.8031 16.9915 19.7803 16.9712 19.7543 16.9555C19.6533 16.8943 19.5719 16.8129 19.5121 16.7193ZM5.49999 3.75002C5.03586 3.75002 4.59074 3.93439 4.26255 4.26258C3.93436 4.59077 3.74999 5.03589 3.74999 5.50002C3.74999 5.96415 3.93436 6.40927 4.26255 6.73746C4.59074 7.06565 5.03586 7.25002 5.49999 7.25002C5.96412 7.25002 6.40924 7.06565 6.73743 6.73746C7.06561 6.40927 7.24999 5.96415 7.24999 5.50002C7.24999 5.03589 7.06561 4.59077 6.73743 4.26258C6.40924 3.93439 5.96412 3.75002 5.49999 3.75002ZM5.72726 16.5C5.19376 16.5 4.68766 16.7043 4.31889 17.0592C3.95102 17.4133 3.74999 17.8873 3.74999 18.375C3.74999 18.8628 3.95102 19.3367 4.31889 19.6908C4.68766 20.0458 5.19376 20.25 5.72726 20.25C6.26077 20.25 6.76686 20.0458 7.13563 19.6908C7.50351 19.3367 7.70454 18.8628 7.70454 18.375C7.70454 17.8873 7.50351 17.4133 7.13563 17.0592C6.76686 16.7043 6.26077 16.5 5.72726 16.5Z" stroke="url(#paint1_radial_2456_225503)" stroke-opacity="0.3" stroke-width="0.5" stroke-linejoin="round"/>
<defs>
<linearGradient id="paint0_linear_2456_225503" x1="2.13868" y1="2.13871" x2="22.1391" y2="22.1391" gradientUnits="userSpaceOnUse">
<stop stop-color="white"/>
<stop offset="1" stop-color="white" stop-opacity="0.3"/>
</linearGradient>
<radialGradient id="paint1_radial_2456_225503" cx="0" cy="0" r="1" gradientUnits="userSpaceOnUse" gradientTransform="translate(-9.25044 -10.6393) rotate(55.9228) scale(34.208 34.208)">
<stop stop-color="white"/>
<stop offset="1" stop-color="white" stop-opacity="0"/>
</radialGradient>
</defs>
</svg>
