<svg width="15" height="15" viewBox="0 0 15 15" fill="none" xmlns="http://www.w3.org/2000/svg">
<mask id="mask0_1433_48442" style="mask-type:alpha" maskUnits="userSpaceOnUse" x="0" y="0" width="15" height="15">
<g clip-path="url(#clip0_1433_48442)">
<g clip-path="url(#clip1_1433_48442)">
<path fill-rule="evenodd" clip-rule="evenodd" d="M13.7265 3.20375C13.8621 3.10925 14.0363 3.09788 14.1798 3.174C14.325 3.24925 14.416 3.398 14.416 3.56163V11.4366C14.416 11.5994 14.325 11.749 14.1798 11.8243C14.1168 11.8575 14.0476 11.8741 13.9785 11.8741C13.891 11.8741 13.8026 11.8479 13.7274 11.7954L10.041 9.215V10.9991C10.041 11.9643 9.25614 12.7491 8.29102 12.7491H2.16602C1.20089 12.7491 0.416016 11.9643 0.416016 10.9991V3.99913C0.416016 3.034 1.20089 2.24913 2.16602 2.25H8.29014C9.25527 2.25 10.0401 3.03488 10.0401 4V5.78413L13.7265 3.20375ZM3.04102 5.74914C3.52426 5.74914 3.91602 5.3574 3.91602 4.87414C3.91602 4.3909 3.52426 3.99914 3.04102 3.99914C2.55777 3.99914 2.16602 4.3909 2.16602 4.87414C2.16602 5.3574 2.55777 5.74914 3.04102 5.74914Z" fill="black"/>
</g>
</g>
</mask>
<g mask="url(#mask0_1433_48442)">
<rect x="0.416016" y="0.5" width="14" height="14" fill="#727272"/>
</g>
<defs>
<clipPath id="clip0_1433_48442">
<rect width="14" height="14" fill="white" transform="translate(0.416016 0.5)"/>
</clipPath>
<clipPath id="clip1_1433_48442">
<rect width="14" height="14" fill="white" transform="translate(0.416016 0.5)"/>
</clipPath>
</defs>
</svg>
