<svg width="15" height="15" viewBox="0 0 15 15" fill="none" xmlns="http://www.w3.org/2000/svg">
<mask id="mask0_1433_48415" style="mask-type:alpha" maskUnits="userSpaceOnUse" x="0" y="0" width="15" height="15">
<g clip-path="url(#clip0_1433_48415)">
<g clip-path="url(#clip1_1433_48415)">
<path d="M12.2754 3.08394C11.3556 2.66282 10.3845 2.36407 9.38706 2.19531C9.25057 2.43931 9.12707 2.69036 9.01707 2.9474C7.95459 2.78729 6.87412 2.78729 5.81163 2.9474C5.70158 2.69039 5.57808 2.43934 5.44165 2.19531C4.44355 2.3655 3.47187 2.66496 2.55113 3.08614C0.723225 5.79056 0.227709 8.42781 0.475467 11.0276C1.54593 11.8185 2.74409 12.42 4.01786 12.806C4.30468 12.4202 4.55847 12.011 4.77655 11.5826C4.36234 11.4279 3.96255 11.237 3.58181 11.0122C3.68201 10.9395 3.78001 10.8647 3.87471 10.792C4.98257 11.313 6.19175 11.5831 7.41601 11.5831C8.64026 11.5831 9.84944 11.313 10.9573 10.792C11.0531 10.8702 11.1511 10.945 11.2502 11.0122C10.8687 11.2374 10.4682 11.4286 10.0533 11.5837C10.2711 12.0119 10.5249 12.4208 10.8119 12.806C12.0868 12.4216 13.2859 11.8204 14.3565 11.0287C14.6472 8.01378 13.8599 5.40076 12.2754 3.08394ZM5.09038 9.42876C4.39996 9.42876 3.82957 8.8022 3.82957 8.0314C3.82957 7.26059 4.38014 6.62854 5.08818 6.62854C5.79622 6.62854 6.36221 7.26059 6.35009 8.0314C6.33798 8.8022 5.79401 9.42876 5.09038 9.42876ZM9.74163 9.42876C9.05011 9.42876 8.48192 8.8022 8.48192 8.0314C8.48192 7.26059 9.03249 6.62854 9.74163 6.62854C10.4508 6.62854 11.0124 7.26059 11.0002 8.0314C10.9881 8.8022 10.4453 9.42876 9.74163 9.42876Z" fill="black"/>
</g>
</g>
</mask>
<g mask="url(#mask0_1433_48415)">
<rect x="0.416016" y="0.5" width="14" height="14" fill="#727272"/>
</g>
<defs>
<clipPath id="clip0_1433_48415">
<rect width="14" height="14" fill="white" transform="translate(0.416016 0.5)"/>
</clipPath>
<clipPath id="clip1_1433_48415">
<rect width="14" height="10.6107" fill="white" transform="translate(0.416016 2.19531)"/>
</clipPath>
</defs>
</svg>
