<svg width="123" height="119" viewBox="0 0 123 119" fill="none" xmlns="http://www.w3.org/2000/svg">
<g filter="url(#filter0_b_1228_22912)">
<path d="M0 60.4298C0 60.1554 0.112751 59.8931 0.311841 59.7042L43.6829 18.5688C46.3835 16.0074 50.6165 16.0074 53.3171 18.5688L96.6882 59.7042C96.8872 59.8931 97 60.1554 97 60.4298V118C97 118.552 96.5523 119 96 119H1C0.447715 119 0 118.552 0 118V60.4298Z" fill="url(#paint0_linear_1228_22912)" fill-opacity="0.61"/>
<path d="M0.25 60.4298C0.25 60.224 0.334564 60.0272 0.483879 59.8856L0.312093 59.7045L0.48388 59.8856L43.8549 18.7502C46.4591 16.2802 50.5409 16.2802 53.1451 18.7502L96.5161 59.8856C96.6654 60.0272 96.75 60.224 96.75 60.4298V118C96.75 118.414 96.4142 118.75 96 118.75H1C0.585787 118.75 0.25 118.414 0.25 118V60.4298Z" stroke="white" stroke-width="0.5"/>
</g>
<rect x="28.9805" y="25.3945" width="60" height="60" rx="0.939394" transform="rotate(15.0559 28.9805 25.3945)" fill="url(#paint1_linear_1228_22912)"/>
<g filter="url(#filter1_b_1228_22912)">
<path d="M93.9976 117.149L2.02484 60.4402C1.35859 60.0294 0.5 60.5087 0.5 61.2914V118C0.5 118.552 0.947714 119 1.5 119H93.4728C94.4807 119 94.8555 117.678 93.9976 117.149Z" fill="url(#paint2_linear_1228_22912)" fill-opacity="0.61"/>
<path d="M1.89363 60.653L93.8664 117.362C94.5098 117.758 94.2287 118.75 93.4728 118.75H1.5C1.08579 118.75 0.75 118.414 0.75 118V61.2914C0.75 60.7044 1.39394 60.3449 1.89363 60.653Z" stroke="white" stroke-width="0.5"/>
</g>
<g filter="url(#filter2_b_1228_22912)">
<path d="M4.01337 117.148L95.4764 60.9364C96.1427 60.5269 97 61.0063 97 61.7883V118C97 118.552 96.5523 119 96 119H4.53696C3.52834 119 3.15405 117.676 4.01337 117.148Z" fill="url(#paint3_linear_1228_22912)" fill-opacity="0.61"/>
<path d="M95.6073 61.1494L4.14426 117.361C3.49978 117.757 3.7805 118.75 4.53696 118.75H96C96.4142 118.75 96.75 118.414 96.75 118V61.7883C96.75 61.2018 96.107 60.8423 95.6073 61.1494Z" stroke="white" stroke-width="0.5"/>
</g>
<g filter="url(#filter3_b_1228_22912)">
<circle cx="103.537" cy="18.5377" r="18.5" transform="rotate(14.4783 103.537 18.5377)" fill="url(#paint4_linear_1228_22912)" fill-opacity="0.61"/>
<circle cx="103.537" cy="18.5377" r="18.0978" transform="rotate(14.4783 103.537 18.5377)" stroke="white" stroke-width="0.804348"/>
</g>
<path d="M98.2715 13.2707C97.911 13.6312 97.911 14.2156 98.2715 14.5761L102.84 19.1444L98.2704 23.7139C97.9099 24.0744 97.9099 24.6588 98.2704 25.0193C98.6308 25.3798 99.2153 25.3798 99.5758 25.0193L104.145 20.4498L108.715 25.0196C109.075 25.3801 109.66 25.3801 110.02 25.0196C110.381 24.6591 110.381 24.0747 110.02 23.7142L105.451 19.1444L110.019 14.5758C110.38 14.2153 110.38 13.6309 110.019 13.2704C109.659 12.9099 109.074 12.9099 108.714 13.2704L104.145 17.839L99.5769 13.2707C99.2165 12.9102 98.632 12.9102 98.2715 13.2707Z" stroke="url(#paint5_linear_1228_22912)" stroke-width="4.02174"/>
<defs>
<filter id="filter0_b_1228_22912" x="-7" y="9.64746" width="111" height="116.353" filterUnits="userSpaceOnUse" color-interpolation-filters="sRGB">
<feFlood flood-opacity="0" result="BackgroundImageFix"/>
<feGaussianBlur in="BackgroundImageFix" stdDeviation="3.5"/>
<feComposite in2="SourceAlpha" operator="in" result="effect1_backgroundBlur_1228_22912"/>
<feBlend mode="normal" in="SourceGraphic" in2="effect1_backgroundBlur_1228_22912" result="shape"/>
</filter>
<filter id="filter1_b_1228_22912" x="-6.5" y="53.29" width="107.975" height="72.71" filterUnits="userSpaceOnUse" color-interpolation-filters="sRGB">
<feFlood flood-opacity="0" result="BackgroundImageFix"/>
<feGaussianBlur in="BackgroundImageFix" stdDeviation="3.5"/>
<feComposite in2="SourceAlpha" operator="in" result="effect1_backgroundBlur_1228_22912"/>
<feBlend mode="normal" in="SourceGraphic" in2="effect1_backgroundBlur_1228_22912" result="shape"/>
</filter>
<filter id="filter2_b_1228_22912" x="-3.46484" y="53.7871" width="107.465" height="72.2129" filterUnits="userSpaceOnUse" color-interpolation-filters="sRGB">
<feFlood flood-opacity="0" result="BackgroundImageFix"/>
<feGaussianBlur in="BackgroundImageFix" stdDeviation="3.5"/>
<feComposite in2="SourceAlpha" operator="in" result="effect1_backgroundBlur_1228_22912"/>
<feBlend mode="normal" in="SourceGraphic" in2="effect1_backgroundBlur_1228_22912" result="shape"/>
</filter>
<filter id="filter3_b_1228_22912" x="73.7723" y="-11.2277" width="59.5296" height="59.5305" filterUnits="userSpaceOnUse" color-interpolation-filters="sRGB">
<feFlood flood-opacity="0" result="BackgroundImageFix"/>
<feGaussianBlur in="BackgroundImageFix" stdDeviation="5.63043"/>
<feComposite in2="SourceAlpha" operator="in" result="effect1_backgroundBlur_1228_22912"/>
<feBlend mode="normal" in="SourceGraphic" in2="effect1_backgroundBlur_1228_22912" result="shape"/>
</filter>
<linearGradient id="paint0_linear_1228_22912" x1="38.1402" y1="63.248" x2="56.152" y2="112.444" gradientUnits="userSpaceOnUse">
<stop stop-color="#FCE3CB"/>
<stop offset="0.806971" stop-color="#F1C69E"/>
</linearGradient>
<linearGradient id="paint1_linear_1228_22912" x1="48.6729" y1="35.5962" x2="68.192" y2="71.4958" gradientUnits="userSpaceOnUse">
<stop stop-color="#F1A865"/>
<stop offset="1" stop-color="#FF764A"/>
</linearGradient>
<linearGradient id="paint2_linear_1228_22912" x1="38.4436" y1="62.7755" x2="56.797" y2="112.227" gradientUnits="userSpaceOnUse">
<stop stop-color="#FCE3CB"/>
<stop offset="0.806971" stop-color="#F1C69E"/>
</linearGradient>
<linearGradient id="paint3_linear_1228_22912" x1="59.253" y1="63.248" x2="41.0985" y2="112.322" gradientUnits="userSpaceOnUse">
<stop stop-color="#FCE3CB"/>
<stop offset="0.806971" stop-color="#F1C69E"/>
</linearGradient>
<linearGradient id="paint4_linear_1228_22912" x1="99.5856" y1="17.3918" x2="105.552" y2="35.033" gradientUnits="userSpaceOnUse">
<stop stop-color="#FCE3CB"/>
<stop offset="0.806971" stop-color="#F1C69E"/>
</linearGradient>
<linearGradient id="paint5_linear_1228_22912" x1="104.145" y1="13" x2="104.145" y2="25.29" gradientUnits="userSpaceOnUse">
<stop stop-color="#F1A865"/>
<stop offset="1" stop-color="#FF764A"/>
</linearGradient>
</defs>
</svg>
