<svg width="24" height="23" viewBox="0 0 24 23" fill="none" xmlns="http://www.w3.org/2000/svg">
<path d="M14 2.875V6.70833C14 6.9625 14.1054 7.20625 14.2929 7.38598C14.4804 7.5657 14.7348 7.66667 15 7.66667H19M14 2.875H7C6.46957 2.875 5.96086 3.07693 5.58579 3.43638C5.21071 3.79582 5 4.28334 5 4.79167V18.2083C5 18.7167 5.21071 19.2042 5.58579 19.5636C5.96086 19.9231 6.46957 20.125 7 20.125H17C17.5304 20.125 18.0391 19.9231 18.4142 19.5636C18.7893 19.2042 19 18.7167 19 18.2083V7.66667M14 2.875L19 7.66667M9 16.2917H15M9 12.4583H15" stroke="#4A4A4A" stroke-width="2" stroke-linecap="round" stroke-linejoin="round"/>
</svg>
