<svg width="14" height="15" viewBox="0 0 14 15" fill="none" xmlns="http://www.w3.org/2000/svg">
<mask id="mask0_787_8278" style="mask-type:alpha" maskUnits="userSpaceOnUse" x="0" y="0" width="14" height="15">
<g clip-path="url(#clip0_787_8278)">
<g clip-path="url(#clip1_787_8278)">
<path fill-rule="evenodd" clip-rule="evenodd" d="M7 0.674805C3.15 0.674805 0 3.8248 0 7.67481C0 10.7811 2.0125 13.4061 4.76875 14.3248C5.11875 14.3686 5.25 14.1936 5.25 13.9748C5.25 13.7998 5.25 13.3623 5.25 12.7936C3.28125 13.2311 2.8875 11.8748 2.8875 11.8748C2.58125 11.0873 2.1 10.8686 2.1 10.8686C1.44375 10.4311 2.14375 10.4311 2.14375 10.4311C2.84375 10.4748 3.2375 11.1311 3.2375 11.1311C3.85 12.1811 4.85625 11.8748 5.29375 11.6998C5.3375 11.2623 5.55625 10.9561 5.73125 10.7811C4.15625 10.6061 2.5375 9.99356 2.5375 7.32481C2.5375 6.58106 2.8 5.92481 3.2375 5.44356C3.15 5.26856 2.93125 4.56856 3.325 3.60606C3.325 3.60606 3.89375 3.43106 5.25 4.30606C5.81875 4.13106 6.3875 4.0873 7 4.0873C7.6125 4.0873 8.18125 4.17481 8.75 4.30606C10.1062 3.38731 10.675 3.56231 10.675 3.56231C11.0688 4.52481 10.8062 5.22481 10.7625 5.39981C11.2 5.88106 11.4625 6.49356 11.4625 7.28106C11.4625 9.94981 9.84375 10.5623 8.26875 10.7373C8.53125 10.9561 8.75 11.3936 8.75 12.0498C8.75 12.9686 8.75 13.7561 8.75 13.9748C8.75 14.1498 8.88125 14.3686 9.23125 14.3248C11.9875 13.4061 14 10.7811 14 7.67481C14 3.8248 10.85 0.674805 7 0.674805Z" fill="black"/>
</g>
</g>
</mask>
<g mask="url(#mask0_787_8278)">
<rect y="0.5" width="14" height="14" fill="#727272"/>
</g>
<defs>
<clipPath id="clip0_787_8278">
<rect width="14" height="14" fill="white" transform="translate(0 0.5)"/>
</clipPath>
<clipPath id="clip1_787_8278">
<rect width="14" height="14" fill="white" transform="translate(0 0.5)"/>
</clipPath>
</defs>
</svg>
