<svg width="15" height="15" viewBox="0 0 15 15" fill="none" xmlns="http://www.w3.org/2000/svg">
<mask id="mask0_1433_48406" style="mask-type:alpha" maskUnits="userSpaceOnUse" x="0" y="0" width="15" height="15">
<g clip-path="url(#clip0_1433_48406)">
<g clip-path="url(#clip1_1433_48406)">
<path fill-rule="evenodd" clip-rule="evenodd" d="M7.41602 0.675781C3.56602 0.675781 0.416016 3.82578 0.416016 7.67578C0.416016 10.782 2.42852 13.407 5.18477 14.3258C5.53477 14.3695 5.66602 14.1945 5.66602 13.9758C5.66602 13.8008 5.66602 13.3633 5.66602 12.7945C3.69727 13.232 3.30352 11.8758 3.30352 11.8758C2.99727 11.0883 2.51602 10.8695 2.51602 10.8695C1.85977 10.432 2.55977 10.432 2.55977 10.432C3.25977 10.4758 3.65352 11.132 3.65352 11.132C4.26602 12.182 5.27227 11.8758 5.70977 11.7008C5.75352 11.2633 5.97227 10.957 6.14727 10.782C4.57227 10.607 2.95352 9.99453 2.95352 7.32578C2.95352 6.58203 3.21602 5.92578 3.65352 5.44453C3.56602 5.26953 3.34727 4.56953 3.74102 3.60703C3.74102 3.60703 4.30977 3.43203 5.66602 4.30703C6.23477 4.13203 6.80352 4.08828 7.41602 4.08828C8.02852 4.08828 8.59727 4.17578 9.16602 4.30703C10.5223 3.38828 11.091 3.56328 11.091 3.56328C11.4848 4.52578 11.2223 5.22578 11.1785 5.40078C11.616 5.88203 11.8785 6.49453 11.8785 7.28203C11.8785 9.95078 10.2598 10.5633 8.68477 10.7383C8.94727 10.957 9.16602 11.3945 9.16602 12.0508C9.16602 12.9695 9.16602 13.757 9.16602 13.9758C9.16602 14.1508 9.29727 14.3695 9.64727 14.3258C12.4035 13.407 14.416 10.782 14.416 7.67578C14.416 3.82578 11.266 0.675781 7.41602 0.675781Z" fill="black"/>
</g>
</g>
</mask>
<g mask="url(#mask0_1433_48406)">
<rect x="0.416016" y="0.5" width="14" height="14" fill="#727272"/>
</g>
<defs>
<clipPath id="clip0_1433_48406">
<rect width="14" height="14" fill="white" transform="translate(0.416016 0.5)"/>
</clipPath>
<clipPath id="clip1_1433_48406">
<rect width="14" height="14" fill="white" transform="translate(0.416016 0.5)"/>
</clipPath>
</defs>
</svg>
