<svg viewBox="0 0 29 29" fill="none" xmlns="http://www.w3.org/2000/svg">
<path d="M14.1113 28.5C21.8433 28.5 28.1113 22.232 28.1113 14.5C28.1113 6.76801 21.8433 0.5 14.1113 0.5C6.37934 0.5 0.111328 6.76801 0.111328 14.5C0.111328 22.232 6.37934 28.5 14.1113 28.5Z" fill="#1C1C1C"/>
<path d="M21.5488 10.125V18.875L14.1113 23.25L6.67383 18.875V10.125L14.1113 5.75L21.5488 10.125ZM13.8768 14.8561L13.1856 15.2648L14.4771 16.019L15.164 15.6139L17.0006 16.6945L14.261 18.3045L8.57783 14.9918L8.5542 16.6044L14.2645 19.9206L19.7507 16.6945L16.536 14.8028L17.1835 14.4204L15.892 13.6661L15.2488 14.0459L14.3476 13.5156L15.136 13.0493L13.8445 12.2941L13.0596 12.7579L11.5248 11.8549L14.2636 10.244L18.0506 12.4569L19.4383 11.6361L14.261 8.62787L8.7747 11.8549L11.6876 13.569L11.1381 13.8927L12.4296 14.6479L12.9747 14.3259L13.8768 14.8561Z" fill="white"/>
</svg>
