<svg viewBox="0 0 146 56" fill="none" xmlns="http://www.w3.org/2000/svg">
<path d="M80.5622 25.8035H77.832V15.1558H80.5622V16.7939H80.9717C81.2144 16.1944 81.5665 15.7037 82.109 15.3753C82.6514 15.047 83.2867 14.8828 84.0147 14.8828C84.5287 14.8828 85.0069 14.9685 85.4494 15.1398C85.9062 15.2968 86.306 15.5466 86.6486 15.8892C86.9912 16.2318 87.2553 16.6672 87.4408 17.1954C87.6407 17.7236 87.7972 18.3517 87.7972 19.0798V25.8035H85.0426V19.765C85.0426 19.0084 84.857 18.416 84.4858 17.9877C84.1289 17.5452 83.6079 17.3239 82.9227 17.3239C82.1233 17.3239 81.5237 17.5951 81.124 18.1376C80.7385 18.6658 80.5622 19.3796 80.5622 20.2789V25.8035Z" fill="white"/>
<path d="M67.8672 23.0732H71.0069V17.7493H68.2767V15.1557H73.7371V23.0732H76.4672V25.8034H67.8672V23.0732Z" fill="white"/>
<path d="M74.2831 11.7429C74.2831 12.8738 73.3664 13.7906 72.2355 13.7906C71.1046 13.7906 70.1879 12.8738 70.1879 11.7429C70.1879 10.6121 71.1046 9.69531 72.2355 9.69531C73.3664 9.69531 74.2831 10.6121 74.2831 11.7429Z" fill="white"/>
<path d="M54.4894 25.8035H59.2672L59.9582 17.613V16.2479H60.4873V17.613L61.1783 25.8035H65.9561L66.6387 14.8828H64.045L63.6355 23.0733V24.4384H63.0894V23.0733L62.5434 14.8828H57.9021L57.3561 23.0733V24.4384H56.81V23.0733L56.4005 14.8828H53.8069L54.4894 25.8035Z" fill="white"/>
<path d="M41.2476 15.1558H45.7485V16.6574H46.1619C46.3618 16.0721 46.6692 15.6894 47.1403 15.3753C47.6257 15.047 48.2038 14.8828 48.8748 14.8828C49.9312 14.8828 50.7805 15.2183 51.4229 15.8892C52.0653 16.5459 52.5779 17.5523 52.5779 18.9085V19.3796L49.6028 19.6365V19.3367C49.6028 18.7515 49.4529 18.2875 49.1531 17.9449C48.8534 17.588 48.4037 17.4096 47.8041 17.4096C47.2045 17.4096 46.7335 17.6166 46.3908 18.0305C46.0482 18.4445 45.8769 19.037 45.8769 19.8078V23.0733H48.3461V25.8035H40.9746V23.0733H43.1789V17.7495H41.2476V15.1558Z" fill="white"/>
<path d="M32.836 26.0765C31.8005 26.0765 30.9642 25.7759 30.3269 25.1748C29.6897 24.5736 29.3711 23.7862 29.3711 22.8125C29.3711 21.8389 29.7262 21.071 30.4365 20.5091C31.1467 19.9471 32.1756 19.6204 33.5231 19.5289L36.06 19.3721V18.5095C36.06 18.039 35.9359 17.6731 35.6239 17.4117C35.312 17.1503 34.8739 17.0196 34.3097 17.0196C33.8317 17.0196 33.4268 17.1176 33.0949 17.3137C32.7697 17.5032 32.5473 17.7678 32.4278 18.1076H29.7793C29.8457 17.4542 30.078 16.8857 30.4763 16.4021C30.8812 15.9185 31.4156 15.5461 32.0793 15.2847C32.7498 15.0168 33.5197 14.8828 34.3893 14.8828C35.7965 14.8828 36.8818 15.203 37.6452 15.8434C38.4085 16.4772 38.7902 17.3856 38.7902 18.5683V21.8823V22.9576C38.7902 23.1838 38.9735 23.3672 39.1997 23.3672H39.6092V25.8035H37.2886C36.6101 25.8035 36.06 25.2535 36.06 24.5749V24.4384H35.787C35.5149 24.9481 35.2821 25.3675 34.7378 25.6551C34.1935 25.936 33.5596 26.0765 32.836 26.0765ZM33.772 23.9299C34.2234 23.9299 34.6216 23.845 34.9668 23.6751C35.3186 23.4986 35.5941 23.2569 35.7932 22.9497C35.9923 22.6361 36.06 22.2799 36.06 21.8813V21.0972L33.9811 21.2246C32.7 21.303 32.0594 21.767 32.0594 22.6165C32.0594 23.0216 32.2121 23.3418 32.5174 23.5771C32.8228 23.8123 33.241 23.9299 33.772 23.9299Z" fill="white"/>
<path d="M17.8776 12.1523H22.2749C24.1934 12.1523 25.6465 12.7231 26.6342 13.8646C27.6219 14.9998 28.1158 16.6711 28.1158 18.8785C28.1158 21.1678 27.6251 22.8958 26.6437 24.0626C25.6623 25.223 24.2061 25.8032 22.2749 25.8032H17.8776V12.1523ZM20.5749 14.4701V23.4855H21.9045C23.0885 23.4855 23.9591 23.1197 24.5163 22.3881C25.0798 21.6502 25.3616 20.4961 25.3616 18.9258C25.3616 17.4248 25.0766 16.3085 24.5068 15.5769C23.9433 14.839 23.0759 14.4701 21.9045 14.4701H20.5749Z" fill="white"/>
<path d="M17.0586 12.1523H17.8776V14.473H17.0586V12.1523Z" fill="white"/>
<path d="M17.0586 23.4826H17.8776V25.8032H17.0586V23.4826Z" fill="white"/>
<path d="M82.1722 35.9783C82.1722 36.2934 82.3357 36.5232 82.6629 36.6676C82.99 36.7989 83.5853 36.9105 84.4489 37.0024C85.4434 37.1075 86.2546 37.4095 86.8827 37.9084C87.5107 38.3942 87.8248 39.077 87.8248 39.9567V40.0748C87.8248 41.0464 87.4715 41.8211 86.7649 42.3988C86.0583 42.9765 85.0639 43.2654 83.7816 43.2654C83.0227 43.2654 82.375 43.1669 81.8385 42.97C81.3021 42.773 80.8572 42.5301 80.5039 42.2412C80.1506 41.9393 79.8758 41.611 79.6796 41.2565C79.4964 40.8889 79.3721 40.5344 79.3066 40.193L81.5834 39.4446C81.6881 39.8647 81.904 40.2324 82.2311 40.5475C82.5713 40.8626 83.0881 41.0202 83.7816 41.0202C84.3966 41.0202 84.8153 40.9283 85.0377 40.7444C85.2733 40.5475 85.391 40.3374 85.391 40.1142C85.391 39.9829 85.3583 39.8647 85.2929 39.7597C85.2406 39.6415 85.1359 39.5365 84.9789 39.4446C84.8218 39.3396 84.6059 39.2542 84.3312 39.1886C84.0695 39.1229 83.7358 39.0704 83.3302 39.031C82.2311 38.9391 81.3544 38.6568 80.7002 38.1841C80.059 37.6983 79.7384 36.9893 79.7384 36.0571V35.9389C79.7384 35.4531 79.8431 35.0264 80.0525 34.6588C80.2618 34.2911 80.5366 33.9826 80.8768 33.7331C81.217 33.4705 81.6095 33.2736 82.0544 33.1423C82.4993 33.011 82.9573 32.9453 83.4283 32.9453C84.0433 32.9453 84.5732 33.0241 85.0181 33.1817C85.4761 33.3261 85.8621 33.523 86.1761 33.7725C86.4901 34.0088 86.7453 34.278 86.9416 34.58C87.1378 34.8688 87.2883 35.1511 87.393 35.4269L85.1555 36.3328C85.0377 35.9783 84.8349 35.7026 84.5471 35.5056C84.2592 35.2956 83.8863 35.1905 83.4283 35.1905C83.0096 35.1905 82.6956 35.2693 82.4862 35.4269C82.2769 35.5713 82.1722 35.7551 82.1722 35.9783Z" fill="white"/>
<path d="M70.7893 42.9927H68.3867V29.3418H70.7893V34.6901H71.1619C71.4231 34.1544 71.8018 33.7429 72.2981 33.4554C72.7944 33.1549 73.4278 33.0047 74.1983 33.0047C74.773 33.0047 75.315 33.1157 75.8243 33.3378C76.3467 33.56 76.7973 33.8866 77.1761 34.3178C77.5679 34.7359 77.8748 35.2519 78.0968 35.866C78.3319 36.4801 78.4338 37.1791 78.4338 37.963V38.3158C78.4338 39.1128 78.3384 39.8183 78.1164 40.4324C77.8944 41.0465 77.594 41.5691 77.2152 42.0003C76.8365 42.4184 76.3859 42.7385 75.8635 42.9606C75.3542 43.1696 74.7991 43.2657 74.1983 43.2657C73.7543 43.2657 73.369 43.2284 73.0425 43.137C72.716 43.0455 72.4287 42.9214 72.1805 42.7646C71.9455 42.6078 71.743 42.4314 71.5733 42.2354C71.4165 42.0264 71.2794 41.8108 71.1619 41.5887H70.7893V42.9927ZM73.3951 40.9224C74.1657 40.9224 74.7861 40.6872 75.2562 40.2168C75.7394 39.7334 75.9811 39.0801 75.9811 38.257V38.0218C75.9811 37.1987 75.7394 36.552 75.2562 36.0816C74.7861 35.5982 74.1657 35.3565 73.3951 35.3565C72.6246 35.3565 71.9977 35.6047 71.5145 36.1012C71.0443 36.5846 70.7893 37.2248 70.7893 38.0218V38.257C70.7893 39.054 71.0443 39.7007 71.5145 40.1972C71.9977 40.6807 72.6246 40.9224 73.3951 40.9224Z" fill="white"/>
<path d="M60.9136 43.266C59.8829 43.266 59.0505 42.9654 58.4162 42.3642C57.782 41.763 57.4648 40.9634 57.4648 39.9898C57.4648 39.0161 57.8183 38.2605 58.5252 37.6985C59.2322 37.1366 60.2562 36.8098 61.5974 36.7183L64.1225 36.5615V35.699C64.1225 35.2285 63.999 34.8625 63.6885 34.6011C63.3779 34.3398 62.9419 34.2091 62.3803 34.2091C61.9046 34.2091 61.5016 34.3071 61.1713 34.5031C60.8475 34.6926 60.6262 34.9573 60.5073 35.2971H57.8712C57.9372 34.6436 58.1685 34.0751 58.5649 33.5916C58.9679 33.108 59.4997 32.7355 60.1604 32.4741C60.8277 32.2062 61.5941 32.0723 62.4596 32.0723C63.8602 32.0723 64.9404 32.3925 65.7002 33.0328C66.46 33.6667 66.8399 34.575 66.8399 35.7578V39.0717V40.1282C66.8399 40.3533 67.0224 40.5358 67.2475 40.5358H67.4027V42.993H65.3452C64.6699 42.993 64.1225 42.4455 64.1225 41.7703V41.6279H63.8508C63.5799 42.1376 63.3482 42.557 62.8065 42.8445C62.2647 43.1255 61.6337 43.266 60.9136 43.266ZM61.8452 41.1194C62.2944 41.1194 62.6908 41.0344 63.0344 40.8645C63.3845 40.6881 63.6587 40.4463 63.8569 40.1392C64.0551 39.8255 64.1225 39.4694 64.1225 39.0708V38.2866L62.0533 38.4141C60.7782 38.4925 60.1406 38.9564 60.1406 39.8059C60.1406 40.2111 60.2926 40.5313 60.5965 40.7665C60.9004 41.0018 61.3166 41.1194 61.8452 41.1194Z" fill="white"/>
<path d="M47.8555 43.2657V29.3418H50.5856V40.6993H56.592V43.2657H47.8555Z" fill="white"/>
<g clip-path="url(#clip0_3425_533136)">
<g clip-path="url(#clip1_3425_533136)">
<path d="M111.879 27.6967L111.879 9.82031" stroke="#6349FF" stroke-width="3.08468" stroke-linejoin="bevel"/>
<path d="M111.879 27.692L111.879 45.5684" stroke="#6349FF" stroke-width="3.08468" stroke-linejoin="bevel"/>
<path d="M111.879 27.694L111.879 45.5703" stroke="#6349FF" stroke-width="3.08468" stroke-linejoin="bevel"/>
<path d="M112.013 27.6573L120.951 43.1387" stroke="#6349FF" stroke-width="3.08468" stroke-linejoin="bevel"/>
<path d="M111.989 27.6321L127.471 36.5703" stroke="#6349FF" stroke-width="3.08468" stroke-linejoin="bevel"/>
<path d="M111.948 27.623L129.824 27.623" stroke="#6349FF" stroke-width="3.08468" stroke-linejoin="bevel"/>
<path d="M111.917 27.6315L127.398 18.6934" stroke="#6349FF" stroke-width="3.08468" stroke-linejoin="bevel"/>
<path d="M111.89 27.6571L120.828 12.1758" stroke="#6349FF" stroke-width="3.08468" stroke-linejoin="bevel"/>
<path d="M92.2949 36.6664L107.937 27.6389L92.2949 18.6113" stroke="#6349FF" stroke-width="3.08468" stroke-linejoin="bevel"/>
</g>
</g>
<defs>
<clipPath id="clip0_3425_533136">
<rect width="48.2661" height="48.2661" fill="white" transform="translate(87.8262 3.57617)"/>
</clipPath>
<clipPath id="clip1_3425_533136">
<rect x="94.082" y="9.83398" width="35.7527" height="35.7527" rx="17.8763" fill="white"/>
</clipPath>
</defs>
</svg>
