<svg width="126" height="41" viewBox="0 0 126 41" fill="none" xmlns="http://www.w3.org/2000/svg">
<g clip-path="url(#clip0_787_8237)">
<path d="M51.8535 5.7793H56.7858C60.7669 5.7793 63.5113 8.51613 63.5113 12.0826V12.1207C63.5113 15.692 60.7669 18.4622 56.7858 18.4622H51.8535V5.7793ZM56.7858 15.9447C59.0641 15.9447 60.5909 14.4046 60.5909 12.1589V12.1207C60.6154 11.6133 60.5337 11.1064 60.3511 10.6325C60.1686 10.1586 59.8891 9.72824 59.5308 9.36902C59.1725 9.00981 58.7432 8.7297 58.2704 8.54669C57.7977 8.36367 57.292 8.28181 56.7858 8.30634H54.636V15.9351L56.7858 15.9447Z" fill="#563929"/>
<path d="M68.3579 5.68848H70.9358L76.3628 18.4619H73.4519L72.2914 15.6011H66.931L65.7752 18.4619H62.9214L68.3579 5.68848ZM71.2878 13.1552L69.6088 9.04038L67.9251 13.1552H71.2878Z" fill="#563929"/>
<path d="M77.6279 5.7793H83.4116C85.0193 5.7793 86.2654 6.2561 87.0978 7.06189C87.4631 7.44858 87.7473 7.9048 87.9336 8.40356C88.1198 8.90233 88.2044 9.43349 88.1822 9.9656V9.99897C88.2241 10.8621 87.9813 11.7151 87.4913 12.4261C87.0012 13.137 86.2913 13.6665 85.4711 13.9326L88.5627 18.4622H85.3094L82.5983 14.4046H80.4104V18.4622H77.6279V5.7793ZM83.2309 11.9395C84.5864 11.9395 85.3617 11.2148 85.3617 10.1468V10.1134C85.3617 8.91664 84.5341 8.30156 83.1786 8.30156H80.4104V11.9443L83.2309 11.9395Z" fill="#563929"/>
<path d="M88.772 5.77924H91.7542L94.3749 14.3616L97.2287 5.73633H99.6069L102.461 14.3616L105.081 5.77924H107.992L103.669 18.5527H101.248L98.394 10.2516L95.5402 18.5527H93.1145L88.772 5.77924Z" fill="#563929"/>
<path d="M109.462 5.7793H112.245V18.4622H109.462V5.7793Z" fill="#563929"/>
<path d="M114.751 5.7793H117.32L123.256 13.5893V5.7793H126.005V18.4622H123.627L117.501 10.3995V18.4622H114.751V5.7793Z" fill="#563929"/>
<path d="M68.3579 22.3525H70.9358L76.3628 35.1308H73.4519L72.2914 32.27H66.931L65.7752 35.1308H62.9214L68.3579 22.3525ZM71.2878 29.8192L69.6088 25.7044L67.9251 29.8192H71.2878Z" fill="#563929"/>
<path d="M77.6279 22.4434H83.502C84.9289 22.4434 86.0847 22.8439 86.8314 23.5686C87.1155 23.8491 87.3389 24.1852 87.4878 24.5559C87.6368 24.9267 87.708 25.3242 87.6971 25.7237V25.7619C87.7115 26.3302 87.5622 26.8907 87.2669 27.3761C86.9716 27.8615 86.543 28.2513 86.0324 28.4987C87.4973 29.0566 88.4105 29.9291 88.4105 31.6122V31.6504C88.4105 33.9676 86.5318 35.131 83.6542 35.131H77.6279V22.4434ZM82.9027 27.5737C84.1346 27.5737 84.9099 27.1732 84.9099 26.2291V26.1958C84.9099 25.3614 84.263 24.8893 83.0834 24.8893H80.339V27.5737H82.9027ZM83.6447 32.685C84.8766 32.685 85.6186 32.2464 85.6186 31.3071V31.2689C85.6186 30.4154 84.986 29.891 83.5543 29.891H80.339V32.685H83.6447Z" fill="#563929"/>
<path d="M89.9614 33.2807L91.6071 31.3068C92.6416 32.2596 93.9842 32.8064 95.3884 32.8468C96.5252 32.8468 97.2148 32.3939 97.2148 31.6501V31.6119C97.2148 30.9062 96.7773 30.5439 94.6654 30.0003C92.1161 29.3471 90.4704 28.6414 90.4704 26.1239V26.0858C90.4704 23.7829 92.3111 22.2714 94.8985 22.2714C96.6042 22.2448 98.2658 22.8146 99.5978 23.883L98.1709 25.9857C97.2249 25.2453 96.0773 24.8097 94.8795 24.7365C93.8141 24.7365 93.2528 25.2133 93.2528 25.8426V25.8474C93.2528 26.6818 93.795 26.9536 95.9829 27.5162C98.5514 28.1885 99.9973 29.1135 99.9973 31.3306V31.3687C99.9973 33.8862 98.0947 35.3023 95.3503 35.3023C93.3675 35.3136 91.4497 34.5942 89.9614 33.2807Z" fill="#563929"/>
<path d="M51.8535 22.4434H54.636V32.5944H62.0463V35.131H51.8535V22.4434Z" fill="#563929"/>
<path d="M20.4479 0.000689931L10.2236 10.25L30.6721 30.7486L40.8963 20.4993L20.4479 0.000689931Z" fill="#563929"/>
<path d="M10.2261 30.7486V10.251L0 20.4974L20.4475 40.9998L30.6736 30.7486H10.2261Z" fill="#FF880F"/>
<path d="M30.6735 10.251V30.7486L10.2261 10.251H30.6735Z" fill="#FF880F"/>
</g>
<defs>
<clipPath id="clip0_787_8237">
<rect width="126" height="41" fill="white"/>
</clipPath>
</defs>
</svg>
