<svg width="126" height="42" viewBox="0 0 126 42" fill="none" xmlns="http://www.w3.org/2000/svg">
<path d="M51.8608 6.27393H56.7981C60.7793 6.27393 63.5238 9.0107 63.5238 12.5818V12.62C63.5238 16.1911 60.7793 18.9613 56.7981 18.9613H51.8608V6.27393ZM56.7981 16.4438C59.0764 16.4438 60.6033 14.9038 60.6033 12.6534V12.62C60.6277 12.1126 60.5461 11.6057 60.3635 11.1318C60.1809 10.6579 59.9015 10.2275 59.5431 9.86834C59.1848 9.50914 58.7555 9.22903 58.2827 9.04603C57.81 8.86302 57.3043 8.78115 56.7981 8.80568H54.6577V16.4343L56.7981 16.4438Z" fill="white"/>
<path d="M68.374 6.18384H70.9425L76.3649 18.9618H73.454L72.2982 16.101H66.9423L65.7865 18.9618H62.9326L68.374 6.18384ZM71.304 13.6503L69.6202 9.53566L67.9364 13.6503H71.304Z" fill="white"/>
<path d="M77.6406 6.27393H83.4293C85.037 6.27393 86.2832 6.72688 87.1155 7.56126C87.4803 7.94737 87.7642 8.40281 87.9504 8.9007C88.1367 9.39858 88.2216 9.92883 88.2 10.4601V10.4983C88.2403 11.3611 87.9968 12.2133 87.507 12.9239C87.0172 13.6346 86.3082 14.1643 85.4888 14.4318L88.5806 18.9613H85.3271L82.6112 14.9038H80.4232V18.9613H77.6406V6.27393ZM83.2485 12.4388C84.6041 12.4388 85.3794 11.7141 85.3794 10.6413V10.6127C85.3794 9.41597 84.547 8.80091 83.1914 8.80091H80.4232V12.4436L83.2485 12.4388Z" fill="white"/>
<path d="M88.7905 6.27411H91.7586L94.3794 14.8563L97.2333 6.2312H99.6115L102.465 14.8563L105.086 6.27411H107.997L103.65 19.0521H101.272L98.4177 10.7512L95.5638 19.0521H93.138L88.7905 6.27411Z" fill="white"/>
<path d="M109.5 6.27393H112.287V18.9613H109.5V6.27393Z" fill="white"/>
<path d="M114.774 6.27393H117.343L123.274 14.0885V6.27393H126.004V18.9613H123.626L117.524 10.8988V18.9613H114.774V6.27393Z" fill="white"/>
<path d="M68.374 22.8528H70.9425L76.3649 35.6307H73.454L72.2982 32.77H66.9423L65.7865 35.6307H62.9326L68.374 22.8528ZM71.304 30.3193L69.6202 26.2046L67.9364 30.3193H71.304Z" fill="white"/>
<path d="M77.6406 22.9431H83.5196C84.9466 22.9431 86.1024 23.3436 86.8492 24.0683C87.1348 24.3479 87.3596 24.6837 87.5094 25.0546C87.6592 25.4255 87.7308 25.8234 87.7196 26.2234V26.2616C87.7341 26.8299 87.5847 27.3904 87.2894 27.8758C86.9941 28.3612 86.5655 28.7509 86.0549 28.9983C87.5199 29.5609 88.4331 30.4287 88.4331 32.1165V32.1499C88.4331 34.4719 86.5305 35.6305 83.6766 35.6305H77.6406V22.9431ZM82.9203 28.0734C84.1523 28.0734 84.9276 27.6729 84.9276 26.7336V26.6954C84.9276 25.8611 84.2759 25.389 83.1011 25.389H80.3423V28.0734H82.9203ZM83.6719 33.1845C84.899 33.1845 85.641 32.7507 85.641 31.8066V31.7685C85.641 30.9198 85.0084 30.3906 83.5815 30.3906H80.3423V33.1845H83.6719Z" fill="white"/>
<path d="M89.9683 33.7807L91.614 31.8068C92.6466 32.7626 93.9904 33.3099 95.3954 33.3468C96.5322 33.3468 97.2219 32.8939 97.2219 32.1501V32.1167C97.2219 31.4063 96.7843 31.0439 94.6724 30.5004C92.123 29.8472 90.4772 29.1415 90.4772 26.6241V26.586C90.4772 24.2831 92.318 22.7716 94.9055 22.7716C96.6112 22.745 98.2729 23.3149 99.6049 24.3832L98.178 26.4858C97.232 25.7455 96.0844 25.3099 94.8865 25.2366C93.821 25.2366 93.2597 25.7134 93.2597 26.3428V26.3809C93.2597 27.2106 93.802 27.4823 95.99 28.0449C98.5585 28.7172 100.004 29.6422 100.004 31.8592V31.8926C100.004 34.4148 98.1019 35.8261 95.3574 35.8261C93.3708 35.834 91.4514 35.1055 89.9683 33.7807Z" fill="white"/>
<path d="M51.8608 22.9431H54.6577V33.0939H62.0683V35.6305H51.8608V22.9431Z" fill="white"/>
<path d="M20.4526 0.500488L11.5342 9.44028H29.371L20.4526 0.500488Z" fill="white"/>
<path d="M31.9819 12.0579V29.9422L40.9004 20.9977L31.9819 12.0579Z" fill="white"/>
<path d="M10.2265 10.7515L0 20.9977L20.4482 41.4996L30.6746 31.2486H10.2265V10.7515Z" fill="white"/>
<path d="M30.6795 31.2486V10.7515H10.2266L30.6795 31.2486Z" fill="white"/>
</svg>
