<svg width="126" height="42" viewBox="0 0 126 42" fill="none" xmlns="http://www.w3.org/2000/svg">
<path d="M51.8535 6.27832H56.7858C60.7669 6.27832 63.5113 9.01515 63.5113 12.5816V12.6198C63.5113 16.191 60.7669 18.9612 56.7858 18.9612H51.8535V6.27832ZM56.7858 16.4437C59.0641 16.4437 60.5909 14.9036 60.5909 12.6579V12.6198C60.6154 12.1123 60.5337 11.6054 60.3511 11.1315C60.1686 10.6576 59.8891 10.2273 59.5308 9.86805C59.1725 9.50883 58.7432 9.22872 58.2704 9.04571C57.7977 8.8627 57.292 8.78083 56.7858 8.80536H54.636V16.4342L56.7858 16.4437Z" fill="#563929"/>
<path d="M68.3579 6.18774H70.9358L76.3628 18.9612H73.4519L72.2914 16.1004H66.931L65.7752 18.9612H62.9214L68.3579 6.18774ZM71.2878 13.6544L69.6088 9.53964L67.9251 13.6544H71.2878Z" fill="#563929"/>
<path d="M77.6279 6.27832H83.4116C85.0193 6.27832 86.2654 6.75512 87.0978 7.56091C87.4631 7.9476 87.7473 8.40382 87.9336 8.90259C88.1198 9.40135 88.2044 9.93251 88.1822 10.4646V10.498C88.2241 11.3611 87.9813 12.2141 87.4913 12.9251C87.0012 13.6361 86.2913 14.1655 85.4711 14.4316L88.5627 18.9612H85.3094L82.5983 14.9036H80.4104V18.9612H77.6279V6.27832ZM83.2309 12.4386C84.5864 12.4386 85.3617 11.7138 85.3617 10.6458V10.6124C85.3617 9.41566 84.5341 8.80059 83.1786 8.80059H80.4104V12.4433L83.2309 12.4386Z" fill="#563929"/>
<path d="M88.7725 6.27826H91.7547L94.3754 14.8607L97.2292 6.23535H99.6074L102.461 14.8607L105.082 6.27826H107.993L103.669 19.0517H101.248L98.3945 10.7506L95.5407 19.0517H93.115L88.7725 6.27826Z" fill="#563929"/>
<path d="M109.462 6.27832H112.244V18.9612H109.462V6.27832Z" fill="#563929"/>
<path d="M114.751 6.27832H117.319L123.255 14.0883V6.27832H126.004V18.9612H123.626L117.5 10.8985V18.9612H114.751V6.27832Z" fill="#563929"/>
<path d="M68.3579 22.8518H70.9358L76.3628 35.63H73.4519L72.2914 32.7692H66.931L65.7752 35.63H62.9214L68.3579 22.8518ZM71.2878 30.3185L69.6088 26.2037L67.9251 30.3185H71.2878Z" fill="#563929"/>
<path d="M77.6279 22.9424H83.502C84.9289 22.9424 86.0847 23.3429 86.8314 24.0676C87.1155 24.3481 87.3389 24.6842 87.4878 25.055C87.6368 25.4257 87.708 25.8232 87.6971 26.2228V26.2609C87.7115 26.8293 87.5622 27.3897 87.2669 27.8752C86.9716 28.3606 86.543 28.7503 86.0324 28.9977C87.4973 29.5556 88.4105 30.4281 88.4105 32.1112V32.1494C88.4105 34.4666 86.5318 35.63 83.6542 35.63H77.6279V22.9424ZM82.9027 28.0727C84.1346 28.0727 84.9099 27.6722 84.9099 26.7282V26.6948C84.9099 25.8604 84.263 25.3884 83.0834 25.3884H80.339V28.0727H82.9027ZM83.6447 33.184C84.8766 33.184 85.6186 32.7454 85.6186 31.8061V31.7679C85.6186 30.9145 84.986 30.39 83.5543 30.39H80.339V33.184H83.6447Z" fill="#563929"/>
<path d="M89.9609 33.78L91.6066 31.806C92.6411 32.7589 93.9837 33.3057 95.3879 33.3461C96.5247 33.3461 97.2143 32.8931 97.2143 32.1493V32.1112C97.2143 31.4055 96.7768 31.0431 94.665 30.4996C92.1156 29.8464 90.4699 29.1407 90.4699 26.6232V26.5851C90.4699 24.2821 92.3106 22.7707 94.898 22.7707C96.6037 22.7441 98.2653 23.3139 99.5973 24.3823L98.1704 26.4849C97.2244 25.7446 96.0769 25.309 94.879 25.2357C93.8136 25.2357 93.2523 25.7125 93.2523 26.3419V26.3467C93.2523 27.1811 93.7945 27.4528 95.9825 28.0155C98.5509 28.6878 99.9968 29.6127 99.9968 31.8299V31.868C99.9968 34.3855 98.0943 35.8016 95.3499 35.8016C93.367 35.8129 91.4492 35.0934 89.9609 33.78Z" fill="#563929"/>
<path d="M51.8535 22.9424H54.636V33.0934H62.0463V35.63H51.8535V22.9424Z" fill="#563929"/>
<path d="M20.4479 0.500446L10.2236 10.7498L30.6721 31.2484L40.8963 20.9991L20.4479 0.500446Z" fill="#563929"/>
<path d="M10.2261 31.2483V10.7507L0 20.9972L20.4475 41.4995L30.6736 31.2483H10.2261Z" fill="#FF870F"/>
<path d="M30.6735 10.7507V31.2483L10.2261 10.7507H30.6735Z" fill="#FF870F"/>
</svg>
