<svg viewBox="0 0 98 37" fill="none" xmlns="http://www.w3.org/2000/svg">
<path d="M53.2303 17.0363H51.4102V9.93785H53.2303V11.0299H53.5033C53.6651 10.6302 53.8998 10.3031 54.2615 10.0842C54.6231 9.8653 55.0466 9.75586 55.532 9.75586C55.8746 9.75586 56.1934 9.81296 56.4884 9.92716C56.793 10.0319 57.0594 10.1984 57.2878 10.4268C57.5162 10.6552 57.6923 10.9455 57.816 11.2976C57.9493 11.6497 58.0536 12.0685 58.0536 12.5538V17.0363H56.2172V13.0107C56.2172 12.5063 56.0935 12.1113 55.846 11.8258C55.6081 11.5308 55.2607 11.3833 54.8039 11.3833C54.271 11.3833 53.8713 11.5641 53.6048 11.9257C53.3478 12.2779 53.2303 12.7537 53.2303 13.3533V17.0363Z" fill="#727272"/>
<path d="M44.7676 15.2154H46.8607V11.6662H45.0406V9.93711H48.6808V15.2154H50.5009V17.0356H44.7676V15.2154Z" fill="#727272"/>
<path d="M49.0449 7.66196C49.0449 8.41588 48.4337 9.02705 47.6798 9.02705C46.9259 9.02705 46.3147 8.41588 46.3147 7.66196C46.3147 6.90805 46.9259 6.29688 47.6798 6.29688C48.4337 6.29688 49.0449 6.90805 49.0449 7.66196Z" fill="#727272"/>
<path d="M35.8477 17.0363H39.033L39.4936 11.576V10.6659H39.8464V11.576L40.307 17.0363H43.4922L43.9473 9.75586H42.2182L41.9451 15.2162V16.1263H41.5811V15.2162L41.2171 9.75586H38.1229L37.7589 15.2162V16.1263H37.3948V15.2162L37.1218 9.75586H35.3927L35.8477 17.0363Z" fill="#727272"/>
<path d="M27.0199 9.93785H30.0205V10.9389H30.2961C30.4293 10.5487 30.6343 10.2936 30.9484 10.0842C31.2719 9.8653 31.6574 9.75586 32.1047 9.75586C32.8089 9.75586 33.3752 9.97951 33.8034 10.4268C34.2317 10.8646 34.5734 11.5355 34.5734 12.4396V12.7537L32.59 12.925V12.7251C32.59 12.335 32.4901 12.0257 32.2902 11.7972C32.0904 11.5593 31.7906 11.4404 31.3909 11.4404C30.9912 11.4404 30.6771 11.5784 30.4487 11.8543C30.2203 12.1303 30.1061 12.5253 30.1061 13.0392V15.2162H31.7522V17.0363H26.8379V15.2162H28.3074V11.667H27.0199V9.93785Z" fill="#727272"/>
<path d="M21.4135 17.2183C20.7231 17.2183 20.1656 17.0179 19.7407 16.6172C19.3159 16.2164 19.1035 15.6914 19.1035 15.0423C19.1035 14.3932 19.3403 13.8814 19.8138 13.5067C20.2873 13.1321 20.9732 12.9142 21.8715 12.8532L23.5628 12.7487V12.1736C23.5628 11.86 23.4801 11.616 23.2721 11.4418C23.0641 11.2675 22.772 11.1804 22.3959 11.1804C22.0773 11.1804 21.8073 11.2457 21.5861 11.3764C21.3692 11.5028 21.221 11.6792 21.1413 11.9057H19.3757C19.4199 11.4701 19.5748 11.0911 19.8403 10.7687C20.1103 10.4463 20.4665 10.198 20.909 10.0238C21.356 9.84517 21.8693 9.75586 22.449 9.75586C23.3871 9.75586 24.1107 9.96932 24.6196 10.3962C25.1285 10.8188 25.3829 11.4244 25.3829 12.2129V14.4222V15.1391C25.3829 15.2899 25.5052 15.4121 25.6559 15.4121H25.929V17.0363H24.3819C23.9295 17.0363 23.5628 16.6696 23.5628 16.2173V16.1263H23.3808C23.1994 16.4661 23.0442 16.7457 22.6813 16.9374C22.3184 17.1247 21.8958 17.2183 21.4135 17.2183ZM22.0374 15.7873C22.3384 15.7873 22.6039 15.7306 22.834 15.6174C23.0685 15.4997 23.2522 15.3386 23.3849 15.1338C23.5177 14.9247 23.5628 14.6873 23.5628 14.4215V13.8988L22.1768 13.9837C21.3228 14.036 20.8957 14.3453 20.8957 14.9116C20.8957 15.1817 20.9975 15.3952 21.2011 15.552C21.4046 15.7089 21.6834 15.7873 22.0374 15.7873Z" fill="#727272"/>
<path d="M11.4406 7.93555H14.3721C15.6511 7.93555 16.6198 8.31605 17.2783 9.07706C17.9368 9.83387 18.266 10.9481 18.266 12.4196C18.266 13.9458 17.9389 15.0979 17.2846 15.8757C16.6303 16.6493 15.6595 17.0361 14.3721 17.0361H11.4406V7.93555ZM13.2387 9.48069V15.491H14.1252C14.9145 15.491 15.4949 15.2471 15.8663 14.7594C16.242 14.2675 16.4298 13.4981 16.4298 12.4512C16.4298 11.4505 16.2399 10.7063 15.86 10.2186C15.4843 9.72665 14.906 9.48069 14.1252 9.48069H13.2387Z" fill="#727272"/>
<path d="M10.8945 7.93555H11.4406V9.48265H10.8945V7.93555Z" fill="#727272"/>
<path d="M10.8945 15.489H11.4406V17.0361H10.8945V15.489Z" fill="#727272"/>
<path d="M54.3049 23.8208C54.3049 24.0309 54.4139 24.1841 54.632 24.2804C54.8501 24.3679 55.247 24.4423 55.8227 24.5036C56.4857 24.5736 57.0265 24.7749 57.4452 25.1076C57.8639 25.4314 58.0733 25.8866 58.0733 26.4731V26.5518C58.0733 27.1996 57.8378 27.716 57.3667 28.1012C56.8957 28.4863 56.2327 28.6789 55.3778 28.6789C54.8719 28.6789 54.4401 28.6132 54.0825 28.4819C53.7248 28.3506 53.4282 28.1887 53.1927 27.9961C52.9572 27.7948 52.774 27.576 52.6431 27.3396C52.521 27.0945 52.4381 26.8582 52.3945 26.6306L53.9124 26.1317C53.9821 26.4118 54.1261 26.6569 54.3442 26.8669C54.571 27.077 54.9155 27.1821 55.3778 27.1821C55.7878 27.1821 56.067 27.1208 56.2153 26.9982C56.3723 26.867 56.4508 26.7269 56.4508 26.5781C56.4508 26.4906 56.429 26.4118 56.3854 26.3418C56.3505 26.263 56.2807 26.193 56.176 26.1317C56.0713 26.0617 55.9274 26.0048 55.7442 25.961C55.5698 25.9172 55.3473 25.8822 55.0769 25.856C54.3442 25.7947 53.7597 25.6065 53.3235 25.2914C52.8961 24.9675 52.6824 24.4948 52.6824 23.8733V23.7946C52.6824 23.4707 52.7522 23.1862 52.8917 22.9411C53.0313 22.696 53.2145 22.4903 53.4413 22.324C53.6681 22.149 53.9298 22.0177 54.2264 21.9301C54.523 21.8426 54.8283 21.7988 55.1423 21.7988C55.5523 21.7988 55.9056 21.8513 56.2022 21.9564C56.5075 22.0527 56.7648 22.184 56.9742 22.3503C57.1835 22.5078 57.3536 22.6873 57.4845 22.8886C57.6153 23.0812 57.7156 23.2694 57.7854 23.4532L56.2938 24.0572C56.2153 23.8208 56.0801 23.637 55.8881 23.5057C55.6962 23.3657 55.4476 23.2956 55.1423 23.2956C54.8632 23.2956 54.6538 23.3482 54.5143 23.4532C54.3747 23.5495 54.3049 23.672 54.3049 23.8208Z" fill="#727272"/>
<path d="M46.715 28.4971H45.1133V19.3965H46.715V22.962H46.9634C47.1375 22.6049 47.39 22.3305 47.7209 22.1389C48.0517 21.9386 48.474 21.8384 48.9877 21.8384C49.3708 21.8384 49.7321 21.9124 50.0717 22.0605C50.42 22.2086 50.7203 22.4263 50.9728 22.7138C51.234 22.9925 51.4387 23.3366 51.5867 23.746C51.7434 24.1553 51.8113 24.6214 51.8113 25.144V25.3792C51.8113 25.9105 51.7477 26.3808 51.5997 26.7902C51.4517 27.1996 51.2515 27.548 50.999 27.8355C50.7465 28.1142 50.4461 28.3276 50.0978 28.4757C49.7582 28.615 49.3882 28.6791 48.9877 28.6791C48.6917 28.6791 48.4348 28.6542 48.2171 28.5933C47.9995 28.5323 47.8079 28.4495 47.6425 28.345C47.4858 28.2405 47.3508 28.1229 47.2376 27.9922C47.1332 27.8529 47.0417 27.7092 46.9634 27.5611H46.715V28.4971ZM48.4522 27.1169C48.9659 27.1169 49.3795 26.9601 49.6929 26.6465C50.0151 26.3242 50.1762 25.8887 50.1762 25.34V25.1832C50.1762 24.6344 50.0151 24.2033 49.6929 23.8897C49.3795 23.5674 48.9659 23.4063 48.4522 23.4063C47.9385 23.4063 47.5206 23.5718 47.1985 23.9028C46.885 24.225 46.715 24.6518 46.715 25.1832V25.34C46.715 25.8713 46.885 26.3024 47.1985 26.6334C47.5206 26.9557 47.9385 27.1169 48.4522 27.1169Z" fill="#727272"/>
<path d="M40.1312 28.6793C39.4441 28.6793 38.8891 28.4789 38.4663 28.0781C38.0434 27.6773 37.832 27.1442 37.832 26.4951C37.832 25.846 38.0677 25.3423 38.539 24.9676C39.0102 24.593 39.6929 24.3752 40.5871 24.3142L42.2705 24.2096V23.6346C42.2705 23.3209 42.1881 23.077 41.9811 22.9027C41.7741 22.7285 41.4834 22.6413 41.109 22.6413C40.7919 22.6413 40.5232 22.7067 40.303 22.8374C40.0872 22.9637 39.9396 23.1401 39.8603 23.3667H38.1029C38.147 22.931 38.3011 22.552 38.5654 22.2297C38.8341 21.9073 39.1886 21.659 39.6291 21.4847C40.0739 21.3061 40.5849 21.2168 41.1619 21.2168C42.0956 21.2168 42.8158 21.4303 43.3223 21.8572C43.8288 22.2798 44.0821 22.8853 44.0821 23.6738V25.8831V26.5874C44.0821 26.7375 44.2037 26.8592 44.3538 26.8592H44.4573V28.4973H43.0856C42.6354 28.4973 42.2705 28.1323 42.2705 27.6821V27.5872H42.0893C41.9087 27.927 41.7543 28.2066 41.3931 28.3983C41.0319 28.5856 40.6113 28.6793 40.1312 28.6793ZM40.7522 27.2482C41.0518 27.2482 41.316 27.1916 41.5451 27.0783C41.7785 26.9607 41.9613 26.7995 42.0934 26.5947C42.2256 26.3856 42.2705 26.1482 42.2705 25.8825V25.3597L40.891 25.4447C40.0409 25.4969 39.6159 25.8062 39.6159 26.3726C39.6159 26.6427 39.7172 26.8561 39.9198 27.013C40.1224 27.1698 40.3999 27.2482 40.7522 27.2482Z" fill="#727272"/>
<path d="M31.4258 28.6791V19.3965H33.2459V26.9682H37.2502V28.6791H31.4258Z" fill="#727272"/>
<g clip-path="url(#clip0_3425_533197)">
<g clip-path="url(#clip1_3425_533197)">
<path d="M74.1074 18.2984L74.1074 6.38086" stroke="#727272" stroke-width="2.05645" stroke-linejoin="bevel"/>
<path d="M74.1074 18.2973L74.1074 30.2148" stroke="#727272" stroke-width="2.05645" stroke-linejoin="bevel"/>
<path d="M74.1074 18.2973L74.1074 30.2148" stroke="#727272" stroke-width="2.05645" stroke-linejoin="bevel"/>
<path d="M74.1975 18.2728L80.1562 28.5938" stroke="#727272" stroke-width="2.05645" stroke-linejoin="bevel"/>
<path d="M74.1791 18.258L84.5 24.2168" stroke="#727272" stroke-width="2.05645" stroke-linejoin="bevel"/>
<path d="M74.1547 18.25L86.0723 18.25" stroke="#727272" stroke-width="2.05645" stroke-linejoin="bevel"/>
<path d="M74.1322 18.2557L84.4531 12.2969" stroke="#727272" stroke-width="2.05645" stroke-linejoin="bevel"/>
<path d="M74.1135 18.274L80.0723 7.95312" stroke="#727272" stroke-width="2.05645" stroke-linejoin="bevel"/>
<path d="M61.0508 24.2789L71.4786 18.2606L61.0508 12.2422" stroke="#727272" stroke-width="2.05645" stroke-linejoin="bevel"/>
</g>
</g>
<defs>
<clipPath id="clip0_3425_533197">
<rect width="32.1774" height="32.1774" fill="white" transform="translate(58.0723 2.21875)"/>
</clipPath>
<clipPath id="clip1_3425_533197">
<rect x="62.2441" y="6.39062" width="23.8351" height="23.8351" rx="11.9176" fill="white"/>
</clipPath>
</defs>
</svg>
