<svg width="126" height="42" viewBox="0 0 126 42" fill="none" xmlns="http://www.w3.org/2000/svg">
<g clip-path="url(#clip0_531_4481)">
<path d="M51.8516 6.30713H56.7881C60.7687 6.30713 63.5128 9.0379 63.5128 12.6012V12.6393C63.5128 16.2026 60.7687 18.9666 56.7881 18.9666H51.8516V6.30713ZM56.7881 16.4547C59.0661 16.4547 60.5927 14.9181 60.5927 12.6726V12.6393C60.6172 12.133 60.5355 11.6272 60.353 11.1543C60.1704 10.6815 59.891 10.2521 59.5327 9.89366C59.1744 9.53524 58.7452 9.25575 58.2725 9.07314C57.7998 8.89054 57.2942 8.80885 56.7881 8.83333H54.648V16.4452L56.7881 16.4547Z" fill="currentColor"/>
<path d="M68.3645 6.21631H70.9326L76.3542 18.9662H73.4436L72.288 16.1117H66.933L65.7773 18.9662H62.9238L68.3645 6.21631ZM71.294 13.6664L69.6105 9.56078L67.9269 13.6664H71.294Z" fill="currentColor"/>
<path d="M77.6289 6.30713H83.4167C85.0242 6.30713 86.2702 6.75909 87.1024 7.59164C87.4671 7.9769 87.751 8.43134 87.9372 8.92813C88.1234 9.42493 88.2083 9.95401 88.1868 10.4841V10.5222C88.227 11.3831 87.9836 12.2334 87.4938 12.9425C87.0041 13.6516 86.2952 14.1802 85.476 14.4471L88.5672 18.9666H85.3143L82.5987 14.9181H80.411V18.9666H77.6289V6.30713ZM83.236 12.4585C84.5914 12.4585 85.3666 11.7354 85.3666 10.6649V10.6364C85.3666 9.44227 84.5343 8.82857 83.1789 8.82857H80.411V12.4632L83.236 12.4585Z" fill="currentColor"/>
<path d="M88.7773 6.30649H91.745L94.3654 14.8699L97.2189 6.26367H99.5968L102.45 14.8699L105.071 6.30649H107.981L103.634 19.0564H101.257L98.4031 10.7737L95.5496 19.0564H93.1241L88.7773 6.30649Z" fill="currentColor"/>
<path d="M109.482 6.30713H112.269V18.9666H109.482V6.30713Z" fill="currentColor"/>
<path d="M114.758 6.30713H117.326L123.256 14.1045V6.30713H125.986V18.9666H123.608L117.507 10.9218V18.9666H114.758V6.30713Z" fill="currentColor"/>
<path d="M68.3645 22.8481H70.9326L76.3542 35.598H73.4436L72.288 32.7436H66.933L65.7773 35.598H62.9238L68.3645 22.8481ZM71.294 30.2983L69.6105 26.1926L67.9269 30.2983H71.294Z" fill="currentColor"/>
<path d="M77.6289 22.939H83.5071C84.9338 22.939 86.0895 23.3386 86.8361 24.0617C87.1217 24.3407 87.3464 24.6757 87.4962 25.0458C87.646 25.4159 87.7176 25.813 87.7064 26.2121V26.2501C87.7209 26.8172 87.5715 27.3765 87.2763 27.8608C86.9811 28.3451 86.5525 28.734 86.0419 28.9809C87.5067 29.5423 88.4198 30.4081 88.4198 32.0923V32.1256C88.4198 34.4424 86.5175 35.5985 83.664 35.5985H77.6289V22.939ZM82.9078 28.058C84.1396 28.058 84.9148 27.6583 84.9148 26.7211V26.6831C84.9148 25.8505 84.2632 25.3795 83.0885 25.3795H80.3302V28.058H82.9078ZM83.6592 33.1579C84.8862 33.1579 85.6282 32.725 85.6282 31.783V31.745C85.6282 30.8981 84.9956 30.3701 83.5689 30.3701H80.3302V33.1579H83.6592Z" fill="currentColor"/>
<path d="M89.9551 33.7524L91.6006 31.7828C92.633 32.7365 93.9766 33.2826 95.3815 33.3195C96.5181 33.3195 97.2077 32.8675 97.2077 32.1254V32.092C97.2077 31.3832 96.7701 31.0216 94.6586 30.4793C92.1095 29.8275 90.464 29.1234 90.464 26.6115V26.5734C90.464 24.2756 92.3044 22.7675 94.8916 22.7675C96.5971 22.7409 98.2585 23.3095 99.5903 24.3755L98.1636 26.4735C97.2178 25.7348 96.0703 25.3002 94.8726 25.2271C93.8073 25.2271 93.2461 25.7028 93.2461 26.3308V26.3689C93.2461 27.1967 93.7883 27.4678 95.9759 28.0292C98.5441 28.7 99.9898 29.6229 99.9898 31.8351V31.8684C99.9898 34.3851 98.0875 35.7933 95.3434 35.7933C93.3571 35.8012 91.438 35.0743 89.9551 33.7524Z" fill="currentColor"/>
<path d="M51.8516 22.939H54.648V33.0675H62.0575V35.5985H51.8516V22.939Z" fill="currentColor"/>
<path d="M28.2816 9.23951L19.6844 0.602051L11.0918 9.23951H28.2816Z" fill="currentColor"/>
<path d="M32.2422 13.2808V30.3972L40.8767 21.839L32.2422 13.2808Z" fill="currentColor"/>
<path d="M9.90585 11.9336L0.0800781 21.7582L19.7271 41.4119L29.5483 31.5827H9.90585V11.9336Z" fill="currentColor"/>
<path d="M29.5478 11.9336V31.5858L9.90234 11.9336H29.5478Z" fill="currentColor"/>
</g>
<defs>
<clipPath id="clip0_531_4481">
<rect width="126" height="40.9091" fill="currentColor" transform="translate(0 0.54541)"/>
</clipPath>
</defs>
</svg>
