<svg viewBox="0 0 110 36" fill="none" xmlns="http://www.w3.org/2000/svg">
<path d="M60.0441 15.1715H57.4727V5.14309H60.0441V6.68595H60.4298C60.6583 6.12126 60.99 5.65908 61.5009 5.34984C62.0118 5.04061 62.6101 4.88599 63.2958 4.88599C63.7799 4.88599 64.2303 4.96666 64.6471 5.128C65.0773 5.2759 65.4538 5.51118 65.7765 5.83387C66.0992 6.15655 66.3479 6.56663 66.5227 7.0641C66.7109 7.56157 66.8583 8.15315 66.8583 8.83885V15.1715H64.2639V9.48422C64.2639 8.77163 64.0891 8.21365 63.7395 7.8103C63.4034 7.3935 62.9126 7.1851 62.2673 7.1851C61.5143 7.1851 60.9496 7.44056 60.5732 7.95147C60.2101 8.44894 60.0441 9.1212 60.0441 9.96824V15.1715Z" fill="white"/>
<path d="M47.8281 12.6H50.7852V7.58581H48.2138V5.143H53.3567V12.6H55.9281V15.1714H47.8281V12.6Z" fill="white"/>
<path d="M53.871 1.92878C53.871 2.99388 53.0075 3.85731 51.9424 3.85731C50.8773 3.85731 50.0139 2.99388 50.0139 1.92878C50.0139 0.863678 50.8773 0.000244141 51.9424 0.000244141C53.0075 0.000244141 53.871 0.863678 53.871 1.92878Z" fill="white"/>
<path d="M35.2291 15.1715H39.7291L40.3799 7.45737V6.17168H40.8783V7.45737L41.5291 15.1715H46.029L46.6719 4.88599H44.229L43.8433 12.6001V13.8858H43.329V12.6001L42.8148 4.88599H38.4434L37.9291 12.6001V13.8858H37.4148V12.6001L37.0291 4.88599H34.5862L35.2291 15.1715Z" fill="white"/>
<path d="M22.7571 5.14309H26.9962V6.55738H27.3857C27.5739 6.00613 27.8635 5.64564 28.3072 5.34984C28.7643 5.04061 29.3088 4.88599 29.9408 4.88599C30.9357 4.88599 31.7357 5.20195 32.3407 5.83387C32.9458 6.45234 33.4285 7.40022 33.4285 8.67751V9.1212L30.6265 9.36321V9.08086C30.6265 8.52961 30.4853 8.09265 30.2029 7.76997C29.9206 7.43384 29.4971 7.26577 28.9324 7.26577C28.3677 7.26577 27.924 7.46073 27.6013 7.85064C27.2786 8.24054 27.1172 8.79852 27.1172 9.52455V12.6001H29.4428V15.1715H22.5V12.6001H24.5761V7.5859H22.7571V5.14309Z" fill="white"/>
<path d="M14.8338 15.4286C13.8585 15.4286 13.0708 15.1455 12.4706 14.5793C11.8704 14.0131 11.5703 13.2715 11.5703 12.3545C11.5703 11.4374 11.9048 10.7143 12.5737 10.185C13.2427 9.65572 14.2117 9.348 15.4808 9.26183L17.8703 9.11413V8.30173C17.8703 7.85861 17.7534 7.51396 17.4595 7.26778C17.1657 7.0216 16.7531 6.89851 16.2217 6.89851C15.7716 6.89851 15.3902 6.99082 15.0776 7.17546C14.7713 7.35394 14.5618 7.6032 14.4493 7.92323H11.9548C12.0173 7.30778 12.2361 6.77234 12.6112 6.31691C12.9926 5.86147 13.4959 5.51067 14.1211 5.26449C14.7525 5.01215 15.4777 4.88599 16.2967 4.88599C17.6221 4.88599 18.6443 5.18756 19.3632 5.7907C20.0822 6.38768 20.4417 7.24316 20.4417 8.35712V11.4784V12.4911C20.4417 12.7042 20.6144 12.8769 20.8274 12.8769H21.2131V15.1715H19.0274C18.3883 15.1715 17.8703 14.6534 17.8703 14.0144V13.8858H17.6131C17.3568 14.3659 17.1376 14.7609 16.6249 15.0317C16.1123 15.2963 15.5152 15.4286 14.8338 15.4286ZM15.7153 13.4069C16.1404 13.4069 16.5155 13.3269 16.8406 13.1669C17.172 13.0007 17.4314 12.773 17.619 12.4837C17.8065 12.1883 17.8703 11.8529 17.8703 11.4775V10.7389L15.9122 10.8589C14.7056 10.9328 14.1023 11.3697 14.1023 12.1698C14.1023 12.5514 14.2461 12.853 14.5337 13.0745C14.8213 13.2961 15.2151 13.4069 15.7153 13.4069Z" fill="white"/>
<path d="M0.771423 2.3147H4.91299C6.7199 2.3147 8.08849 2.85226 9.01878 3.92738C9.94907 4.99656 10.4142 6.57063 10.4142 8.64959C10.4142 10.8058 9.95205 12.4333 9.02773 13.5322C8.1034 14.6251 6.73182 15.1716 4.91299 15.1716H0.771423V2.3147ZM3.31182 4.49761V12.9887H4.56413C5.67929 12.9887 6.49925 12.6442 7.02403 11.9551C7.55477 11.2602 7.82014 10.1732 7.82014 8.69414C7.82014 7.28045 7.55179 6.22909 7.01508 5.54006C6.48434 4.84509 5.66736 4.49761 4.56413 4.49761H3.31182Z" fill="white"/>
<path d="M0 2.3147H0.771423V4.50037H0V2.3147Z" fill="white"/>
<path d="M0 12.9859H0.771423V15.1716H0V12.9859Z" fill="white"/>
<path d="M63.1295 35.9999H58.8867V25.7144H63.001C64.0523 25.7144 64.8874 25.9424 65.4791 26.3986C66.0757 26.8501 66.374 27.4773 66.374 28.2804C66.374 28.6463 66.2884 28.986 66.1173 29.2997C65.9461 29.6133 65.7114 29.8747 65.4131 30.0837C65.1148 30.2881 64.7918 30.4191 64.4153 30.4714V30.6C64.8798 30.6237 65.2835 30.7514 65.6551 30.9747C66.0268 31.1933 66.3202 31.4832 66.5353 31.8443C66.7505 32.2007 66.8581 32.5975 66.8581 33.0347C66.8581 33.9375 66.5231 34.6575 65.8532 35.1944C65.1881 35.7314 64.2591 35.9999 63.1295 35.9999ZM61.4581 27.5605V29.8271H62.2296C62.6745 29.8271 63.0316 29.7297 63.2859 29.5349C63.5451 29.3353 63.6747 29.0668 63.6747 28.7294C63.6747 28.3445 63.5524 28.0547 63.3079 27.8598C63.0683 27.6603 62.7039 27.5605 62.2296 27.5605H61.4581ZM61.4581 34.1181H62.2296C62.8701 34.1181 63.3397 34.0159 63.6233 33.8116C63.907 33.6025 64.0488 33.2675 64.0488 32.8066C64.0488 31.9798 63.4374 31.5663 62.2296 31.5663H61.4581V34.1181Z" fill="white"/>
<path d="M52.9723 28.0403L51.0437 35.9999H48.3438L51.4294 25.7144H54.7723L57.858 35.9999H55.158L53.2294 28.0403H52.9723ZM54.4611 31.8834L55.0022 33.7728H50.929L51.3348 31.8834H54.4611Z" fill="white"/>
<path d="M47.3139 33.4285V35.9999H40.3711V25.7144H42.9425V33.4285H47.3139Z" fill="white"/>
<path fill-rule="evenodd" clip-rule="evenodd" d="M90.2156 0.0618408L90.2154 17.9996L90.2156 35.9384C90.7101 35.9792 91.2103 36 91.7154 36C92.2206 36 92.7209 35.9792 93.2156 35.9383L93.2155 23.5978L99.3874 34.2878C100.297 33.8584 101.166 33.3551 101.984 32.7854L95.8135 22.0977L106.501 28.2682C107.071 27.4496 107.574 26.5814 108.003 25.6714L97.3133 19.4995L109.654 19.4993C109.694 19.005 109.715 18.505 109.715 18.0001C109.715 17.4947 109.694 16.9942 109.654 16.4993L97.3137 16.4995L108.003 10.3281C107.574 9.41816 107.07 8.54999 106.501 7.73138L95.8136 13.9016L101.984 3.21458C101.165 2.64498 100.297 2.14163 99.3871 1.71228L93.2155 12.4016L93.2156 0.0618698C92.7209 0.0210562 92.2206 0.000244141 91.7154 0.000244141C91.2103 0.000244141 90.7101 0.0210464 90.2156 0.0618408ZM76.1235 9.00039L89.4652 16.7005V19.2988L76.1231 26.9991C75.6229 26.1343 75.1926 25.224 74.8398 24.2759L85.7146 17.9996L74.8401 11.7235C75.1929 10.7755 75.6232 9.86519 76.1235 9.00039Z" fill="#6349FF"/>
</svg>
