<svg viewBox="0 0 106 70" fill="none" xmlns="http://www.w3.org/2000/svg">
<g clip-path="url(#clip0_326_4972)">
<path d="M1.06294 21.5538H10.2168C12.7351 21.5538 14.7371 22.2801 16.0529 23.6117C16.629 24.2293 17.0772 24.9572 17.3713 25.7526C17.6654 26.5481 17.7994 27.395 17.7653 28.2436V28.3009C17.8302 29.6797 17.4449 31.0419 16.669 32.1772C15.893 33.3125 14.7695 34.1579 13.4717 34.5829L18.3634 41.8205H13.2136L8.92621 35.3347H5.4636V41.8205H1.05664L1.06294 21.5538ZM9.95871 31.3973C12.1055 31.3973 13.3332 30.2377 13.3332 28.5303V28.4729C13.3332 26.5616 12.0174 25.5804 9.87686 25.5804H5.4699V31.3973H9.95871Z" fill="#FF764A"/>
<path d="M22.5122 21.5603H37.6217V25.5296H26.9191V29.6453H36.3626V33.6082H26.9191V37.8641H37.7917V41.8206H22.5059L22.5122 21.5603Z" fill="#FF764A"/>
<path d="M48.9237 21.4323H52.9844L61.5843 41.82H56.9758L55.1501 37.271H46.6636L44.8315 41.82H40.3364L48.9237 21.4323ZM53.5573 33.3591L50.8817 26.7777L48.2375 33.3464L53.5573 33.3591Z" fill="#FF764A"/>
<path d="M0 59.5765V59.5192C0 53.7852 4.237 49.0386 10.0164 49.0386C13.5923 49.0386 15.7392 50.3702 17.7978 52.2816L16.7402 53.3838C14.9963 51.6763 12.9942 50.4021 9.99121 50.4021C5.18132 50.4021 1.54875 54.3649 1.54875 59.4619V59.5192C1.54875 64.6161 5.238 68.6363 10.0101 68.6363C12.8998 68.6363 14.8767 67.5087 16.9353 65.4826L17.9363 66.4701C15.8147 68.5854 13.5294 69.9998 9.97864 69.9998C4.237 69.9998 0 65.3934 0 59.5765Z" fill="black"/>
<path d="M29.4142 49.2491H30.8432L40.1671 69.6369H38.5366L36.0183 63.9665H24.1762L21.6264 69.6433H20.084L29.4142 49.2491ZM35.3573 62.6286L30.1067 50.8993L24.812 62.6222L35.3573 62.6286Z" fill="black"/>
<path d="M43.4336 49.3956H51.8446C54.3062 49.3956 56.2516 50.1793 57.5107 51.3962C58.4863 52.4004 59.0314 53.7533 59.028 55.1615V55.1998C59.028 58.5892 56.5097 60.526 53.1604 60.9848L59.7708 69.6432H57.8821L51.5046 61.246H44.9194V69.6623H43.4336V49.3956ZM51.6746 59.9081C55.0176 59.9081 57.5107 58.2006 57.5107 55.2762V55.1998C57.5107 52.4793 55.3954 50.7718 51.7628 50.7399H44.9257V59.8571L51.6746 59.9081Z" fill="black"/>
<path d="M64.6499 49.4021H71.317C77.6126 49.4021 81.9566 53.7791 81.9503 59.4813V59.5387C81.9503 65.2408 77.6 69.6688 71.3107 69.6688H64.6436L64.6499 49.4021ZM71.3107 68.2799C76.8886 68.2799 80.4079 64.4572 80.4079 59.596V59.5387C80.4079 54.7284 76.8949 50.791 71.317 50.791H66.1356V68.2735L71.3107 68.2799Z" fill="black"/>
<path d="M64.6562 0L64.6499 19.0179H69.0757V4.47893L101.574 4.4853L101.568 37.3669H83.9398V41.8394L105.987 41.8458L106 0.0127423L64.6562 0Z" fill="black"/>
<path d="M64.6562 21.5668H69.0632V37.3609H81.4278V41.8208H64.6499L64.6562 21.5668Z" fill="#FF764A"/>
<path d="M89.5306 16.6602H81.1133V25.1784H89.5306V16.6602Z" fill="black"/>
</g>
<defs>
<clipPath id="clip0_326_4972">
<rect width="106" height="70" fill="white"/>
</clipPath>
</defs>
</svg>
