<svg width="161" height="120" viewBox="0 0 161 120" fill="none" xmlns="http://www.w3.org/2000/svg">
<path fill-rule="evenodd" clip-rule="evenodd" d="M30.7855 44.1053C29.8092 43.129 28.2263 43.129 27.25 44.1053L18.9069 52.4484C18.5163 52.839 17.8832 52.839 17.4926 52.4484L12.5429 47.4987C12.1524 47.1082 12.1524 46.475 12.5429 46.0845L20.886 37.7413C25.3771 33.2503 32.6585 33.2503 37.1495 37.7413L41.25 41.8418C42.2263 42.8181 43.8092 42.8181 44.7855 41.8418L48.886 37.7413C53.3771 33.2503 60.6585 33.2503 65.1495 37.7413L69.25 41.8418C70.2263 42.8181 71.8092 42.8181 72.7855 41.8418L76.886 37.7413C81.3771 33.2503 88.6585 33.2503 93.1495 37.7413L101.493 46.0845C101.883 46.475 101.883 47.1082 101.493 47.4987L96.5429 52.4484C96.1524 52.839 95.5192 52.8389 95.1287 52.4484L86.7855 44.1053C85.8092 43.129 84.2263 43.129 83.25 44.1053L79.1495 48.2058C74.6585 52.6968 67.3771 52.6968 62.886 48.2058L58.7855 44.1053C57.8092 43.129 56.2263 43.129 55.25 44.1053L51.1495 48.2058C46.6585 52.6968 39.3771 52.6968 34.886 48.2058L30.7855 44.1053ZM30.7855 77.6189C29.8092 76.6426 28.2263 76.6426 27.25 77.6189L18.9069 85.9621C18.5163 86.3526 17.8832 86.3526 17.4926 85.9621L12.5429 81.0124C12.1524 80.6218 12.1524 79.9887 12.5429 79.5981L20.886 71.255C25.3771 66.764 32.6585 66.764 37.1495 71.255L41.25 75.3555C42.2263 76.3318 43.8092 76.3318 44.7855 75.3555L48.886 71.255C53.3771 66.764 60.6585 66.764 65.1495 71.255L69.25 75.3555C70.2263 76.3318 71.8092 76.3318 72.7855 75.3555L76.886 71.255C81.3771 66.764 88.6585 66.764 93.1495 71.255L101.493 79.5981C101.883 79.9887 101.883 80.6218 101.493 81.0124L96.5429 85.9621C96.1524 86.3526 95.5192 86.3526 95.1287 85.9621L86.7855 77.6189C85.8092 76.6426 84.2263 76.6426 83.25 77.6189L79.1495 81.7195C74.6585 86.2105 67.3771 86.2105 62.886 81.7195L58.7855 77.6189C57.8092 76.6426 56.2263 76.6426 55.25 77.6189L51.1495 81.7195C46.6585 86.2105 39.3771 86.2105 34.886 81.7195L30.7855 77.6189ZM27.25 60.6131C28.2263 59.6368 29.8092 59.6368 30.7855 60.6131L34.886 64.7136C39.3771 69.2046 46.6585 69.2046 51.1495 64.7136L55.25 60.6131C56.2263 59.6368 57.8092 59.6368 58.7855 60.6131L62.886 64.7136C67.3771 69.2046 74.6585 69.2046 79.1495 64.7136L83.25 60.6131C84.2263 59.6368 85.8092 59.6368 86.7855 60.6131L95.1287 68.9562C95.5192 69.3468 96.1524 69.3468 96.5429 68.9562L101.493 64.0065C101.883 63.616 101.883 62.9828 101.493 62.5923L93.1495 54.2491C88.6585 49.7581 81.3771 49.7581 76.886 54.2491L72.7855 58.3496C71.8092 59.326 70.2263 59.3259 69.25 58.3496L65.1495 54.2491C60.6585 49.7581 53.3771 49.7581 48.886 54.2491L44.7855 58.3496C43.8092 59.326 42.2263 59.3259 41.25 58.3496L37.1495 54.2491C32.6585 49.7581 25.3771 49.7581 20.886 54.2491L12.5429 62.5923C12.1524 62.9828 12.1524 63.616 12.5429 64.0065L17.4926 68.9562C17.8832 69.3468 18.5163 69.3468 18.9069 68.9562L27.25 60.6131Z" fill="url(#paint0_linear_787_11900)"/>
<g filter="url(#filter0_b_787_11900)">
<mask id="path-2-inside-1_787_11900" fill="white">
<path fill-rule="evenodd" clip-rule="evenodd" d="M110.917 89.5741C110.917 91.2994 112.956 92.2151 114.246 91.0694L147.779 61.2843C148.674 60.4886 148.674 59.0893 147.779 58.2937L114.246 28.5086C112.956 27.3628 110.917 28.2786 110.917 30.0039V36.7049C110.917 37.8094 110.022 38.7049 108.917 38.7049H49.9922C48.8876 38.7049 47.9922 39.6003 47.9922 40.7049V78.8734C47.9922 79.978 48.8876 80.8734 49.9922 80.8734H108.917C110.022 80.8734 110.917 81.7688 110.917 82.8734V89.5741Z"/>
</mask>
<path fill-rule="evenodd" clip-rule="evenodd" d="M110.917 89.5741C110.917 91.2994 112.956 92.2151 114.246 91.0694L147.779 61.2843C148.674 60.4886 148.674 59.0893 147.779 58.2937L114.246 28.5086C112.956 27.3628 110.917 28.2786 110.917 30.0039V36.7049C110.917 37.8094 110.022 38.7049 108.917 38.7049H49.9922C48.8876 38.7049 47.9922 39.6003 47.9922 40.7049V78.8734C47.9922 79.978 48.8876 80.8734 49.9922 80.8734H108.917C110.022 80.8734 110.917 81.7688 110.917 82.8734V89.5741Z" fill="url(#paint1_linear_787_11900)" fill-opacity="0.61"/>
<path d="M114.246 28.5086L113.914 28.8824L114.246 28.5086ZM114.246 91.0694L113.914 90.6955L114.246 91.0694ZM147.779 58.2937L147.447 58.6675L147.779 58.2937ZM147.447 60.9105L113.914 90.6955L114.578 91.4432L148.111 61.6581L147.447 60.9105ZM113.914 28.8824L147.447 58.6675L148.111 57.9198L114.578 28.1348L113.914 28.8824ZM111.417 36.7049V30.0039H110.417V36.7049H111.417ZM49.9922 39.2049H108.917V38.2049H49.9922V39.2049ZM48.4922 78.8734V40.7049H47.4922V78.8734H48.4922ZM108.917 80.3734H49.9922V81.3734H108.917V80.3734ZM111.417 89.5741V82.8734H110.417V89.5741H111.417ZM108.917 81.3734C109.746 81.3734 110.417 82.045 110.417 82.8734H111.417C111.417 81.4927 110.298 80.3734 108.917 80.3734V81.3734ZM47.4922 78.8734C47.4922 80.2541 48.6115 81.3734 49.9922 81.3734V80.3734C49.1638 80.3734 48.4922 79.7018 48.4922 78.8734H47.4922ZM49.9922 38.2049C48.6115 38.2049 47.4922 39.3242 47.4922 40.7049H48.4922C48.4922 39.8764 49.1638 39.2049 49.9922 39.2049V38.2049ZM110.417 36.7049C110.417 37.5333 109.746 38.2049 108.917 38.2049V39.2049C110.298 39.2049 111.417 38.0856 111.417 36.7049H110.417ZM114.578 28.1348C112.965 26.7025 110.417 27.8472 110.417 30.0039H111.417C111.417 28.7099 112.946 28.0231 113.914 28.8824L114.578 28.1348ZM113.914 90.6955C112.946 91.5549 111.417 90.8681 111.417 89.5741H110.417C110.417 91.7307 112.965 92.8754 114.578 91.4432L113.914 90.6955ZM148.111 61.6581C149.23 60.6636 149.23 58.9144 148.111 57.9198L147.447 58.6675C148.118 59.2642 148.118 60.3137 147.447 60.9105L148.111 61.6581Z" fill="white" mask="url(#path-2-inside-1_787_11900)"/>
</g>
<defs>
<filter id="filter0_b_787_11900" x="40.9922" y="21" width="114.458" height="77.5781" filterUnits="userSpaceOnUse" color-interpolation-filters="sRGB">
<feFlood flood-opacity="0" result="BackgroundImageFix"/>
<feGaussianBlur in="BackgroundImageFix" stdDeviation="3.5"/>
<feComposite in2="SourceAlpha" operator="in" result="effect1_backgroundBlur_787_11900"/>
<feBlend mode="normal" in="SourceGraphic" in2="effect1_backgroundBlur_787_11900" result="shape"/>
</filter>
<linearGradient id="paint0_linear_787_11900" x1="41.6362" y1="43.1945" x2="53.1634" y2="79.7819" gradientUnits="userSpaceOnUse">
<stop stop-color="#F1A865"/>
<stop offset="1" stop-color="#FF764A"/>
</linearGradient>
<linearGradient id="paint1_linear_787_11900" x1="87.4922" y1="31.5" x2="107.492" y2="84" gradientUnits="userSpaceOnUse">
<stop stop-color="#FFEFE0"/>
<stop offset="0.806971" stop-color="#F1C69E"/>
</linearGradient>
</defs>
</svg>
