<svg width="172" height="83" viewBox="0 0 172 83" fill="none" xmlns="http://www.w3.org/2000/svg">
<g clip-path="url(#clip0_376_26451)">
<path d="M37.6036 22.3633H0.00878906V59.9581H37.6036V22.3633Z" fill="black"/>
<path d="M30.3733 29.5928H7.22949V52.7366H30.3733V29.5928Z" fill="#FF764A"/>
<path d="M23.7002 36.2651H13.9077V46.0576H23.7002V36.2651Z" fill="white"/>
<path d="M23.709 0H13.9165V9.79248H23.709V0Z" fill="#FF764A"/>
<path d="M23.6855 72.5293H13.8931V82.3218H23.6855V72.5293Z" fill="#FF764A"/>
<path d="M55.9004 29.8003H66.369C69.274 29.8003 71.5327 30.6176 73.0558 32.1184C73.7118 32.8116 74.2231 33.6285 74.5599 34.5215C74.8967 35.4144 75.0522 36.3655 75.0173 37.3193V37.3787C75.0929 38.9358 74.6536 40.4745 73.7673 41.757C72.881 43.0395 71.5969 43.9944 70.1136 44.4742L75.7008 52.6469H69.8164L64.9127 45.3212H60.9378V52.6395H55.9004V29.8003ZM66.0346 40.945C68.4865 40.945 69.8982 39.6374 69.8982 37.7056V37.6462C69.8982 35.4841 68.4122 34.3696 65.9381 34.3696H60.9378V40.945H66.0346Z" fill="black"/>
<path d="M79.5499 29.8003H96.8168V34.2582H84.5576V38.9018H95.3382V43.3597H84.5502V48.1668H96.9728V52.6247H79.5425L79.5499 29.8003Z" fill="black"/>
<path d="M109.308 29.6382H113.951L123.759 52.6706H118.491L116.403 47.5366H106.707L104.612 52.6706H99.478L109.308 29.6382ZM114.605 43.1159L111.566 35.686L108.52 43.1159H114.605Z" fill="black"/>
<path d="M127.295 29.8003H132.332V48.1148H143.745V52.6915H127.288L127.295 29.8003Z" fill="black"/>
<path d="M148.032 29.8003H165.18V32.1853H150.61V40.3581H163.003V42.7133H150.61V52.6841H148.024L148.032 29.8003Z" fill="black"/>
<path d="M169.289 35.7964H171.808V52.6992H169.289V35.7964Z" fill="black"/>
<path d="M171.994 29.6221H169.118V32.4008H171.994V29.6221Z" fill="black"/>
</g>
<defs>
<clipPath id="clip0_376_26451">
<rect width="172" height="82.3297" fill="white"/>
</clipPath>
</defs>
</svg>
