<svg width="161" height="120" viewBox="0 0 161 120" fill="none" xmlns="http://www.w3.org/2000/svg">
<path d="M115.704 58.0914C116.223 58.0914 116.645 57.6707 116.632 57.152C116.461 50.48 114.47 43.9748 110.866 38.3431C107.093 32.4475 101.71 27.7561 95.3538 24.8241C88.9979 21.8921 81.9351 20.8423 75.0011 21.7987C68.0672 22.7552 61.5524 25.678 56.2277 30.2213C50.9029 34.7646 46.9911 40.7381 44.9552 47.435C42.9192 54.132 42.8443 61.272 44.7393 68.0102C46.6343 74.7483 50.42 80.8026 55.6482 85.4566C60.6424 89.9021 66.7531 92.8922 73.3151 94.1114C73.8252 94.2061 74.3071 93.8558 74.3887 93.3434L79.8813 58.883C79.954 58.427 80.3472 58.0914 80.809 58.0914H115.704Z" fill="url(#paint0_linear_787_11970)"/>
<g filter="url(#filter0_b_787_11970)">
<mask id="path-2-inside-1_787_11970" fill="white">
<path d="M102.246 91.9943C102.555 92.4543 103.178 92.5774 103.63 92.2574C108.444 88.8476 112.527 84.501 115.628 79.4795C118.904 74.1734 121.008 68.2382 121.795 62.0768C122.582 55.9154 122.035 49.6722 120.19 43.7712C118.445 38.1893 115.577 33.0372 111.765 28.6265C111.404 28.2086 110.771 28.1782 110.362 28.5492L79.5114 56.5108C79.1439 56.8439 79.076 57.396 79.352 57.8082L102.246 91.9943Z"/>
</mask>
<path d="M102.246 91.9943C102.555 92.4543 103.178 92.5774 103.63 92.2574C108.444 88.8476 112.527 84.501 115.628 79.4795C118.904 74.1734 121.008 68.2382 121.795 62.0768C122.582 55.9154 122.035 49.6722 120.19 43.7712C118.445 38.1893 115.577 33.0372 111.765 28.6265C111.404 28.2086 110.771 28.1782 110.362 28.5492L79.5114 56.5108C79.1439 56.8439 79.076 57.396 79.352 57.8082L102.246 91.9943Z" fill="url(#paint1_linear_787_11970)" fill-opacity="0.61"/>
<path d="M102.246 91.9943C102.555 92.4543 103.178 92.5774 103.63 92.2574C108.444 88.8476 112.527 84.501 115.628 79.4795C118.904 74.1734 121.008 68.2382 121.795 62.0768C122.582 55.9154 122.035 49.6722 120.19 43.7712C118.445 38.1893 115.577 33.0372 111.765 28.6265C111.404 28.2086 110.771 28.1782 110.362 28.5492L79.5114 56.5108C79.1439 56.8439 79.076 57.396 79.352 57.8082L102.246 91.9943Z" stroke="white" mask="url(#path-2-inside-1_787_11970)"/>
</g>
<g filter="url(#filter1_b_787_11970)">
<mask id="path-3-inside-2_787_11970" fill="white">
<path d="M39.3535 74.8538C38.8459 75.0747 38.6133 75.6666 38.8475 76.1683C41.3425 81.5135 44.8898 86.3074 49.2766 90.2555C53.9119 94.4274 59.376 97.5572 65.2976 99.4324C71.2192 101.308 77.4598 101.884 83.5955 101.123C89.3994 100.403 94.9809 98.5022 100.002 95.5398C100.477 95.2591 100.62 94.6413 100.328 94.1724L78.3278 58.8233C78.0657 58.4022 77.5345 58.2368 77.0797 58.4348L39.3535 74.8538Z"/>
</mask>
<path d="M39.3535 74.8538C38.8459 75.0747 38.6133 75.6666 38.8475 76.1683C41.3425 81.5135 44.8898 86.3074 49.2766 90.2555C53.9119 94.4274 59.376 97.5572 65.2976 99.4324C71.2192 101.308 77.4598 101.884 83.5955 101.123C89.3994 100.403 94.9809 98.5022 100.002 95.5398C100.477 95.2591 100.62 94.6413 100.328 94.1724L78.3278 58.8233C78.0657 58.4022 77.5345 58.2368 77.0797 58.4348L39.3535 74.8538Z" fill="url(#paint2_linear_787_11970)" fill-opacity="0.61"/>
<path d="M39.3535 74.8538C38.8459 75.0747 38.6133 75.6666 38.8475 76.1683C41.3425 81.5135 44.8898 86.3074 49.2766 90.2555C53.9119 94.4274 59.376 97.5572 65.2976 99.4324C71.2192 101.308 77.4598 101.884 83.5955 101.123C89.3994 100.403 94.9809 98.5022 100.002 95.5398C100.477 95.2591 100.62 94.6413 100.328 94.1724L78.3278 58.8233C78.0657 58.4022 77.5345 58.2368 77.0797 58.4348L39.3535 74.8538Z" stroke="white" mask="url(#path-3-inside-2_787_11970)"/>
</g>
<defs>
<filter id="filter0_b_787_11970" x="72.1826" y="21.2905" width="56.9619" height="78.1455" filterUnits="userSpaceOnUse" color-interpolation-filters="sRGB">
<feFlood flood-opacity="0" result="BackgroundImageFix"/>
<feGaussianBlur in="BackgroundImageFix" stdDeviation="3.5"/>
<feComposite in2="SourceAlpha" operator="in" result="effect1_backgroundBlur_787_11970"/>
<feBlend mode="normal" in="SourceGraphic" in2="effect1_backgroundBlur_787_11970" result="shape"/>
</filter>
<filter id="filter1_b_787_11970" x="31.7559" y="51.3516" width="75.7236" height="57.0972" filterUnits="userSpaceOnUse" color-interpolation-filters="sRGB">
<feFlood flood-opacity="0" result="BackgroundImageFix"/>
<feGaussianBlur in="BackgroundImageFix" stdDeviation="3.5"/>
<feComposite in2="SourceAlpha" operator="in" result="effect1_backgroundBlur_787_11970"/>
<feBlend mode="normal" in="SourceGraphic" in2="effect1_backgroundBlur_787_11970" result="shape"/>
</filter>
<linearGradient id="paint0_linear_787_11970" x1="67.4197" y1="33.9135" x2="91.2567" y2="77.7545" gradientUnits="userSpaceOnUse">
<stop stop-color="#F1A865"/>
<stop offset="1" stop-color="#FF764A"/>
</linearGradient>
<linearGradient id="paint1_linear_787_11970" x1="46.1727" y1="35.1502" x2="113.091" y2="55.2983" gradientUnits="userSpaceOnUse">
<stop stop-color="#FCE3CB"/>
<stop offset="0.806971" stop-color="#F1C69E"/>
</linearGradient>
<linearGradient id="paint2_linear_787_11970" x1="105.3" y1="29.8369" x2="73.522" y2="92.0793" gradientUnits="userSpaceOnUse">
<stop stop-color="#FCE3CB"/>
<stop offset="0.806971" stop-color="#F1C69E"/>
</linearGradient>
</defs>
</svg>
