<svg width="161" height="120" viewBox="0 0 161 120" fill="none" xmlns="http://www.w3.org/2000/svg">
<circle cx="79.75" cy="60.2227" r="26.5" fill="url(#paint0_linear_787_8724)"/>
<g filter="url(#filter0_b_787_8724)">
<mask id="path-2-inside-1_787_8724" fill="white">
<path fill-rule="evenodd" clip-rule="evenodd" d="M92.5699 25.472C93.5164 25.472 93.9332 24.2789 93.1926 23.6895L80.0336 13.2175C79.6692 12.9275 79.1527 12.9275 78.7882 13.2175L65.6293 23.6895C64.8886 24.2789 65.3054 25.472 66.252 25.472H67.9109C68.4632 25.472 68.9109 25.9197 68.9109 26.472V42.722C68.9109 43.2743 69.3586 43.722 69.9109 43.722H88.9109C89.4632 43.722 89.9109 43.2743 89.9109 42.722V26.472C89.9109 25.9197 90.3586 25.472 90.9109 25.472H92.5699Z"/>
</mask>
<path fill-rule="evenodd" clip-rule="evenodd" d="M92.5699 25.472C93.5164 25.472 93.9332 24.2789 93.1926 23.6895L80.0336 13.2175C79.6692 12.9275 79.1527 12.9275 78.7882 13.2175L65.6293 23.6895C64.8886 24.2789 65.3054 25.472 66.252 25.472H67.9109C68.4632 25.472 68.9109 25.9197 68.9109 26.472V42.722C68.9109 43.2743 69.3586 43.722 69.9109 43.722H88.9109C89.4632 43.722 89.9109 43.2743 89.9109 42.722V26.472C89.9109 25.9197 90.3586 25.472 90.9109 25.472H92.5699Z" fill="url(#paint1_linear_787_8724)" fill-opacity="0.61"/>
<path d="M93.1926 23.6895L92.8812 24.0808L93.1926 23.6895ZM80.0336 13.2175L80.345 12.8263L80.0336 13.2175ZM78.7882 13.2175L78.4769 12.8263L78.7882 13.2175ZM79.7223 13.6088L92.8812 24.0808L93.5039 23.2983L80.345 12.8263L79.7223 13.6088ZM65.9406 24.0808L79.0996 13.6088L78.4769 12.8263L65.3179 23.2983L65.9406 24.0808ZM67.9109 24.972H66.252V25.972H67.9109V24.972ZM69.4109 42.722V26.472H68.4109V42.722H69.4109ZM88.9109 43.222H69.9109V44.222H88.9109V43.222ZM89.4109 26.472V42.722H90.4109V26.472H89.4109ZM92.5699 24.972H90.9109V25.972H92.5699V24.972ZM90.4109 26.472C90.4109 26.1958 90.6348 25.972 90.9109 25.972V24.972C90.0825 24.972 89.4109 25.6436 89.4109 26.472H90.4109ZM88.9109 44.222C89.7394 44.222 90.4109 43.5504 90.4109 42.722H89.4109C89.4109 42.9981 89.1871 43.222 88.9109 43.222V44.222ZM68.4109 42.722C68.4109 43.5504 69.0825 44.222 69.9109 44.222V43.222C69.6348 43.222 69.4109 42.9981 69.4109 42.722H68.4109ZM67.9109 25.972C68.1871 25.972 68.4109 26.1958 68.4109 26.472H69.4109C69.4109 25.6436 68.7394 24.972 67.9109 24.972V25.972ZM65.3179 23.2983C64.207 24.1824 64.8321 25.972 66.252 25.972V24.972C65.7787 24.972 65.5703 24.3755 65.9406 24.0808L65.3179 23.2983ZM92.8812 24.0808C93.2516 24.3755 93.0432 24.972 92.5699 24.972V25.972C93.9897 25.972 94.6149 24.1824 93.5039 23.2983L92.8812 24.0808ZM80.345 12.8263C79.7983 12.3912 79.0236 12.3912 78.4769 12.8263L79.0996 13.6088C79.2818 13.4637 79.54 13.4637 79.7223 13.6088L80.345 12.8263Z" fill="white" mask="url(#path-2-inside-1_787_8724)"/>
</g>
<g filter="url(#filter1_b_787_8724)">
<mask id="path-4-inside-2_787_8724" fill="white">
<path fill-rule="evenodd" clip-rule="evenodd" d="M65.9301 94.9733C64.9836 94.9733 64.5668 96.1664 65.3074 96.7558L78.4664 107.228C78.8308 107.518 79.3473 107.518 79.7118 107.228L92.8707 96.7558C93.6114 96.1664 93.1946 94.9733 92.248 94.9733L90.5891 94.9733C90.0368 94.9733 89.5891 94.5256 89.5891 93.9733L89.5891 77.7233C89.5891 77.171 89.1414 76.7233 88.5891 76.7233L69.5891 76.7233C69.0368 76.7233 68.5891 77.171 68.5891 77.7233L68.5891 93.9733C68.5891 94.5256 68.1414 94.9733 67.5891 94.9733L65.9301 94.9733Z"/>
</mask>
<path fill-rule="evenodd" clip-rule="evenodd" d="M65.9301 94.9733C64.9836 94.9733 64.5668 96.1664 65.3074 96.7558L78.4664 107.228C78.8308 107.518 79.3473 107.518 79.7118 107.228L92.8707 96.7558C93.6114 96.1664 93.1946 94.9733 92.248 94.9733L90.5891 94.9733C90.0368 94.9733 89.5891 94.5256 89.5891 93.9733L89.5891 77.7233C89.5891 77.171 89.1414 76.7233 88.5891 76.7233L69.5891 76.7233C69.0368 76.7233 68.5891 77.171 68.5891 77.7233L68.5891 93.9733C68.5891 94.5256 68.1414 94.9733 67.5891 94.9733L65.9301 94.9733Z" fill="url(#paint2_linear_787_8724)" fill-opacity="0.61"/>
<path d="M65.3074 96.7558L65.6188 96.3646L65.3074 96.7558ZM78.4664 107.228L78.155 107.619L78.4664 107.228ZM79.7118 107.228L79.4004 106.837L79.7118 107.228ZM78.7777 106.837L65.6188 96.3646L64.9961 97.147L78.155 107.619L78.7777 106.837ZM92.5594 96.3646L79.4004 106.837L80.0231 107.619L93.1821 97.147L92.5594 96.3646ZM90.5891 95.4733L92.248 95.4733L92.248 94.4733L90.5891 94.4733L90.5891 95.4733ZM89.0891 77.7233L89.0891 93.9733L90.0891 93.9733L90.0891 77.7233L89.0891 77.7233ZM69.5891 77.2233L88.5891 77.2233L88.5891 76.2233L69.5891 76.2233L69.5891 77.2233ZM69.0891 93.9733L69.0891 77.7233L68.0891 77.7233L68.0891 93.9733L69.0891 93.9733ZM65.9301 95.4733L67.5891 95.4733L67.5891 94.4733L65.9301 94.4733L65.9301 95.4733ZM68.0891 93.9733C68.0891 94.2495 67.8652 94.4733 67.5891 94.4733L67.5891 95.4733C68.4175 95.4733 69.0891 94.8017 69.0891 93.9733L68.0891 93.9733ZM69.5891 76.2233C68.7606 76.2233 68.0891 76.8949 68.0891 77.7233L69.0891 77.7233C69.0891 77.4472 69.3129 77.2233 69.5891 77.2233L69.5891 76.2233ZM90.0891 77.7233C90.0891 76.8949 89.4175 76.2233 88.5891 76.2233L88.5891 77.2233C88.8652 77.2233 89.0891 77.4472 89.0891 77.7233L90.0891 77.7233ZM90.5891 94.4733C90.3129 94.4733 90.0891 94.2495 90.0891 93.9733L89.0891 93.9733C89.0891 94.8017 89.7606 95.4733 90.5891 95.4733L90.5891 94.4733ZM93.1821 97.147C94.293 96.2629 93.6679 94.4733 92.248 94.4733L92.248 95.4733C92.7213 95.4733 92.9297 96.0698 92.5594 96.3646L93.1821 97.147ZM65.6188 96.3646C65.2484 96.0698 65.4568 95.4733 65.9301 95.4733L65.9301 94.4733C64.5103 94.4733 63.8851 96.2629 64.9961 97.147L65.6188 96.3646ZM78.155 107.619C78.7017 108.054 79.4764 108.054 80.0231 107.619L79.4004 106.837C79.2182 106.982 78.96 106.982 78.7777 106.837L78.155 107.619Z" fill="white" mask="url(#path-4-inside-2_787_8724)"/>
</g>
<g filter="url(#filter2_b_787_8724)">
<mask id="path-6-inside-3_787_8724" fill="white">
<path fill-rule="evenodd" clip-rule="evenodd" d="M114.501 73.0425C114.501 73.9891 115.694 74.4059 116.283 73.6652L126.755 60.5063C127.045 60.1418 127.045 59.6254 126.755 59.2609L116.283 46.1019C115.694 45.3613 114.501 45.7781 114.501 46.7246L114.501 48.3836C114.501 48.9359 114.053 49.3836 113.501 49.3836L97.2507 49.3836C96.6984 49.3836 96.2507 49.8313 96.2507 50.3836L96.2507 69.3836C96.2507 69.9359 96.6984 70.3836 97.2507 70.3836L113.501 70.3836C114.053 70.3836 114.501 70.8313 114.501 71.3836L114.501 73.0425Z"/>
</mask>
<path fill-rule="evenodd" clip-rule="evenodd" d="M114.501 73.0425C114.501 73.9891 115.694 74.4059 116.283 73.6652L126.755 60.5063C127.045 60.1418 127.045 59.6254 126.755 59.2609L116.283 46.1019C115.694 45.3613 114.501 45.7781 114.501 46.7246L114.501 48.3836C114.501 48.9359 114.053 49.3836 113.501 49.3836L97.2507 49.3836C96.6984 49.3836 96.2507 49.8313 96.2507 50.3836L96.2507 69.3836C96.2507 69.9359 96.6984 70.3836 97.2507 70.3836L113.501 70.3836C114.053 70.3836 114.501 70.8313 114.501 71.3836L114.501 73.0425Z" fill="url(#paint3_linear_787_8724)" fill-opacity="0.61"/>
<path d="M114.501 71.3836L115.001 71.3836L114.501 71.3836ZM96.2507 69.3836L96.7507 69.3836L96.2507 69.3836ZM96.2507 50.3836L95.7507 50.3836L96.2507 50.3836ZM116.283 46.1019L115.892 46.4133L116.283 46.1019ZM116.283 73.6652L115.892 73.3539L116.283 73.6652ZM114.501 73.0425L114.001 73.0425L114.501 73.0425ZM126.755 60.5063L126.364 60.1949L126.755 60.5063ZM126.755 59.2609L127.146 58.9495L126.755 59.2609ZM126.364 60.1949L115.892 73.3539L116.674 73.9766L127.146 60.8176L126.364 60.1949ZM115.892 46.4133L126.364 59.5722L127.146 58.9495L116.674 45.7906L115.892 46.4133ZM115.001 48.3836L115.001 46.7246L114.001 46.7246L114.001 48.3836L115.001 48.3836ZM97.2507 49.8836L113.501 49.8836L113.501 48.8836L97.2507 48.8836L97.2507 49.8836ZM96.7507 69.3836L96.7507 50.3836L95.7507 50.3836L95.7507 69.3836L96.7507 69.3836ZM113.501 69.8836L97.2507 69.8836L97.2507 70.8836L113.501 70.8836L113.501 69.8836ZM115.001 73.0425L115.001 71.3836L114.001 71.3836L114.001 73.0425L115.001 73.0425ZM113.501 70.8836C113.777 70.8836 114.001 71.1074 114.001 71.3836L115.001 71.3836C115.001 70.5552 114.329 69.8836 113.501 69.8836L113.501 70.8836ZM95.7507 69.3836C95.7507 70.212 96.4222 70.8836 97.2507 70.8836L97.2507 69.8836C96.9745 69.8836 96.7507 69.6597 96.7507 69.3836L95.7507 69.3836ZM97.2507 48.8836C96.4222 48.8836 95.7507 49.5552 95.7507 50.3836L96.7507 50.3836C96.7507 50.1074 96.9745 49.8836 97.2507 49.8836L97.2507 48.8836ZM114.001 48.3836C114.001 48.6597 113.777 48.8836 113.501 48.8836L113.501 49.8836C114.329 49.8836 115.001 49.212 115.001 48.3836L114.001 48.3836ZM116.674 45.7906C115.79 44.6796 114.001 45.3048 114.001 46.7246L115.001 46.7246C115.001 46.2513 115.597 46.043 115.892 46.4133L116.674 45.7906ZM115.892 73.3539C115.597 73.7242 115.001 73.5158 115.001 73.0425L114.001 73.0425C114.001 74.4624 115.79 75.0876 116.674 73.9766L115.892 73.3539ZM127.146 60.8176C127.581 60.2709 127.581 59.4962 127.146 58.9495L126.364 59.5722C126.509 59.7545 126.509 60.0127 126.364 60.1949L127.146 60.8176Z" fill="white" mask="url(#path-6-inside-3_787_8724)"/>
</g>
<g filter="url(#filter3_b_787_8724)">
<mask id="path-8-inside-4_787_8724" fill="white">
<path fill-rule="evenodd" clip-rule="evenodd" d="M46.722 46.725C46.722 45.7785 45.5289 45.3617 44.9395 46.1023L34.4675 59.2613C34.1775 59.6258 34.1775 60.1422 34.4675 60.5067L44.9395 73.6656C45.5289 74.4063 46.722 73.9895 46.722 73.0429L46.722 71.384C46.722 70.8317 47.1697 70.384 47.722 70.384L63.972 70.384C64.5243 70.384 64.972 69.9363 64.972 69.384L64.972 50.384C64.972 49.8317 64.5243 49.384 63.972 49.384L47.722 49.384C47.1697 49.384 46.722 48.9363 46.722 48.384L46.722 46.725Z"/>
</mask>
<path fill-rule="evenodd" clip-rule="evenodd" d="M46.722 46.725C46.722 45.7785 45.5289 45.3617 44.9395 46.1023L34.4675 59.2613C34.1775 59.6258 34.1775 60.1422 34.4675 60.5067L44.9395 73.6656C45.5289 74.4063 46.722 73.9895 46.722 73.0429L46.722 71.384C46.722 70.8317 47.1697 70.384 47.722 70.384L63.972 70.384C64.5243 70.384 64.972 69.9363 64.972 69.384L64.972 50.384C64.972 49.8317 64.5243 49.384 63.972 49.384L47.722 49.384C47.1697 49.384 46.722 48.9363 46.722 48.384L46.722 46.725Z" fill="url(#paint4_linear_787_8724)" fill-opacity="0.61"/>
<path d="M47.722 49.384L47.722 49.884L47.722 49.384ZM64.972 50.384L65.472 50.384L64.972 50.384ZM63.972 49.384L63.972 48.884L63.972 49.384ZM64.972 69.384L65.472 69.384L64.972 69.384ZM44.9395 73.6656L44.5483 73.977L44.9395 73.6656ZM44.9395 46.1023L45.3308 46.4137L44.9395 46.1023ZM34.4675 59.2613L34.8588 59.5726L34.4675 59.2613ZM34.4675 60.5067L34.8588 60.1953L34.4675 60.5067ZM34.8588 59.5726L45.3308 46.4137L44.5483 45.791L34.0763 58.95L34.8588 59.5726ZM45.3308 73.3543L34.8588 60.1953L34.0763 60.818L44.5483 73.977L45.3308 73.3543ZM46.222 71.384L46.222 73.0429L47.222 73.0429L47.222 71.384L46.222 71.384ZM63.972 69.884L47.722 69.884L47.722 70.884L63.972 70.884L63.972 69.884ZM64.472 50.384L64.472 69.384L65.472 69.384L65.472 50.384L64.472 50.384ZM47.722 49.884L63.972 49.884L63.972 48.884L47.722 48.884L47.722 49.884ZM46.222 46.725L46.222 48.384L47.222 48.384L47.222 46.725L46.222 46.725ZM47.722 48.884C47.4458 48.884 47.222 48.6601 47.222 48.384L46.222 48.384C46.222 49.2124 46.8936 49.884 47.722 49.884L47.722 48.884ZM65.472 50.384C65.472 49.5556 64.8004 48.884 63.972 48.884L63.972 49.884C64.2481 49.884 64.472 50.1079 64.472 50.384L65.472 50.384ZM63.972 70.884C64.8004 70.884 65.472 70.2124 65.472 69.384L64.472 69.384C64.472 69.6601 64.2481 69.884 63.972 69.884L63.972 70.884ZM47.222 71.384C47.222 71.1079 47.4458 70.884 47.722 70.884L47.722 69.884C46.8936 69.884 46.222 70.5556 46.222 71.384L47.222 71.384ZM44.5483 73.977C45.4324 75.088 47.222 74.4628 47.222 73.0429L46.222 73.0429C46.222 73.5162 45.6255 73.7246 45.3308 73.3543L44.5483 73.977ZM45.3308 46.4137C45.6255 46.0434 46.222 46.2518 46.222 46.725L47.222 46.725C47.222 45.3052 45.4324 44.68 44.5483 45.791L45.3308 46.4137ZM34.0763 58.95C33.6412 59.4967 33.6412 60.2713 34.0763 60.818L34.8588 60.1953C34.7137 60.0131 34.7137 59.7549 34.8588 59.5726L34.0763 58.95Z" fill="white" mask="url(#path-8-inside-4_787_8724)"/>
</g>
<defs>
<filter id="filter0_b_787_8724" x="58.25" y="6" width="42.3223" height="44.7222" filterUnits="userSpaceOnUse" color-interpolation-filters="sRGB">
<feFlood flood-opacity="0" result="BackgroundImageFix"/>
<feGaussianBlur in="BackgroundImageFix" stdDeviation="3.5"/>
<feComposite in2="SourceAlpha" operator="in" result="effect1_backgroundBlur_787_8724"/>
<feBlend mode="normal" in="SourceGraphic" in2="effect1_backgroundBlur_787_8724" result="shape"/>
</filter>
<filter id="filter1_b_787_8724" x="57.9277" y="69.7231" width="42.3223" height="44.7222" filterUnits="userSpaceOnUse" color-interpolation-filters="sRGB">
<feFlood flood-opacity="0" result="BackgroundImageFix"/>
<feGaussianBlur in="BackgroundImageFix" stdDeviation="3.5"/>
<feComposite in2="SourceAlpha" operator="in" result="effect1_backgroundBlur_787_8724"/>
<feBlend mode="normal" in="SourceGraphic" in2="effect1_backgroundBlur_787_8724" result="shape"/>
</filter>
<filter id="filter2_b_787_8724" x="89.251" y="38.7227" width="44.7217" height="42.3218" filterUnits="userSpaceOnUse" color-interpolation-filters="sRGB">
<feFlood flood-opacity="0" result="BackgroundImageFix"/>
<feGaussianBlur in="BackgroundImageFix" stdDeviation="3.5"/>
<feComposite in2="SourceAlpha" operator="in" result="effect1_backgroundBlur_787_8724"/>
<feBlend mode="normal" in="SourceGraphic" in2="effect1_backgroundBlur_787_8724" result="shape"/>
</filter>
<filter id="filter3_b_787_8724" x="27.25" y="38.7231" width="44.7217" height="42.3218" filterUnits="userSpaceOnUse" color-interpolation-filters="sRGB">
<feFlood flood-opacity="0" result="BackgroundImageFix"/>
<feGaussianBlur in="BackgroundImageFix" stdDeviation="3.5"/>
<feComposite in2="SourceAlpha" operator="in" result="effect1_backgroundBlur_787_8724"/>
<feBlend mode="normal" in="SourceGraphic" in2="effect1_backgroundBlur_787_8724" result="shape"/>
</filter>
<linearGradient id="paint0_linear_787_8724" x1="70.645" y1="42.7342" x2="87.8868" y2="74.4455" gradientUnits="userSpaceOnUse">
<stop stop-color="#F1A865"/>
<stop offset="1" stop-color="#FF764A"/>
</linearGradient>
<linearGradient id="paint1_linear_787_8724" x1="76.3861" y1="14.6913" x2="89.6848" y2="35.0585" gradientUnits="userSpaceOnUse">
<stop stop-color="#FFEFE0"/>
<stop offset="0.806971" stop-color="#F1C69E"/>
</linearGradient>
<linearGradient id="paint2_linear_787_8724" x1="82.1139" y1="105.754" x2="68.8152" y2="85.3868" gradientUnits="userSpaceOnUse">
<stop stop-color="#EFD3BA"/>
<stop offset="0.806971" stop-color="#F1C69E"/>
</linearGradient>
<linearGradient id="paint3_linear_787_8724" x1="125.281" y1="56.8588" x2="104.914" y2="70.1575" gradientUnits="userSpaceOnUse">
<stop stop-color="#FCE3CB"/>
<stop offset="0.806971" stop-color="#F1C69E"/>
</linearGradient>
<linearGradient id="paint4_linear_787_8724" x1="35.9413" y1="62.9088" x2="56.3085" y2="49.6101" gradientUnits="userSpaceOnUse">
<stop stop-color="#ECD1B8"/>
<stop offset="0.806971" stop-color="#F1C69E"/>
</linearGradient>
</defs>
</svg>
