<svg viewBox="0 0 48 48" fill="none" xmlns="http://www.w3.org/2000/svg">
<path fill-rule="evenodd" clip-rule="evenodd" d="M24 15.6C26.6477 15.6 28.8 13.4467 28.8 10.8C28.8 8.15328 26.6477 6 24 6C21.3523 6 19.2 8.15328 19.2 10.8C19.2 13.4467 21.3523 15.6 24 15.6ZM37.2 15.6C39.8477 15.6 42 13.4467 42 10.8C42 8.15328 39.8477 6 37.2 6C34.5523 6 32.4 8.15328 32.4 10.8C32.4 13.4467 34.5523 15.6 37.2 15.6ZM32.4 24C32.4 21.3533 34.5523 19.2 37.2 19.2C39.8477 19.2 42 21.3533 42 24C42 26.6467 39.8477 28.8 37.2 28.8C34.5523 28.8 32.4 26.6467 32.4 24ZM10.8 32.4C8.15232 32.4 6 34.5533 6 37.2C6 39.8467 8.15232 42 10.8 42C13.4477 42 15.6 39.8467 15.6 37.2C15.6 34.5533 13.4477 32.4 10.8 32.4ZM32.5709 36C33.1066 33.936 34.9699 32.4 37.2 32.4C39.8477 32.4 42 34.5533 42 37.2C42 39.8467 39.8477 42 37.2 42C34.9699 42 33.1066 40.464 32.5699 38.4H28.6301C28.0925 40.464 26.2301 42 24 42C21.3523 42 19.2 39.8467 19.2 37.2C19.2 34.9699 20.736 33.1066 22.8 32.5699V28.6301C21.9749 28.4152 21.2221 27.9841 20.6193 27.3811C20.0164 26.7781 19.5855 26.0252 19.3709 25.2H15.4291C14.8944 27.264 13.031 28.8 10.8 28.8C8.15232 28.8 6 26.6467 6 24C6 21.7699 7.536 19.9066 9.6 19.3709V15.4291C7.536 14.8934 6 13.0291 6 10.8C6 8.15328 8.15232 6 10.8 6C13.4477 6 15.6 8.15328 15.6 10.8C15.6 13.0301 14.064 14.8934 12 15.4301V19.3709C12.8252 19.5855 13.5781 20.0164 14.1811 20.6193C14.7841 21.2221 15.2152 21.9749 15.4301 22.8H19.3709C19.9066 20.736 21.7699 19.2 24 19.2C26.6477 19.2 28.8 21.3533 28.8 24C28.8 26.2301 27.264 28.0934 25.2 28.6301V32.5699C26.0253 32.7846 26.7783 33.2157 27.3813 33.8187C27.9843 34.4217 28.4154 35.1747 28.6301 36H32.5709Z" fill="url(#paint0_linear_1900_113125)" fill-opacity="0.4"/>
<path d="M32.5709 36.5H32.9577L33.0548 36.1256C33.5356 34.2732 35.2068 32.9 37.2 32.9C39.5715 32.9 41.5 34.8294 41.5 37.2C41.5 39.5706 39.5715 41.5 37.2 41.5C35.2068 41.5 33.5355 40.1269 33.0538 38.2742L32.9565 37.9H32.5699H28.6301H28.2436L28.1462 38.274C27.6636 40.127 25.993 41.5 24 41.5C21.6285 41.5 19.7 39.5706 19.7 37.2C19.7 35.2068 21.0732 33.5355 22.9258 33.0538L23.3 32.9565V32.5699V28.6301V28.2436L22.926 28.1462C22.187 27.9538 21.5127 27.5676 20.9729 27.0276C20.433 26.4875 20.047 25.8132 19.8548 25.0741L19.7575 24.7H19.3709H15.4291H15.0421L14.9451 25.0746C14.4653 26.9268 12.7943 28.3 10.8 28.3C8.42853 28.3 6.5 26.3706 6.5 24C6.5 22.0068 7.87316 20.3356 9.72561 19.8548L10.1 19.7577V19.3709V15.4291V15.0423L9.72561 14.9452C7.87322 14.4644 6.5 12.7923 6.5 10.8C6.5 8.42936 8.42853 6.5 10.8 6.5C13.1715 6.5 15.1 8.42936 15.1 10.8C15.1 12.7932 13.7268 14.4645 11.8742 14.9462L11.5 15.0435V15.4301V19.3709V19.7575L11.8741 19.8548C12.6132 20.047 13.2875 20.433 13.8276 20.9729C14.3676 21.5127 14.7538 22.187 14.9462 22.926L15.0436 23.3H15.4301H19.3709H19.7577L19.8548 22.9256C20.3356 21.0732 22.0068 19.7 24 19.7C26.3715 19.7 28.3 21.6294 28.3 24C28.3 25.9932 26.9268 27.6645 25.0742 28.1462L24.7 28.2435V28.6301V32.5699V32.9565L25.0741 33.0538C25.8133 33.2461 26.4877 33.6322 27.0277 34.1723C27.5678 34.7123 27.9539 35.3867 28.1462 36.1259L28.2435 36.5H28.6301H32.5709ZM28.3 10.8C28.3 13.1706 26.3715 15.1 24 15.1C21.6285 15.1 19.7 13.1706 19.7 10.8C19.7 8.42936 21.6285 6.5 24 6.5C26.3715 6.5 28.3 8.42936 28.3 10.8ZM41.5 10.8C41.5 13.1706 39.5715 15.1 37.2 15.1C34.8285 15.1 32.9 13.1706 32.9 10.8C32.9 8.42936 34.8285 6.5 37.2 6.5C39.5715 6.5 41.5 8.42936 41.5 10.8ZM32.9 24C32.9 21.6294 34.8285 19.7 37.2 19.7C39.5715 19.7 41.5 21.6294 41.5 24C41.5 26.3706 39.5715 28.3 37.2 28.3C34.8285 28.3 32.9 26.3706 32.9 24ZM6.5 37.2C6.5 34.8294 8.42853 32.9 10.8 32.9C13.1715 32.9 15.1 34.8294 15.1 37.2C15.1 39.5706 13.1715 41.5 10.8 41.5C8.42853 41.5 6.5 39.5706 6.5 37.2Z" stroke="url(#paint1_radial_1900_113125)" stroke-opacity="0.3"/>
<defs>
<linearGradient id="paint0_linear_1900_113125" x1="6.25" y1="6.25" x2="42.25" y2="42.25" gradientUnits="userSpaceOnUse">
<stop stop-color="white"/>
<stop offset="1" stop-color="white" stop-opacity="0.3"/>
</linearGradient>
<radialGradient id="paint1_radial_1900_113125" cx="0" cy="0" r="1" gradientUnits="userSpaceOnUse" gradientTransform="translate(-14.25 -16.75) rotate(55.9228) scale(61.5731)">
<stop stop-color="white"/>
<stop offset="1" stop-color="white" stop-opacity="0"/>
</radialGradient>
</defs>
</svg>
