<svg viewBox="0 0 36 36" fill="none" xmlns="http://www.w3.org/2000/svg">
<g clip-path="url(#clip0_1867_20192)">
<path d="M18.0001 36.0001C21.5601 36.0001 25.0402 34.9444 28.0003 32.9666C30.9604 30.9887 33.2675 28.1775 34.6299 24.8884C35.9923 21.5994 36.3487 17.9802 35.6542 14.4885C34.9597 10.9968 33.2453 7.78955 30.728 5.27221C28.2106 2.75486 25.0033 1.04053 21.5117 0.345995C18.02 -0.348539 14.4008 0.00792111 11.1118 1.3703C7.82268 2.73268 5.01147 5.03978 3.0336 7.99987C1.05574 10.96 5.44957e-05 14.4401 5.44957e-05 18.0001C-0.00577304 20.3656 0.455833 22.7088 1.35835 24.8953C2.26087 27.0818 3.58652 29.0684 5.25914 30.741C6.93175 32.4137 8.91837 33.7393 11.1049 34.6418C13.2914 35.5443 15.6346 36.006 18.0001 36.0001Z" fill="#2775CA"/>
<path d="M22.9498 20.8507C22.9498 18.2325 21.3756 17.3243 18.2256 16.9496C15.974 16.6502 15.5256 16.0496 15.5256 15.0007C15.5256 13.9518 16.2751 13.2743 17.774 13.2743C19.1256 13.2743 19.8751 13.7243 20.2498 14.8502C20.29 14.9586 20.3626 15.0521 20.4578 15.118C20.5529 15.1838 20.6659 15.2189 20.7816 15.2183H21.9811C22.0505 15.2201 22.1197 15.2078 22.1842 15.182C22.2487 15.1563 22.3074 15.1176 22.3565 15.0685C22.4056 15.0194 22.4443 14.9607 22.47 14.8962C22.4958 14.8317 22.5081 14.7625 22.5063 14.6931V14.6194C22.3614 13.8066 21.9521 13.0643 21.3419 12.508C20.7318 11.9517 19.9549 11.6125 19.1322 11.5431V9.74307C19.1322 9.44362 18.9063 9.21944 18.5316 9.14417H17.4058C17.1063 9.14417 16.8822 9.36835 16.8069 9.74307V11.4743C14.5503 11.782 13.1251 13.2743 13.1251 15.1496C13.1251 17.6254 14.6256 18.6007 17.7756 18.9754C19.8751 19.3502 20.5574 19.7936 20.5574 20.9996C20.5574 22.2056 19.5085 23.0254 18.0833 23.0254C16.1327 23.0254 15.4651 22.2073 15.2327 21.0749C15.2113 20.9484 15.1461 20.8334 15.0487 20.75C14.9512 20.6666 14.8275 20.62 14.6993 20.6183H13.418C13.3486 20.6168 13.2796 20.6293 13.2151 20.6551C13.1507 20.681 13.0922 20.7196 13.0431 20.7687C12.994 20.8178 12.9553 20.8763 12.9295 20.9408C12.9037 21.0052 12.8911 21.0742 12.8927 21.1436V21.2189C13.1938 23.0942 14.3933 24.4442 16.8691 24.8189V26.6189C16.8691 26.9183 17.0933 27.1442 17.468 27.2194H18.5938C18.8933 27.2194 19.1191 26.9936 19.1927 26.6189V24.8189C21.4427 24.4442 22.9433 22.8683 22.9433 20.8442L22.9498 20.8507Z" fill="white"/>
<path d="M14.1727 28.725C12.0147 27.9335 10.1518 26.4985 8.83569 24.6139C7.51962 22.7294 6.81388 20.4862 6.81388 18.1877C6.81388 15.8891 7.51962 13.6459 8.83569 11.7614C10.1518 9.87684 12.0147 8.44182 14.1727 7.65029C14.3167 7.58801 14.4376 7.4823 14.5186 7.34793C14.5996 7.21356 14.6366 7.05724 14.6244 6.90083V5.85029C14.6345 5.71249 14.5943 5.5757 14.5112 5.46527C14.4282 5.35485 14.3079 5.27827 14.1727 5.24974C14.0671 5.23873 13.9611 5.26539 13.8733 5.32502C11.1428 6.19286 8.75943 7.90706 7.06799 10.2195C5.37655 12.5319 4.46484 15.3226 4.46484 18.1877C4.46484 21.0527 5.37655 23.8434 7.06799 26.1558C8.75943 28.4682 11.1428 30.1824 13.8733 31.0503C13.9356 31.0865 14.0057 31.1075 14.0777 31.1114C14.1497 31.1153 14.2216 31.1021 14.2876 31.0729C14.3535 31.0437 14.4116 30.9993 14.457 30.9433C14.5025 30.8873 14.534 30.8214 14.5491 30.7508C14.6244 30.6756 14.6244 30.6003 14.6244 30.4497V29.4008C14.6244 29.175 14.3985 28.8756 14.1727 28.725ZM22.1238 5.32502C22.0613 5.28879 21.9912 5.2679 21.9191 5.26406C21.8469 5.26022 21.775 5.27354 21.709 5.30293C21.643 5.33232 21.585 5.37693 21.5396 5.43311C21.4942 5.48929 21.4628 5.55544 21.448 5.62611C21.3744 5.69974 21.3744 5.77502 21.3744 5.92556V6.97447C21.387 7.12573 21.4341 7.27207 21.5121 7.40228C21.5901 7.53248 21.6969 7.64307 21.8244 7.72556C23.9824 8.51709 25.8453 9.95211 27.1614 11.8366C28.4775 13.7212 29.1832 15.9643 29.1832 18.2629C29.1832 20.5615 28.4775 22.8047 27.1614 24.6892C25.8453 26.5737 23.9824 28.0088 21.8244 28.8003C21.6805 28.8626 21.5598 28.9684 21.4791 29.1028C21.3984 29.2372 21.3618 29.3935 21.3744 29.5497V30.6003C21.3642 30.7379 21.4042 30.8745 21.4869 30.9848C21.5696 31.0952 21.6895 31.172 21.8244 31.2008C21.9299 31.2118 22.036 31.1852 22.1238 31.1256C24.8532 30.2457 27.2332 28.5229 28.9214 26.2048C30.6097 23.8868 31.5192 21.093 31.5192 18.2253C31.5192 15.3576 30.6097 12.5638 28.9214 10.2458C27.2332 7.92772 24.8532 6.20487 22.1238 5.32502Z" fill="white"/>
</g>
<defs>
<clipPath id="clip0_1867_20192">
<rect width="36" height="36" fill="white"/>
</clipPath>
</defs>
</svg>
