<svg width="15" height="15" viewBox="0 0 15 15" fill="none" xmlns="http://www.w3.org/2000/svg">
<mask id="mask0_1433_48433" style="mask-type:alpha" maskUnits="userSpaceOnUse" x="0" y="0" width="15" height="15">
<g clip-path="url(#clip0_1433_48433)">
<g clip-path="url(#clip1_1433_48433)">
<path d="M14.241 4.7C14.066 3.5625 13.541 2.775 12.316 2.6C10.391 2.25 7.41602 2.25 7.41602 2.25C7.41602 2.25 4.44102 2.25 2.51602 2.6C1.29102 2.775 0.678516 3.5625 0.591016 4.7C0.416016 5.8375 0.416016 7.5 0.416016 7.5C0.416016 7.5 0.416016 9.1625 0.591016 10.3C0.766016 11.4375 1.29102 12.225 2.51602 12.4C4.44102 12.75 7.41602 12.75 7.41602 12.75C7.41602 12.75 10.391 12.75 12.316 12.4C13.541 12.1375 14.066 11.4375 14.241 10.3C14.416 9.1625 14.416 7.5 14.416 7.5C14.416 7.5 14.416 5.8375 14.241 4.7ZM5.66602 10.125V4.875L10.041 7.5L5.66602 10.125Z" fill="black"/>
</g>
</g>
</mask>
<g mask="url(#mask0_1433_48433)">
<rect x="0.416016" y="0.5" width="14" height="14" fill="#727272"/>
</g>
<defs>
<clipPath id="clip0_1433_48433">
<rect width="14" height="14" fill="white" transform="translate(0.416016 0.5)"/>
</clipPath>
<clipPath id="clip1_1433_48433">
<rect width="14" height="14" fill="white" transform="translate(0.416016 0.5)"/>
</clipPath>
</defs>
</svg>
