<svg fill="none" xmlns="http://www.w3.org/2000/svg">
<g opacity="0.3">
<rect width="1600" height="900" fill="black"/>
<g opacity="0.6">
<rect x="10" width="80" height="1" fill="white" fill-opacity="0.15"/>
<rect y="90" width="80" height="1" transform="rotate(-90 0 90)" fill="white" fill-opacity="0.15"/>
<rect x="110" width="80" height="1" fill="white" fill-opacity="0.15"/>
<rect x="100" y="90" width="80" height="1" transform="rotate(-90 100 90)" fill="white" fill-opacity="0.15"/>
<rect x="210" width="80" height="1" fill="white" fill-opacity="0.15"/>
<rect x="200" y="90" width="80" height="1" transform="rotate(-90 200 90)" fill="white" fill-opacity="0.15"/>
<rect x="310" width="80" height="1" fill="white" fill-opacity="0.15"/>
<rect x="300" y="90" width="80" height="1" transform="rotate(-90 300 90)" fill="white" fill-opacity="0.15"/>
<rect x="410" width="80" height="1" fill="white" fill-opacity="0.15"/>
<rect x="400" y="90" width="80" height="1" transform="rotate(-90 400 90)" fill="white" fill-opacity="0.15"/>
<rect x="510" width="80" height="1" fill="white" fill-opacity="0.15"/>
<rect x="500" y="90" width="80" height="1" transform="rotate(-90 500 90)" fill="white" fill-opacity="0.15"/>
<rect x="610" width="80" height="1" fill="white" fill-opacity="0.15"/>
<rect x="600" y="90" width="80" height="1" transform="rotate(-90 600 90)" fill="white" fill-opacity="0.15"/>
<rect x="710" width="80" height="1" fill="white" fill-opacity="0.15"/>
<rect x="700" y="90" width="80" height="1" transform="rotate(-90 700 90)" fill="white" fill-opacity="0.15"/>
<rect x="810" width="80" height="1" fill="white" fill-opacity="0.15"/>
<rect x="800" y="90" width="80" height="1" transform="rotate(-90 800 90)" fill="white" fill-opacity="0.15"/>
<rect x="910" width="80" height="1" fill="white" fill-opacity="0.15"/>
<rect x="900" y="90" width="80" height="1" transform="rotate(-90 900 90)" fill="white" fill-opacity="0.15"/>
<rect x="1010" width="80" height="1" fill="white" fill-opacity="0.15"/>
<rect x="1000" y="90" width="80" height="1" transform="rotate(-90 1000 90)" fill="white" fill-opacity="0.15"/>
<rect x="1110" width="80" height="1" fill="white" fill-opacity="0.15"/>
<rect x="1100" y="90" width="80" height="1" transform="rotate(-90 1100 90)" fill="white" fill-opacity="0.15"/>
<rect x="1210" width="80" height="1" fill="white" fill-opacity="0.15"/>
<rect x="1200" y="90" width="80" height="1" transform="rotate(-90 1200 90)" fill="white" fill-opacity="0.15"/>
<rect x="1310" width="80" height="1" fill="white" fill-opacity="0.15"/>
<rect x="1300" y="90" width="80" height="1" transform="rotate(-90 1300 90)" fill="white" fill-opacity="0.15"/>
<rect x="1410" width="80" height="1" fill="white" fill-opacity="0.15"/>
<rect x="1400" y="90" width="80" height="1" transform="rotate(-90 1400 90)" fill="white" fill-opacity="0.15"/>
<rect x="1510" width="80" height="1" fill="white" fill-opacity="0.15"/>
<rect x="1500" y="90" width="80" height="1" transform="rotate(-90 1500 90)" fill="white" fill-opacity="0.15"/>
<rect x="1610" width="80" height="1" fill="white" fill-opacity="0.15"/>
<rect x="1600" y="90" width="80" height="1" transform="rotate(-90 1600 90)" fill="white" fill-opacity="0.15"/>
<rect x="10" y="100" width="80" height="1" fill="white" fill-opacity="0.15"/>
<rect y="190" width="80" height="1" transform="rotate(-90 0 190)" fill="white" fill-opacity="0.15"/>
<rect x="110" y="100" width="80" height="1" fill="white" fill-opacity="0.15"/>
<rect x="100" y="190" width="80" height="1" transform="rotate(-90 100 190)" fill="white" fill-opacity="0.15"/>
<rect x="210" y="100" width="80" height="1" fill="white" fill-opacity="0.15"/>
<rect x="200" y="190" width="80" height="1" transform="rotate(-90 200 190)" fill="white" fill-opacity="0.15"/>
<rect x="310" y="100" width="80" height="1" fill="white" fill-opacity="0.15"/>
<rect x="300" y="190" width="80" height="1" transform="rotate(-90 300 190)" fill="white" fill-opacity="0.15"/>
<rect x="410" y="100" width="80" height="1" fill="white" fill-opacity="0.15"/>
<rect x="400" y="190" width="80" height="1" transform="rotate(-90 400 190)" fill="white" fill-opacity="0.15"/>
<rect x="510" y="100" width="80" height="1" fill="white" fill-opacity="0.15"/>
<rect x="500" y="190" width="80" height="1" transform="rotate(-90 500 190)" fill="white" fill-opacity="0.15"/>
<rect x="610" y="100" width="80" height="1" fill="white" fill-opacity="0.15"/>
<rect x="600" y="190" width="80" height="1" transform="rotate(-90 600 190)" fill="white" fill-opacity="0.15"/>
<rect x="710" y="100" width="80" height="1" fill="white" fill-opacity="0.15"/>
<rect x="700" y="190" width="80" height="1" transform="rotate(-90 700 190)" fill="white" fill-opacity="0.15"/>
<rect x="810" y="100" width="80" height="1" fill="white" fill-opacity="0.15"/>
<rect x="800" y="190" width="80" height="1" transform="rotate(-90 800 190)" fill="white" fill-opacity="0.15"/>
<rect x="910" y="100" width="80" height="1" fill="white" fill-opacity="0.15"/>
<rect x="900" y="190" width="80" height="1" transform="rotate(-90 900 190)" fill="white" fill-opacity="0.15"/>
<rect x="1010" y="100" width="80" height="1" fill="white" fill-opacity="0.15"/>
<rect x="1000" y="190" width="80" height="1" transform="rotate(-90 1000 190)" fill="white" fill-opacity="0.15"/>
<rect x="1110" y="100" width="80" height="1" fill="white" fill-opacity="0.15"/>
<rect x="1100" y="190" width="80" height="1" transform="rotate(-90 1100 190)" fill="white" fill-opacity="0.15"/>
<rect x="1210" y="100" width="80" height="1" fill="white" fill-opacity="0.15"/>
<rect x="1200" y="190" width="80" height="1" transform="rotate(-90 1200 190)" fill="white" fill-opacity="0.15"/>
<rect x="1310" y="100" width="80" height="1" fill="white" fill-opacity="0.15"/>
<rect x="1300" y="190" width="80" height="1" transform="rotate(-90 1300 190)" fill="white" fill-opacity="0.15"/>
<rect x="1410" y="100" width="80" height="1" fill="white" fill-opacity="0.15"/>
<rect x="1400" y="190" width="80" height="1" transform="rotate(-90 1400 190)" fill="white" fill-opacity="0.15"/>
<rect x="1510" y="100" width="80" height="1" fill="white" fill-opacity="0.15"/>
<rect x="1500" y="190" width="80" height="1" transform="rotate(-90 1500 190)" fill="white" fill-opacity="0.15"/>
<rect x="1610" y="100" width="80" height="1" fill="white" fill-opacity="0.15"/>
<rect x="1600" y="190" width="80" height="1" transform="rotate(-90 1600 190)" fill="white" fill-opacity="0.15"/>
<rect x="10" y="200" width="80" height="1" fill="white" fill-opacity="0.15"/>
<rect y="290" width="80" height="1" transform="rotate(-90 0 290)" fill="white" fill-opacity="0.15"/>
<rect x="110" y="200" width="80" height="1" fill="white" fill-opacity="0.15"/>
<rect x="100" y="290" width="80" height="1" transform="rotate(-90 100 290)" fill="white" fill-opacity="0.15"/>
<rect x="210" y="200" width="80" height="1" fill="white" fill-opacity="0.15"/>
<rect x="200" y="290" width="80" height="1" transform="rotate(-90 200 290)" fill="white" fill-opacity="0.15"/>
<rect x="310" y="200" width="80" height="1" fill="white" fill-opacity="0.15"/>
<rect x="300" y="290" width="80" height="1" transform="rotate(-90 300 290)" fill="white" fill-opacity="0.15"/>
<rect x="410" y="200" width="80" height="1" fill="white" fill-opacity="0.15"/>
<rect x="400" y="290" width="80" height="1" transform="rotate(-90 400 290)" fill="white" fill-opacity="0.15"/>
<rect x="510" y="200" width="80" height="1" fill="white" fill-opacity="0.15"/>
<rect x="500" y="290" width="80" height="1" transform="rotate(-90 500 290)" fill="white" fill-opacity="0.15"/>
<rect x="610" y="200" width="80" height="1" fill="white" fill-opacity="0.15"/>
<rect x="600" y="290" width="80" height="1" transform="rotate(-90 600 290)" fill="white" fill-opacity="0.15"/>
<rect x="710" y="200" width="80" height="1" fill="white" fill-opacity="0.15"/>
<rect x="700" y="290" width="80" height="1" transform="rotate(-90 700 290)" fill="white" fill-opacity="0.15"/>
<rect x="810" y="200" width="80" height="1" fill="white" fill-opacity="0.15"/>
<rect x="800" y="290" width="80" height="1" transform="rotate(-90 800 290)" fill="white" fill-opacity="0.15"/>
<rect x="910" y="200" width="80" height="1" fill="white" fill-opacity="0.15"/>
<rect x="900" y="290" width="80" height="1" transform="rotate(-90 900 290)" fill="white" fill-opacity="0.15"/>
<rect x="1010" y="200" width="80" height="1" fill="white" fill-opacity="0.15"/>
<rect x="1000" y="290" width="80" height="1" transform="rotate(-90 1000 290)" fill="white" fill-opacity="0.15"/>
<rect x="1110" y="200" width="80" height="1" fill="white" fill-opacity="0.15"/>
<rect x="1100" y="290" width="80" height="1" transform="rotate(-90 1100 290)" fill="white" fill-opacity="0.15"/>
<rect x="1210" y="200" width="80" height="1" fill="white" fill-opacity="0.15"/>
<rect x="1200" y="290" width="80" height="1" transform="rotate(-90 1200 290)" fill="white" fill-opacity="0.15"/>
<rect x="1310" y="200" width="80" height="1" fill="white" fill-opacity="0.15"/>
<rect x="1300" y="290" width="80" height="1" transform="rotate(-90 1300 290)" fill="white" fill-opacity="0.15"/>
<rect x="1410" y="200" width="80" height="1" fill="white" fill-opacity="0.15"/>
<rect x="1400" y="290" width="80" height="1" transform="rotate(-90 1400 290)" fill="white" fill-opacity="0.15"/>
<rect x="1510" y="200" width="80" height="1" fill="white" fill-opacity="0.15"/>
<rect x="1500" y="290" width="80" height="1" transform="rotate(-90 1500 290)" fill="white" fill-opacity="0.15"/>
<rect x="1610" y="200" width="80" height="1" fill="white" fill-opacity="0.15"/>
<rect x="1600" y="290" width="80" height="1" transform="rotate(-90 1600 290)" fill="white" fill-opacity="0.15"/>
<rect x="10" y="300" width="80" height="1" fill="white" fill-opacity="0.15"/>
<rect y="390" width="80" height="1" transform="rotate(-90 0 390)" fill="white" fill-opacity="0.15"/>
<rect x="110" y="300" width="80" height="1" fill="white" fill-opacity="0.15"/>
<rect x="100" y="390" width="80" height="1" transform="rotate(-90 100 390)" fill="white" fill-opacity="0.15"/>
<rect x="210" y="300" width="80" height="1" fill="white" fill-opacity="0.15"/>
<rect x="200" y="390" width="80" height="1" transform="rotate(-90 200 390)" fill="white" fill-opacity="0.15"/>
<rect x="310" y="300" width="80" height="1" fill="white" fill-opacity="0.15"/>
<rect x="300" y="390" width="80" height="1" transform="rotate(-90 300 390)" fill="white" fill-opacity="0.15"/>
<rect x="410" y="300" width="80" height="1" fill="white" fill-opacity="0.15"/>
<rect x="400" y="390" width="80" height="1" transform="rotate(-90 400 390)" fill="white" fill-opacity="0.15"/>
<rect x="510" y="300" width="80" height="1" fill="white" fill-opacity="0.15"/>
<rect x="500" y="390" width="80" height="1" transform="rotate(-90 500 390)" fill="white" fill-opacity="0.15"/>
<rect x="610" y="300" width="80" height="1" fill="white" fill-opacity="0.15"/>
<rect x="600" y="390" width="80" height="1" transform="rotate(-90 600 390)" fill="white" fill-opacity="0.15"/>
<rect x="710" y="300" width="80" height="1" fill="white" fill-opacity="0.15"/>
<rect x="700" y="390" width="80" height="1" transform="rotate(-90 700 390)" fill="white" fill-opacity="0.15"/>
<rect x="810" y="300" width="80" height="1" fill="white" fill-opacity="0.15"/>
<rect x="800" y="390" width="80" height="1" transform="rotate(-90 800 390)" fill="white" fill-opacity="0.15"/>
<rect x="910" y="300" width="80" height="1" fill="white" fill-opacity="0.15"/>
<rect x="900" y="390" width="80" height="1" transform="rotate(-90 900 390)" fill="white" fill-opacity="0.15"/>
<rect x="1010" y="300" width="80" height="1" fill="white" fill-opacity="0.15"/>
<rect x="1000" y="390" width="80" height="1" transform="rotate(-90 1000 390)" fill="white" fill-opacity="0.15"/>
<rect x="1110" y="300" width="80" height="1" fill="white" fill-opacity="0.15"/>
<rect x="1100" y="390" width="80" height="1" transform="rotate(-90 1100 390)" fill="white" fill-opacity="0.15"/>
<rect x="1210" y="300" width="80" height="1" fill="white" fill-opacity="0.15"/>
<rect x="1200" y="390" width="80" height="1" transform="rotate(-90 1200 390)" fill="white" fill-opacity="0.15"/>
<rect x="1310" y="300" width="80" height="1" fill="white" fill-opacity="0.15"/>
<rect x="1300" y="390" width="80" height="1" transform="rotate(-90 1300 390)" fill="white" fill-opacity="0.15"/>
<rect x="1410" y="300" width="80" height="1" fill="white" fill-opacity="0.15"/>
<rect x="1400" y="390" width="80" height="1" transform="rotate(-90 1400 390)" fill="white" fill-opacity="0.15"/>
<rect x="1510" y="300" width="80" height="1" fill="white" fill-opacity="0.15"/>
<rect x="1500" y="390" width="80" height="1" transform="rotate(-90 1500 390)" fill="white" fill-opacity="0.15"/>
<rect x="1610" y="300" width="80" height="1" fill="white" fill-opacity="0.15"/>
<rect x="1600" y="390" width="80" height="1" transform="rotate(-90 1600 390)" fill="white" fill-opacity="0.15"/>
<rect x="10" y="400" width="80" height="1" fill="white" fill-opacity="0.15"/>
<rect y="490" width="80" height="1" transform="rotate(-90 0 490)" fill="white" fill-opacity="0.15"/>
<rect x="110" y="400" width="80" height="1" fill="white" fill-opacity="0.15"/>
<rect x="100" y="490" width="80" height="1" transform="rotate(-90 100 490)" fill="white" fill-opacity="0.15"/>
<rect x="210" y="400" width="80" height="1" fill="white" fill-opacity="0.15"/>
<rect x="200" y="490" width="80" height="1" transform="rotate(-90 200 490)" fill="white" fill-opacity="0.15"/>
<rect x="310" y="400" width="80" height="1" fill="white" fill-opacity="0.15"/>
<rect x="300" y="490" width="80" height="1" transform="rotate(-90 300 490)" fill="white" fill-opacity="0.15"/>
<rect x="410" y="400" width="80" height="1" fill="white" fill-opacity="0.15"/>
<rect x="400" y="490" width="80" height="1" transform="rotate(-90 400 490)" fill="white" fill-opacity="0.15"/>
<rect x="510" y="400" width="80" height="1" fill="white" fill-opacity="0.15"/>
<rect x="500" y="490" width="80" height="1" transform="rotate(-90 500 490)" fill="white" fill-opacity="0.15"/>
<rect x="610" y="400" width="80" height="1" fill="white" fill-opacity="0.15"/>
<rect x="600" y="490" width="80" height="1" transform="rotate(-90 600 490)" fill="white" fill-opacity="0.15"/>
<rect x="710" y="400" width="80" height="1" fill="white" fill-opacity="0.15"/>
<rect x="700" y="490" width="80" height="1" transform="rotate(-90 700 490)" fill="white" fill-opacity="0.15"/>
<rect x="810" y="400" width="80" height="1" fill="white" fill-opacity="0.15"/>
<rect x="800" y="490" width="80" height="1" transform="rotate(-90 800 490)" fill="white" fill-opacity="0.15"/>
<rect x="910" y="400" width="80" height="1" fill="white" fill-opacity="0.15"/>
<rect x="900" y="490" width="80" height="1" transform="rotate(-90 900 490)" fill="white" fill-opacity="0.15"/>
<rect x="1010" y="400" width="80" height="1" fill="white" fill-opacity="0.15"/>
<rect x="1000" y="490" width="80" height="1" transform="rotate(-90 1000 490)" fill="white" fill-opacity="0.15"/>
<rect x="1110" y="400" width="80" height="1" fill="white" fill-opacity="0.15"/>
<rect x="1100" y="490" width="80" height="1" transform="rotate(-90 1100 490)" fill="white" fill-opacity="0.15"/>
<rect x="1210" y="400" width="80" height="1" fill="white" fill-opacity="0.15"/>
<rect x="1200" y="490" width="80" height="1" transform="rotate(-90 1200 490)" fill="white" fill-opacity="0.15"/>
<rect x="1310" y="400" width="80" height="1" fill="white" fill-opacity="0.15"/>
<rect x="1300" y="490" width="80" height="1" transform="rotate(-90 1300 490)" fill="white" fill-opacity="0.15"/>
<rect x="1410" y="400" width="80" height="1" fill="white" fill-opacity="0.15"/>
<rect x="1400" y="490" width="80" height="1" transform="rotate(-90 1400 490)" fill="white" fill-opacity="0.15"/>
<rect x="1510" y="400" width="80" height="1" fill="white" fill-opacity="0.15"/>
<rect x="1500" y="490" width="80" height="1" transform="rotate(-90 1500 490)" fill="white" fill-opacity="0.15"/>
<rect x="1610" y="400" width="80" height="1" fill="white" fill-opacity="0.15"/>
<rect x="1600" y="490" width="80" height="1" transform="rotate(-90 1600 490)" fill="white" fill-opacity="0.15"/>
<rect x="10" y="500" width="80" height="1" fill="white" fill-opacity="0.15"/>
<rect y="590" width="80" height="1" transform="rotate(-90 0 590)" fill="white" fill-opacity="0.15"/>
<rect x="110" y="500" width="80" height="1" fill="white" fill-opacity="0.15"/>
<rect x="100" y="590" width="80" height="1" transform="rotate(-90 100 590)" fill="white" fill-opacity="0.15"/>
<rect x="210" y="500" width="80" height="1" fill="white" fill-opacity="0.15"/>
<rect x="200" y="590" width="80" height="1" transform="rotate(-90 200 590)" fill="white" fill-opacity="0.15"/>
<rect x="310" y="500" width="80" height="1" fill="white" fill-opacity="0.15"/>
<rect x="300" y="590" width="80" height="1" transform="rotate(-90 300 590)" fill="white" fill-opacity="0.15"/>
<rect x="410" y="500" width="80" height="1" fill="white" fill-opacity="0.15"/>
<rect x="400" y="590" width="80" height="1" transform="rotate(-90 400 590)" fill="white" fill-opacity="0.15"/>
<rect x="510" y="500" width="80" height="1" fill="white" fill-opacity="0.15"/>
<rect x="500" y="590" width="80" height="1" transform="rotate(-90 500 590)" fill="white" fill-opacity="0.15"/>
<rect x="610" y="500" width="80" height="1" fill="white" fill-opacity="0.15"/>
<rect x="600" y="590" width="80" height="1" transform="rotate(-90 600 590)" fill="white" fill-opacity="0.15"/>
<rect x="710" y="500" width="80" height="1" fill="white" fill-opacity="0.15"/>
<rect x="700" y="590" width="80" height="1" transform="rotate(-90 700 590)" fill="white" fill-opacity="0.15"/>
<rect x="810" y="500" width="80" height="1" fill="white" fill-opacity="0.15"/>
<rect x="800" y="590" width="80" height="1" transform="rotate(-90 800 590)" fill="white" fill-opacity="0.15"/>
<rect x="910" y="500" width="80" height="1" fill="white" fill-opacity="0.15"/>
<rect x="900" y="590" width="80" height="1" transform="rotate(-90 900 590)" fill="white" fill-opacity="0.15"/>
<rect x="1010" y="500" width="80" height="1" fill="white" fill-opacity="0.15"/>
<rect x="1000" y="590" width="80" height="1" transform="rotate(-90 1000 590)" fill="white" fill-opacity="0.15"/>
<rect x="1110" y="500" width="80" height="1" fill="white" fill-opacity="0.15"/>
<rect x="1100" y="590" width="80" height="1" transform="rotate(-90 1100 590)" fill="white" fill-opacity="0.15"/>
<rect x="1210" y="500" width="80" height="1" fill="white" fill-opacity="0.15"/>
<rect x="1200" y="590" width="80" height="1" transform="rotate(-90 1200 590)" fill="white" fill-opacity="0.15"/>
<rect x="1310" y="500" width="80" height="1" fill="white" fill-opacity="0.15"/>
<rect x="1300" y="590" width="80" height="1" transform="rotate(-90 1300 590)" fill="white" fill-opacity="0.15"/>
<rect x="1410" y="500" width="80" height="1" fill="white" fill-opacity="0.15"/>
<rect x="1400" y="590" width="80" height="1" transform="rotate(-90 1400 590)" fill="white" fill-opacity="0.15"/>
<rect x="1510" y="500" width="80" height="1" fill="white" fill-opacity="0.15"/>
<rect x="1500" y="590" width="80" height="1" transform="rotate(-90 1500 590)" fill="white" fill-opacity="0.15"/>
<rect x="1610" y="500" width="80" height="1" fill="white" fill-opacity="0.15"/>
<rect x="1600" y="590" width="80" height="1" transform="rotate(-90 1600 590)" fill="white" fill-opacity="0.15"/>
<rect x="10" y="600" width="80" height="1" fill="white" fill-opacity="0.15"/>
<rect y="690" width="80" height="1" transform="rotate(-90 0 690)" fill="white" fill-opacity="0.15"/>
<rect x="110" y="600" width="80" height="1" fill="white" fill-opacity="0.15"/>
<rect x="100" y="690" width="80" height="1" transform="rotate(-90 100 690)" fill="white" fill-opacity="0.15"/>
<rect x="210" y="600" width="80" height="1" fill="white" fill-opacity="0.15"/>
<rect x="200" y="690" width="80" height="1" transform="rotate(-90 200 690)" fill="white" fill-opacity="0.15"/>
<rect x="310" y="600" width="80" height="1" fill="white" fill-opacity="0.15"/>
<rect x="300" y="690" width="80" height="1" transform="rotate(-90 300 690)" fill="white" fill-opacity="0.15"/>
<rect x="410" y="600" width="80" height="1" fill="white" fill-opacity="0.15"/>
<rect x="400" y="690" width="80" height="1" transform="rotate(-90 400 690)" fill="white" fill-opacity="0.15"/>
<rect x="510" y="600" width="80" height="1" fill="white" fill-opacity="0.15"/>
<rect x="500" y="690" width="80" height="1" transform="rotate(-90 500 690)" fill="white" fill-opacity="0.15"/>
<rect x="610" y="600" width="80" height="1" fill="white" fill-opacity="0.15"/>
<rect x="600" y="690" width="80" height="1" transform="rotate(-90 600 690)" fill="white" fill-opacity="0.15"/>
<rect x="710" y="600" width="80" height="1" fill="white" fill-opacity="0.15"/>
<rect x="700" y="690" width="80" height="1" transform="rotate(-90 700 690)" fill="white" fill-opacity="0.15"/>
<rect x="810" y="600" width="80" height="1" fill="white" fill-opacity="0.15"/>
<rect x="800" y="690" width="80" height="1" transform="rotate(-90 800 690)" fill="white" fill-opacity="0.15"/>
<rect x="910" y="600" width="80" height="1" fill="white" fill-opacity="0.15"/>
<rect x="900" y="690" width="80" height="1" transform="rotate(-90 900 690)" fill="white" fill-opacity="0.15"/>
<rect x="1010" y="600" width="80" height="1" fill="white" fill-opacity="0.15"/>
<rect x="1000" y="690" width="80" height="1" transform="rotate(-90 1000 690)" fill="white" fill-opacity="0.15"/>
<rect x="1110" y="600" width="80" height="1" fill="white" fill-opacity="0.15"/>
<rect x="1100" y="690" width="80" height="1" transform="rotate(-90 1100 690)" fill="white" fill-opacity="0.15"/>
<rect x="1210" y="600" width="80" height="1" fill="white" fill-opacity="0.15"/>
<rect x="1200" y="690" width="80" height="1" transform="rotate(-90 1200 690)" fill="white" fill-opacity="0.15"/>
<rect x="1310" y="600" width="80" height="1" fill="white" fill-opacity="0.15"/>
<rect x="1300" y="690" width="80" height="1" transform="rotate(-90 1300 690)" fill="white" fill-opacity="0.15"/>
<rect x="1410" y="600" width="80" height="1" fill="white" fill-opacity="0.15"/>
<rect x="1400" y="690" width="80" height="1" transform="rotate(-90 1400 690)" fill="white" fill-opacity="0.15"/>
<rect x="1510" y="600" width="80" height="1" fill="white" fill-opacity="0.15"/>
<rect x="1500" y="690" width="80" height="1" transform="rotate(-90 1500 690)" fill="white" fill-opacity="0.15"/>
<rect x="1610" y="600" width="80" height="1" fill="white" fill-opacity="0.15"/>
<rect x="1600" y="690" width="80" height="1" transform="rotate(-90 1600 690)" fill="white" fill-opacity="0.15"/>
<rect x="10" y="700" width="80" height="1" fill="white" fill-opacity="0.15"/>
<rect y="790" width="80" height="1" transform="rotate(-90 0 790)" fill="white" fill-opacity="0.15"/>
<rect x="110" y="700" width="80" height="1" fill="white" fill-opacity="0.15"/>
<rect x="100" y="790" width="80" height="1" transform="rotate(-90 100 790)" fill="white" fill-opacity="0.15"/>
<rect x="210" y="700" width="80" height="1" fill="white" fill-opacity="0.15"/>
<rect x="200" y="790" width="80" height="1" transform="rotate(-90 200 790)" fill="white" fill-opacity="0.15"/>
<rect x="310" y="700" width="80" height="1" fill="white" fill-opacity="0.15"/>
<rect x="300" y="790" width="80" height="1" transform="rotate(-90 300 790)" fill="white" fill-opacity="0.15"/>
<rect x="410" y="700" width="80" height="1" fill="white" fill-opacity="0.15"/>
<rect x="400" y="790" width="80" height="1" transform="rotate(-90 400 790)" fill="white" fill-opacity="0.15"/>
<rect x="510" y="700" width="80" height="1" fill="white" fill-opacity="0.15"/>
<rect x="500" y="790" width="80" height="1" transform="rotate(-90 500 790)" fill="white" fill-opacity="0.15"/>
<rect x="610" y="700" width="80" height="1" fill="white" fill-opacity="0.15"/>
<rect x="600" y="790" width="80" height="1" transform="rotate(-90 600 790)" fill="white" fill-opacity="0.15"/>
<rect x="710" y="700" width="80" height="1" fill="white" fill-opacity="0.15"/>
<rect x="700" y="790" width="80" height="1" transform="rotate(-90 700 790)" fill="white" fill-opacity="0.15"/>
<rect x="810" y="700" width="80" height="1" fill="white" fill-opacity="0.15"/>
<rect x="800" y="790" width="80" height="1" transform="rotate(-90 800 790)" fill="white" fill-opacity="0.15"/>
<rect x="910" y="700" width="80" height="1" fill="white" fill-opacity="0.15"/>
<rect x="900" y="790" width="80" height="1" transform="rotate(-90 900 790)" fill="white" fill-opacity="0.15"/>
<rect x="1010" y="700" width="80" height="1" fill="white" fill-opacity="0.15"/>
<rect x="1000" y="790" width="80" height="1" transform="rotate(-90 1000 790)" fill="white" fill-opacity="0.15"/>
<rect x="1110" y="700" width="80" height="1" fill="white" fill-opacity="0.15"/>
<rect x="1100" y="790" width="80" height="1" transform="rotate(-90 1100 790)" fill="white" fill-opacity="0.15"/>
<rect x="1210" y="700" width="80" height="1" fill="white" fill-opacity="0.15"/>
<rect x="1200" y="790" width="80" height="1" transform="rotate(-90 1200 790)" fill="white" fill-opacity="0.15"/>
<rect x="1310" y="700" width="80" height="1" fill="white" fill-opacity="0.15"/>
<rect x="1300" y="790" width="80" height="1" transform="rotate(-90 1300 790)" fill="white" fill-opacity="0.15"/>
<rect x="1410" y="700" width="80" height="1" fill="white" fill-opacity="0.15"/>
<rect x="1400" y="790" width="80" height="1" transform="rotate(-90 1400 790)" fill="white" fill-opacity="0.15"/>
<rect x="1510" y="700" width="80" height="1" fill="white" fill-opacity="0.15"/>
<rect x="1500" y="790" width="80" height="1" transform="rotate(-90 1500 790)" fill="white" fill-opacity="0.15"/>
<rect x="1610" y="700" width="80" height="1" fill="white" fill-opacity="0.15"/>
<rect x="1600" y="790" width="80" height="1" transform="rotate(-90 1600 790)" fill="white" fill-opacity="0.15"/>
<rect x="10" y="800" width="80" height="1" fill="white" fill-opacity="0.15"/>
<rect y="890" width="80" height="1" transform="rotate(-90 0 890)" fill="white" fill-opacity="0.15"/>
<rect x="110" y="800" width="80" height="1" fill="white" fill-opacity="0.15"/>
<rect x="100" y="890" width="80" height="1" transform="rotate(-90 100 890)" fill="white" fill-opacity="0.15"/>
<rect x="210" y="800" width="80" height="1" fill="white" fill-opacity="0.15"/>
<rect x="200" y="890" width="80" height="1" transform="rotate(-90 200 890)" fill="white" fill-opacity="0.15"/>
<rect x="310" y="800" width="80" height="1" fill="white" fill-opacity="0.15"/>
<rect x="300" y="890" width="80" height="1" transform="rotate(-90 300 890)" fill="white" fill-opacity="0.15"/>
<rect x="410" y="800" width="80" height="1" fill="white" fill-opacity="0.15"/>
<rect x="400" y="890" width="80" height="1" transform="rotate(-90 400 890)" fill="white" fill-opacity="0.15"/>
<rect x="510" y="800" width="80" height="1" fill="white" fill-opacity="0.15"/>
<rect x="500" y="890" width="80" height="1" transform="rotate(-90 500 890)" fill="white" fill-opacity="0.15"/>
<rect x="610" y="800" width="80" height="1" fill="white" fill-opacity="0.15"/>
<rect x="600" y="890" width="80" height="1" transform="rotate(-90 600 890)" fill="white" fill-opacity="0.15"/>
<rect x="710" y="800" width="80" height="1" fill="white" fill-opacity="0.15"/>
<rect x="700" y="890" width="80" height="1" transform="rotate(-90 700 890)" fill="white" fill-opacity="0.15"/>
<rect x="810" y="800" width="80" height="1" fill="white" fill-opacity="0.15"/>
<rect x="800" y="890" width="80" height="1" transform="rotate(-90 800 890)" fill="white" fill-opacity="0.15"/>
<rect x="910" y="800" width="80" height="1" fill="white" fill-opacity="0.15"/>
<rect x="900" y="890" width="80" height="1" transform="rotate(-90 900 890)" fill="white" fill-opacity="0.15"/>
<rect x="1010" y="800" width="80" height="1" fill="white" fill-opacity="0.15"/>
<rect x="1000" y="890" width="80" height="1" transform="rotate(-90 1000 890)" fill="white" fill-opacity="0.15"/>
<rect x="1110" y="800" width="80" height="1" fill="white" fill-opacity="0.15"/>
<rect x="1100" y="890" width="80" height="1" transform="rotate(-90 1100 890)" fill="white" fill-opacity="0.15"/>
<rect x="1210" y="800" width="80" height="1" fill="white" fill-opacity="0.15"/>
<rect x="1200" y="890" width="80" height="1" transform="rotate(-90 1200 890)" fill="white" fill-opacity="0.15"/>
<rect x="1310" y="800" width="80" height="1" fill="white" fill-opacity="0.15"/>
<rect x="1300" y="890" width="80" height="1" transform="rotate(-90 1300 890)" fill="white" fill-opacity="0.15"/>
<rect x="1410" y="800" width="80" height="1" fill="white" fill-opacity="0.15"/>
<rect x="1400" y="890" width="80" height="1" transform="rotate(-90 1400 890)" fill="white" fill-opacity="0.15"/>
<rect x="1510" y="800" width="80" height="1" fill="white" fill-opacity="0.15"/>
<rect x="1500" y="890" width="80" height="1" transform="rotate(-90 1500 890)" fill="white" fill-opacity="0.15"/>
<rect x="1610" y="800" width="80" height="1" fill="white" fill-opacity="0.15"/>
<rect x="1600" y="890" width="80" height="1" transform="rotate(-90 1600 890)" fill="white" fill-opacity="0.15"/>
</g>
<g clip-path="url(#clip0_1433_47771)">
<circle cx="1150" cy="850" r="44.8529" transform="rotate(-90 1150 850)" stroke="black" stroke-width="10.2941"/>
<path d="M1149.65 857.354L1149.65 908.824" stroke="#6349FF" stroke-width="4.41177" stroke-linejoin="bevel"/>
<path d="M1157.35 849.645L1208.82 849.645" stroke="#6349FF" stroke-width="4.41177" stroke-linejoin="bevel"/>
<path d="M1145.05 844.548L1108.66 808.152" stroke="#6349FF" stroke-width="4.41177" stroke-linejoin="bevel"/>
</g>
<g clip-path="url(#clip1_1433_47771)">
<circle cx="50" cy="50" r="44.8529" transform="matrix(1 1.76666e-07 1.76666e-07 -1 1200 100)" stroke="black" stroke-width="10.2941"/>
<path d="M1257.35 50.3535L1308.82 50.3535" stroke="#6349FF" stroke-width="4.41177" stroke-linejoin="bevel"/>
<path d="M1242.65 35.6465L1191.18 35.6465" stroke="#6349FF" stroke-width="4.41177" stroke-linejoin="bevel"/>
<path d="M1242.65 20.9414L1191.18 20.9414" stroke="#6349FF" stroke-width="4.41177" stroke-linejoin="bevel"/>
<path d="M1242.65 7.70509L1191.18 7.70508" stroke="#6349FF" stroke-width="4.41177" stroke-linejoin="bevel"/>
<path d="M1257.35 35.6484L1308.82 35.6484" stroke="#6349FF" stroke-width="4.41177" stroke-linejoin="bevel"/>
</g>
<g clip-path="url(#clip2_1433_47771)">
<circle cx="650" cy="850" r="44.8529" stroke="black" stroke-width="10.2941"/>
<path d="M657.354 849.648L708.824 849.648" stroke="#6349FF" stroke-width="4.41177" stroke-linejoin="bevel"/>
<path d="M642.646 849.648L591.176 849.648" stroke="#6349FF" stroke-width="4.41177" stroke-linejoin="bevel"/>
<path d="M642.646 864.352L591.176 864.352" stroke="#6349FF" stroke-width="4.41177" stroke-linejoin="bevel"/>
<path d="M642.646 879.059L591.176 879.059" stroke="#6349FF" stroke-width="4.41177" stroke-linejoin="bevel"/>
<path d="M642.646 892.293L591.176 892.293" stroke="#6349FF" stroke-width="4.41177" stroke-linejoin="bevel"/>
<path d="M657.354 864.352L708.824 864.352" stroke="#6349FF" stroke-width="4.41177" stroke-linejoin="bevel"/>
<path d="M657.354 879.059L708.824 879.059" stroke="#6349FF" stroke-width="4.41177" stroke-linejoin="bevel"/>
<path d="M657.354 892.293L708.824 892.293" stroke="#6349FF" stroke-width="4.41177" stroke-linejoin="bevel"/>
</g>
<g clip-path="url(#clip3_1433_47771)">
<circle cx="1550" cy="550" r="44.8529" stroke="black" stroke-width="10.2941"/>
<path d="M1557.35 549.648L1608.82 549.648" stroke="#6349FF" stroke-width="4.41177" stroke-linejoin="bevel"/>
<path d="M1542.65 549.648L1491.18 549.648" stroke="#6349FF" stroke-width="4.41177" stroke-linejoin="bevel"/>
</g>
<g clip-path="url(#clip4_1433_47771)">
<circle cx="250" cy="50" r="44.8529" stroke="black" stroke-width="10.2941"/>
<path d="M257.354 49.6484L308.824 49.6484" stroke="#6349FF" stroke-width="4.41177" stroke-linejoin="bevel"/>
<path d="M242.646 49.6484L191.176 49.6484" stroke="#6349FF" stroke-width="4.41177" stroke-linejoin="bevel"/>
<path d="M250.383 42.7225L250.383 -8.74805" stroke="#6349FF" stroke-width="4.41177" stroke-linejoin="bevel"/>
<path d="M250.354 57.3536L250.354 108.824" stroke="#6349FF" stroke-width="4.41177" stroke-linejoin="bevel"/>
</g>
<g clip-path="url(#clip5_1433_47771)">
<circle cx="50" cy="50" r="44.8529" transform="matrix(-1 -1.82007e-09 -1.82007e-09 1 1300 800)" stroke="black" stroke-width="10.2941"/>
<path d="M1242.65 849.648L1191.18 849.648" stroke="#6349FF" stroke-width="4.41177" stroke-linejoin="bevel"/>
<path d="M1257.35 864.352L1308.82 864.352" stroke="#6349FF" stroke-width="4.41177" stroke-linejoin="bevel"/>
<path d="M1257.35 879.059L1308.82 879.059" stroke="#6349FF" stroke-width="4.41177" stroke-linejoin="bevel"/>
<path d="M1257.35 821.707L1308.82 821.707" stroke="#6349FF" stroke-width="4.41177" stroke-linejoin="bevel"/>
<path d="M1257.35 892.293L1308.82 892.293" stroke="#6349FF" stroke-width="4.41177" stroke-linejoin="bevel"/>
<path d="M1257.35 834.941L1308.82 834.941" stroke="#6349FF" stroke-width="4.41177" stroke-linejoin="bevel"/>
<path d="M1242.65 879.059L1191.18 879.059" stroke="#6349FF" stroke-width="4.41177" stroke-linejoin="bevel"/>
<path d="M1242.65 892.293L1191.18 892.293" stroke="#6349FF" stroke-width="4.41177" stroke-linejoin="bevel"/>
</g>
<g clip-path="url(#clip6_1433_47771)">
<circle cx="50" cy="50" r="44.8529" transform="matrix(-1 -1.82007e-09 -1.82007e-09 1 1100 700)" stroke="black" stroke-width="10.2941"/>
<path d="M1042.65 749.648L991.176 749.648" stroke="#6349FF" stroke-width="4.41177" stroke-linejoin="bevel"/>
<path d="M1057.35 764.352L1108.82 764.352" stroke="#6349FF" stroke-width="4.41177" stroke-linejoin="bevel"/>
<path d="M1057.35 779.059L1108.82 779.059" stroke="#6349FF" stroke-width="4.41177" stroke-linejoin="bevel"/>
<path d="M1057.35 792.293L1108.82 792.293" stroke="#6349FF" stroke-width="4.41177" stroke-linejoin="bevel"/>
<path d="M1042.65 764.352L991.176 764.352" stroke="#6349FF" stroke-width="4.41177" stroke-linejoin="bevel"/>
<path d="M1042.65 779.059L991.176 779.059" stroke="#6349FF" stroke-width="4.41177" stroke-linejoin="bevel"/>
<path d="M1042.65 792.293L991.176 792.293" stroke="#6349FF" stroke-width="4.41177" stroke-linejoin="bevel"/>
</g>
<g clip-path="url(#clip7_1433_47771)">
<circle cx="50" cy="50" r="44.8529" transform="matrix(4.18913e-08 1 1 -4.18913e-08 1100 0)" stroke="black" stroke-width="10.2941"/>
<path d="M1150.35 42.6464L1150.35 -8.82422" stroke="#6349FF" stroke-width="4.41177" stroke-linejoin="bevel"/>
<path d="M1142.65 50.3535L1091.18 50.3535" stroke="#6349FF" stroke-width="4.41177" stroke-linejoin="bevel"/>
<path d="M1164.35 42.6483L1164.35 -8.82227" stroke="#6349FF" stroke-width="4.41177" stroke-linejoin="bevel"/>
<path d="M1179.06 42.6464L1179.06 -8.82422" stroke="#6349FF" stroke-width="4.41177" stroke-linejoin="bevel"/>
<path d="M1192.29 42.6483L1192.29 -8.82227" stroke="#6349FF" stroke-width="4.41177" stroke-linejoin="bevel"/>
</g>
<g clip-path="url(#clip8_1433_47771)">
<circle cx="50" cy="50" r="44.8529" transform="matrix(1 1.82007e-09 1.82007e-09 -1 400 500)" stroke="black" stroke-width="10.2941"/>
<path d="M457.354 450.352L508.824 450.352" stroke="#6349FF" stroke-width="4.41177" stroke-linejoin="bevel"/>
<path d="M450.354 457.354L450.354 508.824" stroke="#6349FF" stroke-width="4.41177" stroke-linejoin="bevel"/>
<path d="M442.646 435.648L391.176 435.648" stroke="#6349FF" stroke-width="4.41177" stroke-linejoin="bevel"/>
<path d="M442.646 420.941L391.176 420.941" stroke="#6349FF" stroke-width="4.41177" stroke-linejoin="bevel"/>
<path d="M442.646 407.707L391.176 407.707" stroke="#6349FF" stroke-width="4.41177" stroke-linejoin="bevel"/>
<path d="M455.45 454.949L491.846 491.344" stroke="#6349FF" stroke-width="4.41177" stroke-linejoin="bevel"/>
</g>
<g clip-path="url(#clip9_1433_47771)">
<circle cx="128" cy="850" r="44.8529" stroke="black" stroke-width="10.2941"/>
<path d="M135.354 849.648L186.824 849.648" stroke="#6349FF" stroke-width="4.41177" stroke-linejoin="bevel"/>
<path d="M128.352 842.646L128.352 791.176" stroke="#6349FF" stroke-width="4.41177" stroke-linejoin="bevel"/>
<path d="M120.646 879.059L69.1758 879.059" stroke="#6349FF" stroke-width="4.41177" stroke-linejoin="bevel"/>
<path d="M120.646 892.297L69.1758 892.297" stroke="#6349FF" stroke-width="4.41177" stroke-linejoin="bevel"/>
</g>
<g clip-path="url(#clip10_1433_47771)">
<circle cx="50" cy="50" r="44.8529" transform="matrix(4.55315e-08 -1 -1 -4.55315e-08 1500 700)" stroke="black" stroke-width="10.2941"/>
<path d="M1457.35 649.648L1508.82 649.648" stroke="#6349FF" stroke-width="4.41177" stroke-linejoin="bevel"/>
<path d="M1444.55 645.051L1408.15 608.656" stroke="#6349FF" stroke-width="4.41177" stroke-linejoin="bevel"/>
</g>
<g clip-path="url(#clip11_1433_47771)">
<circle cx="50" cy="50" r="44.8529" transform="matrix(4.55315e-08 -1 -1 -4.55315e-08 1000 800)" stroke="black" stroke-width="10.2941"/>
<path d="M957.354 749.648L1008.82 749.648" stroke="#6349FF" stroke-width="4.41177" stroke-linejoin="bevel"/>
<path d="M944.549 745.051L908.154 708.656" stroke="#6349FF" stroke-width="4.41177" stroke-linejoin="bevel"/>
</g>
<g clip-path="url(#clip12_1433_47771)">
<circle cx="50" cy="50" r="44.8529" transform="matrix(-4.55315e-08 1 1 4.55315e-08 1500 600)" stroke="black" stroke-width="10.2941"/>
<path d="M1542.65 650.352L1491.18 650.352" stroke="#6349FF" stroke-width="4.41177" stroke-linejoin="bevel"/>
<path d="M1555.45 654.949L1591.85 691.344" stroke="#6349FF" stroke-width="4.41177" stroke-linejoin="bevel"/>
<path d="M1550.35 642.646L1550.35 591.176" stroke="#6349FF" stroke-width="4.41177" stroke-linejoin="bevel"/>
</g>
<g clip-path="url(#clip13_1433_47771)">
<circle cx="1050" cy="50" r="44.8529" transform="rotate(-180 1050 50)" stroke="black" stroke-width="10.2941"/>
<path d="M1057.35 50.3535L1108.82 50.3535" stroke="#6349FF" stroke-width="4.41177" stroke-linejoin="bevel"/>
<path d="M1044.55 54.9486L1008.15 91.3438" stroke="#6349FF" stroke-width="4.41177" stroke-linejoin="bevel"/>
</g>
<g clip-path="url(#clip14_1433_47771)">
<circle cx="1350" cy="50" r="44.8529" transform="rotate(180 1350 50)" stroke="black" stroke-width="10.2941"/>
<path d="M1342.65 50.3516L1291.18 50.3516" stroke="#6349FF" stroke-width="4.41177" stroke-linejoin="bevel"/>
<path d="M1350.35 42.6483L1350.35 -8.82227" stroke="#6349FF" stroke-width="4.41177" stroke-linejoin="bevel"/>
<path d="M1355.45 45.0515L1391.85 8.65625" stroke="#6349FF" stroke-width="4.41177" stroke-linejoin="bevel"/>
</g>
<g clip-path="url(#clip15_1433_47771)">
<circle cx="50" cy="250" r="44.8529" transform="rotate(-180 50 250)" stroke="black" stroke-width="10.2941"/>
<path d="M57.3536 250.355L108.824 250.355" stroke="#6349FF" stroke-width="4.41177" stroke-linejoin="bevel"/>
<path d="M45.0514 244.551L8.65625 208.156" stroke="#6349FF" stroke-width="4.41177" stroke-linejoin="bevel"/>
<path d="M44.5495 254.949L8.1543 291.344" stroke="#6349FF" stroke-width="4.41177" stroke-linejoin="bevel"/>
</g>
</g>
<defs>
<clipPath id="clip0_1433_47771">
<rect width="100" height="100" fill="white" transform="translate(1100 900) rotate(-90)"/>
</clipPath>
<clipPath id="clip1_1433_47771">
<rect width="100" height="100" fill="white" transform="matrix(1 1.74846e-07 1.74846e-07 -1 1200 100)"/>
</clipPath>
<clipPath id="clip2_1433_47771">
<rect width="100" height="100" fill="white" transform="translate(600 800)"/>
</clipPath>
<clipPath id="clip3_1433_47771">
<rect width="100" height="100" fill="white" transform="translate(1500 500)"/>
</clipPath>
<clipPath id="clip4_1433_47771">
<rect width="100" height="100" fill="white" transform="translate(200)"/>
</clipPath>
<clipPath id="clip5_1433_47771">
<rect width="100" height="100" fill="white" transform="matrix(-1 0 0 1 1300 800)"/>
</clipPath>
<clipPath id="clip6_1433_47771">
<rect width="100" height="100" fill="white" transform="matrix(-1 0 0 1 1100 700)"/>
</clipPath>
<clipPath id="clip7_1433_47771">
<rect width="100" height="100" fill="white" transform="matrix(4.37114e-08 1 1 -4.37114e-08 1100 0)"/>
</clipPath>
<clipPath id="clip8_1433_47771">
<rect width="100" height="100" fill="white" transform="matrix(1 0 0 -1 400 500)"/>
</clipPath>
<clipPath id="clip9_1433_47771">
<rect width="100" height="100" fill="white" transform="translate(78 800)"/>
</clipPath>
<clipPath id="clip10_1433_47771">
<rect width="100" height="100" fill="white" transform="matrix(4.37114e-08 -1 -1 -4.37114e-08 1500 700)"/>
</clipPath>
<clipPath id="clip11_1433_47771">
<rect width="100" height="100" fill="white" transform="matrix(4.37114e-08 -1 -1 -4.37114e-08 1000 800)"/>
</clipPath>
<clipPath id="clip12_1433_47771">
<rect width="100" height="100" fill="white" transform="matrix(-4.37114e-08 1 1 4.37114e-08 1500 600)"/>
</clipPath>
<clipPath id="clip13_1433_47771">
<rect width="100" height="100" fill="white" transform="translate(1100 100) rotate(-180)"/>
</clipPath>
<clipPath id="clip14_1433_47771">
<rect width="100" height="100" fill="white" transform="translate(1400 100) rotate(180)"/>
</clipPath>
<clipPath id="clip15_1433_47771">
<rect width="100" height="100" fill="white" transform="translate(100 300) rotate(-180)"/>
</clipPath>
</defs>
</svg>
