<svg fill="none" xmlns="http://www.w3.org/2000/svg">
<g opacity="0.3">
<rect width="1600" height="900" fill="black"/>
<g opacity="0.6">
<rect x="10" width="80" height="1" fill="white" fill-opacity="0.15"/>
<rect y="90" width="80" height="1" transform="rotate(-90 0 90)" fill="white" fill-opacity="0.15"/>
<rect x="110" width="80" height="1" fill="white" fill-opacity="0.15"/>
<rect x="100" y="90" width="80" height="1" transform="rotate(-90 100 90)" fill="white" fill-opacity="0.15"/>
<rect x="210" width="80" height="1" fill="white" fill-opacity="0.15"/>
<rect x="200" y="90" width="80" height="1" transform="rotate(-90 200 90)" fill="white" fill-opacity="0.15"/>
<rect x="310" width="80" height="1" fill="white" fill-opacity="0.15"/>
<rect x="300" y="90" width="80" height="1" transform="rotate(-90 300 90)" fill="white" fill-opacity="0.15"/>
<rect x="410" width="80" height="1" fill="white" fill-opacity="0.15"/>
<rect x="400" y="90" width="80" height="1" transform="rotate(-90 400 90)" fill="white" fill-opacity="0.15"/>
<rect x="510" width="80" height="1" fill="white" fill-opacity="0.15"/>
<rect x="500" y="90" width="80" height="1" transform="rotate(-90 500 90)" fill="white" fill-opacity="0.15"/>
<rect x="610" width="80" height="1" fill="white" fill-opacity="0.15"/>
<rect x="600" y="90" width="80" height="1" transform="rotate(-90 600 90)" fill="white" fill-opacity="0.15"/>
<rect x="710" width="80" height="1" fill="white" fill-opacity="0.15"/>
<rect x="700" y="90" width="80" height="1" transform="rotate(-90 700 90)" fill="white" fill-opacity="0.15"/>
<rect x="810" width="80" height="1" fill="white" fill-opacity="0.15"/>
<rect x="800" y="90" width="80" height="1" transform="rotate(-90 800 90)" fill="white" fill-opacity="0.15"/>
<rect x="910" width="80" height="1" fill="white" fill-opacity="0.15"/>
<rect x="900" y="90" width="80" height="1" transform="rotate(-90 900 90)" fill="white" fill-opacity="0.15"/>
<rect x="1010" width="80" height="1" fill="white" fill-opacity="0.15"/>
<rect x="1000" y="90" width="80" height="1" transform="rotate(-90 1000 90)" fill="white" fill-opacity="0.15"/>
<rect x="1110" width="80" height="1" fill="white" fill-opacity="0.15"/>
<rect x="1100" y="90" width="80" height="1" transform="rotate(-90 1100 90)" fill="white" fill-opacity="0.15"/>
<rect x="1210" width="80" height="1" fill="white" fill-opacity="0.15"/>
<rect x="1200" y="90" width="80" height="1" transform="rotate(-90 1200 90)" fill="white" fill-opacity="0.15"/>
<rect x="1310" width="80" height="1" fill="white" fill-opacity="0.15"/>
<rect x="1300" y="90" width="80" height="1" transform="rotate(-90 1300 90)" fill="white" fill-opacity="0.15"/>
<rect x="1410" width="80" height="1" fill="white" fill-opacity="0.15"/>
<rect x="1400" y="90" width="80" height="1" transform="rotate(-90 1400 90)" fill="white" fill-opacity="0.15"/>
<rect x="1510" width="80" height="1" fill="white" fill-opacity="0.15"/>
<rect x="1500" y="90" width="80" height="1" transform="rotate(-90 1500 90)" fill="white" fill-opacity="0.15"/>
<rect x="1610" width="80" height="1" fill="white" fill-opacity="0.15"/>
<rect x="1600" y="90" width="80" height="1" transform="rotate(-90 1600 90)" fill="white" fill-opacity="0.15"/>
<rect x="1710" width="80" height="1" fill="white" fill-opacity="0.15"/>
<rect x="1700" y="90" width="80" height="1" transform="rotate(-90 1700 90)" fill="white" fill-opacity="0.15"/>
<rect x="10" y="100" width="80" height="1" fill="white" fill-opacity="0.15"/>
<rect y="190" width="80" height="1" transform="rotate(-90 0 190)" fill="white" fill-opacity="0.15"/>
<rect x="110" y="100" width="80" height="1" fill="white" fill-opacity="0.15"/>
<rect x="100" y="190" width="80" height="1" transform="rotate(-90 100 190)" fill="white" fill-opacity="0.15"/>
<rect x="210" y="100" width="80" height="1" fill="white" fill-opacity="0.15"/>
<rect x="200" y="190" width="80" height="1" transform="rotate(-90 200 190)" fill="white" fill-opacity="0.15"/>
<rect x="310" y="100" width="80" height="1" fill="white" fill-opacity="0.15"/>
<rect x="300" y="190" width="80" height="1" transform="rotate(-90 300 190)" fill="white" fill-opacity="0.15"/>
<rect x="410" y="100" width="80" height="1" fill="white" fill-opacity="0.15"/>
<rect x="400" y="190" width="80" height="1" transform="rotate(-90 400 190)" fill="white" fill-opacity="0.15"/>
<rect x="510" y="100" width="80" height="1" fill="white" fill-opacity="0.15"/>
<rect x="500" y="190" width="80" height="1" transform="rotate(-90 500 190)" fill="white" fill-opacity="0.15"/>
<rect x="610" y="100" width="80" height="1" fill="white" fill-opacity="0.15"/>
<rect x="600" y="190" width="80" height="1" transform="rotate(-90 600 190)" fill="white" fill-opacity="0.15"/>
<rect x="710" y="100" width="80" height="1" fill="white" fill-opacity="0.15"/>
<rect x="700" y="190" width="80" height="1" transform="rotate(-90 700 190)" fill="white" fill-opacity="0.15"/>
<rect x="810" y="100" width="80" height="1" fill="white" fill-opacity="0.15"/>
<rect x="800" y="190" width="80" height="1" transform="rotate(-90 800 190)" fill="white" fill-opacity="0.15"/>
<rect x="910" y="100" width="80" height="1" fill="white" fill-opacity="0.15"/>
<rect x="900" y="190" width="80" height="1" transform="rotate(-90 900 190)" fill="white" fill-opacity="0.15"/>
<rect x="1010" y="100" width="80" height="1" fill="white" fill-opacity="0.15"/>
<rect x="1000" y="190" width="80" height="1" transform="rotate(-90 1000 190)" fill="white" fill-opacity="0.15"/>
<rect x="1110" y="100" width="80" height="1" fill="white" fill-opacity="0.15"/>
<rect x="1100" y="190" width="80" height="1" transform="rotate(-90 1100 190)" fill="white" fill-opacity="0.15"/>
<rect x="1210" y="100" width="80" height="1" fill="white" fill-opacity="0.15"/>
<rect x="1200" y="190" width="80" height="1" transform="rotate(-90 1200 190)" fill="white" fill-opacity="0.15"/>
<rect x="1310" y="100" width="80" height="1" fill="white" fill-opacity="0.15"/>
<rect x="1300" y="190" width="80" height="1" transform="rotate(-90 1300 190)" fill="white" fill-opacity="0.15"/>
<rect x="1410" y="100" width="80" height="1" fill="white" fill-opacity="0.15"/>
<rect x="1400" y="190" width="80" height="1" transform="rotate(-90 1400 190)" fill="white" fill-opacity="0.15"/>
<rect x="1510" y="100" width="80" height="1" fill="white" fill-opacity="0.15"/>
<rect x="1500" y="190" width="80" height="1" transform="rotate(-90 1500 190)" fill="white" fill-opacity="0.15"/>
<rect x="1610" y="100" width="80" height="1" fill="white" fill-opacity="0.15"/>
<rect x="1600" y="190" width="80" height="1" transform="rotate(-90 1600 190)" fill="white" fill-opacity="0.15"/>
<rect x="1710" y="100" width="80" height="1" fill="white" fill-opacity="0.15"/>
<rect x="1700" y="190" width="80" height="1" transform="rotate(-90 1700 190)" fill="white" fill-opacity="0.15"/>
<rect x="10" y="200" width="80" height="1" fill="white" fill-opacity="0.15"/>
<rect y="290" width="80" height="1" transform="rotate(-90 0 290)" fill="white" fill-opacity="0.15"/>
<rect x="110" y="200" width="80" height="1" fill="white" fill-opacity="0.15"/>
<rect x="100" y="290" width="80" height="1" transform="rotate(-90 100 290)" fill="white" fill-opacity="0.15"/>
<rect x="210" y="200" width="80" height="1" fill="white" fill-opacity="0.15"/>
<rect x="200" y="290" width="80" height="1" transform="rotate(-90 200 290)" fill="white" fill-opacity="0.15"/>
<rect x="310" y="200" width="80" height="1" fill="white" fill-opacity="0.15"/>
<rect x="300" y="290" width="80" height="1" transform="rotate(-90 300 290)" fill="white" fill-opacity="0.15"/>
<rect x="410" y="200" width="80" height="1" fill="white" fill-opacity="0.15"/>
<rect x="400" y="290" width="80" height="1" transform="rotate(-90 400 290)" fill="white" fill-opacity="0.15"/>
<rect x="510" y="200" width="80" height="1" fill="white" fill-opacity="0.15"/>
<rect x="500" y="290" width="80" height="1" transform="rotate(-90 500 290)" fill="white" fill-opacity="0.15"/>
<rect x="610" y="200" width="80" height="1" fill="white" fill-opacity="0.15"/>
<rect x="600" y="290" width="80" height="1" transform="rotate(-90 600 290)" fill="white" fill-opacity="0.15"/>
<rect x="710" y="200" width="80" height="1" fill="white" fill-opacity="0.15"/>
<rect x="700" y="290" width="80" height="1" transform="rotate(-90 700 290)" fill="white" fill-opacity="0.15"/>
<rect x="810" y="200" width="80" height="1" fill="white" fill-opacity="0.15"/>
<rect x="800" y="290" width="80" height="1" transform="rotate(-90 800 290)" fill="white" fill-opacity="0.15"/>
<rect x="910" y="200" width="80" height="1" fill="white" fill-opacity="0.15"/>
<rect x="900" y="290" width="80" height="1" transform="rotate(-90 900 290)" fill="white" fill-opacity="0.15"/>
<rect x="1010" y="200" width="80" height="1" fill="white" fill-opacity="0.15"/>
<rect x="1000" y="290" width="80" height="1" transform="rotate(-90 1000 290)" fill="white" fill-opacity="0.15"/>
<rect x="1110" y="200" width="80" height="1" fill="white" fill-opacity="0.15"/>
<rect x="1100" y="290" width="80" height="1" transform="rotate(-90 1100 290)" fill="white" fill-opacity="0.15"/>
<rect x="1210" y="200" width="80" height="1" fill="white" fill-opacity="0.15"/>
<rect x="1200" y="290" width="80" height="1" transform="rotate(-90 1200 290)" fill="white" fill-opacity="0.15"/>
<rect x="1310" y="200" width="80" height="1" fill="white" fill-opacity="0.15"/>
<rect x="1300" y="290" width="80" height="1" transform="rotate(-90 1300 290)" fill="white" fill-opacity="0.15"/>
<rect x="1410" y="200" width="80" height="1" fill="white" fill-opacity="0.15"/>
<rect x="1400" y="290" width="80" height="1" transform="rotate(-90 1400 290)" fill="white" fill-opacity="0.15"/>
<rect x="1510" y="200" width="80" height="1" fill="white" fill-opacity="0.15"/>
<rect x="1500" y="290" width="80" height="1" transform="rotate(-90 1500 290)" fill="white" fill-opacity="0.15"/>
<rect x="1610" y="200" width="80" height="1" fill="white" fill-opacity="0.15"/>
<rect x="1600" y="290" width="80" height="1" transform="rotate(-90 1600 290)" fill="white" fill-opacity="0.15"/>
<rect x="1710" y="200" width="80" height="1" fill="white" fill-opacity="0.15"/>
<rect x="1700" y="290" width="80" height="1" transform="rotate(-90 1700 290)" fill="white" fill-opacity="0.15"/>
<rect x="10" y="300" width="80" height="1" fill="white" fill-opacity="0.15"/>
<rect y="390" width="80" height="1" transform="rotate(-90 0 390)" fill="white" fill-opacity="0.15"/>
<rect x="110" y="300" width="80" height="1" fill="white" fill-opacity="0.15"/>
<rect x="100" y="390" width="80" height="1" transform="rotate(-90 100 390)" fill="white" fill-opacity="0.15"/>
<rect x="210" y="300" width="80" height="1" fill="white" fill-opacity="0.15"/>
<rect x="200" y="390" width="80" height="1" transform="rotate(-90 200 390)" fill="white" fill-opacity="0.15"/>
<rect x="310" y="300" width="80" height="1" fill="white" fill-opacity="0.15"/>
<rect x="300" y="390" width="80" height="1" transform="rotate(-90 300 390)" fill="white" fill-opacity="0.15"/>
<rect x="410" y="300" width="80" height="1" fill="white" fill-opacity="0.15"/>
<rect x="400" y="390" width="80" height="1" transform="rotate(-90 400 390)" fill="white" fill-opacity="0.15"/>
<rect x="510" y="300" width="80" height="1" fill="white" fill-opacity="0.15"/>
<rect x="500" y="390" width="80" height="1" transform="rotate(-90 500 390)" fill="white" fill-opacity="0.15"/>
<rect x="610" y="300" width="80" height="1" fill="white" fill-opacity="0.15"/>
<rect x="600" y="390" width="80" height="1" transform="rotate(-90 600 390)" fill="white" fill-opacity="0.15"/>
<rect x="710" y="300" width="80" height="1" fill="white" fill-opacity="0.15"/>
<rect x="700" y="390" width="80" height="1" transform="rotate(-90 700 390)" fill="white" fill-opacity="0.15"/>
<rect x="810" y="300" width="80" height="1" fill="white" fill-opacity="0.15"/>
<rect x="800" y="390" width="80" height="1" transform="rotate(-90 800 390)" fill="white" fill-opacity="0.15"/>
<rect x="910" y="300" width="80" height="1" fill="white" fill-opacity="0.15"/>
<rect x="900" y="390" width="80" height="1" transform="rotate(-90 900 390)" fill="white" fill-opacity="0.15"/>
<rect x="1010" y="300" width="80" height="1" fill="white" fill-opacity="0.15"/>
<rect x="1000" y="390" width="80" height="1" transform="rotate(-90 1000 390)" fill="white" fill-opacity="0.15"/>
<rect x="1110" y="300" width="80" height="1" fill="white" fill-opacity="0.15"/>
<rect x="1100" y="390" width="80" height="1" transform="rotate(-90 1100 390)" fill="white" fill-opacity="0.15"/>
<rect x="1210" y="300" width="80" height="1" fill="white" fill-opacity="0.15"/>
<rect x="1200" y="390" width="80" height="1" transform="rotate(-90 1200 390)" fill="white" fill-opacity="0.15"/>
<rect x="1310" y="300" width="80" height="1" fill="white" fill-opacity="0.15"/>
<rect x="1300" y="390" width="80" height="1" transform="rotate(-90 1300 390)" fill="white" fill-opacity="0.15"/>
<rect x="1410" y="300" width="80" height="1" fill="white" fill-opacity="0.15"/>
<rect x="1400" y="390" width="80" height="1" transform="rotate(-90 1400 390)" fill="white" fill-opacity="0.15"/>
<rect x="1510" y="300" width="80" height="1" fill="white" fill-opacity="0.15"/>
<rect x="1500" y="390" width="80" height="1" transform="rotate(-90 1500 390)" fill="white" fill-opacity="0.15"/>
<rect x="1610" y="300" width="80" height="1" fill="white" fill-opacity="0.15"/>
<rect x="1600" y="390" width="80" height="1" transform="rotate(-90 1600 390)" fill="white" fill-opacity="0.15"/>
<rect x="1710" y="300" width="80" height="1" fill="white" fill-opacity="0.15"/>
<rect x="1700" y="390" width="80" height="1" transform="rotate(-90 1700 390)" fill="white" fill-opacity="0.15"/>
<rect x="10" y="400" width="80" height="1" fill="white" fill-opacity="0.15"/>
<rect y="490" width="80" height="1" transform="rotate(-90 0 490)" fill="white" fill-opacity="0.15"/>
<rect x="110" y="400" width="80" height="1" fill="white" fill-opacity="0.15"/>
<rect x="100" y="490" width="80" height="1" transform="rotate(-90 100 490)" fill="white" fill-opacity="0.15"/>
<rect x="210" y="400" width="80" height="1" fill="white" fill-opacity="0.15"/>
<rect x="200" y="490" width="80" height="1" transform="rotate(-90 200 490)" fill="white" fill-opacity="0.15"/>
<rect x="310" y="400" width="80" height="1" fill="white" fill-opacity="0.15"/>
<rect x="300" y="490" width="80" height="1" transform="rotate(-90 300 490)" fill="white" fill-opacity="0.15"/>
<rect x="410" y="400" width="80" height="1" fill="white" fill-opacity="0.15"/>
<rect x="400" y="490" width="80" height="1" transform="rotate(-90 400 490)" fill="white" fill-opacity="0.15"/>
<rect x="510" y="400" width="80" height="1" fill="white" fill-opacity="0.15"/>
<rect x="500" y="490" width="80" height="1" transform="rotate(-90 500 490)" fill="white" fill-opacity="0.15"/>
<rect x="610" y="400" width="80" height="1" fill="white" fill-opacity="0.15"/>
<rect x="600" y="490" width="80" height="1" transform="rotate(-90 600 490)" fill="white" fill-opacity="0.15"/>
<rect x="710" y="400" width="80" height="1" fill="white" fill-opacity="0.15"/>
<rect x="700" y="490" width="80" height="1" transform="rotate(-90 700 490)" fill="white" fill-opacity="0.15"/>
<rect x="810" y="400" width="80" height="1" fill="white" fill-opacity="0.15"/>
<rect x="800" y="490" width="80" height="1" transform="rotate(-90 800 490)" fill="white" fill-opacity="0.15"/>
<rect x="910" y="400" width="80" height="1" fill="white" fill-opacity="0.15"/>
<rect x="900" y="490" width="80" height="1" transform="rotate(-90 900 490)" fill="white" fill-opacity="0.15"/>
<rect x="1010" y="400" width="80" height="1" fill="white" fill-opacity="0.15"/>
<rect x="1000" y="490" width="80" height="1" transform="rotate(-90 1000 490)" fill="white" fill-opacity="0.15"/>
<rect x="1110" y="400" width="80" height="1" fill="white" fill-opacity="0.15"/>
<rect x="1100" y="490" width="80" height="1" transform="rotate(-90 1100 490)" fill="white" fill-opacity="0.15"/>
<rect x="1210" y="400" width="80" height="1" fill="white" fill-opacity="0.15"/>
<rect x="1200" y="490" width="80" height="1" transform="rotate(-90 1200 490)" fill="white" fill-opacity="0.15"/>
<rect x="1310" y="400" width="80" height="1" fill="white" fill-opacity="0.15"/>
<rect x="1300" y="490" width="80" height="1" transform="rotate(-90 1300 490)" fill="white" fill-opacity="0.15"/>
<rect x="1410" y="400" width="80" height="1" fill="white" fill-opacity="0.15"/>
<rect x="1400" y="490" width="80" height="1" transform="rotate(-90 1400 490)" fill="white" fill-opacity="0.15"/>
<rect x="1510" y="400" width="80" height="1" fill="white" fill-opacity="0.15"/>
<rect x="1500" y="490" width="80" height="1" transform="rotate(-90 1500 490)" fill="white" fill-opacity="0.15"/>
<rect x="1610" y="400" width="80" height="1" fill="white" fill-opacity="0.15"/>
<rect x="1600" y="490" width="80" height="1" transform="rotate(-90 1600 490)" fill="white" fill-opacity="0.15"/>
<rect x="1710" y="400" width="80" height="1" fill="white" fill-opacity="0.15"/>
<rect x="1700" y="490" width="80" height="1" transform="rotate(-90 1700 490)" fill="white" fill-opacity="0.15"/>
<rect x="10" y="500" width="80" height="1" fill="white" fill-opacity="0.15"/>
<rect y="590" width="80" height="1" transform="rotate(-90 0 590)" fill="white" fill-opacity="0.15"/>
<rect x="110" y="500" width="80" height="1" fill="white" fill-opacity="0.15"/>
<rect x="100" y="590" width="80" height="1" transform="rotate(-90 100 590)" fill="white" fill-opacity="0.15"/>
<rect x="210" y="500" width="80" height="1" fill="white" fill-opacity="0.15"/>
<rect x="200" y="590" width="80" height="1" transform="rotate(-90 200 590)" fill="white" fill-opacity="0.15"/>
<rect x="310" y="500" width="80" height="1" fill="white" fill-opacity="0.15"/>
<rect x="300" y="590" width="80" height="1" transform="rotate(-90 300 590)" fill="white" fill-opacity="0.15"/>
<rect x="410" y="500" width="80" height="1" fill="white" fill-opacity="0.15"/>
<rect x="400" y="590" width="80" height="1" transform="rotate(-90 400 590)" fill="white" fill-opacity="0.15"/>
<rect x="510" y="500" width="80" height="1" fill="white" fill-opacity="0.15"/>
<rect x="500" y="590" width="80" height="1" transform="rotate(-90 500 590)" fill="white" fill-opacity="0.15"/>
<rect x="610" y="500" width="80" height="1" fill="white" fill-opacity="0.15"/>
<rect x="600" y="590" width="80" height="1" transform="rotate(-90 600 590)" fill="white" fill-opacity="0.15"/>
<rect x="710" y="500" width="80" height="1" fill="white" fill-opacity="0.15"/>
<rect x="700" y="590" width="80" height="1" transform="rotate(-90 700 590)" fill="white" fill-opacity="0.15"/>
<rect x="810" y="500" width="80" height="1" fill="white" fill-opacity="0.15"/>
<rect x="800" y="590" width="80" height="1" transform="rotate(-90 800 590)" fill="white" fill-opacity="0.15"/>
<rect x="910" y="500" width="80" height="1" fill="white" fill-opacity="0.15"/>
<rect x="900" y="590" width="80" height="1" transform="rotate(-90 900 590)" fill="white" fill-opacity="0.15"/>
<rect x="1010" y="500" width="80" height="1" fill="white" fill-opacity="0.15"/>
<rect x="1000" y="590" width="80" height="1" transform="rotate(-90 1000 590)" fill="white" fill-opacity="0.15"/>
<rect x="1110" y="500" width="80" height="1" fill="white" fill-opacity="0.15"/>
<rect x="1100" y="590" width="80" height="1" transform="rotate(-90 1100 590)" fill="white" fill-opacity="0.15"/>
<rect x="1210" y="500" width="80" height="1" fill="white" fill-opacity="0.15"/>
<rect x="1200" y="590" width="80" height="1" transform="rotate(-90 1200 590)" fill="white" fill-opacity="0.15"/>
<rect x="1310" y="500" width="80" height="1" fill="white" fill-opacity="0.15"/>
<rect x="1300" y="590" width="80" height="1" transform="rotate(-90 1300 590)" fill="white" fill-opacity="0.15"/>
<rect x="1410" y="500" width="80" height="1" fill="white" fill-opacity="0.15"/>
<rect x="1400" y="590" width="80" height="1" transform="rotate(-90 1400 590)" fill="white" fill-opacity="0.15"/>
<rect x="1510" y="500" width="80" height="1" fill="white" fill-opacity="0.15"/>
<rect x="1500" y="590" width="80" height="1" transform="rotate(-90 1500 590)" fill="white" fill-opacity="0.15"/>
<rect x="1610" y="500" width="80" height="1" fill="white" fill-opacity="0.15"/>
<rect x="1600" y="590" width="80" height="1" transform="rotate(-90 1600 590)" fill="white" fill-opacity="0.15"/>
<rect x="1710" y="500" width="80" height="1" fill="white" fill-opacity="0.15"/>
<rect x="1700" y="590" width="80" height="1" transform="rotate(-90 1700 590)" fill="white" fill-opacity="0.15"/>
<rect x="10" y="600" width="80" height="1" fill="white" fill-opacity="0.15"/>
<rect y="690" width="80" height="1" transform="rotate(-90 0 690)" fill="white" fill-opacity="0.15"/>
<rect x="110" y="600" width="80" height="1" fill="white" fill-opacity="0.15"/>
<rect x="100" y="690" width="80" height="1" transform="rotate(-90 100 690)" fill="white" fill-opacity="0.15"/>
<rect x="210" y="600" width="80" height="1" fill="white" fill-opacity="0.15"/>
<rect x="200" y="690" width="80" height="1" transform="rotate(-90 200 690)" fill="white" fill-opacity="0.15"/>
<rect x="310" y="600" width="80" height="1" fill="white" fill-opacity="0.15"/>
<rect x="300" y="690" width="80" height="1" transform="rotate(-90 300 690)" fill="white" fill-opacity="0.15"/>
<rect x="410" y="600" width="80" height="1" fill="white" fill-opacity="0.15"/>
<rect x="400" y="690" width="80" height="1" transform="rotate(-90 400 690)" fill="white" fill-opacity="0.15"/>
<rect x="510" y="600" width="80" height="1" fill="white" fill-opacity="0.15"/>
<rect x="500" y="690" width="80" height="1" transform="rotate(-90 500 690)" fill="white" fill-opacity="0.15"/>
<rect x="610" y="600" width="80" height="1" fill="white" fill-opacity="0.15"/>
<rect x="600" y="690" width="80" height="1" transform="rotate(-90 600 690)" fill="white" fill-opacity="0.15"/>
<rect x="710" y="600" width="80" height="1" fill="white" fill-opacity="0.15"/>
<rect x="700" y="690" width="80" height="1" transform="rotate(-90 700 690)" fill="white" fill-opacity="0.15"/>
<rect x="810" y="600" width="80" height="1" fill="white" fill-opacity="0.15"/>
<rect x="800" y="690" width="80" height="1" transform="rotate(-90 800 690)" fill="white" fill-opacity="0.15"/>
<rect x="910" y="600" width="80" height="1" fill="white" fill-opacity="0.15"/>
<rect x="900" y="690" width="80" height="1" transform="rotate(-90 900 690)" fill="white" fill-opacity="0.15"/>
<rect x="1010" y="600" width="80" height="1" fill="white" fill-opacity="0.15"/>
<rect x="1000" y="690" width="80" height="1" transform="rotate(-90 1000 690)" fill="white" fill-opacity="0.15"/>
<rect x="1110" y="600" width="80" height="1" fill="white" fill-opacity="0.15"/>
<rect x="1100" y="690" width="80" height="1" transform="rotate(-90 1100 690)" fill="white" fill-opacity="0.15"/>
<rect x="1210" y="600" width="80" height="1" fill="white" fill-opacity="0.15"/>
<rect x="1200" y="690" width="80" height="1" transform="rotate(-90 1200 690)" fill="white" fill-opacity="0.15"/>
<rect x="1310" y="600" width="80" height="1" fill="white" fill-opacity="0.15"/>
<rect x="1300" y="690" width="80" height="1" transform="rotate(-90 1300 690)" fill="white" fill-opacity="0.15"/>
<rect x="1410" y="600" width="80" height="1" fill="white" fill-opacity="0.15"/>
<rect x="1400" y="690" width="80" height="1" transform="rotate(-90 1400 690)" fill="white" fill-opacity="0.15"/>
<rect x="1510" y="600" width="80" height="1" fill="white" fill-opacity="0.15"/>
<rect x="1500" y="690" width="80" height="1" transform="rotate(-90 1500 690)" fill="white" fill-opacity="0.15"/>
<rect x="1610" y="600" width="80" height="1" fill="white" fill-opacity="0.15"/>
<rect x="1600" y="690" width="80" height="1" transform="rotate(-90 1600 690)" fill="white" fill-opacity="0.15"/>
<rect x="1710" y="600" width="80" height="1" fill="white" fill-opacity="0.15"/>
<rect x="1700" y="690" width="80" height="1" transform="rotate(-90 1700 690)" fill="white" fill-opacity="0.15"/>
<rect x="10" y="700" width="80" height="1" fill="white" fill-opacity="0.15"/>
<rect y="790" width="80" height="1" transform="rotate(-90 0 790)" fill="white" fill-opacity="0.15"/>
<rect x="110" y="700" width="80" height="1" fill="white" fill-opacity="0.15"/>
<rect x="100" y="790" width="80" height="1" transform="rotate(-90 100 790)" fill="white" fill-opacity="0.15"/>
<rect x="210" y="700" width="80" height="1" fill="white" fill-opacity="0.15"/>
<rect x="200" y="790" width="80" height="1" transform="rotate(-90 200 790)" fill="white" fill-opacity="0.15"/>
<rect x="310" y="700" width="80" height="1" fill="white" fill-opacity="0.15"/>
<rect x="300" y="790" width="80" height="1" transform="rotate(-90 300 790)" fill="white" fill-opacity="0.15"/>
<rect x="410" y="700" width="80" height="1" fill="white" fill-opacity="0.15"/>
<rect x="400" y="790" width="80" height="1" transform="rotate(-90 400 790)" fill="white" fill-opacity="0.15"/>
<rect x="510" y="700" width="80" height="1" fill="white" fill-opacity="0.15"/>
<rect x="500" y="790" width="80" height="1" transform="rotate(-90 500 790)" fill="white" fill-opacity="0.15"/>
<rect x="610" y="700" width="80" height="1" fill="white" fill-opacity="0.15"/>
<rect x="600" y="790" width="80" height="1" transform="rotate(-90 600 790)" fill="white" fill-opacity="0.15"/>
<rect x="710" y="700" width="80" height="1" fill="white" fill-opacity="0.15"/>
<rect x="700" y="790" width="80" height="1" transform="rotate(-90 700 790)" fill="white" fill-opacity="0.15"/>
<rect x="810" y="700" width="80" height="1" fill="white" fill-opacity="0.15"/>
<rect x="800" y="790" width="80" height="1" transform="rotate(-90 800 790)" fill="white" fill-opacity="0.15"/>
<rect x="910" y="700" width="80" height="1" fill="white" fill-opacity="0.15"/>
<rect x="900" y="790" width="80" height="1" transform="rotate(-90 900 790)" fill="white" fill-opacity="0.15"/>
<rect x="1010" y="700" width="80" height="1" fill="white" fill-opacity="0.15"/>
<rect x="1000" y="790" width="80" height="1" transform="rotate(-90 1000 790)" fill="white" fill-opacity="0.15"/>
<rect x="1110" y="700" width="80" height="1" fill="white" fill-opacity="0.15"/>
<rect x="1100" y="790" width="80" height="1" transform="rotate(-90 1100 790)" fill="white" fill-opacity="0.15"/>
<rect x="1210" y="700" width="80" height="1" fill="white" fill-opacity="0.15"/>
<rect x="1200" y="790" width="80" height="1" transform="rotate(-90 1200 790)" fill="white" fill-opacity="0.15"/>
<rect x="1310" y="700" width="80" height="1" fill="white" fill-opacity="0.15"/>
<rect x="1300" y="790" width="80" height="1" transform="rotate(-90 1300 790)" fill="white" fill-opacity="0.15"/>
<rect x="1410" y="700" width="80" height="1" fill="white" fill-opacity="0.15"/>
<rect x="1400" y="790" width="80" height="1" transform="rotate(-90 1400 790)" fill="white" fill-opacity="0.15"/>
<rect x="1510" y="700" width="80" height="1" fill="white" fill-opacity="0.15"/>
<rect x="1500" y="790" width="80" height="1" transform="rotate(-90 1500 790)" fill="white" fill-opacity="0.15"/>
<rect x="1610" y="700" width="80" height="1" fill="white" fill-opacity="0.15"/>
<rect x="1600" y="790" width="80" height="1" transform="rotate(-90 1600 790)" fill="white" fill-opacity="0.15"/>
<rect x="1710" y="700" width="80" height="1" fill="white" fill-opacity="0.15"/>
<rect x="1700" y="790" width="80" height="1" transform="rotate(-90 1700 790)" fill="white" fill-opacity="0.15"/>
<rect x="10" y="800" width="80" height="1" fill="white" fill-opacity="0.15"/>
<rect y="890" width="80" height="1" transform="rotate(-90 0 890)" fill="white" fill-opacity="0.15"/>
<rect x="110" y="800" width="80" height="1" fill="white" fill-opacity="0.15"/>
<rect x="100" y="890" width="80" height="1" transform="rotate(-90 100 890)" fill="white" fill-opacity="0.15"/>
<rect x="210" y="800" width="80" height="1" fill="white" fill-opacity="0.15"/>
<rect x="200" y="890" width="80" height="1" transform="rotate(-90 200 890)" fill="white" fill-opacity="0.15"/>
<rect x="310" y="800" width="80" height="1" fill="white" fill-opacity="0.15"/>
<rect x="300" y="890" width="80" height="1" transform="rotate(-90 300 890)" fill="white" fill-opacity="0.15"/>
<rect x="410" y="800" width="80" height="1" fill="white" fill-opacity="0.15"/>
<rect x="400" y="890" width="80" height="1" transform="rotate(-90 400 890)" fill="white" fill-opacity="0.15"/>
<rect x="510" y="800" width="80" height="1" fill="white" fill-opacity="0.15"/>
<rect x="500" y="890" width="80" height="1" transform="rotate(-90 500 890)" fill="white" fill-opacity="0.15"/>
<rect x="610" y="800" width="80" height="1" fill="white" fill-opacity="0.15"/>
<rect x="600" y="890" width="80" height="1" transform="rotate(-90 600 890)" fill="white" fill-opacity="0.15"/>
<rect x="710" y="800" width="80" height="1" fill="white" fill-opacity="0.15"/>
<rect x="700" y="890" width="80" height="1" transform="rotate(-90 700 890)" fill="white" fill-opacity="0.15"/>
<rect x="810" y="800" width="80" height="1" fill="white" fill-opacity="0.15"/>
<rect x="800" y="890" width="80" height="1" transform="rotate(-90 800 890)" fill="white" fill-opacity="0.15"/>
<rect x="910" y="800" width="80" height="1" fill="white" fill-opacity="0.15"/>
<rect x="900" y="890" width="80" height="1" transform="rotate(-90 900 890)" fill="white" fill-opacity="0.15"/>
<rect x="1010" y="800" width="80" height="1" fill="white" fill-opacity="0.15"/>
<rect x="1000" y="890" width="80" height="1" transform="rotate(-90 1000 890)" fill="white" fill-opacity="0.15"/>
<rect x="1110" y="800" width="80" height="1" fill="white" fill-opacity="0.15"/>
<rect x="1100" y="890" width="80" height="1" transform="rotate(-90 1100 890)" fill="white" fill-opacity="0.15"/>
<rect x="1210" y="800" width="80" height="1" fill="white" fill-opacity="0.15"/>
<rect x="1200" y="890" width="80" height="1" transform="rotate(-90 1200 890)" fill="white" fill-opacity="0.15"/>
<rect x="1310" y="800" width="80" height="1" fill="white" fill-opacity="0.15"/>
<rect x="1300" y="890" width="80" height="1" transform="rotate(-90 1300 890)" fill="white" fill-opacity="0.15"/>
<rect x="1410" y="800" width="80" height="1" fill="white" fill-opacity="0.15"/>
<rect x="1400" y="890" width="80" height="1" transform="rotate(-90 1400 890)" fill="white" fill-opacity="0.15"/>
<rect x="1510" y="800" width="80" height="1" fill="white" fill-opacity="0.15"/>
<rect x="1500" y="890" width="80" height="1" transform="rotate(-90 1500 890)" fill="white" fill-opacity="0.15"/>
<rect x="1610" y="800" width="80" height="1" fill="white" fill-opacity="0.15"/>
<rect x="1600" y="890" width="80" height="1" transform="rotate(-90 1600 890)" fill="white" fill-opacity="0.15"/>
<rect x="1710" y="800" width="80" height="1" fill="white" fill-opacity="0.15"/>
<rect x="1700" y="890" width="80" height="1" transform="rotate(-90 1700 890)" fill="white" fill-opacity="0.15"/>
</g>
<g clip-path="url(#clip0_1433_47961)">
<circle cx="1150" cy="850" r="44.8529" transform="rotate(-90 1150 850)" stroke="black" stroke-width="10.2941"/>
<path d="M1149.65 857.354L1149.65 908.824" stroke="#6349FF" stroke-width="4.41177" stroke-linejoin="bevel"/>
<path d="M1157.35 849.645L1208.82 849.645" stroke="#6349FF" stroke-width="4.41177" stroke-linejoin="bevel"/>
<path d="M1145.05 844.548L1108.66 808.152" stroke="#6349FF" stroke-width="4.41177" stroke-linejoin="bevel"/>
</g>
<g clip-path="url(#clip1_1433_47961)">
<circle cx="1150" cy="50" r="44.8529" transform="rotate(90 1150 50)" stroke="black" stroke-width="10.2941"/>
<path d="M1150.35 57.3536L1150.35 108.824" stroke="#6349FF" stroke-width="4.41177" stroke-linejoin="bevel"/>
<path d="M1135.65 42.6464L1135.65 -8.82422" stroke="#6349FF" stroke-width="4.41177" stroke-linejoin="bevel"/>
<path d="M1120.94 42.6464L1120.94 -8.82422" stroke="#6349FF" stroke-width="4.41177" stroke-linejoin="bevel"/>
<path d="M1107.71 42.6464L1107.71 -8.82422" stroke="#6349FF" stroke-width="4.41177" stroke-linejoin="bevel"/>
<path d="M1135.65 57.3536L1135.65 108.824" stroke="#6349FF" stroke-width="4.41177" stroke-linejoin="bevel"/>
</g>
<g clip-path="url(#clip2_1433_47961)">
<circle cx="1050" cy="350" r="44.8529" transform="rotate(-90 1050 350)" stroke="black" stroke-width="10.2941"/>
<path d="M1049.65 342.646L1049.65 291.176" stroke="#6349FF" stroke-width="4.41177" stroke-linejoin="bevel"/>
<path d="M1064.35 342.646L1064.35 291.176" stroke="#6349FF" stroke-width="4.41177" stroke-linejoin="bevel"/>
</g>
<g clip-path="url(#clip3_1433_47961)">
<circle cx="650" cy="850" r="44.8529" stroke="black" stroke-width="10.2941"/>
<path d="M657.354 849.648L708.824 849.648" stroke="#6349FF" stroke-width="4.41177" stroke-linejoin="bevel"/>
<path d="M642.646 849.648L591.176 849.648" stroke="#6349FF" stroke-width="4.41177" stroke-linejoin="bevel"/>
<path d="M642.646 864.352L591.176 864.352" stroke="#6349FF" stroke-width="4.41177" stroke-linejoin="bevel"/>
<path d="M642.646 879.059L591.176 879.059" stroke="#6349FF" stroke-width="4.41177" stroke-linejoin="bevel"/>
<path d="M642.646 892.293L591.176 892.293" stroke="#6349FF" stroke-width="4.41177" stroke-linejoin="bevel"/>
<path d="M657.354 864.352L708.824 864.352" stroke="#6349FF" stroke-width="4.41177" stroke-linejoin="bevel"/>
<path d="M657.354 879.059L708.824 879.059" stroke="#6349FF" stroke-width="4.41177" stroke-linejoin="bevel"/>
<path d="M657.354 892.293L708.824 892.293" stroke="#6349FF" stroke-width="4.41177" stroke-linejoin="bevel"/>
</g>
<g clip-path="url(#clip4_1433_47961)">
<circle cx="1550" cy="550" r="44.8529" stroke="black" stroke-width="10.2941"/>
<path d="M1557.35 549.648L1608.82 549.648" stroke="#6349FF" stroke-width="4.41177" stroke-linejoin="bevel"/>
<path d="M1542.65 549.648L1491.18 549.648" stroke="#6349FF" stroke-width="4.41177" stroke-linejoin="bevel"/>
</g>
<g clip-path="url(#clip5_1433_47961)">
<circle cx="1550" cy="50" r="44.8529" stroke="black" stroke-width="10.2941"/>
<path d="M1557.35 49.6484L1608.82 49.6484" stroke="#6349FF" stroke-width="4.41177" stroke-linejoin="bevel"/>
<path d="M1542.65 49.6484L1491.18 49.6484" stroke="#6349FF" stroke-width="4.41177" stroke-linejoin="bevel"/>
<path d="M1550.38 42.7206L1550.38 -8.75" stroke="#6349FF" stroke-width="4.41177" stroke-linejoin="bevel"/>
<path d="M1550.35 57.3536L1550.35 108.824" stroke="#6349FF" stroke-width="4.41177" stroke-linejoin="bevel"/>
</g>
<g clip-path="url(#clip6_1433_47961)">
<circle cx="50" cy="50" r="44.8529" transform="matrix(-1 -1.82007e-09 -1.82007e-09 1 1300 800)" stroke="black" stroke-width="10.2941"/>
<path d="M1242.65 849.648L1191.18 849.648" stroke="#6349FF" stroke-width="4.41177" stroke-linejoin="bevel"/>
<path d="M1257.35 864.352L1308.82 864.352" stroke="#6349FF" stroke-width="4.41177" stroke-linejoin="bevel"/>
<path d="M1257.35 879.059L1308.82 879.059" stroke="#6349FF" stroke-width="4.41177" stroke-linejoin="bevel"/>
<path d="M1257.35 821.707L1308.82 821.707" stroke="#6349FF" stroke-width="4.41177" stroke-linejoin="bevel"/>
<path d="M1257.35 892.293L1308.82 892.293" stroke="#6349FF" stroke-width="4.41177" stroke-linejoin="bevel"/>
<path d="M1257.35 834.941L1308.82 834.941" stroke="#6349FF" stroke-width="4.41177" stroke-linejoin="bevel"/>
<path d="M1242.65 879.059L1191.18 879.059" stroke="#6349FF" stroke-width="4.41177" stroke-linejoin="bevel"/>
<path d="M1242.65 892.293L1191.18 892.293" stroke="#6349FF" stroke-width="4.41177" stroke-linejoin="bevel"/>
</g>
<g clip-path="url(#clip7_1433_47961)">
<circle cx="50" cy="50" r="44.8529" transform="matrix(-1 -1.82007e-09 -1.82007e-09 1 1100 700)" stroke="black" stroke-width="10.2941"/>
<path d="M1042.65 749.648L991.176 749.648" stroke="#6349FF" stroke-width="4.41177" stroke-linejoin="bevel"/>
<path d="M1057.35 764.352L1108.82 764.352" stroke="#6349FF" stroke-width="4.41177" stroke-linejoin="bevel"/>
<path d="M1057.35 779.059L1108.82 779.059" stroke="#6349FF" stroke-width="4.41177" stroke-linejoin="bevel"/>
<path d="M1057.35 792.293L1108.82 792.293" stroke="#6349FF" stroke-width="4.41177" stroke-linejoin="bevel"/>
<path d="M1042.65 764.352L991.176 764.352" stroke="#6349FF" stroke-width="4.41177" stroke-linejoin="bevel"/>
<path d="M1042.65 779.059L991.176 779.059" stroke="#6349FF" stroke-width="4.41177" stroke-linejoin="bevel"/>
<path d="M1042.65 792.293L991.176 792.293" stroke="#6349FF" stroke-width="4.41177" stroke-linejoin="bevel"/>
</g>
<g clip-path="url(#clip8_1433_47961)">
<circle cx="50" cy="50" r="44.8529" transform="matrix(-1.01048e-08 -1 -1 1.01048e-08 1300 200)" stroke="black" stroke-width="10.2941"/>
<path d="M1249.65 157.354L1249.65 208.824" stroke="#6349FF" stroke-width="4.41177" stroke-linejoin="bevel"/>
<path d="M1257.35 149.645L1308.82 149.645" stroke="#6349FF" stroke-width="4.41177" stroke-linejoin="bevel"/>
<path d="M1235.65 157.35L1235.65 208.82" stroke="#6349FF" stroke-width="4.41177" stroke-linejoin="bevel"/>
<path d="M1220.94 157.354L1220.94 208.824" stroke="#6349FF" stroke-width="4.41177" stroke-linejoin="bevel"/>
<path d="M1207.71 157.35L1207.71 208.82" stroke="#6349FF" stroke-width="4.41177" stroke-linejoin="bevel"/>
</g>
<g clip-path="url(#clip9_1433_47961)">
<circle cx="150" cy="350" r="44.8529" transform="rotate(-90 150 350)" stroke="black" stroke-width="10.2941"/>
<path d="M149.648 342.646L149.648 291.176" stroke="#6349FF" stroke-width="4.41177" stroke-linejoin="bevel"/>
<path d="M144.55 354.949L108.154 391.344" stroke="#6349FF" stroke-width="4.41177" stroke-linejoin="bevel"/>
<path d="M157.352 349.648L208.822 349.648" stroke="#6349FF" stroke-width="4.41177" stroke-linejoin="bevel"/>
<path d="M157.176 336.648L208.646 336.648" stroke="#6349FF" stroke-width="4.41177" stroke-linejoin="bevel"/>
<path d="M157.176 321.937L208.646 321.938" stroke="#6349FF" stroke-width="4.41177" stroke-linejoin="bevel"/>
<path d="M157.176 308.703L208.646 308.703" stroke="#6349FF" stroke-width="4.41177" stroke-linejoin="bevel"/>
</g>
<g clip-path="url(#clip10_1433_47961)">
<circle cx="128" cy="850" r="44.8529" stroke="black" stroke-width="10.2941"/>
<path d="M135.354 849.648L186.824 849.648" stroke="#6349FF" stroke-width="4.41177" stroke-linejoin="bevel"/>
<path d="M128.352 842.646L128.352 791.176" stroke="#6349FF" stroke-width="4.41177" stroke-linejoin="bevel"/>
<path d="M120.646 879.059L69.1758 879.059" stroke="#6349FF" stroke-width="4.41177" stroke-linejoin="bevel"/>
<path d="M120.646 892.297L69.1758 892.297" stroke="#6349FF" stroke-width="4.41177" stroke-linejoin="bevel"/>
</g>
<g clip-path="url(#clip11_1433_47961)">
<circle cx="50" cy="50" r="44.8529" transform="matrix(4.55315e-08 -1 -1 -4.55315e-08 1500 700)" stroke="black" stroke-width="10.2941"/>
<path d="M1457.35 649.648L1508.82 649.648" stroke="#6349FF" stroke-width="4.41177" stroke-linejoin="bevel"/>
<path d="M1444.55 645.051L1408.15 608.656" stroke="#6349FF" stroke-width="4.41177" stroke-linejoin="bevel"/>
</g>
<g clip-path="url(#clip12_1433_47961)">
<circle cx="50" cy="50" r="44.8529" transform="matrix(4.55315e-08 -1 -1 -4.55315e-08 1000 800)" stroke="black" stroke-width="10.2941"/>
<path d="M957.354 749.648L1008.82 749.648" stroke="#6349FF" stroke-width="4.41177" stroke-linejoin="bevel"/>
<path d="M944.549 745.051L908.154 708.656" stroke="#6349FF" stroke-width="4.41177" stroke-linejoin="bevel"/>
</g>
<g clip-path="url(#clip13_1433_47961)">
<circle cx="50" cy="50" r="44.8529" transform="matrix(-4.55315e-08 1 1 4.55315e-08 1500 600)" stroke="black" stroke-width="10.2941"/>
<path d="M1542.65 650.352L1491.18 650.352" stroke="#6349FF" stroke-width="4.41177" stroke-linejoin="bevel"/>
<path d="M1555.45 654.949L1591.85 691.344" stroke="#6349FF" stroke-width="4.41177" stroke-linejoin="bevel"/>
<path d="M1550.35 642.646L1550.35 591.176" stroke="#6349FF" stroke-width="4.41177" stroke-linejoin="bevel"/>
</g>
<g clip-path="url(#clip14_1433_47961)">
<circle cx="50" cy="50" r="44.8529" transform="matrix(4.18913e-08 1 1 -4.18913e-08 1100 100)" stroke="black" stroke-width="10.2941"/>
<path d="M1149.65 142.646L1149.65 91.1758" stroke="#6349FF" stroke-width="4.41177" stroke-linejoin="bevel"/>
<path d="M1157.35 149.648L1208.82 149.648" stroke="#6349FF" stroke-width="4.41177" stroke-linejoin="bevel"/>
<path d="M1145.05 155.449L1108.66 191.844" stroke="#6349FF" stroke-width="4.41177" stroke-linejoin="bevel"/>
</g>
<g clip-path="url(#clip15_1433_47961)">
<circle cx="50" cy="50" r="44.8529" transform="matrix(-4.55315e-08 1 1 4.55315e-08 1000 200)" stroke="black" stroke-width="10.2941"/>
<path d="M1049.65 257.354L1049.65 308.824" stroke="#6349FF" stroke-width="4.41177" stroke-linejoin="bevel"/>
<path d="M1042.65 249.645L991.176 249.645" stroke="#6349FF" stroke-width="4.41177" stroke-linejoin="bevel"/>
<path d="M1054.95 244.548L1091.34 208.152" stroke="#6349FF" stroke-width="4.41177" stroke-linejoin="bevel"/>
</g>
<g clip-path="url(#clip16_1433_47961)">
<circle cx="150" cy="250" r="44.8529" transform="rotate(-90 150 250)" stroke="black" stroke-width="10.2941"/>
<path d="M149.646 257.354L149.646 308.824" stroke="#6349FF" stroke-width="4.41177" stroke-linejoin="bevel"/>
<path d="M155.449 245.051L191.844 208.656" stroke="#6349FF" stroke-width="4.41177" stroke-linejoin="bevel"/>
<path d="M145.051 244.551L108.656 208.156" stroke="#6349FF" stroke-width="4.41177" stroke-linejoin="bevel"/>
</g>
<g clip-path="url(#clip17_1433_47961)">
<circle cx="250" cy="350" r="44.8529" transform="rotate(-90 250 350)" stroke="black" stroke-width="10.2941"/>
<path d="M249.646 357.354L249.646 408.824" stroke="#6349FF" stroke-width="4.41177" stroke-linejoin="bevel"/>
<path d="M242.648 349.645L191.178 349.645" stroke="#6349FF" stroke-width="4.41177" stroke-linejoin="bevel"/>
</g>
</g>
<defs>
<clipPath id="clip0_1433_47961">
<rect width="100" height="100" fill="white" transform="translate(1100 900) rotate(-90)"/>
</clipPath>
<clipPath id="clip1_1433_47961">
<rect width="100" height="100" fill="white" transform="translate(1200) rotate(90)"/>
</clipPath>
<clipPath id="clip2_1433_47961">
<rect width="100" height="100" fill="white" transform="translate(1000 400) rotate(-90)"/>
</clipPath>
<clipPath id="clip3_1433_47961">
<rect width="100" height="100" fill="white" transform="translate(600 800)"/>
</clipPath>
<clipPath id="clip4_1433_47961">
<rect width="100" height="100" fill="white" transform="translate(1500 500)"/>
</clipPath>
<clipPath id="clip5_1433_47961">
<rect width="100" height="100" fill="white" transform="translate(1500)"/>
</clipPath>
<clipPath id="clip6_1433_47961">
<rect width="100" height="100" fill="white" transform="matrix(-1 0 0 1 1300 800)"/>
</clipPath>
<clipPath id="clip7_1433_47961">
<rect width="100" height="100" fill="white" transform="matrix(-1 0 0 1 1100 700)"/>
</clipPath>
<clipPath id="clip8_1433_47961">
<rect width="100" height="100" fill="white" transform="matrix(-1.19249e-08 -1 -1 1.19249e-08 1300 200)"/>
</clipPath>
<clipPath id="clip9_1433_47961">
<rect width="100" height="100" fill="white" transform="translate(100 400) rotate(-90)"/>
</clipPath>
<clipPath id="clip10_1433_47961">
<rect width="100" height="100" fill="white" transform="translate(78 800)"/>
</clipPath>
<clipPath id="clip11_1433_47961">
<rect width="100" height="100" fill="white" transform="matrix(4.37114e-08 -1 -1 -4.37114e-08 1500 700)"/>
</clipPath>
<clipPath id="clip12_1433_47961">
<rect width="100" height="100" fill="white" transform="matrix(4.37114e-08 -1 -1 -4.37114e-08 1000 800)"/>
</clipPath>
<clipPath id="clip13_1433_47961">
<rect width="100" height="100" fill="white" transform="matrix(-4.37114e-08 1 1 4.37114e-08 1500 600)"/>
</clipPath>
<clipPath id="clip14_1433_47961">
<rect width="100" height="100" fill="white" transform="matrix(4.37114e-08 1 1 -4.37114e-08 1100 100)"/>
</clipPath>
<clipPath id="clip15_1433_47961">
<rect width="100" height="100" fill="white" transform="matrix(-4.37114e-08 1 1 4.37114e-08 1000 200)"/>
</clipPath>
<clipPath id="clip16_1433_47961">
<rect width="100" height="100" fill="white" transform="translate(100 300) rotate(-90)"/>
</clipPath>
<clipPath id="clip17_1433_47961">
<rect width="100" height="100" fill="white" transform="translate(200 400) rotate(-90)"/>
</clipPath>
</defs>
</svg>
