<svg fill="none" xmlns="http://www.w3.org/2000/svg">
<g opacity="0.3">
<rect width="1600" height="900" fill="black"/>
<g opacity="0.6">
<rect x="10" width="80" height="1" fill="white" fill-opacity="0.15"/>
<rect y="90" width="80" height="1" transform="rotate(-90 0 90)" fill="white" fill-opacity="0.15"/>
<rect x="110" width="80" height="1" fill="white" fill-opacity="0.15"/>
<rect x="100" y="90" width="80" height="1" transform="rotate(-90 100 90)" fill="white" fill-opacity="0.15"/>
<rect x="210" width="80" height="1" fill="white" fill-opacity="0.15"/>
<rect x="200" y="90" width="80" height="1" transform="rotate(-90 200 90)" fill="white" fill-opacity="0.15"/>
<rect x="310" width="80" height="1" fill="white" fill-opacity="0.15"/>
<rect x="300" y="90" width="80" height="1" transform="rotate(-90 300 90)" fill="white" fill-opacity="0.15"/>
<rect x="410" width="80" height="1" fill="white" fill-opacity="0.15"/>
<rect x="400" y="90" width="80" height="1" transform="rotate(-90 400 90)" fill="white" fill-opacity="0.15"/>
<rect x="510" width="80" height="1" fill="white" fill-opacity="0.15"/>
<rect x="500" y="90" width="80" height="1" transform="rotate(-90 500 90)" fill="white" fill-opacity="0.15"/>
<rect x="610" width="80" height="1" fill="white" fill-opacity="0.15"/>
<rect x="600" y="90" width="80" height="1" transform="rotate(-90 600 90)" fill="white" fill-opacity="0.15"/>
<rect x="710" width="80" height="1" fill="white" fill-opacity="0.15"/>
<rect x="700" y="90" width="80" height="1" transform="rotate(-90 700 90)" fill="white" fill-opacity="0.15"/>
<rect x="810" width="80" height="1" fill="white" fill-opacity="0.15"/>
<rect x="800" y="90" width="80" height="1" transform="rotate(-90 800 90)" fill="white" fill-opacity="0.15"/>
<rect x="910" width="80" height="1" fill="white" fill-opacity="0.15"/>
<rect x="900" y="90" width="80" height="1" transform="rotate(-90 900 90)" fill="white" fill-opacity="0.15"/>
<rect x="1010" width="80" height="1" fill="white" fill-opacity="0.15"/>
<rect x="1000" y="90" width="80" height="1" transform="rotate(-90 1000 90)" fill="white" fill-opacity="0.15"/>
<rect x="1110" width="80" height="1" fill="white" fill-opacity="0.15"/>
<rect x="1100" y="90" width="80" height="1" transform="rotate(-90 1100 90)" fill="white" fill-opacity="0.15"/>
<rect x="1210" width="80" height="1" fill="white" fill-opacity="0.15"/>
<rect x="1200" y="90" width="80" height="1" transform="rotate(-90 1200 90)" fill="white" fill-opacity="0.15"/>
<rect x="1310" width="80" height="1" fill="white" fill-opacity="0.15"/>
<rect x="1300" y="90" width="80" height="1" transform="rotate(-90 1300 90)" fill="white" fill-opacity="0.15"/>
<rect x="1410" width="80" height="1" fill="white" fill-opacity="0.15"/>
<rect x="1400" y="90" width="80" height="1" transform="rotate(-90 1400 90)" fill="white" fill-opacity="0.15"/>
<rect x="1510" width="80" height="1" fill="white" fill-opacity="0.15"/>
<rect x="1500" y="90" width="80" height="1" transform="rotate(-90 1500 90)" fill="white" fill-opacity="0.15"/>
<rect x="1610" width="80" height="1" fill="white" fill-opacity="0.15"/>
<rect x="1600" y="90" width="80" height="1" transform="rotate(-90 1600 90)" fill="white" fill-opacity="0.15"/>
<rect x="10" y="100" width="80" height="1" fill="white" fill-opacity="0.15"/>
<rect y="190" width="80" height="1" transform="rotate(-90 0 190)" fill="white" fill-opacity="0.15"/>
<rect x="110" y="100" width="80" height="1" fill="white" fill-opacity="0.15"/>
<rect x="100" y="190" width="80" height="1" transform="rotate(-90 100 190)" fill="white" fill-opacity="0.15"/>
<rect x="210" y="100" width="80" height="1" fill="white" fill-opacity="0.15"/>
<rect x="200" y="190" width="80" height="1" transform="rotate(-90 200 190)" fill="white" fill-opacity="0.15"/>
<rect x="310" y="100" width="80" height="1" fill="white" fill-opacity="0.15"/>
<rect x="300" y="190" width="80" height="1" transform="rotate(-90 300 190)" fill="white" fill-opacity="0.15"/>
<rect x="410" y="100" width="80" height="1" fill="white" fill-opacity="0.15"/>
<rect x="400" y="190" width="80" height="1" transform="rotate(-90 400 190)" fill="white" fill-opacity="0.15"/>
<rect x="510" y="100" width="80" height="1" fill="white" fill-opacity="0.15"/>
<rect x="500" y="190" width="80" height="1" transform="rotate(-90 500 190)" fill="white" fill-opacity="0.15"/>
<rect x="610" y="100" width="80" height="1" fill="white" fill-opacity="0.15"/>
<rect x="600" y="190" width="80" height="1" transform="rotate(-90 600 190)" fill="white" fill-opacity="0.15"/>
<rect x="710" y="100" width="80" height="1" fill="white" fill-opacity="0.15"/>
<rect x="700" y="190" width="80" height="1" transform="rotate(-90 700 190)" fill="white" fill-opacity="0.15"/>
<rect x="810" y="100" width="80" height="1" fill="white" fill-opacity="0.15"/>
<rect x="800" y="190" width="80" height="1" transform="rotate(-90 800 190)" fill="white" fill-opacity="0.15"/>
<rect x="910" y="100" width="80" height="1" fill="white" fill-opacity="0.15"/>
<rect x="900" y="190" width="80" height="1" transform="rotate(-90 900 190)" fill="white" fill-opacity="0.15"/>
<rect x="1010" y="100" width="80" height="1" fill="white" fill-opacity="0.15"/>
<rect x="1000" y="190" width="80" height="1" transform="rotate(-90 1000 190)" fill="white" fill-opacity="0.15"/>
<rect x="1110" y="100" width="80" height="1" fill="white" fill-opacity="0.15"/>
<rect x="1100" y="190" width="80" height="1" transform="rotate(-90 1100 190)" fill="white" fill-opacity="0.15"/>
<rect x="1210" y="100" width="80" height="1" fill="white" fill-opacity="0.15"/>
<rect x="1200" y="190" width="80" height="1" transform="rotate(-90 1200 190)" fill="white" fill-opacity="0.15"/>
<rect x="1310" y="100" width="80" height="1" fill="white" fill-opacity="0.15"/>
<rect x="1300" y="190" width="80" height="1" transform="rotate(-90 1300 190)" fill="white" fill-opacity="0.15"/>
<rect x="1410" y="100" width="80" height="1" fill="white" fill-opacity="0.15"/>
<rect x="1400" y="190" width="80" height="1" transform="rotate(-90 1400 190)" fill="white" fill-opacity="0.15"/>
<rect x="1510" y="100" width="80" height="1" fill="white" fill-opacity="0.15"/>
<rect x="1500" y="190" width="80" height="1" transform="rotate(-90 1500 190)" fill="white" fill-opacity="0.15"/>
<rect x="1610" y="100" width="80" height="1" fill="white" fill-opacity="0.15"/>
<rect x="1600" y="190" width="80" height="1" transform="rotate(-90 1600 190)" fill="white" fill-opacity="0.15"/>
<rect x="10" y="200" width="80" height="1" fill="white" fill-opacity="0.15"/>
<rect y="290" width="80" height="1" transform="rotate(-90 0 290)" fill="white" fill-opacity="0.15"/>
<rect x="110" y="200" width="80" height="1" fill="white" fill-opacity="0.15"/>
<rect x="100" y="290" width="80" height="1" transform="rotate(-90 100 290)" fill="white" fill-opacity="0.15"/>
<rect x="210" y="200" width="80" height="1" fill="white" fill-opacity="0.15"/>
<rect x="200" y="290" width="80" height="1" transform="rotate(-90 200 290)" fill="white" fill-opacity="0.15"/>
<rect x="310" y="200" width="80" height="1" fill="white" fill-opacity="0.15"/>
<rect x="300" y="290" width="80" height="1" transform="rotate(-90 300 290)" fill="white" fill-opacity="0.15"/>
<rect x="410" y="200" width="80" height="1" fill="white" fill-opacity="0.15"/>
<rect x="400" y="290" width="80" height="1" transform="rotate(-90 400 290)" fill="white" fill-opacity="0.15"/>
<rect x="510" y="200" width="80" height="1" fill="white" fill-opacity="0.15"/>
<rect x="500" y="290" width="80" height="1" transform="rotate(-90 500 290)" fill="white" fill-opacity="0.15"/>
<rect x="610" y="200" width="80" height="1" fill="white" fill-opacity="0.15"/>
<rect x="600" y="290" width="80" height="1" transform="rotate(-90 600 290)" fill="white" fill-opacity="0.15"/>
<rect x="710" y="200" width="80" height="1" fill="white" fill-opacity="0.15"/>
<rect x="700" y="290" width="80" height="1" transform="rotate(-90 700 290)" fill="white" fill-opacity="0.15"/>
<rect x="810" y="200" width="80" height="1" fill="white" fill-opacity="0.15"/>
<rect x="800" y="290" width="80" height="1" transform="rotate(-90 800 290)" fill="white" fill-opacity="0.15"/>
<rect x="910" y="200" width="80" height="1" fill="white" fill-opacity="0.15"/>
<rect x="900" y="290" width="80" height="1" transform="rotate(-90 900 290)" fill="white" fill-opacity="0.15"/>
<rect x="1010" y="200" width="80" height="1" fill="white" fill-opacity="0.15"/>
<rect x="1000" y="290" width="80" height="1" transform="rotate(-90 1000 290)" fill="white" fill-opacity="0.15"/>
<rect x="1110" y="200" width="80" height="1" fill="white" fill-opacity="0.15"/>
<rect x="1100" y="290" width="80" height="1" transform="rotate(-90 1100 290)" fill="white" fill-opacity="0.15"/>
<rect x="1210" y="200" width="80" height="1" fill="white" fill-opacity="0.15"/>
<rect x="1200" y="290" width="80" height="1" transform="rotate(-90 1200 290)" fill="white" fill-opacity="0.15"/>
<rect x="1310" y="200" width="80" height="1" fill="white" fill-opacity="0.15"/>
<rect x="1300" y="290" width="80" height="1" transform="rotate(-90 1300 290)" fill="white" fill-opacity="0.15"/>
<rect x="1410" y="200" width="80" height="1" fill="white" fill-opacity="0.15"/>
<rect x="1400" y="290" width="80" height="1" transform="rotate(-90 1400 290)" fill="white" fill-opacity="0.15"/>
<rect x="1510" y="200" width="80" height="1" fill="white" fill-opacity="0.15"/>
<rect x="1500" y="290" width="80" height="1" transform="rotate(-90 1500 290)" fill="white" fill-opacity="0.15"/>
<rect x="1610" y="200" width="80" height="1" fill="white" fill-opacity="0.15"/>
<rect x="1600" y="290" width="80" height="1" transform="rotate(-90 1600 290)" fill="white" fill-opacity="0.15"/>
<rect x="10" y="300" width="80" height="1" fill="white" fill-opacity="0.15"/>
<rect y="390" width="80" height="1" transform="rotate(-90 0 390)" fill="white" fill-opacity="0.15"/>
<rect x="110" y="300" width="80" height="1" fill="white" fill-opacity="0.15"/>
<rect x="100" y="390" width="80" height="1" transform="rotate(-90 100 390)" fill="white" fill-opacity="0.15"/>
<rect x="210" y="300" width="80" height="1" fill="white" fill-opacity="0.15"/>
<rect x="200" y="390" width="80" height="1" transform="rotate(-90 200 390)" fill="white" fill-opacity="0.15"/>
<rect x="310" y="300" width="80" height="1" fill="white" fill-opacity="0.15"/>
<rect x="300" y="390" width="80" height="1" transform="rotate(-90 300 390)" fill="white" fill-opacity="0.15"/>
<rect x="410" y="300" width="80" height="1" fill="white" fill-opacity="0.15"/>
<rect x="400" y="390" width="80" height="1" transform="rotate(-90 400 390)" fill="white" fill-opacity="0.15"/>
<rect x="510" y="300" width="80" height="1" fill="white" fill-opacity="0.15"/>
<rect x="500" y="390" width="80" height="1" transform="rotate(-90 500 390)" fill="white" fill-opacity="0.15"/>
<rect x="610" y="300" width="80" height="1" fill="white" fill-opacity="0.15"/>
<rect x="600" y="390" width="80" height="1" transform="rotate(-90 600 390)" fill="white" fill-opacity="0.15"/>
<rect x="710" y="300" width="80" height="1" fill="white" fill-opacity="0.15"/>
<rect x="700" y="390" width="80" height="1" transform="rotate(-90 700 390)" fill="white" fill-opacity="0.15"/>
<rect x="810" y="300" width="80" height="1" fill="white" fill-opacity="0.15"/>
<rect x="800" y="390" width="80" height="1" transform="rotate(-90 800 390)" fill="white" fill-opacity="0.15"/>
<rect x="910" y="300" width="80" height="1" fill="white" fill-opacity="0.15"/>
<rect x="900" y="390" width="80" height="1" transform="rotate(-90 900 390)" fill="white" fill-opacity="0.15"/>
<rect x="1010" y="300" width="80" height="1" fill="white" fill-opacity="0.15"/>
<rect x="1000" y="390" width="80" height="1" transform="rotate(-90 1000 390)" fill="white" fill-opacity="0.15"/>
<rect x="1110" y="300" width="80" height="1" fill="white" fill-opacity="0.15"/>
<rect x="1100" y="390" width="80" height="1" transform="rotate(-90 1100 390)" fill="white" fill-opacity="0.15"/>
<rect x="1210" y="300" width="80" height="1" fill="white" fill-opacity="0.15"/>
<rect x="1200" y="390" width="80" height="1" transform="rotate(-90 1200 390)" fill="white" fill-opacity="0.15"/>
<rect x="1310" y="300" width="80" height="1" fill="white" fill-opacity="0.15"/>
<rect x="1300" y="390" width="80" height="1" transform="rotate(-90 1300 390)" fill="white" fill-opacity="0.15"/>
<rect x="1410" y="300" width="80" height="1" fill="white" fill-opacity="0.15"/>
<rect x="1400" y="390" width="80" height="1" transform="rotate(-90 1400 390)" fill="white" fill-opacity="0.15"/>
<rect x="1510" y="300" width="80" height="1" fill="white" fill-opacity="0.15"/>
<rect x="1500" y="390" width="80" height="1" transform="rotate(-90 1500 390)" fill="white" fill-opacity="0.15"/>
<rect x="1610" y="300" width="80" height="1" fill="white" fill-opacity="0.15"/>
<rect x="1600" y="390" width="80" height="1" transform="rotate(-90 1600 390)" fill="white" fill-opacity="0.15"/>
<rect x="10" y="400" width="80" height="1" fill="white" fill-opacity="0.15"/>
<rect y="490" width="80" height="1" transform="rotate(-90 0 490)" fill="white" fill-opacity="0.15"/>
<rect x="110" y="400" width="80" height="1" fill="white" fill-opacity="0.15"/>
<rect x="100" y="490" width="80" height="1" transform="rotate(-90 100 490)" fill="white" fill-opacity="0.15"/>
<rect x="210" y="400" width="80" height="1" fill="white" fill-opacity="0.15"/>
<rect x="200" y="490" width="80" height="1" transform="rotate(-90 200 490)" fill="white" fill-opacity="0.15"/>
<rect x="310" y="400" width="80" height="1" fill="white" fill-opacity="0.15"/>
<rect x="300" y="490" width="80" height="1" transform="rotate(-90 300 490)" fill="white" fill-opacity="0.15"/>
<rect x="410" y="400" width="80" height="1" fill="white" fill-opacity="0.15"/>
<rect x="400" y="490" width="80" height="1" transform="rotate(-90 400 490)" fill="white" fill-opacity="0.15"/>
<rect x="510" y="400" width="80" height="1" fill="white" fill-opacity="0.15"/>
<rect x="500" y="490" width="80" height="1" transform="rotate(-90 500 490)" fill="white" fill-opacity="0.15"/>
<rect x="610" y="400" width="80" height="1" fill="white" fill-opacity="0.15"/>
<rect x="600" y="490" width="80" height="1" transform="rotate(-90 600 490)" fill="white" fill-opacity="0.15"/>
<rect x="710" y="400" width="80" height="1" fill="white" fill-opacity="0.15"/>
<rect x="700" y="490" width="80" height="1" transform="rotate(-90 700 490)" fill="white" fill-opacity="0.15"/>
<rect x="810" y="400" width="80" height="1" fill="white" fill-opacity="0.15"/>
<rect x="800" y="490" width="80" height="1" transform="rotate(-90 800 490)" fill="white" fill-opacity="0.15"/>
<rect x="910" y="400" width="80" height="1" fill="white" fill-opacity="0.15"/>
<rect x="900" y="490" width="80" height="1" transform="rotate(-90 900 490)" fill="white" fill-opacity="0.15"/>
<rect x="1010" y="400" width="80" height="1" fill="white" fill-opacity="0.15"/>
<rect x="1000" y="490" width="80" height="1" transform="rotate(-90 1000 490)" fill="white" fill-opacity="0.15"/>
<rect x="1110" y="400" width="80" height="1" fill="white" fill-opacity="0.15"/>
<rect x="1100" y="490" width="80" height="1" transform="rotate(-90 1100 490)" fill="white" fill-opacity="0.15"/>
<rect x="1210" y="400" width="80" height="1" fill="white" fill-opacity="0.15"/>
<rect x="1200" y="490" width="80" height="1" transform="rotate(-90 1200 490)" fill="white" fill-opacity="0.15"/>
<rect x="1310" y="400" width="80" height="1" fill="white" fill-opacity="0.15"/>
<rect x="1300" y="490" width="80" height="1" transform="rotate(-90 1300 490)" fill="white" fill-opacity="0.15"/>
<rect x="1410" y="400" width="80" height="1" fill="white" fill-opacity="0.15"/>
<rect x="1400" y="490" width="80" height="1" transform="rotate(-90 1400 490)" fill="white" fill-opacity="0.15"/>
<rect x="1510" y="400" width="80" height="1" fill="white" fill-opacity="0.15"/>
<rect x="1500" y="490" width="80" height="1" transform="rotate(-90 1500 490)" fill="white" fill-opacity="0.15"/>
<rect x="1610" y="400" width="80" height="1" fill="white" fill-opacity="0.15"/>
<rect x="1600" y="490" width="80" height="1" transform="rotate(-90 1600 490)" fill="white" fill-opacity="0.15"/>
<rect x="10" y="500" width="80" height="1" fill="white" fill-opacity="0.15"/>
<rect y="590" width="80" height="1" transform="rotate(-90 0 590)" fill="white" fill-opacity="0.15"/>
<rect x="110" y="500" width="80" height="1" fill="white" fill-opacity="0.15"/>
<rect x="100" y="590" width="80" height="1" transform="rotate(-90 100 590)" fill="white" fill-opacity="0.15"/>
<rect x="210" y="500" width="80" height="1" fill="white" fill-opacity="0.15"/>
<rect x="200" y="590" width="80" height="1" transform="rotate(-90 200 590)" fill="white" fill-opacity="0.15"/>
<rect x="310" y="500" width="80" height="1" fill="white" fill-opacity="0.15"/>
<rect x="300" y="590" width="80" height="1" transform="rotate(-90 300 590)" fill="white" fill-opacity="0.15"/>
<rect x="410" y="500" width="80" height="1" fill="white" fill-opacity="0.15"/>
<rect x="400" y="590" width="80" height="1" transform="rotate(-90 400 590)" fill="white" fill-opacity="0.15"/>
<rect x="510" y="500" width="80" height="1" fill="white" fill-opacity="0.15"/>
<rect x="500" y="590" width="80" height="1" transform="rotate(-90 500 590)" fill="white" fill-opacity="0.15"/>
<rect x="610" y="500" width="80" height="1" fill="white" fill-opacity="0.15"/>
<rect x="600" y="590" width="80" height="1" transform="rotate(-90 600 590)" fill="white" fill-opacity="0.15"/>
<rect x="710" y="500" width="80" height="1" fill="white" fill-opacity="0.15"/>
<rect x="700" y="590" width="80" height="1" transform="rotate(-90 700 590)" fill="white" fill-opacity="0.15"/>
<rect x="810" y="500" width="80" height="1" fill="white" fill-opacity="0.15"/>
<rect x="800" y="590" width="80" height="1" transform="rotate(-90 800 590)" fill="white" fill-opacity="0.15"/>
<rect x="910" y="500" width="80" height="1" fill="white" fill-opacity="0.15"/>
<rect x="900" y="590" width="80" height="1" transform="rotate(-90 900 590)" fill="white" fill-opacity="0.15"/>
<rect x="1010" y="500" width="80" height="1" fill="white" fill-opacity="0.15"/>
<rect x="1000" y="590" width="80" height="1" transform="rotate(-90 1000 590)" fill="white" fill-opacity="0.15"/>
<rect x="1110" y="500" width="80" height="1" fill="white" fill-opacity="0.15"/>
<rect x="1100" y="590" width="80" height="1" transform="rotate(-90 1100 590)" fill="white" fill-opacity="0.15"/>
<rect x="1210" y="500" width="80" height="1" fill="white" fill-opacity="0.15"/>
<rect x="1200" y="590" width="80" height="1" transform="rotate(-90 1200 590)" fill="white" fill-opacity="0.15"/>
<rect x="1310" y="500" width="80" height="1" fill="white" fill-opacity="0.15"/>
<rect x="1300" y="590" width="80" height="1" transform="rotate(-90 1300 590)" fill="white" fill-opacity="0.15"/>
<rect x="1410" y="500" width="80" height="1" fill="white" fill-opacity="0.15"/>
<rect x="1400" y="590" width="80" height="1" transform="rotate(-90 1400 590)" fill="white" fill-opacity="0.15"/>
<rect x="1510" y="500" width="80" height="1" fill="white" fill-opacity="0.15"/>
<rect x="1500" y="590" width="80" height="1" transform="rotate(-90 1500 590)" fill="white" fill-opacity="0.15"/>
<rect x="1610" y="500" width="80" height="1" fill="white" fill-opacity="0.15"/>
<rect x="1600" y="590" width="80" height="1" transform="rotate(-90 1600 590)" fill="white" fill-opacity="0.15"/>
<rect x="10" y="600" width="80" height="1" fill="white" fill-opacity="0.15"/>
<rect y="690" width="80" height="1" transform="rotate(-90 0 690)" fill="white" fill-opacity="0.15"/>
<rect x="110" y="600" width="80" height="1" fill="white" fill-opacity="0.15"/>
<rect x="100" y="690" width="80" height="1" transform="rotate(-90 100 690)" fill="white" fill-opacity="0.15"/>
<rect x="210" y="600" width="80" height="1" fill="white" fill-opacity="0.15"/>
<rect x="200" y="690" width="80" height="1" transform="rotate(-90 200 690)" fill="white" fill-opacity="0.15"/>
<rect x="310" y="600" width="80" height="1" fill="white" fill-opacity="0.15"/>
<rect x="300" y="690" width="80" height="1" transform="rotate(-90 300 690)" fill="white" fill-opacity="0.15"/>
<rect x="410" y="600" width="80" height="1" fill="white" fill-opacity="0.15"/>
<rect x="400" y="690" width="80" height="1" transform="rotate(-90 400 690)" fill="white" fill-opacity="0.15"/>
<rect x="510" y="600" width="80" height="1" fill="white" fill-opacity="0.15"/>
<rect x="500" y="690" width="80" height="1" transform="rotate(-90 500 690)" fill="white" fill-opacity="0.15"/>
<rect x="610" y="600" width="80" height="1" fill="white" fill-opacity="0.15"/>
<rect x="600" y="690" width="80" height="1" transform="rotate(-90 600 690)" fill="white" fill-opacity="0.15"/>
<rect x="710" y="600" width="80" height="1" fill="white" fill-opacity="0.15"/>
<rect x="700" y="690" width="80" height="1" transform="rotate(-90 700 690)" fill="white" fill-opacity="0.15"/>
<rect x="810" y="600" width="80" height="1" fill="white" fill-opacity="0.15"/>
<rect x="800" y="690" width="80" height="1" transform="rotate(-90 800 690)" fill="white" fill-opacity="0.15"/>
<rect x="910" y="600" width="80" height="1" fill="white" fill-opacity="0.15"/>
<rect x="900" y="690" width="80" height="1" transform="rotate(-90 900 690)" fill="white" fill-opacity="0.15"/>
<rect x="1010" y="600" width="80" height="1" fill="white" fill-opacity="0.15"/>
<rect x="1000" y="690" width="80" height="1" transform="rotate(-90 1000 690)" fill="white" fill-opacity="0.15"/>
<rect x="1110" y="600" width="80" height="1" fill="white" fill-opacity="0.15"/>
<rect x="1100" y="690" width="80" height="1" transform="rotate(-90 1100 690)" fill="white" fill-opacity="0.15"/>
<rect x="1210" y="600" width="80" height="1" fill="white" fill-opacity="0.15"/>
<rect x="1200" y="690" width="80" height="1" transform="rotate(-90 1200 690)" fill="white" fill-opacity="0.15"/>
<rect x="1310" y="600" width="80" height="1" fill="white" fill-opacity="0.15"/>
<rect x="1300" y="690" width="80" height="1" transform="rotate(-90 1300 690)" fill="white" fill-opacity="0.15"/>
<rect x="1410" y="600" width="80" height="1" fill="white" fill-opacity="0.15"/>
<rect x="1400" y="690" width="80" height="1" transform="rotate(-90 1400 690)" fill="white" fill-opacity="0.15"/>
<rect x="1510" y="600" width="80" height="1" fill="white" fill-opacity="0.15"/>
<rect x="1500" y="690" width="80" height="1" transform="rotate(-90 1500 690)" fill="white" fill-opacity="0.15"/>
<rect x="1610" y="600" width="80" height="1" fill="white" fill-opacity="0.15"/>
<rect x="1600" y="690" width="80" height="1" transform="rotate(-90 1600 690)" fill="white" fill-opacity="0.15"/>
<rect x="10" y="700" width="80" height="1" fill="white" fill-opacity="0.15"/>
<rect y="790" width="80" height="1" transform="rotate(-90 0 790)" fill="white" fill-opacity="0.15"/>
<rect x="110" y="700" width="80" height="1" fill="white" fill-opacity="0.15"/>
<rect x="100" y="790" width="80" height="1" transform="rotate(-90 100 790)" fill="white" fill-opacity="0.15"/>
<rect x="210" y="700" width="80" height="1" fill="white" fill-opacity="0.15"/>
<rect x="200" y="790" width="80" height="1" transform="rotate(-90 200 790)" fill="white" fill-opacity="0.15"/>
<rect x="310" y="700" width="80" height="1" fill="white" fill-opacity="0.15"/>
<rect x="300" y="790" width="80" height="1" transform="rotate(-90 300 790)" fill="white" fill-opacity="0.15"/>
<rect x="410" y="700" width="80" height="1" fill="white" fill-opacity="0.15"/>
<rect x="400" y="790" width="80" height="1" transform="rotate(-90 400 790)" fill="white" fill-opacity="0.15"/>
<rect x="510" y="700" width="80" height="1" fill="white" fill-opacity="0.15"/>
<rect x="500" y="790" width="80" height="1" transform="rotate(-90 500 790)" fill="white" fill-opacity="0.15"/>
<rect x="610" y="700" width="80" height="1" fill="white" fill-opacity="0.15"/>
<rect x="600" y="790" width="80" height="1" transform="rotate(-90 600 790)" fill="white" fill-opacity="0.15"/>
<rect x="710" y="700" width="80" height="1" fill="white" fill-opacity="0.15"/>
<rect x="700" y="790" width="80" height="1" transform="rotate(-90 700 790)" fill="white" fill-opacity="0.15"/>
<rect x="810" y="700" width="80" height="1" fill="white" fill-opacity="0.15"/>
<rect x="800" y="790" width="80" height="1" transform="rotate(-90 800 790)" fill="white" fill-opacity="0.15"/>
<rect x="910" y="700" width="80" height="1" fill="white" fill-opacity="0.15"/>
<rect x="900" y="790" width="80" height="1" transform="rotate(-90 900 790)" fill="white" fill-opacity="0.15"/>
<rect x="1010" y="700" width="80" height="1" fill="white" fill-opacity="0.15"/>
<rect x="1000" y="790" width="80" height="1" transform="rotate(-90 1000 790)" fill="white" fill-opacity="0.15"/>
<rect x="1110" y="700" width="80" height="1" fill="white" fill-opacity="0.15"/>
<rect x="1100" y="790" width="80" height="1" transform="rotate(-90 1100 790)" fill="white" fill-opacity="0.15"/>
<rect x="1210" y="700" width="80" height="1" fill="white" fill-opacity="0.15"/>
<rect x="1200" y="790" width="80" height="1" transform="rotate(-90 1200 790)" fill="white" fill-opacity="0.15"/>
<rect x="1310" y="700" width="80" height="1" fill="white" fill-opacity="0.15"/>
<rect x="1300" y="790" width="80" height="1" transform="rotate(-90 1300 790)" fill="white" fill-opacity="0.15"/>
<rect x="1410" y="700" width="80" height="1" fill="white" fill-opacity="0.15"/>
<rect x="1400" y="790" width="80" height="1" transform="rotate(-90 1400 790)" fill="white" fill-opacity="0.15"/>
<rect x="1510" y="700" width="80" height="1" fill="white" fill-opacity="0.15"/>
<rect x="1500" y="790" width="80" height="1" transform="rotate(-90 1500 790)" fill="white" fill-opacity="0.15"/>
<rect x="1610" y="700" width="80" height="1" fill="white" fill-opacity="0.15"/>
<rect x="1600" y="790" width="80" height="1" transform="rotate(-90 1600 790)" fill="white" fill-opacity="0.15"/>
<rect x="10" y="800" width="80" height="1" fill="white" fill-opacity="0.15"/>
<rect y="890" width="80" height="1" transform="rotate(-90 0 890)" fill="white" fill-opacity="0.15"/>
<rect x="110" y="800" width="80" height="1" fill="white" fill-opacity="0.15"/>
<rect x="100" y="890" width="80" height="1" transform="rotate(-90 100 890)" fill="white" fill-opacity="0.15"/>
<rect x="210" y="800" width="80" height="1" fill="white" fill-opacity="0.15"/>
<rect x="200" y="890" width="80" height="1" transform="rotate(-90 200 890)" fill="white" fill-opacity="0.15"/>
<rect x="310" y="800" width="80" height="1" fill="white" fill-opacity="0.15"/>
<rect x="300" y="890" width="80" height="1" transform="rotate(-90 300 890)" fill="white" fill-opacity="0.15"/>
<rect x="410" y="800" width="80" height="1" fill="white" fill-opacity="0.15"/>
<rect x="400" y="890" width="80" height="1" transform="rotate(-90 400 890)" fill="white" fill-opacity="0.15"/>
<rect x="510" y="800" width="80" height="1" fill="white" fill-opacity="0.15"/>
<rect x="500" y="890" width="80" height="1" transform="rotate(-90 500 890)" fill="white" fill-opacity="0.15"/>
<rect x="610" y="800" width="80" height="1" fill="white" fill-opacity="0.15"/>
<rect x="600" y="890" width="80" height="1" transform="rotate(-90 600 890)" fill="white" fill-opacity="0.15"/>
<rect x="710" y="800" width="80" height="1" fill="white" fill-opacity="0.15"/>
<rect x="700" y="890" width="80" height="1" transform="rotate(-90 700 890)" fill="white" fill-opacity="0.15"/>
<rect x="810" y="800" width="80" height="1" fill="white" fill-opacity="0.15"/>
<rect x="800" y="890" width="80" height="1" transform="rotate(-90 800 890)" fill="white" fill-opacity="0.15"/>
<rect x="910" y="800" width="80" height="1" fill="white" fill-opacity="0.15"/>
<rect x="900" y="890" width="80" height="1" transform="rotate(-90 900 890)" fill="white" fill-opacity="0.15"/>
<rect x="1010" y="800" width="80" height="1" fill="white" fill-opacity="0.15"/>
<rect x="1000" y="890" width="80" height="1" transform="rotate(-90 1000 890)" fill="white" fill-opacity="0.15"/>
<rect x="1110" y="800" width="80" height="1" fill="white" fill-opacity="0.15"/>
<rect x="1100" y="890" width="80" height="1" transform="rotate(-90 1100 890)" fill="white" fill-opacity="0.15"/>
<rect x="1210" y="800" width="80" height="1" fill="white" fill-opacity="0.15"/>
<rect x="1200" y="890" width="80" height="1" transform="rotate(-90 1200 890)" fill="white" fill-opacity="0.15"/>
<rect x="1310" y="800" width="80" height="1" fill="white" fill-opacity="0.15"/>
<rect x="1300" y="890" width="80" height="1" transform="rotate(-90 1300 890)" fill="white" fill-opacity="0.15"/>
<rect x="1410" y="800" width="80" height="1" fill="white" fill-opacity="0.15"/>
<rect x="1400" y="890" width="80" height="1" transform="rotate(-90 1400 890)" fill="white" fill-opacity="0.15"/>
<rect x="1510" y="800" width="80" height="1" fill="white" fill-opacity="0.15"/>
<rect x="1500" y="890" width="80" height="1" transform="rotate(-90 1500 890)" fill="white" fill-opacity="0.15"/>
<rect x="1610" y="800" width="80" height="1" fill="white" fill-opacity="0.15"/>
<rect x="1600" y="890" width="80" height="1" transform="rotate(-90 1600 890)" fill="white" fill-opacity="0.15"/>
</g>
<g clip-path="url(#clip0_1433_47437)">
<circle cx="1150" cy="250" r="44.8529" transform="rotate(-180 1150 250)" stroke="black" stroke-width="10.2941"/>
<path d="M1157.35 250.354L1208.82 250.354" stroke="#6349FF" stroke-width="4.41177" stroke-linejoin="bevel"/>
<path d="M1149.65 257.352L1149.65 308.822" stroke="#6349FF" stroke-width="4.41177" stroke-linejoin="bevel"/>
<path d="M1144.55 254.949L1108.15 291.344" stroke="#6349FF" stroke-width="4.41177" stroke-linejoin="bevel"/>
</g>
<g clip-path="url(#clip1_1433_47437)">
<circle cx="1550" cy="550" r="44.8529" stroke="black" stroke-width="10.2941"/>
<path d="M1557.35 549.648L1608.82 549.648" stroke="#6349FF" stroke-width="4.41177" stroke-linejoin="bevel"/>
<path d="M1542.65 549.648L1491.18 549.648" stroke="#6349FF" stroke-width="4.41177" stroke-linejoin="bevel"/>
</g>
<g clip-path="url(#clip2_1433_47437)">
<circle cx="1650" cy="550" r="44.8529" stroke="black" stroke-width="10.2941"/>
<path d="M1642.65 549.648L1591.18 549.648" stroke="#6349FF" stroke-width="4.41177" stroke-linejoin="bevel"/>
</g>
<g clip-path="url(#clip3_1433_47437)">
<circle cx="550" cy="850" r="44.8529" stroke="black" stroke-width="10.2941"/>
<path d="M557.354 849.648L608.824 849.648" stroke="#6349FF" stroke-width="4.41177" stroke-linejoin="bevel"/>
<path d="M542.646 850.648L491.176 850.648" stroke="#6349FF" stroke-width="4.41177" stroke-linejoin="bevel"/>
<path d="M542.646 864.352L491.176 864.352" stroke="#6349FF" stroke-width="4.41177" stroke-linejoin="bevel"/>
<path d="M542.646 879.059L491.176 879.059" stroke="#6349FF" stroke-width="4.41177" stroke-linejoin="bevel"/>
<path d="M542.646 892.293L491.176 892.293" stroke="#6349FF" stroke-width="4.41177" stroke-linejoin="bevel"/>
<path d="M557.354 879.059L608.824 879.059" stroke="#6349FF" stroke-width="4.41177" stroke-linejoin="bevel"/>
</g>
<g clip-path="url(#clip4_1433_47437)">
<circle cx="50" cy="150" r="44.8529" stroke="black" stroke-width="10.2941"/>
<path d="M57.3536 149.648L108.824 149.648" stroke="#6349FF" stroke-width="4.41177" stroke-linejoin="bevel"/>
<path d="M42.6464 149.648L-8.82422 149.648" stroke="#6349FF" stroke-width="4.41177" stroke-linejoin="bevel"/>
<path d="M50.3828 142.723L50.3828 91.252" stroke="#6349FF" stroke-width="4.41177" stroke-linejoin="bevel"/>
<path d="M50.3535 157.354L50.3535 208.824" stroke="#6349FF" stroke-width="4.41177" stroke-linejoin="bevel"/>
</g>
<g clip-path="url(#clip5_1433_47437)">
<circle cx="950" cy="350" r="44.8529" transform="rotate(-90 950 350)" stroke="black" stroke-width="10.2941"/>
<path d="M949.646 342.646L949.646 291.176" stroke="#6349FF" stroke-width="4.41177" stroke-linejoin="bevel"/>
<path d="M964.354 357.354L964.354 408.824" stroke="#6349FF" stroke-width="4.41177" stroke-linejoin="bevel"/>
<path d="M979.059 357.354L979.059 408.824" stroke="#6349FF" stroke-width="4.41177" stroke-linejoin="bevel"/>
<path d="M921.707 357.354L921.707 408.824" stroke="#6349FF" stroke-width="4.41177" stroke-linejoin="bevel"/>
<path d="M992.295 357.354L992.295 408.824" stroke="#6349FF" stroke-width="4.41177" stroke-linejoin="bevel"/>
<path d="M934.941 357.354L934.941 408.824" stroke="#6349FF" stroke-width="4.41177" stroke-linejoin="bevel"/>
<path d="M979.059 342.646L979.059 291.176" stroke="#6349FF" stroke-width="4.41177" stroke-linejoin="bevel"/>
<path d="M992.293 342.646L992.293 291.176" stroke="#6349FF" stroke-width="4.41177" stroke-linejoin="bevel"/>
</g>
<g clip-path="url(#clip6_1433_47437)">
<circle cx="50" cy="50" r="44.8529" transform="matrix(4.18913e-08 1 1 -4.18913e-08 1100 800)" stroke="black" stroke-width="10.2941"/>
<path d="M1149.65 857.354L1149.65 908.824" stroke="#6349FF" stroke-width="4.41177" stroke-linejoin="bevel"/>
<path d="M1164.35 842.646L1164.35 791.176" stroke="#6349FF" stroke-width="4.41177" stroke-linejoin="bevel"/>
<path d="M1179.06 842.646L1179.06 791.176" stroke="#6349FF" stroke-width="4.41177" stroke-linejoin="bevel"/>
<path d="M1192.29 842.646L1192.29 791.176" stroke="#6349FF" stroke-width="4.41177" stroke-linejoin="bevel"/>
<path d="M1164.35 857.354L1164.35 908.824" stroke="#6349FF" stroke-width="4.41177" stroke-linejoin="bevel"/>
<path d="M1179.06 857.354L1179.06 908.824" stroke="#6349FF" stroke-width="4.41177" stroke-linejoin="bevel"/>
<path d="M1192.29 857.354L1192.29 908.824" stroke="#6349FF" stroke-width="4.41177" stroke-linejoin="bevel"/>
</g>
<g clip-path="url(#clip7_1433_47437)">
<circle cx="1350" cy="850" r="44.8529" transform="rotate(90 1350 850)" stroke="black" stroke-width="10.2941"/>
<path d="M1335.65 842.646L1335.65 791.176" stroke="#6349FF" stroke-width="4.41177" stroke-linejoin="bevel"/>
<path d="M1320.94 842.646L1320.94 791.176" stroke="#6349FF" stroke-width="4.41177" stroke-linejoin="bevel"/>
<path d="M1307.71 842.646L1307.71 791.176" stroke="#6349FF" stroke-width="4.41177" stroke-linejoin="bevel"/>
<path d="M1320.94 857.354L1320.94 908.824" stroke="#6349FF" stroke-width="4.41177" stroke-linejoin="bevel"/>
<path d="M1307.71 857.354L1307.71 908.824" stroke="#6349FF" stroke-width="4.41177" stroke-linejoin="bevel"/>
</g>
<g clip-path="url(#clip8_1433_47437)">
<circle cx="1450" cy="550" r="44.8529" transform="rotate(90 1450 550)" stroke="black" stroke-width="10.2941"/>
<path d="M1450.35 557.352L1450.35 608.822" stroke="#6349FF" stroke-width="4.41177" stroke-linejoin="bevel"/>
<path d="M1457.35 550.354L1508.82 550.354" stroke="#6349FF" stroke-width="4.41177" stroke-linejoin="bevel"/>
<path d="M1450.35 542.648L1450.35 491.178" stroke="#6349FF" stroke-width="4.41177" stroke-linejoin="bevel"/>
<path d="M1435.65 542.648L1435.65 491.178" stroke="#6349FF" stroke-width="4.41177" stroke-linejoin="bevel"/>
<path d="M1420.94 542.646L1420.94 491.176" stroke="#6349FF" stroke-width="4.41177" stroke-linejoin="bevel"/>
<path d="M1407.71 542.648L1407.71 491.178" stroke="#6349FF" stroke-width="4.41177" stroke-linejoin="bevel"/>
<path d="M1454.95 555.449L1491.34 591.844" stroke="#6349FF" stroke-width="4.41177" stroke-linejoin="bevel"/>
</g>
<g clip-path="url(#clip9_1433_47437)">
<circle cx="1450" cy="350" r="44.8529" transform="rotate(180 1450 350)" stroke="black" stroke-width="10.2941"/>
<path d="M1455.45 345.051L1491.84 308.656" stroke="#6349FF" stroke-width="4.41177" stroke-linejoin="bevel"/>
<path d="M1442.65 349.648L1391.18 349.648" stroke="#6349FF" stroke-width="4.41177" stroke-linejoin="bevel"/>
</g>
<g clip-path="url(#clip10_1433_47437)">
<circle cx="450" cy="850" r="44.8529" transform="rotate(-90 450 850)" stroke="black" stroke-width="10.2941"/>
<path d="M449.646 857.354L449.646 908.824" stroke="#6349FF" stroke-width="4.41177" stroke-linejoin="bevel"/>
<path d="M457.354 850.352L508.824 850.352" stroke="#6349FF" stroke-width="4.41177" stroke-linejoin="bevel"/>
<path d="M442.646 849.648L391.176 849.648" stroke="#6349FF" stroke-width="4.41177" stroke-linejoin="bevel"/>
</g>
<g clip-path="url(#clip11_1433_47437)">
<circle cx="50" cy="50" r="44.8529" transform="matrix(4.55315e-08 -1 -1 -4.55315e-08 1500 700)" stroke="black" stroke-width="10.2941"/>
<path d="M1457.35 649.648L1508.82 649.648" stroke="#6349FF" stroke-width="4.41177" stroke-linejoin="bevel"/>
<path d="M1444.55 645.051L1408.15 608.656" stroke="#6349FF" stroke-width="4.41177" stroke-linejoin="bevel"/>
</g>
<g clip-path="url(#clip12_1433_47437)">
<circle cx="50" cy="50" r="44.8529" transform="matrix(4.55315e-08 -1 -1 -4.55315e-08 1500 901)" stroke="black" stroke-width="10.2941"/>
<path d="M1457.35 850.648L1508.82 850.648" stroke="#6349FF" stroke-width="4.41177" stroke-linejoin="bevel"/>
<path d="M1444.55 846.051L1408.15 809.656" stroke="#6349FF" stroke-width="4.41177" stroke-linejoin="bevel"/>
</g>
<g clip-path="url(#clip13_1433_47437)">
<circle cx="50" cy="50" r="44.8529" transform="matrix(-4.55315e-08 1 1 4.55315e-08 1500 600)" stroke="black" stroke-width="10.2941"/>
<path d="M1542.65 650.352L1491.18 650.352" stroke="#6349FF" stroke-width="4.41177" stroke-linejoin="bevel"/>
<path d="M1555.45 654.949L1591.85 691.344" stroke="#6349FF" stroke-width="4.41177" stroke-linejoin="bevel"/>
<path d="M1550.35 642.646L1550.35 591.176" stroke="#6349FF" stroke-width="4.41177" stroke-linejoin="bevel"/>
</g>
<g clip-path="url(#clip14_1433_47437)">
<circle cx="351" cy="850" r="44.8529" transform="rotate(180 351 850)" stroke="black" stroke-width="10.2941"/>
<path d="M358.354 850.352L409.824 850.352" stroke="#6349FF" stroke-width="4.41177" stroke-linejoin="bevel"/>
<path d="M351.354 842.648L351.354 791.178" stroke="#6349FF" stroke-width="4.41177" stroke-linejoin="bevel"/>
<path d="M346.051 844.551L309.656 808.156" stroke="#6349FF" stroke-width="4.41177" stroke-linejoin="bevel"/>
<path d="M356.45 845.051L392.846 808.656" stroke="#6349FF" stroke-width="4.41177" stroke-linejoin="bevel"/>
<path d="M345.549 854.949L309.154 891.344" stroke="#6349FF" stroke-width="4.41177" stroke-linejoin="bevel"/>
</g>
<g clip-path="url(#clip15_1433_47437)">
<circle cx="1250" cy="250" r="44.8529" stroke="black" stroke-width="10.2941"/>
<path d="M1242.65 249.646L1191.18 249.646" stroke="#6349FF" stroke-width="4.41177" stroke-linejoin="bevel"/>
<path d="M1254.95 255.449L1291.35 291.844" stroke="#6349FF" stroke-width="4.41177" stroke-linejoin="bevel"/>
<path d="M1255.45 245.051L1291.85 208.656" stroke="#6349FF" stroke-width="4.41177" stroke-linejoin="bevel"/>
</g>
<g clip-path="url(#clip16_1433_47437)">
<circle cx="1350" cy="150" r="44.8529" transform="rotate(90 1350 150)" stroke="black" stroke-width="10.2941"/>
<path d="M1350.35 142.646L1350.35 91.1758" stroke="#6349FF" stroke-width="4.41177" stroke-linejoin="bevel"/>
<path d="M1344.55 154.949L1308.16 191.344" stroke="#6349FF" stroke-width="4.41177" stroke-linejoin="bevel"/>
<path d="M1354.95 155.45L1391.34 191.846" stroke="#6349FF" stroke-width="4.41177" stroke-linejoin="bevel"/>
</g>
<g clip-path="url(#clip17_1433_47437)">
<circle cx="1050" cy="350" r="44.8529" transform="rotate(180 1050 350)" stroke="black" stroke-width="10.2941"/>
<path d="M1057.35 350.352L1108.82 350.352" stroke="#6349FF" stroke-width="4.41177" stroke-linejoin="bevel"/>
<path d="M1050.35 342.648L1050.35 291.178" stroke="#6349FF" stroke-width="4.41177" stroke-linejoin="bevel"/>
<path d="M1049.65 357.354L1049.65 408.824" stroke="#6349FF" stroke-width="4.41177" stroke-linejoin="bevel"/>
<path d="M1054.95 355.449L1091.34 391.844" stroke="#6349FF" stroke-width="4.41177" stroke-linejoin="bevel"/>
<path d="M1055.45 345.051L1091.85 308.656" stroke="#6349FF" stroke-width="4.41177" stroke-linejoin="bevel"/>
<path d="M1042.65 349.646L991.176 349.646" stroke="#6349FF" stroke-width="4.41177" stroke-linejoin="bevel"/>
</g>
<g clip-path="url(#clip18_1433_47437)">
<circle cx="250" cy="250" r="44.8529" transform="rotate(-180 250 250)" stroke="black" stroke-width="10.2941"/>
<path d="M257.354 250.354L308.824 250.354" stroke="#6349FF" stroke-width="4.41177" stroke-linejoin="bevel"/>
<path d="M245.051 244.551L208.656 208.156" stroke="#6349FF" stroke-width="4.41177" stroke-linejoin="bevel"/>
<path d="M244.55 254.949L208.154 291.344" stroke="#6349FF" stroke-width="4.41177" stroke-linejoin="bevel"/>
</g>
<g clip-path="url(#clip19_1433_47437)">
<circle cx="150" cy="650" r="44.8529" transform="rotate(-90 150 650)" stroke="black" stroke-width="10.2941"/>
<path d="M149.646 657.354L149.646 708.824" stroke="#6349FF" stroke-width="4.41177" stroke-linejoin="bevel"/>
<path d="M157.354 650.352L208.824 650.352" stroke="#6349FF" stroke-width="4.41177" stroke-linejoin="bevel"/>
<path d="M142.646 649.648L91.1758 649.648" stroke="#6349FF" stroke-width="4.41177" stroke-linejoin="bevel"/>
<path d="M145.051 644.551L108.656 608.156" stroke="#6349FF" stroke-width="4.41177" stroke-linejoin="bevel"/>
</g>
<g clip-path="url(#clip20_1433_47437)">
<circle cx="50" cy="50" r="44.8529" transform="matrix(1 -8.56027e-08 -8.56027e-08 -1 1300 100)" stroke="black" stroke-width="10.2941"/>
<path d="M1342.65 35.6484L1291.18 35.6484" stroke="#6349FF" stroke-width="4.41177" stroke-linejoin="bevel"/>
<path d="M1342.65 78.6465L1291.18 78.6465" stroke="#6349FF" stroke-width="4.41177" stroke-linejoin="bevel"/>
<path d="M1342.65 91.7051L1291.18 91.7051" stroke="#6349FF" stroke-width="4.41177" stroke-linejoin="bevel"/>
<path d="M1342.65 20.9414L1291.18 20.9414" stroke="#6349FF" stroke-width="4.41177" stroke-linejoin="bevel"/>
<path d="M1342.65 63.9414L1291.18 63.9414" stroke="#6349FF" stroke-width="4.41177" stroke-linejoin="bevel"/>
<path d="M1342.65 7.70703L1291.18 7.70703" stroke="#6349FF" stroke-width="4.41177" stroke-linejoin="bevel"/>
<path d="M1342.65 50.7051L1291.18 50.7051" stroke="#6349FF" stroke-width="4.41177" stroke-linejoin="bevel"/>
<path d="M1357.35 20.9414L1408.82 20.9414" stroke="#6349FF" stroke-width="4.41177" stroke-linejoin="bevel"/>
<path d="M1357.35 63.9414L1408.82 63.9414" stroke="#6349FF" stroke-width="4.41177" stroke-linejoin="bevel"/>
<path d="M1357.35 7.70508L1408.82 7.70508" stroke="#6349FF" stroke-width="4.41177" stroke-linejoin="bevel"/>
<path d="M1357.35 50.7051L1408.82 50.7051" stroke="#6349FF" stroke-width="4.41177" stroke-linejoin="bevel"/>
</g>
</g>
<defs>
<clipPath id="clip0_1433_47437">
<rect width="100" height="100" fill="white" transform="translate(1200 300) rotate(-180)"/>
</clipPath>
<clipPath id="clip1_1433_47437">
<rect width="100" height="100" fill="white" transform="translate(1500 500)"/>
</clipPath>
<clipPath id="clip2_1433_47437">
<rect width="100" height="100" fill="white" transform="translate(1600 500)"/>
</clipPath>
<clipPath id="clip3_1433_47437">
<rect width="100" height="100" fill="white" transform="translate(500 800)"/>
</clipPath>
<clipPath id="clip4_1433_47437">
<rect width="100" height="100" fill="white" transform="translate(0 100)"/>
</clipPath>
<clipPath id="clip5_1433_47437">
<rect width="100" height="100" fill="white" transform="translate(900 400) rotate(-90)"/>
</clipPath>
<clipPath id="clip6_1433_47437">
<rect width="100" height="100" fill="white" transform="matrix(4.37114e-08 1 1 -4.37114e-08 1100 800)"/>
</clipPath>
<clipPath id="clip7_1433_47437">
<rect width="100" height="100" fill="white" transform="translate(1400 800) rotate(90)"/>
</clipPath>
<clipPath id="clip8_1433_47437">
<rect width="100" height="100" fill="white" transform="translate(1500 500) rotate(90)"/>
</clipPath>
<clipPath id="clip9_1433_47437">
<rect width="100" height="100" fill="white" transform="translate(1500 400) rotate(180)"/>
</clipPath>
<clipPath id="clip10_1433_47437">
<rect width="100" height="100" fill="white" transform="translate(400 900) rotate(-90)"/>
</clipPath>
<clipPath id="clip11_1433_47437">
<rect width="100" height="100" fill="white" transform="matrix(4.37114e-08 -1 -1 -4.37114e-08 1500 700)"/>
</clipPath>
<clipPath id="clip12_1433_47437">
<rect width="100" height="100" fill="white" transform="matrix(4.37114e-08 -1 -1 -4.37114e-08 1500 901)"/>
</clipPath>
<clipPath id="clip13_1433_47437">
<rect width="100" height="100" fill="white" transform="matrix(-4.37114e-08 1 1 4.37114e-08 1500 600)"/>
</clipPath>
<clipPath id="clip14_1433_47437">
<rect width="100" height="100" fill="white" transform="translate(401 900) rotate(180)"/>
</clipPath>
<clipPath id="clip15_1433_47437">
<rect width="100" height="100" fill="white" transform="translate(1200 200)"/>
</clipPath>
<clipPath id="clip16_1433_47437">
<rect width="100" height="100" fill="white" transform="translate(1400 100) rotate(90)"/>
</clipPath>
<clipPath id="clip17_1433_47437">
<rect width="100" height="100" fill="white" transform="translate(1100 400) rotate(180)"/>
</clipPath>
<clipPath id="clip18_1433_47437">
<rect width="100" height="100" fill="white" transform="translate(300 300) rotate(-180)"/>
</clipPath>
<clipPath id="clip19_1433_47437">
<rect width="100" height="100" fill="white" transform="translate(100 700) rotate(-90)"/>
</clipPath>
<clipPath id="clip20_1433_47437">
<rect width="100" height="100" fill="white" transform="matrix(1 -8.74228e-08 -8.74228e-08 -1 1300 100)"/>
</clipPath>
</defs>
</svg>
