<svg  viewBox="0 0 502 402" fill="none" xmlns="http://www.w3.org/2000/svg">
<g filter="url(#filter0_b_1108_10443)">
<g clip-path="url(#clip0_1108_10443)">
<rect x="1" y="1" width="500" height="400" fill="#1B1A1B" fill-opacity="0.3"/>
<rect x="1" y="1" width="500" height="400" fill="url(#paint0_radial_1108_10443)" fill-opacity="0.07"/>
<rect x="1" y="1" width="500" height="400" fill="url(#paint1_linear_1108_10443)" fill-opacity="0.15"/>
<rect x="405" y="101" width="64" height="64" rx="6" stroke="white" stroke-opacity="0.15"/>
<g clip-path="url(#clip1_1108_10443)">
<g clip-path="url(#clip2_1108_10443)">
<g clip-path="url(#clip3_1108_10443)">
<path d="M436.879 132.985L436.879 124.096" stroke="#4D39C6" stroke-width="1.5" stroke-linejoin="bevel"/>
<path d="M436.879 132.982L436.879 141.871" stroke="#4D39C6" stroke-width="1.5" stroke-linejoin="bevel"/>
<path d="M436.879 132.982L436.879 141.871" stroke="#4D39C6" stroke-width="1.5" stroke-linejoin="bevel"/>
<path d="M437.087 132.927L441.531 140.625" stroke="#4D39C6" stroke-width="1.5" stroke-linejoin="bevel"/>
<path d="M437.048 132.888L444.746 137.332" stroke="#4D39C6" stroke-width="1.5" stroke-linejoin="bevel"/>
<path d="M436.99 132.872L445.879 132.872" stroke="#4D39C6" stroke-width="1.5" stroke-linejoin="bevel"/>
<path d="M436.935 132.887L444.633 128.443" stroke="#4D39C6" stroke-width="1.5" stroke-linejoin="bevel"/>
<path d="M436.895 132.927L441.34 125.229" stroke="#4D39C6" stroke-width="1.5" stroke-linejoin="bevel"/>
<path d="M427.223 137.378L435 132.889L427.223 128.4" stroke="#4D39C6" stroke-width="1.5" stroke-linejoin="bevel"/>
</g>
</g>
</g>
<rect x="405" y="237" width="64" height="64" rx="6" stroke="white" stroke-opacity="0.15"/>
<g clip-path="url(#clip4_1108_10443)">
<g clip-path="url(#clip5_1108_10443)">
<g clip-path="url(#clip6_1108_10443)">
<path d="M436.879 268.985L436.879 260.096" stroke="#4D39C6" stroke-width="1.5" stroke-linejoin="bevel"/>
<path d="M436.879 268.982L436.879 277.871" stroke="#4D39C6" stroke-width="1.5" stroke-linejoin="bevel"/>
<path d="M436.879 268.982L436.879 277.871" stroke="#4D39C6" stroke-width="1.5" stroke-linejoin="bevel"/>
<path d="M437.087 268.927L441.531 276.625" stroke="#4D39C6" stroke-width="1.5" stroke-linejoin="bevel"/>
<path d="M437.048 268.888L444.746 273.332" stroke="#4D39C6" stroke-width="1.5" stroke-linejoin="bevel"/>
<path d="M436.99 268.872L445.879 268.872" stroke="#4D39C6" stroke-width="1.5" stroke-linejoin="bevel"/>
<path d="M436.935 268.887L444.633 264.443" stroke="#4D39C6" stroke-width="1.5" stroke-linejoin="bevel"/>
<path d="M436.895 268.927L441.34 261.229" stroke="#4D39C6" stroke-width="1.5" stroke-linejoin="bevel"/>
<path d="M427.223 273.378L435 268.889L427.223 264.4" stroke="#4D39C6" stroke-width="1.5" stroke-linejoin="bevel"/>
</g>
</g>
</g>
<rect x="343" y="176" width="52" height="1" fill="white" fill-opacity="0.03"/>
<rect x="343" y="181" width="52" height="1" fill="white" fill-opacity="0.03"/>
<rect x="343" y="186" width="52" height="1" fill="white" fill-opacity="0.03"/>
<rect x="343" y="191" width="52" height="1" fill="white" fill-opacity="0.03"/>
<rect x="343" y="196" width="52" height="1" fill="white" fill-opacity="0.03"/>
<rect x="343" y="201" width="52" height="1" fill="white" fill-opacity="0.03"/>
<rect x="343" y="206" width="52" height="1" fill="white" fill-opacity="0.03"/>
<rect x="343" y="211" width="52" height="1" fill="white" fill-opacity="0.03"/>
<rect x="343" y="216" width="52" height="1" fill="white" fill-opacity="0.03"/>
<rect x="343" y="221" width="52" height="1" fill="white" fill-opacity="0.03"/>
<rect x="343" y="226" width="52" height="1" fill="white" fill-opacity="0.03"/>
<rect x="343" y="231" width="52" height="1" fill="white" fill-opacity="0.03"/>
<rect x="343" y="236" width="52" height="1" fill="white" fill-opacity="0.03"/>
<rect x="343" y="241" width="52" height="1" fill="white" fill-opacity="0.03"/>
<rect x="343" y="246" width="52" height="1" fill="white" fill-opacity="0.03"/>
<rect x="343" y="251" width="52" height="1" fill="white" fill-opacity="0.03"/>
<rect x="343" y="256" width="52" height="1" fill="white" fill-opacity="0.03"/>
<rect x="343" y="261" width="52" height="1" fill="white" fill-opacity="0.03"/>
<rect x="343" y="266" width="52" height="1" fill="white" fill-opacity="0.03"/>
<rect x="343" y="271" width="52" height="1" fill="white" fill-opacity="0.03"/>
<rect x="343" y="276" width="52" height="1" fill="#4D39C6"/>
<rect x="343" y="281" width="52" height="1" fill="#4D39C6"/>
<rect x="343" y="286" width="52" height="1" fill="#4D39C6"/>
<rect x="343" y="291" width="52" height="1" fill="#4D39C6"/>
<rect x="343" y="296" width="52" height="1" fill="#4D39C6"/>
<rect x="343" y="301" width="52" height="1" fill="#4D39C6"/>
<rect x="343" y="306" width="52" height="1" fill="#4D39C6"/>
<rect x="343" y="311" width="52" height="1" fill="#4D39C6"/>
<rect x="343" y="316" width="52" height="1" fill="#4D39C6"/>
<rect x="343" y="321" width="52" height="1" fill="#4D39C6"/>
<rect x="343" y="326" width="52" height="1" fill="#4D39C6"/>
<rect x="343" y="331" width="52" height="1" fill="#4D39C6"/>
<rect x="343" y="336" width="52" height="1" fill="#4D39C6"/>
<rect x="343" y="341" width="52" height="1" fill="#4D39C6"/>
<rect x="343" y="346" width="52" height="1" fill="#4D39C6"/>
<rect x="343" y="351" width="52" height="1" fill="#4D39C6"/>
<rect x="343" y="356" width="52" height="1" fill="#4D39C6"/>
<rect x="343" y="361" width="52" height="1" fill="#4D39C6"/>
<rect x="269" y="169" width="64" height="200" rx="6" stroke="white" stroke-opacity="0.15"/>
<rect x="275" y="176" width="52" height="1" fill="white" fill-opacity="0.03"/>
<rect x="275" y="181" width="52" height="1" fill="white" fill-opacity="0.03"/>
<rect x="275" y="186" width="52" height="1" fill="white" fill-opacity="0.03"/>
<rect x="275" y="191" width="52" height="1" fill="white" fill-opacity="0.03"/>
<rect x="275" y="196" width="52" height="1" fill="white" fill-opacity="0.03"/>
<rect x="275" y="201" width="52" height="1" fill="white" fill-opacity="0.03"/>
<rect x="275" y="206" width="52" height="1" fill="white" fill-opacity="0.03"/>
<rect x="275" y="211" width="52" height="1" fill="white" fill-opacity="0.03"/>
<rect x="275" y="216" width="52" height="1" fill="white" fill-opacity="0.03"/>
<rect x="275" y="221" width="52" height="1" fill="white" fill-opacity="0.03"/>
<rect x="275" y="226" width="52" height="1" fill="white" fill-opacity="0.03"/>
<rect x="275" y="231" width="52" height="1" fill="white" fill-opacity="0.03"/>
<rect x="275" y="236" width="52" height="1" fill="white" fill-opacity="0.03"/>
<rect x="275" y="241" width="52" height="1" fill="white" fill-opacity="0.03"/>
<rect x="275" y="246" width="52" height="1" fill="white" fill-opacity="0.03"/>
<rect x="275" y="251" width="52" height="1" fill="white" fill-opacity="0.03"/>
<rect x="275" y="256" width="52" height="1" fill="white" fill-opacity="0.03"/>
<rect x="275" y="261" width="52" height="1" fill="#4D39C6"/>
<rect x="275" y="266" width="52" height="1" fill="#4D39C6"/>
<rect x="275" y="271" width="52" height="1" fill="#4D39C6"/>
<rect x="275" y="276" width="52" height="1" fill="#4D39C6"/>
<rect x="275" y="281" width="52" height="1" fill="#4D39C6"/>
<rect x="275" y="286" width="52" height="1" fill="#4D39C6"/>
<rect x="275" y="291" width="52" height="1" fill="#4D39C6"/>
<rect x="275" y="296" width="52" height="1" fill="#4D39C6"/>
<rect x="275" y="301" width="52" height="1" fill="#4D39C6"/>
<rect x="275" y="306" width="52" height="1" fill="#4D39C6"/>
<rect x="275" y="311" width="52" height="1" fill="#4D39C6"/>
<rect x="275" y="316" width="52" height="1" fill="#4D39C6"/>
<rect x="275" y="321" width="52" height="1" fill="#4D39C6"/>
<rect x="275" y="326" width="52" height="1" fill="#4D39C6"/>
<rect x="275" y="331" width="52" height="1" fill="#4D39C6"/>
<rect x="275" y="336" width="52" height="1" fill="#4D39C6"/>
<rect x="275" y="341" width="52" height="1" fill="#4D39C6"/>
<rect x="275" y="346" width="52" height="1" fill="#4D39C6"/>
<rect x="275" y="351" width="52" height="1" fill="#4D39C6"/>
<rect x="275" y="356" width="52" height="1" fill="#4D39C6"/>
<rect x="275" y="361" width="52" height="1" fill="#4D39C6"/>
<g clip-path="url(#clip7_1108_10443)">
<rect x="207" y="241" width="52" height="1" fill="white" fill-opacity="0.03"/>
<rect x="207" y="246" width="52" height="1" fill="white" fill-opacity="0.03"/>
<rect x="207" y="251" width="52" height="1" fill="white" fill-opacity="0.03"/>
<rect x="207" y="256" width="52" height="1" fill="white" fill-opacity="0.03"/>
<rect x="207" y="261" width="52" height="1" fill="white" fill-opacity="0.03"/>
<rect x="207" y="266" width="52" height="1" fill="white" fill-opacity="0.03"/>
<rect x="207" y="271" width="52" height="1" fill="white" fill-opacity="0.03"/>
<rect x="207" y="276" width="52" height="1" fill="white" fill-opacity="0.03"/>
<rect x="207" y="281" width="52" height="1" fill="#4D39C6"/>
<rect x="207" y="286" width="52" height="1" fill="#4D39C6"/>
<rect x="207" y="291" width="52" height="1" fill="#4D39C6"/>
<rect x="207" y="296" width="52" height="1" fill="#4D39C6"/>
<rect x="207" y="301" width="52" height="1" fill="#4D39C6"/>
<rect x="207" y="306" width="52" height="1" fill="#4D39C6"/>
<rect x="207" y="311" width="52" height="1" fill="#4D39C6"/>
<rect x="207" y="316" width="52" height="1" fill="#4D39C6"/>
<rect x="207" y="321" width="52" height="1" fill="#4D39C6"/>
<rect x="207" y="326" width="52" height="1" fill="#4D39C6"/>
<rect x="207" y="331" width="52" height="1" fill="#4D39C6"/>
<rect x="207" y="336" width="52" height="1" fill="#4D39C6"/>
<rect x="207" y="341" width="52" height="1" fill="#4D39C6"/>
<rect x="207" y="346" width="52" height="1" fill="#4D39C6"/>
<rect x="207" y="351" width="52" height="1" fill="#4D39C6"/>
<rect x="207" y="356" width="52" height="1" fill="#4D39C6"/>
<rect x="207" y="361" width="52" height="1" fill="#4D39C6"/>
</g>
<rect x="143" y="316" width="54" height="53" rx="6" stroke="white" stroke-opacity="0.15"/>
<rect x="201" y="237" width="64" height="132" rx="6" stroke="white" stroke-opacity="0.15"/>
<rect x="405" y="305" width="64" height="64" rx="6" stroke="white" stroke-opacity="0.15"/>
<rect x="337" y="169" width="64" height="200" rx="6" stroke="white" stroke-opacity="0.15"/>
<path d="M42.5 33V97H43.5V33H42.5ZM33.5 97V33H32.5V97H33.5Z" fill="white" fill-opacity="0.15"/>
<path d="M62.5 33V97H63.5V33H62.5ZM53.5 97V33H52.5V97H53.5Z" fill="white" fill-opacity="0.15"/>
<path d="M82.5 33V135H83.5V33H82.5ZM73.5 135V33H72.5V135H73.5Z" fill="white" fill-opacity="0.15"/>
<path d="M102.5 33V135H103.5V33H102.5ZM93.5 135V33H92.5V135H93.5Z" fill="white" fill-opacity="0.15"/>
<path d="M122.5 33V97H123.5V33H122.5ZM113.5 97V33H112.5V97H113.5Z" fill="white" fill-opacity="0.15"/>
<path d="M133 33.5H192V32.5H133V33.5ZM192 96.5H133V97.5H192V96.5Z" fill="white" fill-opacity="0.15"/>
<path d="M340 33.5H399V32.5H340V33.5ZM399 62.5H340V63.5H399V62.5Z" fill="white" fill-opacity="0.15"/>
<path d="M143 205.5H196V204.5H143V205.5ZM196 268.5H143V269.5H196V268.5Z" fill="white" fill-opacity="0.15"/>
<path d="M143 237.5H196V236.5H143V237.5ZM196 254.5H143V255.5H196V254.5Z" fill="white" fill-opacity="0.15"/>
<rect x="201" y="33" width="132" height="64" rx="6" stroke="white" stroke-opacity="0.15"/>
<rect x="405" y="33" width="64" height="64" rx="6" stroke="white" stroke-opacity="0.15"/>
<g filter="url(#filter1_bdi_1108_10443)">
<rect x="65" y="141" width="64" height="64" rx="12" fill="#F8F8F8" fill-opacity="0.01" shape-rendering="crispEdges"/>
<rect x="65.75" y="141.75" width="62.5" height="62.5" rx="11.25" stroke="white" stroke-opacity="0.15" stroke-width="1.5"/>
<g filter="url(#filter2_i_1108_10443)">
<rect x="71" y="147" width="52" height="52" rx="6" fill="#F8F8F8" fill-opacity="0.01"/>
<g clip-path="url(#clip8_1108_10443)">
<g clip-path="url(#clip9_1108_10443)">
<g clip-path="url(#clip10_1108_10443)">
<path d="M96.8789 172.985L96.8789 164.096" stroke="#6349FF" stroke-width="1.5" stroke-linejoin="bevel"/>
<path d="M96.8789 172.982L96.8789 181.871" stroke="#6349FF" stroke-width="1.5" stroke-linejoin="bevel"/>
<path d="M96.8789 172.982L96.8789 181.871" stroke="#6349FF" stroke-width="1.5" stroke-linejoin="bevel"/>
<path d="M97.0868 172.927L101.531 180.625" stroke="#6349FF" stroke-width="1.5" stroke-linejoin="bevel"/>
<path d="M97.0481 172.888L104.746 177.332" stroke="#6349FF" stroke-width="1.5" stroke-linejoin="bevel"/>
<path d="M96.99 172.872L105.879 172.872" stroke="#6349FF" stroke-width="1.5" stroke-linejoin="bevel"/>
<path d="M96.9348 172.887L104.633 168.443" stroke="#6349FF" stroke-width="1.5" stroke-linejoin="bevel"/>
<path d="M96.8954 172.927L101.34 165.229" stroke="#6349FF" stroke-width="1.5" stroke-linejoin="bevel"/>
<path d="M87.2227 177.378L95.0004 172.889L87.2227 168.4" stroke="#6349FF" stroke-width="1.5" stroke-linejoin="bevel"/>
</g>
</g>
</g>
</g>
</g>
<path d="M33 269.5H133V268.5H33V269.5ZM133 368.5H33V369.5H133V368.5Z" fill="white" fill-opacity="0.15"/>
<path d="M34.164 302.44V301.432L38.82 299.872V299.728L34.164 298.168V297.16L39.18 298.888V300.712L34.164 302.44ZM52.3753 303.232C52.7193 303.232 53.0113 303.176 53.2513 303.064C53.4993 302.944 53.6993 302.788 53.8513 302.596C54.0113 302.396 54.1273 302.172 54.1993 301.924C54.2793 301.668 54.3193 301.4 54.3193 301.12V300.976H55.3273V301.12C55.3273 301.544 55.2633 301.944 55.1353 302.32C55.0073 302.688 54.8193 303.012 54.5713 303.292C54.3233 303.564 54.0153 303.78 53.6473 303.94C53.2793 304.092 52.8553 304.168 52.3753 304.168C51.4473 304.168 50.7233 303.876 50.2033 303.292C49.6833 302.708 49.4233 301.856 49.4233 300.736V298.864C49.4233 297.776 49.6833 296.932 50.2033 296.332C50.7233 295.732 51.4473 295.432 52.3753 295.432C52.8553 295.432 53.2793 295.512 53.6473 295.672C54.0153 295.824 54.3233 296.04 54.5713 296.32C54.8193 296.592 55.0073 296.916 55.1353 297.292C55.2633 297.66 55.3273 298.056 55.3273 298.48V298.624H54.3193V298.48C54.3113 298.208 54.2673 297.944 54.1873 297.688C54.1153 297.432 53.9993 297.208 53.8393 297.016C53.6873 296.816 53.4913 296.66 53.2513 296.548C53.0113 296.428 52.7193 296.368 52.3753 296.368C51.7273 296.368 51.2393 296.604 50.9113 297.076C50.5913 297.548 50.4313 298.168 50.4313 298.936V300.664C50.4313 301.488 50.5913 302.124 50.9113 302.572C51.2393 303.012 51.7273 303.232 52.3753 303.232ZM57.203 298.864C57.203 297.776 57.463 296.932 57.983 296.332C58.503 295.732 59.227 295.432 60.155 295.432C61.083 295.432 61.807 295.732 62.327 296.332C62.847 296.932 63.107 297.776 63.107 298.864V300.736C63.107 301.856 62.847 302.708 62.327 303.292C61.807 303.876 61.083 304.168 60.155 304.168C59.227 304.168 58.503 303.876 57.983 303.292C57.463 302.708 57.203 301.856 57.203 300.736V298.864ZM60.155 303.232C60.803 303.232 61.287 303.012 61.607 302.572C61.935 302.124 62.099 301.488 62.099 300.664V298.936C62.099 298.168 61.935 297.548 61.607 297.076C61.287 296.604 60.803 296.368 60.155 296.368C59.507 296.368 59.019 296.604 58.691 297.076C58.371 297.548 58.211 298.168 58.211 298.936V300.664C58.211 301.488 58.371 302.124 58.691 302.572C59.019 303.012 59.507 303.232 60.155 303.232ZM69.6266 303.568H69.7706V295.6H70.7786V304H68.7626L66.3386 296.032H66.1946V304H65.1866V295.6H67.2026L69.6266 303.568ZM72.8583 295.6H78.7623V296.536H76.3143V304H75.3063V296.536H72.8583V295.6ZM86.2659 304H85.2579V301.192C85.2579 300.984 85.2099 300.824 85.1139 300.712C85.0179 300.6 84.8499 300.544 84.6099 300.544H81.9939V304H80.9859V295.6H83.9859C84.4179 295.6 84.7939 295.664 85.1139 295.792C85.4339 295.912 85.6979 296.076 85.9059 296.284C86.1219 296.492 86.2819 296.736 86.3859 297.016C86.4979 297.288 86.5539 297.576 86.5539 297.88V298.24C86.5539 298.552 86.4659 298.864 86.2899 299.176C86.1219 299.488 85.8579 299.728 85.4979 299.896V300.04C85.7379 300.08 85.9259 300.176 86.0619 300.328C86.1979 300.48 86.2659 300.696 86.2659 300.976V304ZM81.9939 299.608H83.8659C84.4339 299.608 84.8539 299.488 85.1259 299.248C85.4059 299 85.5459 298.64 85.5459 298.168V297.952C85.5459 297.528 85.4059 297.188 85.1259 296.932C84.8539 296.668 84.4339 296.536 83.8659 296.536H81.9939V299.608ZM88.8016 295.6H94.1296V296.536H91.9696V303.064H94.1296V304H88.8016V303.064H90.9616V296.536H88.8016V295.6ZM96.3053 303.064H97.0253V296.536H96.3053V295.6H99.7013C100.101 295.6 100.453 295.656 100.757 295.768C101.069 295.88 101.329 296.032 101.537 296.224C101.753 296.416 101.913 296.648 102.017 296.92C102.129 297.184 102.185 297.472 102.185 297.784V297.928C102.185 298.16 102.149 298.372 102.077 298.564C102.005 298.756 101.905 298.928 101.777 299.08C101.649 299.232 101.497 299.364 101.321 299.476C101.153 299.58 100.969 299.66 100.769 299.716V299.86C101.169 299.972 101.505 300.188 101.777 300.508C102.049 300.82 102.185 301.204 102.185 301.66V301.804C102.185 302.116 102.129 302.408 102.017 302.68C101.913 302.944 101.753 303.176 101.537 303.376C101.329 303.568 101.069 303.72 100.757 303.832C100.453 303.944 100.101 304 99.7013 304H96.3053V303.064ZM98.0333 303.064H99.6293C100.101 303.064 100.485 302.948 100.781 302.716C101.077 302.476 101.225 302.148 101.225 301.732V301.66C101.225 301.228 101.085 300.888 100.805 300.64C100.525 300.384 100.145 300.256 99.6653 300.256H98.0333V303.064ZM98.0333 299.32H99.6653C100.145 299.32 100.525 299.196 100.805 298.948C101.085 298.7 101.225 298.36 101.225 297.928V297.856C101.225 297.448 101.077 297.128 100.781 296.896C100.485 296.656 100.101 296.536 99.6293 296.536H98.0333V299.32ZM105.249 295.6V301.168C105.249 301.848 105.405 302.364 105.717 302.716C106.037 303.06 106.505 303.232 107.121 303.232C107.737 303.232 108.201 303.06 108.513 302.716C108.833 302.364 108.993 301.848 108.993 301.168V295.6H110.001V301.168C110.001 302.144 109.745 302.888 109.233 303.4C108.721 303.912 108.017 304.168 107.121 304.168C106.225 304.168 105.521 303.912 105.009 303.4C104.497 302.888 104.241 302.144 104.241 301.168V295.6H105.249ZM111.997 295.6H117.901V296.536H115.453V304H114.445V296.536H111.997V295.6ZM120.232 295.6H125.32V296.536H121.24V299.32H125.248V300.256H121.24V303.064H125.392V304H120.232V295.6ZM34.164 322.44V321.432L38.82 319.872V319.728L34.164 318.168V317.16L39.18 318.888V320.712L34.164 322.44ZM48.9793 315.6H50.0593L52.2553 323.568H52.3993L54.5953 315.6H55.6753L53.2993 324H51.3553L48.9793 315.6ZM61.955 321.912H58.355L57.743 324H56.663L59.207 315.6H61.103L63.647 324H62.567L61.955 321.912ZM60.083 316.032L58.631 320.976H61.679L60.227 316.032H60.083ZM65.3546 315.6H66.3626V323.064H70.7546V324H65.3546V315.6ZM73.1463 315.6H78.4743V316.536H76.3143V323.064H78.4743V324H73.1463V323.064H75.3063V316.536H73.1463V315.6ZM80.8419 315.6H83.6019C84.6419 315.6 85.4019 315.848 85.8819 316.344C86.3619 316.84 86.6019 317.632 86.6019 318.72V320.88C86.6019 321.968 86.3619 322.76 85.8819 323.256C85.4019 323.752 84.6419 324 83.6019 324H80.8419V323.052H81.5619V316.536H80.8419V315.6ZM83.4579 323.064C83.8259 323.064 84.1419 323.028 84.4059 322.956C84.6779 322.884 84.9019 322.764 85.0779 322.596C85.2539 322.42 85.3819 322.188 85.4619 321.9C85.5499 321.612 85.5939 321.248 85.5939 320.808V318.792C85.5939 318.352 85.5499 317.988 85.4619 317.7C85.3819 317.412 85.2539 317.184 85.0779 317.016C84.9019 316.84 84.6779 316.716 84.4059 316.644C84.1419 316.572 83.8259 316.536 83.4579 316.536H82.5699V323.064H83.4579ZM93.2656 321.912H89.6656L89.0536 324H87.9736L90.5176 315.6H92.4136L94.9576 324H93.8776L93.2656 321.912ZM91.3936 316.032L89.9416 320.976H92.9896L91.5376 316.032H91.3936ZM96.3413 315.6H102.245V316.536H99.7973V324H98.7893V316.536H96.3413V315.6ZM104.577 315.6H109.665V316.536H105.585V319.32H109.593V320.256H105.585V323.064H109.737V324H104.577V315.6ZM34.164 342.44V341.432L38.82 339.872V339.728L34.164 338.168V337.16L39.18 338.888V340.712L34.164 342.44ZM50.6833 340.544V344H49.6753V335.6H52.6753C53.1073 335.6 53.4833 335.664 53.8033 335.792C54.1233 335.912 54.3873 336.076 54.5953 336.284C54.8113 336.492 54.9713 336.736 55.0753 337.016C55.1873 337.288 55.2433 337.576 55.2433 337.88V338.24C55.2433 338.544 55.1873 338.836 55.0753 339.116C54.9713 339.396 54.8113 339.644 54.5953 339.86C54.3793 340.068 54.1113 340.236 53.7913 340.364C53.4713 340.484 53.0993 340.544 52.6753 340.544H50.6833ZM50.6833 339.608H52.5553C53.6753 339.608 54.2353 339.128 54.2353 338.168V337.952C54.2353 337.528 54.0953 337.188 53.8153 336.932C53.5433 336.668 53.1233 336.536 52.5553 336.536H50.6833V339.608ZM62.783 344H61.775V341.192C61.775 340.984 61.727 340.824 61.631 340.712C61.535 340.6 61.367 340.544 61.127 340.544H58.511V344H57.503V335.6H60.503C60.935 335.6 61.311 335.664 61.631 335.792C61.951 335.912 62.215 336.076 62.423 336.284C62.639 336.492 62.799 336.736 62.903 337.016C63.015 337.288 63.071 337.576 63.071 337.88V338.24C63.071 338.552 62.983 338.864 62.807 339.176C62.639 339.488 62.375 339.728 62.015 339.896V340.04C62.255 340.08 62.443 340.176 62.579 340.328C62.715 340.48 62.783 340.696 62.783 340.976V344ZM58.511 339.608H60.383C60.951 339.608 61.371 339.488 61.643 339.248C61.923 339 62.063 338.64 62.063 338.168V337.952C62.063 337.528 61.923 337.188 61.643 336.932C61.371 336.668 60.951 336.536 60.383 336.536H58.511V339.608ZM65.0306 338.864C65.0306 337.776 65.2906 336.932 65.8106 336.332C66.3306 335.732 67.0546 335.432 67.9826 335.432C68.9106 335.432 69.6346 335.732 70.1546 336.332C70.6746 336.932 70.9346 337.776 70.9346 338.864V340.736C70.9346 341.856 70.6746 342.708 70.1546 343.292C69.6346 343.876 68.9106 344.168 67.9826 344.168C67.0546 344.168 66.3306 343.876 65.8106 343.292C65.2906 342.708 65.0306 341.856 65.0306 340.736V338.864ZM67.9826 343.232C68.6306 343.232 69.1146 343.012 69.4346 342.572C69.7626 342.124 69.9266 341.488 69.9266 340.664V338.936C69.9266 338.168 69.7626 337.548 69.4346 337.076C69.1146 336.604 68.6306 336.368 67.9826 336.368C67.3346 336.368 66.8466 336.604 66.5186 337.076C66.1986 337.548 66.0386 338.168 66.0386 338.936V340.664C66.0386 341.488 66.1986 342.124 66.5186 342.572C66.8466 343.012 67.3346 343.232 67.9826 343.232ZM73.2783 335.6H78.4383V336.536H74.2863V339.32H78.3663V340.256H74.2863V344H73.2783V335.6ZM80.9739 335.6H86.3019V336.536H84.1419V343.064H86.3019V344H80.9739V343.064H83.1339V336.536H80.9739V335.6ZM88.5136 335.6H94.4176V336.536H91.9696V344H90.9616V336.536H88.5136V335.6Z" fill="white"/>
</g>
<rect x="1" y="1" width="500" height="400" stroke="url(#paint2_radial_1108_10443)" stroke-opacity="0.2"/>
<rect x="1" y="1" width="500" height="400" stroke="black" stroke-opacity="0.2"/>
</g>
<defs>
<filter id="filter0_b_1108_10443" x="-41.5" y="-41.5" width="585" height="485" filterUnits="userSpaceOnUse" color-interpolation-filters="sRGB">
<feFlood flood-opacity="0" result="BackgroundImageFix"/>
<feGaussianBlur in="BackgroundImageFix" stdDeviation="21"/>
<feComposite in2="SourceAlpha" operator="in" result="effect1_backgroundBlur_1108_10443"/>
<feBlend mode="normal" in="SourceGraphic" in2="effect1_backgroundBlur_1108_10443" result="shape"/>
</filter>
<filter id="filter1_bdi_1108_10443" x="28" y="104" width="138" height="141" filterUnits="userSpaceOnUse" color-interpolation-filters="sRGB">
<feFlood flood-opacity="0" result="BackgroundImageFix"/>
<feGaussianBlur in="BackgroundImageFix" stdDeviation="18.5"/>
<feComposite in2="SourceAlpha" operator="in" result="effect1_backgroundBlur_1108_10443"/>
<feColorMatrix in="SourceAlpha" type="matrix" values="0 0 0 0 0 0 0 0 0 0 0 0 0 0 0 0 0 0 127 0" result="hardAlpha"/>
<feMorphology radius="16" operator="erode" in="SourceAlpha" result="effect2_dropShadow_1108_10443"/>
<feOffset dy="32"/>
<feGaussianBlur stdDeviation="12"/>
<feComposite in2="hardAlpha" operator="out"/>
<feColorMatrix type="matrix" values="0 0 0 0 0.267974 0 0 0 0 0.214919 0 0 0 0 0.855664 0 0 0 0.5 0"/>
<feBlend mode="multiply" in2="effect1_backgroundBlur_1108_10443" result="effect2_dropShadow_1108_10443"/>
<feBlend mode="normal" in="SourceGraphic" in2="effect2_dropShadow_1108_10443" result="shape"/>
<feColorMatrix in="SourceAlpha" type="matrix" values="0 0 0 0 0 0 0 0 0 0 0 0 0 0 0 0 0 0 127 0" result="hardAlpha"/>
<feOffset/>
<feGaussianBlur stdDeviation="1"/>
<feComposite in2="hardAlpha" operator="arithmetic" k2="-1" k3="1"/>
<feColorMatrix type="matrix" values="0 0 0 0 0.972549 0 0 0 0 0.972549 0 0 0 0 0.972549 0 0 0 0.25 0"/>
<feBlend mode="normal" in2="shape" result="effect3_innerShadow_1108_10443"/>
</filter>
<filter id="filter2_i_1108_10443" x="71" y="147" width="52" height="52" filterUnits="userSpaceOnUse" color-interpolation-filters="sRGB">
<feFlood flood-opacity="0" result="BackgroundImageFix"/>
<feBlend mode="normal" in="SourceGraphic" in2="BackgroundImageFix" result="shape"/>
<feColorMatrix in="SourceAlpha" type="matrix" values="0 0 0 0 0 0 0 0 0 0 0 0 0 0 0 0 0 0 127 0" result="hardAlpha"/>
<feOffset/>
<feGaussianBlur stdDeviation="4"/>
<feComposite in2="hardAlpha" operator="arithmetic" k2="-1" k3="1"/>
<feColorMatrix type="matrix" values="0 0 0 0 0.972549 0 0 0 0 0.972549 0 0 0 0 0.972549 0 0 0 0.25 0"/>
<feBlend mode="normal" in2="shape" result="effect1_innerShadow_1108_10443"/>
</filter>
<radialGradient id="paint0_radial_1108_10443" cx="0" cy="0" r="1" gradientUnits="userSpaceOnUse" gradientTransform="translate(94 68) rotate(44.5731) scale(474.482 593.102)">
<stop stop-color="white"/>
<stop offset="1" stop-color="white" stop-opacity="0"/>
</radialGradient>
<linearGradient id="paint1_linear_1108_10443" x1="251" y1="0.999995" x2="398" y2="417" gradientUnits="userSpaceOnUse">
<stop stop-color="#6349FF" stop-opacity="0"/>
<stop offset="1" stop-color="#6349FF" stop-opacity="0.2"/>
</linearGradient>
<radialGradient id="paint2_radial_1108_10443" cx="0" cy="0" r="1" gradientUnits="userSpaceOnUse" gradientTransform="translate(1 1) rotate(57.9946) scale(471.699 529.999)">
<stop stop-color="white"/>
<stop offset="1" stop-color="white" stop-opacity="0.2"/>
</radialGradient>
<clipPath id="clip0_1108_10443">
<rect x="1" y="1" width="500" height="400" fill="white"/>
</clipPath>
<clipPath id="clip1_1108_10443">
<rect width="24" height="24" fill="white" transform="translate(425 121)"/>
</clipPath>
<clipPath id="clip2_1108_10443">
<rect width="24" height="24" fill="white" transform="translate(425 121)"/>
</clipPath>
<clipPath id="clip3_1108_10443">
<rect x="428.109" y="124.11" width="17.7778" height="17.7778" rx="8.88889" fill="white"/>
</clipPath>
<clipPath id="clip4_1108_10443">
<rect width="24" height="24" fill="white" transform="translate(425 257)"/>
</clipPath>
<clipPath id="clip5_1108_10443">
<rect width="24" height="24" fill="white" transform="translate(425 257)"/>
</clipPath>
<clipPath id="clip6_1108_10443">
<rect x="428.109" y="260.11" width="17.7778" height="17.7778" rx="8.88889" fill="white"/>
</clipPath>
<clipPath id="clip7_1108_10443">
<rect width="52" height="121" fill="white" transform="translate(207 241)"/>
</clipPath>
<clipPath id="clip8_1108_10443">
<rect width="24" height="24" fill="white" transform="translate(85 161)"/>
</clipPath>
<clipPath id="clip9_1108_10443">
<rect width="24" height="24" fill="white" transform="translate(85 161)"/>
</clipPath>
<clipPath id="clip10_1108_10443">
<rect x="88.1094" y="164.11" width="17.7778" height="17.7778" rx="8.88889" fill="white"/>
</clipPath>
</defs>
</svg>
