<svg  viewBox="0 0 502 402" fill="none" xmlns="http://www.w3.org/2000/svg">
<g filter="url(#filter0_b_1108_10611)">
<g clip-path="url(#clip0_1108_10611)">
<rect x="1" y="1" width="500" height="400" fill="#1B1A1B" fill-opacity="0.3"/>
<rect x="1" y="1" width="500" height="400" fill="url(#paint0_radial_1108_10611)" fill-opacity="0.07"/>
<rect x="1" y="1" width="500" height="400" fill="url(#paint1_linear_1108_10611)" fill-opacity="0.15"/>
<rect x="405" y="101" width="64" height="64" rx="6" stroke="white" stroke-opacity="0.15"/>
<g clip-path="url(#clip1_1108_10611)">
<g clip-path="url(#clip2_1108_10611)">
<g clip-path="url(#clip3_1108_10611)">
<path d="M436.879 132.985L436.879 124.096" stroke="#4D39C6" stroke-width="1.5" stroke-linejoin="bevel"/>
<path d="M436.879 132.982L436.879 141.871" stroke="#4D39C6" stroke-width="1.5" stroke-linejoin="bevel"/>
<path d="M436.879 132.982L436.879 141.871" stroke="#4D39C6" stroke-width="1.5" stroke-linejoin="bevel"/>
<path d="M437.087 132.927L441.531 140.625" stroke="#4D39C6" stroke-width="1.5" stroke-linejoin="bevel"/>
<path d="M437.048 132.888L444.746 137.332" stroke="#4D39C6" stroke-width="1.5" stroke-linejoin="bevel"/>
<path d="M436.99 132.872L445.879 132.872" stroke="#4D39C6" stroke-width="1.5" stroke-linejoin="bevel"/>
<path d="M436.935 132.887L444.633 128.443" stroke="#4D39C6" stroke-width="1.5" stroke-linejoin="bevel"/>
<path d="M436.895 132.927L441.34 125.229" stroke="#4D39C6" stroke-width="1.5" stroke-linejoin="bevel"/>
<path d="M427.223 137.378L435 132.889L427.223 128.4" stroke="#4D39C6" stroke-width="1.5" stroke-linejoin="bevel"/>
</g>
</g>
</g>
<rect x="405" y="169" width="64" height="64" rx="6" stroke="white" stroke-opacity="0.15"/>
<g clip-path="url(#clip4_1108_10611)">
<g clip-path="url(#clip5_1108_10611)">
<g clip-path="url(#clip6_1108_10611)">
<path d="M436.879 200.985L436.879 192.096" stroke="#4D39C6" stroke-width="1.5" stroke-linejoin="bevel"/>
<path d="M436.879 200.982L436.879 209.871" stroke="#4D39C6" stroke-width="1.5" stroke-linejoin="bevel"/>
<path d="M436.879 200.982L436.879 209.871" stroke="#4D39C6" stroke-width="1.5" stroke-linejoin="bevel"/>
<path d="M437.087 200.927L441.531 208.625" stroke="#4D39C6" stroke-width="1.5" stroke-linejoin="bevel"/>
<path d="M437.048 200.888L444.746 205.332" stroke="#4D39C6" stroke-width="1.5" stroke-linejoin="bevel"/>
<path d="M436.99 200.872L445.879 200.872" stroke="#4D39C6" stroke-width="1.5" stroke-linejoin="bevel"/>
<path d="M436.935 200.887L444.633 196.443" stroke="#4D39C6" stroke-width="1.5" stroke-linejoin="bevel"/>
<path d="M436.895 200.927L441.34 193.229" stroke="#4D39C6" stroke-width="1.5" stroke-linejoin="bevel"/>
<path d="M427.223 205.378L435 200.889L427.223 196.4" stroke="#4D39C6" stroke-width="1.5" stroke-linejoin="bevel"/>
</g>
</g>
</g>
<rect x="405" y="237" width="64" height="64" rx="6" stroke="white" stroke-opacity="0.15"/>
<g clip-path="url(#clip7_1108_10611)">
<g clip-path="url(#clip8_1108_10611)">
<g clip-path="url(#clip9_1108_10611)">
<path d="M436.879 268.985L436.879 260.096" stroke="#4D39C6" stroke-width="1.5" stroke-linejoin="bevel"/>
<path d="M436.879 268.982L436.879 277.871" stroke="#4D39C6" stroke-width="1.5" stroke-linejoin="bevel"/>
<path d="M436.879 268.982L436.879 277.871" stroke="#4D39C6" stroke-width="1.5" stroke-linejoin="bevel"/>
<path d="M437.087 268.927L441.531 276.625" stroke="#4D39C6" stroke-width="1.5" stroke-linejoin="bevel"/>
<path d="M437.048 268.888L444.746 273.332" stroke="#4D39C6" stroke-width="1.5" stroke-linejoin="bevel"/>
<path d="M436.99 268.872L445.879 268.872" stroke="#4D39C6" stroke-width="1.5" stroke-linejoin="bevel"/>
<path d="M436.935 268.887L444.633 264.443" stroke="#4D39C6" stroke-width="1.5" stroke-linejoin="bevel"/>
<path d="M436.895 268.927L441.34 261.229" stroke="#4D39C6" stroke-width="1.5" stroke-linejoin="bevel"/>
<path d="M427.223 273.378L435 268.889L427.223 264.4" stroke="#4D39C6" stroke-width="1.5" stroke-linejoin="bevel"/>
</g>
</g>
</g>
<rect x="143" y="305" width="54" height="64" rx="6" stroke="white" stroke-opacity="0.15"/>
<path d="M211.5 339V369H212.5V339H211.5ZM206.5 369V339H205.5V369H206.5Z" fill="white" fill-opacity="0.15"/>
<path d="M223.5 339V369H224.5V339H223.5ZM218.5 369V339H217.5V369H218.5Z" fill="white" fill-opacity="0.15"/>
<path d="M235.5 339V369H236.5V339H235.5ZM230.5 369V339H229.5V369H230.5Z" fill="white" fill-opacity="0.15"/>
<path d="M247.5 339V369H248.5V339H247.5ZM242.5 369V339H241.5V369H242.5Z" fill="white" fill-opacity="0.15"/>
<path d="M259.5 339V369H260.5V339H259.5ZM254.5 369V339H253.5V369H254.5Z" fill="white" fill-opacity="0.15"/>
<path d="M271.5 339V369H272.5V339H271.5ZM266.5 369V339H265.5V369H266.5Z" fill="white" fill-opacity="0.15"/>
<path d="M283.5 339V369H284.5V339H283.5ZM278.5 369V339H277.5V369H278.5Z" fill="white" fill-opacity="0.15"/>
<path d="M295.5 339V369H296.5V339H295.5ZM290.5 369V339H289.5V369H290.5Z" fill="white" fill-opacity="0.15"/>
<rect x="405" y="305" width="64" height="64" rx="6" stroke="white" stroke-opacity="0.15"/>
<rect x="305" y="305" width="96" height="64" rx="6" stroke="white" stroke-opacity="0.15"/>
<path d="M143 33.5H197V32.5H143V33.5ZM197 132.5H143V133.5H197V132.5Z" fill="white" fill-opacity="0.15"/>
<rect x="33" y="169" width="164" height="64" rx="6" stroke="white" stroke-opacity="0.15"/>
<rect x="143" y="237" width="54" height="64" rx="6" stroke="white" stroke-opacity="0.15"/>
<path d="M65 133L127 133" stroke="white" stroke-opacity="0.15" stroke-linecap="round"/>
<path d="M65 163L65 101" stroke="white" stroke-opacity="0.15" stroke-linecap="round"/>
<g filter="url(#filter1_b_1108_10611)">
<circle cx="65" cy="133" r="5" fill="#1B1B1E" fill-opacity="0.01"/>
<circle cx="65" cy="133" r="5" stroke="white" stroke-opacity="0.15"/>
</g>
<circle cx="65" cy="133" r="2" fill="#727272"/>
<rect x="143" y="173" width="56" height="1" transform="rotate(90 143 173)" fill="white" fill-opacity="0.1"/>
<rect x="139" y="173" width="56" height="1" transform="rotate(90 139 173)" fill="white" fill-opacity="0.1"/>
<rect x="135" y="173" width="56" height="1" transform="rotate(90 135 173)" fill="white" fill-opacity="0.1"/>
<rect x="131" y="173" width="56" height="1" transform="rotate(90 131 173)" fill="white" fill-opacity="0.1"/>
<rect x="127" y="173" width="56" height="1" transform="rotate(90 127 173)" fill="white" fill-opacity="0.1"/>
<rect x="123" y="173" width="56" height="1" transform="rotate(90 123 173)" fill="white" fill-opacity="0.1"/>
<rect x="119" y="173" width="56" height="1" transform="rotate(90 119 173)" fill="white" fill-opacity="0.1"/>
<rect x="115" y="173" width="56" height="1" transform="rotate(90 115 173)" fill="white" fill-opacity="0.1"/>
<rect x="111" y="173" width="56" height="1" transform="rotate(90 111 173)" fill="white" fill-opacity="0.1"/>
<rect x="107" y="173" width="56" height="1" transform="rotate(90 107 173)" fill="white" fill-opacity="0.1"/>
<rect x="103" y="173" width="56" height="1" transform="rotate(90 103 173)" fill="white" fill-opacity="0.1"/>
<rect x="99" y="173" width="56" height="1" transform="rotate(90 99 173)" fill="white" fill-opacity="0.1"/>
<rect x="95" y="173" width="56" height="1" transform="rotate(90 95 173)" fill="white" fill-opacity="0.1"/>
<rect x="91" y="173" width="56" height="1" transform="rotate(90 91 173)" fill="white" fill-opacity="0.1"/>
<rect x="87" y="173" width="56" height="1" transform="rotate(90 87 173)" fill="white" fill-opacity="0.1"/>
<rect x="83" y="173" width="56" height="1" transform="rotate(90 83 173)" fill="white" fill-opacity="0.1"/>
<rect x="79" y="173" width="56" height="1" transform="rotate(90 79 173)" fill="white" fill-opacity="0.1"/>
<rect x="75" y="173" width="56" height="1" transform="rotate(90 75 173)" fill="white" fill-opacity="0.1"/>
<rect x="71" y="173" width="56" height="1" transform="rotate(90 71 173)" fill="white" fill-opacity="0.1"/>
<rect x="67" y="173" width="56" height="1" transform="rotate(90 67 173)" fill="white" fill-opacity="0.1"/>
<rect x="63" y="173" width="56" height="1" transform="rotate(90 63 173)" fill="white" fill-opacity="0.1"/>
<rect x="59" y="173" width="56" height="1" transform="rotate(90 59 173)" fill="white" fill-opacity="0.1"/>
<rect x="55" y="173" width="56" height="1" transform="rotate(90 55 173)" fill="white" fill-opacity="0.1"/>
<rect x="51" y="173" width="56" height="1" transform="rotate(90 51 173)" fill="white" fill-opacity="0.1"/>
<rect x="47" y="173" width="56" height="1" transform="rotate(90 47 173)" fill="white" fill-opacity="0.1"/>
<rect x="43" y="173" width="56" height="1" transform="rotate(90 43 173)" fill="white" fill-opacity="0.1"/>
<rect x="39" y="173" width="56" height="1" transform="rotate(90 39 173)" fill="white" fill-opacity="0.1"/>
<rect x="33.5" y="33.5" width="95" height="63" rx="5.5" stroke="white" stroke-opacity="0.15"/>
<rect x="201" y="33" width="200" height="64" rx="6" stroke="white" stroke-opacity="0.15"/>
<rect x="405" y="33" width="64" height="64" rx="6" stroke="white" stroke-opacity="0.15"/>
<path d="M206 132.5C205.724 132.5 205.5 132.724 205.5 133C205.5 133.276 205.724 133.5 206 133.5V132.5ZM253.076 197.146L253.543 196.967L253.076 197.146ZM206 133.5H224.383V132.5H206V133.5ZM229.519 137.033L252.609 197.325L253.543 196.967L230.453 136.675L229.519 137.033ZM258.679 201.5H268V200.5H258.679V201.5ZM252.609 197.325C253.572 199.839 255.986 201.5 258.679 201.5V200.5C256.4 200.5 254.358 199.095 253.543 196.967L252.609 197.325ZM224.383 133.5C226.662 133.5 228.705 134.905 229.519 137.033L230.453 136.675C229.49 134.161 227.076 132.5 224.383 132.5V133.5Z" fill="white" fill-opacity="0.15"/>
<path d="M206 271.5C205.724 271.5 205.5 271.276 205.5 271C205.5 270.724 205.724 270.5 206 270.5V271.5ZM206 270.5H224.341V271.5H206V270.5ZM229.496 266.918L252.629 204.734L253.567 205.082L230.433 267.266L229.496 266.918ZM258.721 200.5H268V201.5H258.721V200.5ZM252.629 204.734C253.576 202.188 256.006 200.5 258.721 200.5V201.5C256.423 201.5 254.368 202.929 253.567 205.082L252.629 204.734ZM224.341 270.5C226.639 270.5 228.694 269.071 229.496 266.918L230.433 267.266C229.486 269.812 227.056 271.5 224.341 271.5V270.5Z" fill="white" fill-opacity="0.15"/>
<path d="M206 201H242" stroke="white" stroke-opacity="0.15" stroke-linecap="round"/>
<path d="M396 133H377.617C375.131 133 372.903 134.533 372.014 136.854L348.924 197.146C348.035 199.467 345.807 201 343.321 201H334" stroke="white" stroke-opacity="0.15" stroke-linecap="square"/>
<path d="M396 255H377.13C374.893 255 372.842 253.756 371.808 251.772L349.13 208.228C348.096 206.244 346.045 205 343.808 205H334" stroke="white" stroke-opacity="0.15" stroke-linecap="square"/>
<path d="M373.488 298.5L373.488 272.48C373.488 271.508 373.252 270.55 372.8 269.69L343.133 213.21C342.096 211.236 340.051 210 337.821 210H333.999" stroke="white" stroke-opacity="0.15" stroke-linecap="square"/>
<path d="M396 201H334" stroke="white" stroke-opacity="0.15" stroke-linecap="square"/>
<g filter="url(#filter2_bdi_1108_10611)">
<rect x="269" y="169" width="64" height="64" rx="12" fill="#F8F8F8" fill-opacity="0.01" shape-rendering="crispEdges"/>
<rect x="269.75" y="169.75" width="62.5" height="62.5" rx="11.25" stroke="white" stroke-opacity="0.15" stroke-width="1.5"/>
<g filter="url(#filter3_i_1108_10611)">
<rect x="275" y="175" width="52" height="52" rx="6" fill="#F8F8F8" fill-opacity="0.01"/>
<g clip-path="url(#clip10_1108_10611)">
<g clip-path="url(#clip11_1108_10611)">
<g clip-path="url(#clip12_1108_10611)">
<path d="M300.879 200.985L300.879 192.096" stroke="#6349FF" stroke-width="1.5" stroke-linejoin="bevel"/>
<path d="M300.879 200.982L300.879 209.871" stroke="#6349FF" stroke-width="1.5" stroke-linejoin="bevel"/>
<path d="M300.879 200.982L300.879 209.871" stroke="#6349FF" stroke-width="1.5" stroke-linejoin="bevel"/>
<path d="M301.087 200.927L305.531 208.625" stroke="#6349FF" stroke-width="1.5" stroke-linejoin="bevel"/>
<path d="M301.048 200.888L308.746 205.332" stroke="#6349FF" stroke-width="1.5" stroke-linejoin="bevel"/>
<path d="M300.99 200.872L309.879 200.872" stroke="#6349FF" stroke-width="1.5" stroke-linejoin="bevel"/>
<path d="M300.935 200.887L308.633 196.443" stroke="#6349FF" stroke-width="1.5" stroke-linejoin="bevel"/>
<path d="M300.895 200.927L305.34 193.229" stroke="#6349FF" stroke-width="1.5" stroke-linejoin="bevel"/>
<path d="M291.223 205.378L299 200.889L291.223 196.4" stroke="#6349FF" stroke-width="1.5" stroke-linejoin="bevel"/>
</g>
</g>
</g>
</g>
</g>
<path d="M33 269.5H133V268.5H33V269.5ZM133 368.5H33V369.5H133V368.5Z" fill="white" fill-opacity="0.15"/>
<path d="M34.164 302.44V301.432L38.82 299.872V299.728L34.164 298.168V297.16L39.18 298.888V300.712L34.164 302.44ZM49.5313 295.6H52.2913C53.3313 295.6 54.0913 295.848 54.5713 296.344C55.0513 296.84 55.2913 297.632 55.2913 298.72V300.88C55.2913 301.968 55.0513 302.76 54.5713 303.256C54.0913 303.752 53.3313 304 52.2913 304H49.5313V303.052H50.2513V296.536H49.5313V295.6ZM52.1473 303.064C52.5153 303.064 52.8313 303.028 53.0953 302.956C53.3673 302.884 53.5913 302.764 53.7673 302.596C53.9433 302.42 54.0713 302.188 54.1513 301.9C54.2393 301.612 54.2833 301.248 54.2833 300.808V298.792C54.2833 298.352 54.2393 297.988 54.1513 297.7C54.0713 297.412 53.9433 297.184 53.7673 297.016C53.5913 296.84 53.3673 296.716 53.0953 296.644C52.8313 296.572 52.5153 296.536 52.1473 296.536H51.2593V303.064H52.1473ZM57.611 295.6H62.699V296.536H58.619V299.32H62.627V300.256H58.619V303.064H62.771V304H57.611V295.6ZM66.3386 300.544V304H65.3306V295.6H68.3306C68.7626 295.6 69.1386 295.664 69.4586 295.792C69.7786 295.912 70.0426 296.076 70.2506 296.284C70.4666 296.492 70.6266 296.736 70.7306 297.016C70.8426 297.288 70.8986 297.576 70.8986 297.88V298.24C70.8986 298.544 70.8426 298.836 70.7306 299.116C70.6266 299.396 70.4666 299.644 70.2506 299.86C70.0346 300.068 69.7666 300.236 69.4466 300.364C69.1266 300.484 68.7546 300.544 68.3306 300.544H66.3386ZM66.3386 299.608H68.2106C69.3306 299.608 69.8906 299.128 69.8906 298.168V297.952C69.8906 297.528 69.7506 297.188 69.4706 296.932C69.1986 296.668 68.7786 296.536 68.2106 296.536H66.3386V299.608ZM73.1823 295.6H74.1903V303.064H78.5823V304H73.1823V295.6ZM80.6859 298.864C80.6859 297.776 80.9459 296.932 81.4659 296.332C81.9859 295.732 82.7099 295.432 83.6379 295.432C84.5659 295.432 85.2899 295.732 85.8099 296.332C86.3299 296.932 86.5899 297.776 86.5899 298.864V300.736C86.5899 301.856 86.3299 302.708 85.8099 303.292C85.2899 303.876 84.5659 304.168 83.6379 304.168C82.7099 304.168 81.9859 303.876 81.4659 303.292C80.9459 302.708 80.6859 301.856 80.6859 300.736V298.864ZM83.6379 303.232C84.2859 303.232 84.7699 303.012 85.0899 302.572C85.4179 302.124 85.5819 301.488 85.5819 300.664V298.936C85.5819 298.168 85.4179 297.548 85.0899 297.076C84.7699 296.604 84.2859 296.368 83.6379 296.368C82.9899 296.368 82.5019 296.604 82.1739 297.076C81.8539 297.548 81.6939 298.168 81.6939 298.936V300.664C81.6939 301.488 81.8539 302.124 82.1739 302.572C82.5019 303.012 82.9899 303.232 83.6379 303.232ZM90.9616 301.048H90.7456L88.1176 295.6H89.2456L91.3936 300.184H91.5376L93.6856 295.6H94.8136L92.1856 301.048H91.9696V304H90.9616V301.048ZM34.164 322.44V321.432L38.82 319.872V319.728L34.164 318.168V317.16L39.18 318.888V320.712L34.164 322.44ZM49.6633 315.6H54.9913V316.536H52.8313V323.064H54.9913V324H49.6633V323.064H51.8233V316.536H49.6633V315.6ZM61.799 323.568H61.943V315.6H62.951V324H60.935L58.511 316.032H58.367V324H57.359V315.6H59.375L61.799 323.568ZM65.0306 315.6H70.9346V316.536H68.4866V324H67.4786V316.536H65.0306V315.6ZM73.2663 315.6H78.3543V316.536H74.2743V319.32H78.2823V320.256H74.2743V323.064H78.4263V324H73.2663V315.6ZM82.8339 319.968H86.5779V324H85.6419V322.992H85.4979C85.3619 323.344 85.1219 323.628 84.7779 323.844C84.4339 324.06 84.0339 324.168 83.5779 324.168C82.6739 324.168 81.9619 323.876 81.4419 323.292C80.9299 322.708 80.6739 321.856 80.6739 320.736V318.864C80.6739 317.776 80.9339 316.932 81.4539 316.332C81.9739 315.732 82.6979 315.432 83.6259 315.432C84.1059 315.432 84.5299 315.512 84.8979 315.672C85.2659 315.824 85.5739 316.04 85.8219 316.32C86.0699 316.592 86.2579 316.916 86.3859 317.292C86.5139 317.66 86.5779 318.056 86.5779 318.48V318.624H85.5699V318.48C85.5699 318.208 85.5299 317.944 85.4499 317.688C85.3779 317.432 85.2619 317.208 85.1019 317.016C84.9499 316.816 84.7499 316.66 84.5019 316.548C84.2619 316.428 83.9699 316.368 83.6259 316.368C82.9779 316.368 82.4899 316.604 82.1619 317.076C81.8419 317.548 81.6819 318.168 81.6819 318.936V320.664C81.6819 321.488 81.8419 322.124 82.1619 322.572C82.4899 323.012 82.9859 323.232 83.6499 323.232C84.2499 323.232 84.7179 323.04 85.0539 322.656C85.3979 322.272 85.5699 321.736 85.5699 321.048V320.904H82.8339V319.968ZM94.0936 324H93.0856V321.192C93.0856 320.984 93.0376 320.824 92.9416 320.712C92.8456 320.6 92.6776 320.544 92.4376 320.544H89.8216V324H88.8136V315.6H91.8136C92.2456 315.6 92.6216 315.664 92.9416 315.792C93.2616 315.912 93.5256 316.076 93.7336 316.284C93.9496 316.492 94.1096 316.736 94.2136 317.016C94.3256 317.288 94.3816 317.576 94.3816 317.88V318.24C94.3816 318.552 94.2936 318.864 94.1176 319.176C93.9496 319.488 93.6856 319.728 93.3256 319.896V320.04C93.5656 320.08 93.7536 320.176 93.8896 320.328C94.0256 320.48 94.0936 320.696 94.0936 320.976V324ZM89.8216 319.608H91.6936C92.2616 319.608 92.6816 319.488 92.9536 319.248C93.2336 319 93.3736 318.64 93.3736 318.168V317.952C93.3736 317.528 93.2336 317.188 92.9536 316.932C92.6816 316.668 92.2616 316.536 91.6936 316.536H89.8216V319.608ZM101.093 321.912H97.4933L96.8813 324H95.8013L98.3453 315.6H100.241L102.785 324H101.705L101.093 321.912ZM99.2213 316.032L97.7693 320.976H100.817L99.3653 316.032H99.2213ZM104.169 315.6H110.073V316.536H107.625V324H106.617V316.536H104.169V315.6ZM112.405 315.6H117.493V316.536H113.413V319.32H117.421V320.256H113.413V323.064H117.565V324H112.405V315.6ZM34.164 342.44V341.432L38.82 339.872V339.728L34.164 338.168V337.16L39.18 338.888V340.712L34.164 342.44ZM49.6633 335.6H54.9913V336.536H52.8313V343.064H54.9913V344H49.6633V343.064H51.8233V336.536H49.6633V335.6ZM61.799 343.568H61.943V335.6H62.951V344H60.935L58.511 336.032H58.367V344H57.359V335.6H59.375L61.799 343.568ZM69.6266 343.568H69.7706V335.6H70.7786V344H68.7626L66.3386 336.032H66.1946V344H65.1866V335.6H67.2026L69.6266 343.568ZM72.8583 338.864C72.8583 337.776 73.1183 336.932 73.6383 336.332C74.1583 335.732 74.8823 335.432 75.8103 335.432C76.7383 335.432 77.4623 335.732 77.9823 336.332C78.5023 336.932 78.7623 337.776 78.7623 338.864V340.736C78.7623 341.856 78.5023 342.708 77.9823 343.292C77.4623 343.876 76.7383 344.168 75.8103 344.168C74.8823 344.168 74.1583 343.876 73.6383 343.292C73.1183 342.708 72.8583 341.856 72.8583 340.736V338.864ZM75.8103 343.232C76.4583 343.232 76.9423 343.012 77.2623 342.572C77.5903 342.124 77.7543 341.488 77.7543 340.664V338.936C77.7543 338.168 77.5903 337.548 77.2623 337.076C76.9423 336.604 76.4583 336.368 75.8103 336.368C75.1623 336.368 74.6743 336.604 74.3463 337.076C74.0263 337.548 73.8663 338.168 73.8663 338.936V340.664C73.8663 341.488 74.0263 342.124 74.3463 342.572C74.6743 343.012 75.1623 343.232 75.8103 343.232ZM80.2899 335.6H81.3699L83.5659 343.568H83.7099L85.9059 335.6H86.9859L84.6099 344H82.6659L80.2899 335.6ZM93.2656 341.912H89.6656L89.0536 344H87.9736L90.5176 335.6H92.4136L94.9576 344H93.8776L93.2656 341.912ZM91.3936 336.032L89.9416 340.976H92.9896L91.5376 336.032H91.3936ZM96.3413 335.6H102.245V336.536H99.7973V344H98.7893V336.536H96.3413V335.6ZM104.577 335.6H109.665V336.536H105.585V339.32H109.593V340.256H105.585V343.064H109.737V344H104.577V335.6Z" fill="white"/>
</g>
<rect x="1" y="1" width="500" height="400" stroke="url(#paint2_radial_1108_10611)" stroke-opacity="0.2"/>
<rect x="1" y="1" width="500" height="400" stroke="black" stroke-opacity="0.2"/>
</g>
<defs>
<filter id="filter0_b_1108_10611" x="-41.5" y="-41.5" width="585" height="485" filterUnits="userSpaceOnUse" color-interpolation-filters="sRGB">
<feFlood flood-opacity="0" result="BackgroundImageFix"/>
<feGaussianBlur in="BackgroundImageFix" stdDeviation="21"/>
<feComposite in2="SourceAlpha" operator="in" result="effect1_backgroundBlur_1108_10611"/>
<feBlend mode="normal" in="SourceGraphic" in2="effect1_backgroundBlur_1108_10611" result="shape"/>
</filter>
<filter id="filter1_b_1108_10611" x="24.5" y="92.5" width="81" height="81" filterUnits="userSpaceOnUse" color-interpolation-filters="sRGB">
<feFlood flood-opacity="0" result="BackgroundImageFix"/>
<feGaussianBlur in="BackgroundImageFix" stdDeviation="17.5"/>
<feComposite in2="SourceAlpha" operator="in" result="effect1_backgroundBlur_1108_10611"/>
<feBlend mode="normal" in="SourceGraphic" in2="effect1_backgroundBlur_1108_10611" result="shape"/>
</filter>
<filter id="filter2_bdi_1108_10611" x="232" y="132" width="138" height="141" filterUnits="userSpaceOnUse" color-interpolation-filters="sRGB">
<feFlood flood-opacity="0" result="BackgroundImageFix"/>
<feGaussianBlur in="BackgroundImageFix" stdDeviation="18.5"/>
<feComposite in2="SourceAlpha" operator="in" result="effect1_backgroundBlur_1108_10611"/>
<feColorMatrix in="SourceAlpha" type="matrix" values="0 0 0 0 0 0 0 0 0 0 0 0 0 0 0 0 0 0 127 0" result="hardAlpha"/>
<feMorphology radius="16" operator="erode" in="SourceAlpha" result="effect2_dropShadow_1108_10611"/>
<feOffset dy="32"/>
<feGaussianBlur stdDeviation="12"/>
<feComposite in2="hardAlpha" operator="out"/>
<feColorMatrix type="matrix" values="0 0 0 0 0.267974 0 0 0 0 0.214919 0 0 0 0 0.855664 0 0 0 0.5 0"/>
<feBlend mode="multiply" in2="effect1_backgroundBlur_1108_10611" result="effect2_dropShadow_1108_10611"/>
<feBlend mode="normal" in="SourceGraphic" in2="effect2_dropShadow_1108_10611" result="shape"/>
<feColorMatrix in="SourceAlpha" type="matrix" values="0 0 0 0 0 0 0 0 0 0 0 0 0 0 0 0 0 0 127 0" result="hardAlpha"/>
<feOffset/>
<feGaussianBlur stdDeviation="1"/>
<feComposite in2="hardAlpha" operator="arithmetic" k2="-1" k3="1"/>
<feColorMatrix type="matrix" values="0 0 0 0 0.972549 0 0 0 0 0.972549 0 0 0 0 0.972549 0 0 0 0.25 0"/>
<feBlend mode="normal" in2="shape" result="effect3_innerShadow_1108_10611"/>
</filter>
<filter id="filter3_i_1108_10611" x="275" y="175" width="52" height="52" filterUnits="userSpaceOnUse" color-interpolation-filters="sRGB">
<feFlood flood-opacity="0" result="BackgroundImageFix"/>
<feBlend mode="normal" in="SourceGraphic" in2="BackgroundImageFix" result="shape"/>
<feColorMatrix in="SourceAlpha" type="matrix" values="0 0 0 0 0 0 0 0 0 0 0 0 0 0 0 0 0 0 127 0" result="hardAlpha"/>
<feOffset/>
<feGaussianBlur stdDeviation="4"/>
<feComposite in2="hardAlpha" operator="arithmetic" k2="-1" k3="1"/>
<feColorMatrix type="matrix" values="0 0 0 0 0.972549 0 0 0 0 0.972549 0 0 0 0 0.972549 0 0 0 0.25 0"/>
<feBlend mode="normal" in2="shape" result="effect1_innerShadow_1108_10611"/>
</filter>
<radialGradient id="paint0_radial_1108_10611" cx="0" cy="0" r="1" gradientUnits="userSpaceOnUse" gradientTransform="translate(94 68) rotate(44.5731) scale(474.482 593.102)">
<stop stop-color="white"/>
<stop offset="1" stop-color="white" stop-opacity="0"/>
</radialGradient>
<linearGradient id="paint1_linear_1108_10611" x1="251" y1="0.999995" x2="398" y2="417" gradientUnits="userSpaceOnUse">
<stop stop-color="#6349FF" stop-opacity="0"/>
<stop offset="1" stop-color="#6349FF" stop-opacity="0.2"/>
</linearGradient>
<radialGradient id="paint2_radial_1108_10611" cx="0" cy="0" r="1" gradientUnits="userSpaceOnUse" gradientTransform="translate(1 1) rotate(57.9946) scale(471.699 529.999)">
<stop stop-color="white"/>
<stop offset="1" stop-color="white" stop-opacity="0.2"/>
</radialGradient>
<clipPath id="clip0_1108_10611">
<rect x="1" y="1" width="500" height="400" fill="white"/>
</clipPath>
<clipPath id="clip1_1108_10611">
<rect width="24" height="24" fill="white" transform="translate(425 121)"/>
</clipPath>
<clipPath id="clip2_1108_10611">
<rect width="24" height="24" fill="white" transform="translate(425 121)"/>
</clipPath>
<clipPath id="clip3_1108_10611">
<rect x="428.109" y="124.11" width="17.7778" height="17.7778" rx="8.88889" fill="white"/>
</clipPath>
<clipPath id="clip4_1108_10611">
<rect width="24" height="24" fill="white" transform="translate(425 189)"/>
</clipPath>
<clipPath id="clip5_1108_10611">
<rect width="24" height="24" fill="white" transform="translate(425 189)"/>
</clipPath>
<clipPath id="clip6_1108_10611">
<rect x="428.109" y="192.11" width="17.7778" height="17.7778" rx="8.88889" fill="white"/>
</clipPath>
<clipPath id="clip7_1108_10611">
<rect width="24" height="24" fill="white" transform="translate(425 257)"/>
</clipPath>
<clipPath id="clip8_1108_10611">
<rect width="24" height="24" fill="white" transform="translate(425 257)"/>
</clipPath>
<clipPath id="clip9_1108_10611">
<rect x="428.109" y="260.11" width="17.7778" height="17.7778" rx="8.88889" fill="white"/>
</clipPath>
<clipPath id="clip10_1108_10611">
<rect width="24" height="24" fill="white" transform="translate(289 189)"/>
</clipPath>
<clipPath id="clip11_1108_10611">
<rect width="24" height="24" fill="white" transform="translate(289 189)"/>
</clipPath>
<clipPath id="clip12_1108_10611">
<rect x="292.109" y="192.11" width="17.7778" height="17.7778" rx="8.88889" fill="white"/>
</clipPath>
</defs>
</svg>
