<svg viewBox="0 0 60 60" fill="none" xmlns="http://www.w3.org/2000/svg">
<path fill-rule="evenodd" clip-rule="evenodd" d="M10.2683 23.5814L22.0936 16.754L26.0463 23.6002L23.9066 24.8356L23.9078 24.8366L14.3235 30.3701C14.2998 30.3829 14.2763 30.3959 14.2528 30.4092L14.221 30.4276L14.2209 30.4275C12.3333 31.52 11.6871 33.9355 12.7779 35.8248C13.8686 37.714 16.2834 38.3621 18.1733 37.2739L18.1741 37.2752L18.1755 37.2744L18.1746 37.2728L29.9999 30.4454L33.9525 37.2916L22.3146 44.0108C22.2529 44.0479 22.1907 44.0846 22.1281 44.1207C16.4565 47.3952 9.20425 45.452 5.92975 39.7804C2.65544 34.1091 4.59824 26.8574 10.269 23.5826L10.2683 23.5814Z" fill="#1DD3E1"/>
<path fill-rule="evenodd" clip-rule="evenodd" d="M32.14 29.2095C32.1401 29.21 32.1402 29.2105 32.1403 29.211L41.7555 23.6597C41.7786 23.6457 41.8019 23.6319 41.8254 23.6184C43.7159 22.5269 46.1333 23.1746 47.2248 25.0652C48.3162 26.9554 47.6688 29.3724 45.7789 30.4641L45.7793 30.4648L45.7792 30.4649L45.7778 30.4624L33.9525 37.2897L37.9052 44.1359L49.5003 37.4415C49.5773 37.3992 49.6541 37.356 49.7307 37.3118C55.4023 34.0373 57.3455 26.7851 54.071 21.1135C50.7968 15.4424 43.5456 13.499 37.8742 16.7722L37.8735 16.771L26.0482 23.5983L30.0009 30.4445L32.14 29.2095Z" fill="#0F8CFF"/>
</svg>
