<svg fill="none" xmlns="http://www.w3.org/2000/svg">
<g opacity="0.6">
<rect x="-50" width="80" height="1" fill="white" fill-opacity="0.15"/>
<rect x="50" width="80" height="1" fill="white" fill-opacity="0.15"/>
<rect x="40" y="90" width="80" height="1" transform="rotate(-90 40 90)" fill="white" fill-opacity="0.15"/>
<rect x="150" width="80" height="1" fill="white" fill-opacity="0.15"/>
<rect x="140" y="90" width="80" height="1" transform="rotate(-90 140 90)" fill="white" fill-opacity="0.15"/>
<rect x="250" width="80" height="1" fill="white" fill-opacity="0.15"/>
<rect x="240" y="90" width="80" height="1" transform="rotate(-90 240 90)" fill="white" fill-opacity="0.15"/>
<rect x="350" width="80" height="1" fill="white" fill-opacity="0.15"/>
<rect x="340" y="90" width="80" height="1" transform="rotate(-90 340 90)" fill="white" fill-opacity="0.15"/>
<rect x="450" width="80" height="1" fill="white" fill-opacity="0.15"/>
<rect x="440" y="90" width="80" height="1" transform="rotate(-90 440 90)" fill="white" fill-opacity="0.15"/>
<rect x="550" width="80" height="1" fill="white" fill-opacity="0.15"/>
<rect x="540" y="90" width="80" height="1" transform="rotate(-90 540 90)" fill="white" fill-opacity="0.15"/>
<rect x="650" width="80" height="1" fill="white" fill-opacity="0.15"/>
<rect x="640" y="90" width="80" height="1" transform="rotate(-90 640 90)" fill="white" fill-opacity="0.15"/>
<rect x="750" width="80" height="1" fill="white" fill-opacity="0.15"/>
<rect x="740" y="90" width="80" height="1" transform="rotate(-90 740 90)" fill="white" fill-opacity="0.15"/>
<rect x="850" width="80" height="1" fill="white" fill-opacity="0.15"/>
<rect x="840" y="90" width="80" height="1" transform="rotate(-90 840 90)" fill="white" fill-opacity="0.15"/>
<rect x="950" width="80" height="1" fill="white" fill-opacity="0.15"/>
<rect x="940" y="90" width="80" height="1" transform="rotate(-90 940 90)" fill="white" fill-opacity="0.15"/>
<rect x="1050" width="80" height="1" fill="white" fill-opacity="0.15"/>
<rect x="1040" y="90" width="80" height="1" transform="rotate(-90 1040 90)" fill="white" fill-opacity="0.15"/>
<rect x="1150" width="80" height="1" fill="white" fill-opacity="0.15"/>
<rect x="1140" y="90" width="80" height="1" transform="rotate(-90 1140 90)" fill="white" fill-opacity="0.15"/>
<rect x="1250" width="80" height="1" fill="white" fill-opacity="0.15"/>
<rect x="1240" y="90" width="80" height="1" transform="rotate(-90 1240 90)" fill="white" fill-opacity="0.15"/>
<rect x="1350" width="80" height="1" fill="white" fill-opacity="0.15"/>
<rect x="1340" y="90" width="80" height="1" transform="rotate(-90 1340 90)" fill="white" fill-opacity="0.15"/>
<rect x="1450" width="80" height="1" fill="white" fill-opacity="0.15"/>
<rect x="1440" y="90" width="80" height="1" transform="rotate(-90 1440 90)" fill="white" fill-opacity="0.15"/>
<rect x="1550" width="80" height="1" fill="white" fill-opacity="0.15"/>
<rect x="1540" y="90" width="80" height="1" transform="rotate(-90 1540 90)" fill="white" fill-opacity="0.15"/>
<rect x="1650" width="80" height="1" fill="white" fill-opacity="0.15"/>
<rect x="1640" y="90" width="80" height="1" transform="rotate(-90 1640 90)" fill="white" fill-opacity="0.15"/>
<rect x="-50" y="100" width="80" height="1" fill="white" fill-opacity="0.15"/>
<rect x="50" y="100" width="80" height="1" fill="white" fill-opacity="0.15"/>
<rect x="40" y="190" width="80" height="1" transform="rotate(-90 40 190)" fill="white" fill-opacity="0.15"/>
<rect x="150" y="100" width="80" height="1" fill="white" fill-opacity="0.15"/>
<rect x="140" y="190" width="80" height="1" transform="rotate(-90 140 190)" fill="white" fill-opacity="0.15"/>
<rect x="250" y="100" width="80" height="1" fill="white" fill-opacity="0.15"/>
<rect x="240" y="190" width="80" height="1" transform="rotate(-90 240 190)" fill="white" fill-opacity="0.15"/>
<rect x="350" y="100" width="80" height="1" fill="white" fill-opacity="0.15"/>
<rect x="340" y="190" width="80" height="1" transform="rotate(-90 340 190)" fill="white" fill-opacity="0.15"/>
<rect x="450" y="100" width="80" height="1" fill="white" fill-opacity="0.15"/>
<rect x="440" y="190" width="80" height="1" transform="rotate(-90 440 190)" fill="white" fill-opacity="0.15"/>
<rect x="550" y="100" width="80" height="1" fill="white" fill-opacity="0.15"/>
<rect x="540" y="190" width="80" height="1" transform="rotate(-90 540 190)" fill="white" fill-opacity="0.15"/>
<rect x="650" y="100" width="80" height="1" fill="white" fill-opacity="0.15"/>
<rect x="640" y="190" width="80" height="1" transform="rotate(-90 640 190)" fill="white" fill-opacity="0.15"/>
<rect x="750" y="100" width="80" height="1" fill="white" fill-opacity="0.15"/>
<rect x="740" y="190" width="80" height="1" transform="rotate(-90 740 190)" fill="white" fill-opacity="0.15"/>
<rect x="850" y="100" width="80" height="1" fill="white" fill-opacity="0.15"/>
<rect x="840" y="190" width="80" height="1" transform="rotate(-90 840 190)" fill="white" fill-opacity="0.15"/>
<rect x="950" y="100" width="80" height="1" fill="white" fill-opacity="0.15"/>
<rect x="940" y="190" width="80" height="1" transform="rotate(-90 940 190)" fill="white" fill-opacity="0.15"/>
<rect x="1050" y="100" width="80" height="1" fill="white" fill-opacity="0.15"/>
<rect x="1040" y="190" width="80" height="1" transform="rotate(-90 1040 190)" fill="white" fill-opacity="0.15"/>
<rect x="1150" y="100" width="80" height="1" fill="white" fill-opacity="0.15"/>
<rect x="1140" y="190" width="80" height="1" transform="rotate(-90 1140 190)" fill="white" fill-opacity="0.15"/>
<rect x="1250" y="100" width="80" height="1" fill="white" fill-opacity="0.15"/>
<rect x="1240" y="190" width="80" height="1" transform="rotate(-90 1240 190)" fill="white" fill-opacity="0.15"/>
<rect x="1350" y="100" width="80" height="1" fill="white" fill-opacity="0.15"/>
<rect x="1340" y="190" width="80" height="1" transform="rotate(-90 1340 190)" fill="white" fill-opacity="0.15"/>
<rect x="1450" y="100" width="80" height="1" fill="white" fill-opacity="0.15"/>
<rect x="1440" y="190" width="80" height="1" transform="rotate(-90 1440 190)" fill="white" fill-opacity="0.15"/>
<rect x="1550" y="100" width="80" height="1" fill="white" fill-opacity="0.15"/>
<rect x="1540" y="190" width="80" height="1" transform="rotate(-90 1540 190)" fill="white" fill-opacity="0.15"/>
<rect x="1650" y="100" width="80" height="1" fill="white" fill-opacity="0.15"/>
<rect x="1640" y="190" width="80" height="1" transform="rotate(-90 1640 190)" fill="white" fill-opacity="0.15"/>
<rect x="-50" y="200" width="80" height="1" fill="white" fill-opacity="0.15"/>
<rect x="50" y="200" width="80" height="1" fill="white" fill-opacity="0.15"/>
<rect x="40" y="290" width="80" height="1" transform="rotate(-90 40 290)" fill="white" fill-opacity="0.15"/>
<rect x="150" y="200" width="80" height="1" fill="white" fill-opacity="0.15"/>
<rect x="140" y="290" width="80" height="1" transform="rotate(-90 140 290)" fill="white" fill-opacity="0.15"/>
<rect x="250" y="200" width="80" height="1" fill="white" fill-opacity="0.15"/>
<rect x="240" y="290" width="80" height="1" transform="rotate(-90 240 290)" fill="white" fill-opacity="0.15"/>
<rect x="350" y="200" width="80" height="1" fill="white" fill-opacity="0.15"/>
<rect x="340" y="290" width="80" height="1" transform="rotate(-90 340 290)" fill="white" fill-opacity="0.15"/>
<rect x="450" y="200" width="80" height="1" fill="white" fill-opacity="0.15"/>
<rect x="440" y="290" width="80" height="1" transform="rotate(-90 440 290)" fill="white" fill-opacity="0.15"/>
<rect x="550" y="200" width="80" height="1" fill="white" fill-opacity="0.15"/>
<rect x="540" y="290" width="80" height="1" transform="rotate(-90 540 290)" fill="white" fill-opacity="0.15"/>
<rect x="650" y="200" width="80" height="1" fill="white" fill-opacity="0.15"/>
<rect x="640" y="290" width="80" height="1" transform="rotate(-90 640 290)" fill="white" fill-opacity="0.15"/>
<rect x="750" y="200" width="80" height="1" fill="white" fill-opacity="0.15"/>
<rect x="740" y="290" width="80" height="1" transform="rotate(-90 740 290)" fill="white" fill-opacity="0.15"/>
<rect x="850" y="200" width="80" height="1" fill="white" fill-opacity="0.15"/>
<rect x="840" y="290" width="80" height="1" transform="rotate(-90 840 290)" fill="white" fill-opacity="0.15"/>
<rect x="950" y="200" width="80" height="1" fill="white" fill-opacity="0.15"/>
<rect x="940" y="290" width="80" height="1" transform="rotate(-90 940 290)" fill="white" fill-opacity="0.15"/>
<rect x="1050" y="200" width="80" height="1" fill="white" fill-opacity="0.15"/>
<rect x="1040" y="290" width="80" height="1" transform="rotate(-90 1040 290)" fill="white" fill-opacity="0.15"/>
<rect x="1150" y="200" width="80" height="1" fill="white" fill-opacity="0.15"/>
<rect x="1140" y="290" width="80" height="1" transform="rotate(-90 1140 290)" fill="white" fill-opacity="0.15"/>
<rect x="1250" y="200" width="80" height="1" fill="white" fill-opacity="0.15"/>
<rect x="1240" y="290" width="80" height="1" transform="rotate(-90 1240 290)" fill="white" fill-opacity="0.15"/>
<rect x="1350" y="200" width="80" height="1" fill="white" fill-opacity="0.15"/>
<rect x="1340" y="290" width="80" height="1" transform="rotate(-90 1340 290)" fill="white" fill-opacity="0.15"/>
<rect x="1450" y="200" width="80" height="1" fill="white" fill-opacity="0.15"/>
<rect x="1440" y="290" width="80" height="1" transform="rotate(-90 1440 290)" fill="white" fill-opacity="0.15"/>
<rect x="1550" y="200" width="80" height="1" fill="white" fill-opacity="0.15"/>
<rect x="1540" y="290" width="80" height="1" transform="rotate(-90 1540 290)" fill="white" fill-opacity="0.15"/>
<rect x="1650" y="200" width="80" height="1" fill="white" fill-opacity="0.15"/>
<rect x="1640" y="290" width="80" height="1" transform="rotate(-90 1640 290)" fill="white" fill-opacity="0.15"/>
<rect x="-50" y="300" width="80" height="1" fill="white" fill-opacity="0.15"/>
<rect x="50" y="300" width="80" height="1" fill="white" fill-opacity="0.15"/>
<rect x="40" y="390" width="80" height="1" transform="rotate(-90 40 390)" fill="white" fill-opacity="0.15"/>
<rect x="150" y="300" width="80" height="1" fill="white" fill-opacity="0.15"/>
<rect x="140" y="390" width="80" height="1" transform="rotate(-90 140 390)" fill="white" fill-opacity="0.15"/>
<rect x="250" y="300" width="80" height="1" fill="white" fill-opacity="0.15"/>
<rect x="240" y="390" width="80" height="1" transform="rotate(-90 240 390)" fill="white" fill-opacity="0.15"/>
<rect x="350" y="300" width="80" height="1" fill="white" fill-opacity="0.15"/>
<rect x="340" y="390" width="80" height="1" transform="rotate(-90 340 390)" fill="white" fill-opacity="0.15"/>
<rect x="450" y="300" width="80" height="1" fill="white" fill-opacity="0.15"/>
<rect x="440" y="390" width="80" height="1" transform="rotate(-90 440 390)" fill="white" fill-opacity="0.15"/>
<rect x="550" y="300" width="80" height="1" fill="white" fill-opacity="0.15"/>
<rect x="540" y="390" width="80" height="1" transform="rotate(-90 540 390)" fill="white" fill-opacity="0.15"/>
<rect x="650" y="300" width="80" height="1" fill="white" fill-opacity="0.15"/>
<rect x="640" y="390" width="80" height="1" transform="rotate(-90 640 390)" fill="white" fill-opacity="0.15"/>
<rect x="750" y="300" width="80" height="1" fill="white" fill-opacity="0.15"/>
<rect x="740" y="390" width="80" height="1" transform="rotate(-90 740 390)" fill="white" fill-opacity="0.15"/>
<rect x="850" y="300" width="80" height="1" fill="white" fill-opacity="0.15"/>
<rect x="840" y="390" width="80" height="1" transform="rotate(-90 840 390)" fill="white" fill-opacity="0.15"/>
<rect x="950" y="300" width="80" height="1" fill="white" fill-opacity="0.15"/>
<rect x="940" y="390" width="80" height="1" transform="rotate(-90 940 390)" fill="white" fill-opacity="0.15"/>
<rect x="1050" y="300" width="80" height="1" fill="white" fill-opacity="0.15"/>
<rect x="1040" y="390" width="80" height="1" transform="rotate(-90 1040 390)" fill="white" fill-opacity="0.15"/>
<rect x="1150" y="300" width="80" height="1" fill="white" fill-opacity="0.15"/>
<rect x="1140" y="390" width="80" height="1" transform="rotate(-90 1140 390)" fill="white" fill-opacity="0.15"/>
<rect x="1250" y="300" width="80" height="1" fill="white" fill-opacity="0.15"/>
<rect x="1240" y="390" width="80" height="1" transform="rotate(-90 1240 390)" fill="white" fill-opacity="0.15"/>
<rect x="1350" y="300" width="80" height="1" fill="white" fill-opacity="0.15"/>
<rect x="1340" y="390" width="80" height="1" transform="rotate(-90 1340 390)" fill="white" fill-opacity="0.15"/>
<rect x="1450" y="300" width="80" height="1" fill="white" fill-opacity="0.15"/>
<rect x="1440" y="390" width="80" height="1" transform="rotate(-90 1440 390)" fill="white" fill-opacity="0.15"/>
<rect x="1550" y="300" width="80" height="1" fill="white" fill-opacity="0.15"/>
<rect x="1540" y="390" width="80" height="1" transform="rotate(-90 1540 390)" fill="white" fill-opacity="0.15"/>
<rect x="1650" y="300" width="80" height="1" fill="white" fill-opacity="0.15"/>
<rect x="1640" y="390" width="80" height="1" transform="rotate(-90 1640 390)" fill="white" fill-opacity="0.15"/>
<rect x="-50" y="400" width="80" height="1" fill="white" fill-opacity="0.15"/>
<rect x="50" y="400" width="80" height="1" fill="white" fill-opacity="0.15"/>
<rect x="40" y="490" width="80" height="1" transform="rotate(-90 40 490)" fill="white" fill-opacity="0.15"/>
<rect x="150" y="400" width="80" height="1" fill="white" fill-opacity="0.15"/>
<rect x="140" y="490" width="80" height="1" transform="rotate(-90 140 490)" fill="white" fill-opacity="0.15"/>
<rect x="250" y="400" width="80" height="1" fill="white" fill-opacity="0.15"/>
<rect x="240" y="490" width="80" height="1" transform="rotate(-90 240 490)" fill="white" fill-opacity="0.15"/>
<rect x="350" y="400" width="80" height="1" fill="white" fill-opacity="0.15"/>
<rect x="340" y="490" width="80" height="1" transform="rotate(-90 340 490)" fill="white" fill-opacity="0.15"/>
<rect x="450" y="400" width="80" height="1" fill="white" fill-opacity="0.15"/>
<rect x="440" y="490" width="80" height="1" transform="rotate(-90 440 490)" fill="white" fill-opacity="0.15"/>
<rect x="550" y="400" width="80" height="1" fill="white" fill-opacity="0.15"/>
<rect x="540" y="490" width="80" height="1" transform="rotate(-90 540 490)" fill="white" fill-opacity="0.15"/>
<rect x="650" y="400" width="80" height="1" fill="white" fill-opacity="0.15"/>
<rect x="640" y="490" width="80" height="1" transform="rotate(-90 640 490)" fill="white" fill-opacity="0.15"/>
<rect x="750" y="400" width="80" height="1" fill="white" fill-opacity="0.15"/>
<rect x="740" y="490" width="80" height="1" transform="rotate(-90 740 490)" fill="white" fill-opacity="0.15"/>
<rect x="850" y="400" width="80" height="1" fill="white" fill-opacity="0.15"/>
<rect x="840" y="490" width="80" height="1" transform="rotate(-90 840 490)" fill="white" fill-opacity="0.15"/>
<rect x="950" y="400" width="80" height="1" fill="white" fill-opacity="0.15"/>
<rect x="940" y="490" width="80" height="1" transform="rotate(-90 940 490)" fill="white" fill-opacity="0.15"/>
<rect x="1050" y="400" width="80" height="1" fill="white" fill-opacity="0.15"/>
<rect x="1040" y="490" width="80" height="1" transform="rotate(-90 1040 490)" fill="white" fill-opacity="0.15"/>
<rect x="1150" y="400" width="80" height="1" fill="white" fill-opacity="0.15"/>
<rect x="1140" y="490" width="80" height="1" transform="rotate(-90 1140 490)" fill="white" fill-opacity="0.15"/>
<rect x="1250" y="400" width="80" height="1" fill="white" fill-opacity="0.15"/>
<rect x="1240" y="490" width="80" height="1" transform="rotate(-90 1240 490)" fill="white" fill-opacity="0.15"/>
<rect x="1350" y="400" width="80" height="1" fill="white" fill-opacity="0.15"/>
<rect x="1340" y="490" width="80" height="1" transform="rotate(-90 1340 490)" fill="white" fill-opacity="0.15"/>
<rect x="1450" y="400" width="80" height="1" fill="white" fill-opacity="0.15"/>
<rect x="1440" y="490" width="80" height="1" transform="rotate(-90 1440 490)" fill="white" fill-opacity="0.15"/>
<rect x="1550" y="400" width="80" height="1" fill="white" fill-opacity="0.15"/>
<rect x="1540" y="490" width="80" height="1" transform="rotate(-90 1540 490)" fill="white" fill-opacity="0.15"/>
<rect x="1650" y="400" width="80" height="1" fill="white" fill-opacity="0.15"/>
<rect x="1640" y="490" width="80" height="1" transform="rotate(-90 1640 490)" fill="white" fill-opacity="0.15"/>
<rect x="-50" y="500" width="80" height="1" fill="white" fill-opacity="0.15"/>
<rect x="50" y="500" width="80" height="1" fill="white" fill-opacity="0.15"/>
<rect x="40" y="590" width="80" height="1" transform="rotate(-90 40 590)" fill="white" fill-opacity="0.15"/>
<rect x="150" y="500" width="80" height="1" fill="white" fill-opacity="0.15"/>
<rect x="140" y="590" width="80" height="1" transform="rotate(-90 140 590)" fill="white" fill-opacity="0.15"/>
<rect x="250" y="500" width="80" height="1" fill="white" fill-opacity="0.15"/>
<rect x="240" y="590" width="80" height="1" transform="rotate(-90 240 590)" fill="white" fill-opacity="0.15"/>
<rect x="350" y="500" width="80" height="1" fill="white" fill-opacity="0.15"/>
<rect x="340" y="590" width="80" height="1" transform="rotate(-90 340 590)" fill="white" fill-opacity="0.15"/>
<rect x="450" y="500" width="80" height="1" fill="white" fill-opacity="0.15"/>
<rect x="440" y="590" width="80" height="1" transform="rotate(-90 440 590)" fill="white" fill-opacity="0.15"/>
<rect x="550" y="500" width="80" height="1" fill="white" fill-opacity="0.15"/>
<rect x="540" y="590" width="80" height="1" transform="rotate(-90 540 590)" fill="white" fill-opacity="0.15"/>
<rect x="650" y="500" width="80" height="1" fill="white" fill-opacity="0.15"/>
<rect x="640" y="590" width="80" height="1" transform="rotate(-90 640 590)" fill="white" fill-opacity="0.15"/>
<rect x="750" y="500" width="80" height="1" fill="white" fill-opacity="0.15"/>
<rect x="740" y="590" width="80" height="1" transform="rotate(-90 740 590)" fill="white" fill-opacity="0.15"/>
<rect x="850" y="500" width="80" height="1" fill="white" fill-opacity="0.15"/>
<rect x="840" y="590" width="80" height="1" transform="rotate(-90 840 590)" fill="white" fill-opacity="0.15"/>
<rect x="950" y="500" width="80" height="1" fill="white" fill-opacity="0.15"/>
<rect x="940" y="590" width="80" height="1" transform="rotate(-90 940 590)" fill="white" fill-opacity="0.15"/>
<rect x="1050" y="500" width="80" height="1" fill="white" fill-opacity="0.15"/>
<rect x="1040" y="590" width="80" height="1" transform="rotate(-90 1040 590)" fill="white" fill-opacity="0.15"/>
<rect x="1150" y="500" width="80" height="1" fill="white" fill-opacity="0.15"/>
<rect x="1140" y="590" width="80" height="1" transform="rotate(-90 1140 590)" fill="white" fill-opacity="0.15"/>
<rect x="1250" y="500" width="80" height="1" fill="white" fill-opacity="0.15"/>
<rect x="1240" y="590" width="80" height="1" transform="rotate(-90 1240 590)" fill="white" fill-opacity="0.15"/>
<rect x="1350" y="500" width="80" height="1" fill="white" fill-opacity="0.15"/>
<rect x="1340" y="590" width="80" height="1" transform="rotate(-90 1340 590)" fill="white" fill-opacity="0.15"/>
<rect x="1450" y="500" width="80" height="1" fill="white" fill-opacity="0.15"/>
<rect x="1440" y="590" width="80" height="1" transform="rotate(-90 1440 590)" fill="white" fill-opacity="0.15"/>
<rect x="1550" y="500" width="80" height="1" fill="white" fill-opacity="0.15"/>
<rect x="1540" y="590" width="80" height="1" transform="rotate(-90 1540 590)" fill="white" fill-opacity="0.15"/>
<rect x="1650" y="500" width="80" height="1" fill="white" fill-opacity="0.15"/>
<rect x="1640" y="590" width="80" height="1" transform="rotate(-90 1640 590)" fill="white" fill-opacity="0.15"/>
<rect x="-50" y="600" width="80" height="1" fill="white" fill-opacity="0.15"/>
<rect x="50" y="600" width="80" height="1" fill="white" fill-opacity="0.15"/>
<rect x="40" y="690" width="80" height="1" transform="rotate(-90 40 690)" fill="white" fill-opacity="0.15"/>
<rect x="150" y="600" width="80" height="1" fill="white" fill-opacity="0.15"/>
<rect x="140" y="690" width="80" height="1" transform="rotate(-90 140 690)" fill="white" fill-opacity="0.15"/>
<rect x="250" y="600" width="80" height="1" fill="white" fill-opacity="0.15"/>
<rect x="240" y="690" width="80" height="1" transform="rotate(-90 240 690)" fill="white" fill-opacity="0.15"/>
<rect x="350" y="600" width="80" height="1" fill="white" fill-opacity="0.15"/>
<rect x="340" y="690" width="80" height="1" transform="rotate(-90 340 690)" fill="white" fill-opacity="0.15"/>
<rect x="450" y="600" width="80" height="1" fill="white" fill-opacity="0.15"/>
<rect x="440" y="690" width="80" height="1" transform="rotate(-90 440 690)" fill="white" fill-opacity="0.15"/>
<rect x="550" y="600" width="80" height="1" fill="white" fill-opacity="0.15"/>
<rect x="540" y="690" width="80" height="1" transform="rotate(-90 540 690)" fill="white" fill-opacity="0.15"/>
<rect x="650" y="600" width="80" height="1" fill="white" fill-opacity="0.15"/>
<rect x="640" y="690" width="80" height="1" transform="rotate(-90 640 690)" fill="white" fill-opacity="0.15"/>
<rect x="750" y="600" width="80" height="1" fill="white" fill-opacity="0.15"/>
<rect x="740" y="690" width="80" height="1" transform="rotate(-90 740 690)" fill="white" fill-opacity="0.15"/>
<rect x="850" y="600" width="80" height="1" fill="white" fill-opacity="0.15"/>
<rect x="840" y="690" width="80" height="1" transform="rotate(-90 840 690)" fill="white" fill-opacity="0.15"/>
<rect x="950" y="600" width="80" height="1" fill="white" fill-opacity="0.15"/>
<rect x="940" y="690" width="80" height="1" transform="rotate(-90 940 690)" fill="white" fill-opacity="0.15"/>
<rect x="1050" y="600" width="80" height="1" fill="white" fill-opacity="0.15"/>
<rect x="1040" y="690" width="80" height="1" transform="rotate(-90 1040 690)" fill="white" fill-opacity="0.15"/>
<rect x="1150" y="600" width="80" height="1" fill="white" fill-opacity="0.15"/>
<rect x="1140" y="690" width="80" height="1" transform="rotate(-90 1140 690)" fill="white" fill-opacity="0.15"/>
<rect x="1250" y="600" width="80" height="1" fill="white" fill-opacity="0.15"/>
<rect x="1240" y="690" width="80" height="1" transform="rotate(-90 1240 690)" fill="white" fill-opacity="0.15"/>
<rect x="1350" y="600" width="80" height="1" fill="white" fill-opacity="0.15"/>
<rect x="1340" y="690" width="80" height="1" transform="rotate(-90 1340 690)" fill="white" fill-opacity="0.15"/>
<rect x="1450" y="600" width="80" height="1" fill="white" fill-opacity="0.15"/>
<rect x="1440" y="690" width="80" height="1" transform="rotate(-90 1440 690)" fill="white" fill-opacity="0.15"/>
<rect x="1550" y="600" width="80" height="1" fill="white" fill-opacity="0.15"/>
<rect x="1540" y="690" width="80" height="1" transform="rotate(-90 1540 690)" fill="white" fill-opacity="0.15"/>
<rect x="1650" y="600" width="80" height="1" fill="white" fill-opacity="0.15"/>
<rect x="1640" y="690" width="80" height="1" transform="rotate(-90 1640 690)" fill="white" fill-opacity="0.15"/>
<rect x="-50" y="700" width="80" height="1" fill="white" fill-opacity="0.15"/>
<rect x="50" y="700" width="80" height="1" fill="white" fill-opacity="0.15"/>
<rect x="40" y="790" width="80" height="1" transform="rotate(-90 40 790)" fill="white" fill-opacity="0.15"/>
<rect x="150" y="700" width="80" height="1" fill="white" fill-opacity="0.15"/>
<rect x="140" y="790" width="80" height="1" transform="rotate(-90 140 790)" fill="white" fill-opacity="0.15"/>
<rect x="250" y="700" width="80" height="1" fill="white" fill-opacity="0.15"/>
<rect x="240" y="790" width="80" height="1" transform="rotate(-90 240 790)" fill="white" fill-opacity="0.15"/>
<rect x="350" y="700" width="80" height="1" fill="white" fill-opacity="0.15"/>
<rect x="340" y="790" width="80" height="1" transform="rotate(-90 340 790)" fill="white" fill-opacity="0.15"/>
<rect x="450" y="700" width="80" height="1" fill="white" fill-opacity="0.15"/>
<rect x="440" y="790" width="80" height="1" transform="rotate(-90 440 790)" fill="white" fill-opacity="0.15"/>
<rect x="550" y="700" width="80" height="1" fill="white" fill-opacity="0.15"/>
<rect x="540" y="790" width="80" height="1" transform="rotate(-90 540 790)" fill="white" fill-opacity="0.15"/>
<rect x="650" y="700" width="80" height="1" fill="white" fill-opacity="0.15"/>
<rect x="640" y="790" width="80" height="1" transform="rotate(-90 640 790)" fill="white" fill-opacity="0.15"/>
<rect x="750" y="700" width="80" height="1" fill="white" fill-opacity="0.15"/>
<rect x="740" y="790" width="80" height="1" transform="rotate(-90 740 790)" fill="white" fill-opacity="0.15"/>
<rect x="850" y="700" width="80" height="1" fill="white" fill-opacity="0.15"/>
<rect x="840" y="790" width="80" height="1" transform="rotate(-90 840 790)" fill="white" fill-opacity="0.15"/>
<rect x="950" y="700" width="80" height="1" fill="white" fill-opacity="0.15"/>
<rect x="940" y="790" width="80" height="1" transform="rotate(-90 940 790)" fill="white" fill-opacity="0.15"/>
<rect x="1050" y="700" width="80" height="1" fill="white" fill-opacity="0.15"/>
<rect x="1040" y="790" width="80" height="1" transform="rotate(-90 1040 790)" fill="white" fill-opacity="0.15"/>
<rect x="1150" y="700" width="80" height="1" fill="white" fill-opacity="0.15"/>
<rect x="1140" y="790" width="80" height="1" transform="rotate(-90 1140 790)" fill="white" fill-opacity="0.15"/>
<rect x="1250" y="700" width="80" height="1" fill="white" fill-opacity="0.15"/>
<rect x="1240" y="790" width="80" height="1" transform="rotate(-90 1240 790)" fill="white" fill-opacity="0.15"/>
<rect x="1350" y="700" width="80" height="1" fill="white" fill-opacity="0.15"/>
<rect x="1340" y="790" width="80" height="1" transform="rotate(-90 1340 790)" fill="white" fill-opacity="0.15"/>
<rect x="1450" y="700" width="80" height="1" fill="white" fill-opacity="0.15"/>
<rect x="1440" y="790" width="80" height="1" transform="rotate(-90 1440 790)" fill="white" fill-opacity="0.15"/>
<rect x="1550" y="700" width="80" height="1" fill="white" fill-opacity="0.15"/>
<rect x="1540" y="790" width="80" height="1" transform="rotate(-90 1540 790)" fill="white" fill-opacity="0.15"/>
<rect x="1650" y="700" width="80" height="1" fill="white" fill-opacity="0.15"/>
<rect x="1640" y="790" width="80" height="1" transform="rotate(-90 1640 790)" fill="white" fill-opacity="0.15"/>
<rect x="-50" y="800" width="80" height="1" fill="white" fill-opacity="0.15"/>
<rect x="50" y="800" width="80" height="1" fill="white" fill-opacity="0.15"/>
<rect x="40" y="890" width="80" height="1" transform="rotate(-90 40 890)" fill="white" fill-opacity="0.15"/>
<rect x="150" y="800" width="80" height="1" fill="white" fill-opacity="0.15"/>
<rect x="140" y="890" width="80" height="1" transform="rotate(-90 140 890)" fill="white" fill-opacity="0.15"/>
<rect x="250" y="800" width="80" height="1" fill="white" fill-opacity="0.15"/>
<rect x="240" y="890" width="80" height="1" transform="rotate(-90 240 890)" fill="white" fill-opacity="0.15"/>
<rect x="350" y="800" width="80" height="1" fill="white" fill-opacity="0.15"/>
<rect x="340" y="890" width="80" height="1" transform="rotate(-90 340 890)" fill="white" fill-opacity="0.15"/>
<rect x="450" y="800" width="80" height="1" fill="white" fill-opacity="0.15"/>
<rect x="440" y="890" width="80" height="1" transform="rotate(-90 440 890)" fill="white" fill-opacity="0.15"/>
<rect x="550" y="800" width="80" height="1" fill="white" fill-opacity="0.15"/>
<rect x="540" y="890" width="80" height="1" transform="rotate(-90 540 890)" fill="white" fill-opacity="0.15"/>
<rect x="650" y="800" width="80" height="1" fill="white" fill-opacity="0.15"/>
<rect x="640" y="890" width="80" height="1" transform="rotate(-90 640 890)" fill="white" fill-opacity="0.15"/>
<rect x="750" y="800" width="80" height="1" fill="white" fill-opacity="0.15"/>
<rect x="740" y="890" width="80" height="1" transform="rotate(-90 740 890)" fill="white" fill-opacity="0.15"/>
<rect x="850" y="800" width="80" height="1" fill="white" fill-opacity="0.15"/>
<rect x="840" y="890" width="80" height="1" transform="rotate(-90 840 890)" fill="white" fill-opacity="0.15"/>
<rect x="950" y="800" width="80" height="1" fill="white" fill-opacity="0.15"/>
<rect x="940" y="890" width="80" height="1" transform="rotate(-90 940 890)" fill="white" fill-opacity="0.15"/>
<rect x="1050" y="800" width="80" height="1" fill="white" fill-opacity="0.15"/>
<rect x="1040" y="890" width="80" height="1" transform="rotate(-90 1040 890)" fill="white" fill-opacity="0.15"/>
<rect x="1150" y="800" width="80" height="1" fill="white" fill-opacity="0.15"/>
<rect x="1140" y="890" width="80" height="1" transform="rotate(-90 1140 890)" fill="white" fill-opacity="0.15"/>
<rect x="1250" y="800" width="80" height="1" fill="white" fill-opacity="0.15"/>
<rect x="1240" y="890" width="80" height="1" transform="rotate(-90 1240 890)" fill="white" fill-opacity="0.15"/>
<rect x="1350" y="800" width="80" height="1" fill="white" fill-opacity="0.15"/>
<rect x="1340" y="890" width="80" height="1" transform="rotate(-90 1340 890)" fill="white" fill-opacity="0.15"/>
<rect x="1450" y="800" width="80" height="1" fill="white" fill-opacity="0.15"/>
<rect x="1440" y="890" width="80" height="1" transform="rotate(-90 1440 890)" fill="white" fill-opacity="0.15"/>
<rect x="1550" y="800" width="80" height="1" fill="white" fill-opacity="0.15"/>
<rect x="1540" y="890" width="80" height="1" transform="rotate(-90 1540 890)" fill="white" fill-opacity="0.15"/>
<rect x="1650" y="800" width="80" height="1" fill="white" fill-opacity="0.15"/>
<rect x="1640" y="890" width="80" height="1" transform="rotate(-90 1640 890)" fill="white" fill-opacity="0.15"/>
</g>
</svg>
