<svg width="37" height="36" viewBox="0 0 37 36" fill="none" xmlns="http://www.w3.org/2000/svg">
<path fill-rule="evenodd" clip-rule="evenodd" d="M17.2156 0.0618408L17.2154 17.9996L17.2156 35.9384C17.7101 35.9792 18.2103 36 18.7154 36C19.2206 36 19.7209 35.9792 20.2156 35.9383L20.2155 23.5978L26.3874 34.2878C27.2974 33.8584 28.1655 33.3551 28.9841 32.7854L22.8135 22.0977L33.5012 28.2682C34.0708 27.4496 34.5741 26.5814 35.0034 25.6714L24.3133 19.4995L36.6537 19.4993C36.6945 19.005 36.7153 18.505 36.7153 18.0001C36.7153 17.4947 36.6944 16.9942 36.6536 16.4993L24.3137 16.4995L35.0031 10.3281C34.5737 9.41816 34.0704 8.54999 33.5007 7.73138L22.8136 13.9016L28.9838 3.21458C28.1652 2.64498 27.297 2.14163 26.3871 1.71228L20.2155 12.4016L20.2156 0.0618698C19.7209 0.0210562 19.2206 0.000244141 18.7154 0.000244141C18.2103 0.000244141 17.7101 0.0210464 17.2156 0.0618408ZM3.12349 9.00039L16.4652 16.7005V19.2988L3.12308 26.9991C2.62288 26.1343 2.19256 25.224 1.83984 24.2759L12.7146 17.9996L1.84013 11.7235C2.19289 10.7755 2.62325 9.86519 3.12349 9.00039Z" fill="#6349FF"/>
</svg>
