<svg viewBox="0 0 60 60" fill="none" xmlns="http://www.w3.org/2000/svg">
<path d="M8 28H49V54H12C9.79086 54 8 52.2091 8 50V28Z" fill="#C5BFAF"/>
<mask id="mask0_3572_545744" style="mask-type:alpha" maskUnits="userSpaceOnUse" x="7" y="5" width="43" height="50">
<path d="M14.53 45H50V10C50 8.67392 49.4732 7.40215 48.5355 6.46447C47.5979 5.52678 46.3261 5 45 5H14.5C11.485 5 7 6.9975 7 12.5V47.5C7 53.0025 11.485 55 14.5 55H50V50H14.53C13.375 49.97 12 49.5125 12 47.5C12 45.4875 13.375 45.03 14.53 45Z" fill="#824805"/>
</mask>
<g mask="url(#mask0_3572_545744)">
<path d="M14.53 45H50V10C50 8.67392 49.4732 7.40215 48.5355 6.46447C47.5979 5.52678 46.3261 5 45 5H14.5C11.485 5 7 6.9975 7 12.5V47.5C7 53.0025 11.485 55 14.5 55H50V50H14.53C13.375 49.97 12 49.5125 12 47.5C12 45.4875 13.375 45.03 14.53 45Z" fill="#4F4F4F"/>
<path d="M7 47C7 43.134 10.134 40 14 40H50V55H7V47Z" fill="black" fill-opacity="0.21"/>
</g>
<path fill-rule="evenodd" clip-rule="evenodd" d="M32 16.625V11H28L28 16.625H22V20.625H28L28 33H32L32 20.625H38V16.625H32Z" fill="#D9D9D9"/>
</svg>
